<?xml version="1.0" encoding="UTF-8" standalone="no"?>
<!-- Created with Inkscape (http://www.inkscape.org/) -->

<svg
   xmlns:dc="http://purl.org/dc/elements/1.1/"
   xmlns:cc="http://creativecommons.org/ns#"
   xmlns:rdf="http://www.w3.org/1999/02/22-rdf-syntax-ns#"
   xmlns:svg="http://www.w3.org/2000/svg"
   xmlns="http://www.w3.org/2000/svg"
   xmlns:sodipodi="http://sodipodi.sourceforge.net/DTD/sodipodi-0.dtd"
   xmlns:inkscape="http://www.inkscape.org/namespaces/inkscape"
   width="400"
   height="400"
   id="svg2"
   version="1.1"
   inkscape:version="0.48.4 r9939"
   sodipodi:docname="hill0.svg"
   style="display:inline">
  <defs
     id="defs4" />
  <sodipodi:namedview
     id="base"
     pagecolor="#ffffff"
     bordercolor="#666666"
     borderopacity="1.0"
     inkscape:pageopacity="0.0"
     inkscape:pageshadow="2"
     inkscape:zoom="0.76181363"
     inkscape:cx="63.078352"
     inkscape:cy="251.38923"
     inkscape:document-units="px"
     inkscape:current-layer="g3983"
     showgrid="false"
     inkscape:window-width="1600"
     inkscape:window-height="878"
     inkscape:window-x="-8"
     inkscape:window-y="116"
     inkscape:window-maximized="1">
    <sodipodi:guide
       position="0,0"
       orientation="0,575"
       id="guide3710" />
    <sodipodi:guide
       position="566.51738,256.902"
       orientation="-320,0"
       id="guide3712" />
    <sodipodi:guide
       position="427.76607,199.94731"
       orientation="0,-575"
       id="guide3714" />
    <sodipodi:guide
       position="200.55321,401.10642"
       orientation="320,0"
       id="guide3716" />
  </sodipodi:namedview>
  <metadata
     id="metadata7">
    <rdf:RDF>
      <cc:Work
         rdf:about="">
        <dc:format>image/svg+xml</dc:format>
        <dc:type
           rdf:resource="http://purl.org/dc/dcmitype/StillImage" />
        <dc:title></dc:title>
      </cc:Work>
    </rdf:RDF>
  </metadata>
  <g
     inkscape:groupmode="layer"
     id="layer2"
     inkscape:label="Warstwa"
     style="display:inline"
     transform="translate(0,-65)">
    <g
       id="g4710"
       transform="translate(-1.7101537,63.408902)">
      <g
         id="g4241"
         transform="translate(58.772396,42.413066)">
        <g
           id="g3983"
           transform="translate(-1.8177028,27.265542)">
          <path
             style="fill:#ffffff;stroke:none;stroke-width:1px;stroke-linecap:butt;stroke-linejoin:miter;stroke-opacity:1;fill-opacity:0.20095694000000000"
             d="m 76.134107,294.98744 c -11.682648,-15.57686 -1.050126,0.78759 -3.937971,-7.87594 -0.19568,-0.58704 -1.035925,-0.7592 -1.312657,-1.31266 -3.964069,-7.92814 0.189222,-0.55577 -1.312657,-6.56329 -3.04704,-6.09407 -0.11142,0.75556 -1.312657,-5.25062 -0.271359,-1.3568 -0.932536,-2.60755 -1.312657,-3.93797 -0.495618,-1.73467 -0.742159,-3.53914 -1.312657,-5.25063 -0.309397,-0.92819 -1.120778,-1.66592 -1.312657,-2.62532 -0.558008,-2.79004 0.488184,-7.57214 0,-10.50125 -0.296588,-1.77953 -1.057523,-3.46469 -1.312657,-5.25063 -0.185638,-1.29946 0.215799,-2.64317 0,-3.93797 -0.227473,-1.36484 -1.085185,-2.57314 -1.312657,-3.93797 -0.2158,-1.2948 0,-2.62532 0,-3.93797 0,-3.50042 0,-7.00084 0,-10.50126 0,-10.0637 0,-20.12741 0,-30.19111 0,-3.50042 0,-7.00084 0,-10.50126 0,-0.8751 -0.171623,-1.7672 0,-2.62531 0.271358,-1.35679 1.041298,-2.58118 1.312657,-3.93797 0.171622,-0.85811 -0.325006,-1.8128 0,-2.62532 0.585912,-1.46478 1.842596,-2.56821 2.625314,-3.93797 7.235222,-12.66164 0.738721,-0.32957 2.625314,-7.87594 0.63709,-2.54836 2.996895,-4.2106 3.937971,-6.56328 0.325005,-0.81252 -0.212244,-1.77634 0,-2.62532 0.237296,-0.94918 0.875104,-1.75021 1.312657,-2.62531 5.632154,-11.26431 -0.315494,0.0883 5.250628,-9.1886 0.503381,-0.83897 0.620826,-1.93348 1.312657,-2.62532 0.691831,-0.69183 1.933483,-0.62082 2.625314,-1.31265 0.691831,-0.69183 0.725619,-1.8426 1.312657,-2.62532 1.113826,-1.4851 2.625314,-2.62531 3.937971,-3.93797 1.347023,-1.34702 6.087789,-6.44542 7.875942,-7.87594 1.231912,-0.98553 2.675877,-1.67874 3.937971,-2.62531 0.495037,-0.37128 0.829457,-0.9261 1.312657,-1.31266 1.70835,-1.36668 3.58956,-2.5142 5.25063,-3.93797 1.40946,-1.20812 2.48838,-2.7783 3.93797,-3.93797 0.764,-0.6112 1.78634,-0.80928 2.62531,-1.31266 1.3528,-0.81168 2.58518,-1.81364 3.93797,-2.62531 0.83897,-0.50338 1.93349,-0.62083 2.62532,-1.31266 1.11554,-1.11554 1.31266,-3.06287 2.62531,-3.93797 1.50108,-1.00072 3.59242,-0.602 5.25063,-1.31266 1.45006,-0.62145 2.56822,-1.842595 3.93797,-2.625313 1.69897,-0.970841 3.43379,-1.898579 5.25063,-2.625314 0.40626,-0.162503 0.94859,0.242711 1.31266,0 1.02973,-0.686488 1.56409,-1.988582 2.62531,-2.625314 1.18648,-0.711888 2.62531,-0.875104 3.93797,-1.312657 1.31266,-0.437552 2.62532,-0.875104 3.93797,-1.312657 1.31266,-0.437552 2.57314,-1.085184 3.93797,-1.312657 1.2948,-0.215799 2.64318,0.2158 3.93797,0 16.35935,-2.726558 -14.03478,0.100913 10.50126,-2.625314 1.73951,-0.193278 3.53441,0.343244 5.25063,0 2.71358,-0.542717 5.16236,-2.082597 7.87594,-2.625314 1.71622,-0.343244 3.51801,0.247517 5.25063,0 1.36975,-0.195679 2.57313,-1.085184 3.93797,-1.312657 2.58959,-0.431599 5.28635,0.431599 7.87594,0 1.36484,-0.227472 2.565,-1.141035 3.93797,-1.312657 2.17087,-0.271358 4.37553,0 6.56329,0 0.8751,0 1.7672,0.171622 2.62531,0 1.35679,-0.271358 2.57314,-1.085184 3.93797,-1.312657 1.2948,-0.215799 2.62532,0 3.93797,0 1.31266,0 2.62532,0 3.93797,0 3.50042,0 7.00084,0 10.50126,0 3.50042,0 7.00084,0 10.50126,0 1.31265,0 2.6508,-0.257433 3.93797,0 0.9594,0.19188 1.66592,1.120778 2.62531,1.312657 1.28717,0.257433 2.64318,-0.215799 3.93797,0 5.46297,0.910494 2.27839,1.197013 6.56329,2.625314 0.4151,0.138366 0.89756,-0.138366 1.31266,0 0.92818,0.309396 1.67613,1.075361 2.62531,1.312657 1.27346,0.318366 2.69267,-0.415098 3.93797,0 0.87511,0.437553 1.75021,0.875105 2.62531,1.312657 0,0.437553 -0.30939,1.003261 0,1.312657 0.3094,0.309396 0.89756,-0.138366 1.31266,0 9.50812,3.169374 -2.06954,-0.378444 3.93797,2.625314 1.23759,0.618793 2.70039,0.693865 3.93797,1.312657 0.55347,0.276733 0.73813,1.082844 1.31266,1.312657 1.67504,0.670017 3.63702,0.505851 5.25063,1.312657 1.10693,0.553465 1.59558,1.938826 2.62531,2.625314 0.36407,0.242711 0.9213,-0.195679 1.31266,0 0.55346,0.276733 0.75919,1.035925 1.31266,1.312657 0.39136,0.19568 1.00326,-0.309396 1.31265,0 0.3094,0.309397 -0.30939,1.003261 0,1.312657 2.71594,2.715936 -0.10616,-4.150307 2.62532,1.312656 0.39136,0.78272 -0.39136,1.8426 0,2.62532 0.78759,1.57518 3.15037,2.36278 3.93797,3.93797 0.19568,0.39136 -0.19568,0.92129 0,1.31265 0.55346,1.10693 2.07185,1.51839 2.62531,2.62532 0.19568,0.39136 0,0.8751 0,1.31265 0.43756,0.43756 1.03593,0.7592 1.31266,1.31266 0.26023,0.52046 -0.26836,3.66962 0,3.93797 0.3094,0.3094 1.00326,-0.30939 1.31266,0 0.30939,0.3094 -0.13837,0.89756 0,1.31266 0.30939,0.92819 1.00326,1.69712 1.31265,2.62531 0.27674,0.8302 -0.61879,2.00653 0,2.62532 0.3094,0.30939 1.00326,-0.3094 1.31266,0 0.3094,0.30939 0,0.8751 0,1.31265 0,0.43756 0.39136,1.11698 0,1.31266 -0.78272,0.39136 -1.75021,0 -2.62531,0 -0.43756,0 -0.9213,0.19568 -1.31266,0 -0.55347,-0.27673 -0.75919,-1.03592 -1.31266,-1.31266 -0.39136,-0.19567 -0.8836,0.0858 -1.31265,0 -1.76904,-0.3538 -3.48159,-0.95884 -5.25063,-1.31265 -0.42906,-0.0858 -0.87511,0 -1.31266,0 -2.62531,0 -5.25063,0 -7.87594,0 -0.87511,0 -1.7672,0.17162 -2.62532,0 -1.35679,-0.27136 -2.59562,-0.97707 -3.93797,-1.31266 -1.70476,-0.42619 -4.8921,0.4178 -6.56328,0 -1.89837,-0.47459 -3.35226,-2.15072 -5.25063,-2.62531 -0.84898,-0.21225 -1.75021,0 -2.62531,0 -0.87511,0 -1.75021,0 -2.62532,0 -2.62531,0 -5.25063,0 -7.87594,0 -9.1886,0 -18.3772,0 -27.5658,0 -12.25146,0 -24.50293,0 -36.75439,0 -3.93797,0 -7.87595,0 -11.81392,0 -0.85626,0 -4.21638,-0.25857 -5.25062,0 -1.34235,0.33558 -2.58118,1.0413 -3.93798,1.31265 -0.85811,0.17163 -1.77633,-0.21224 -2.62531,0 -0.94918,0.2373 -1.75021,0.87511 -2.62531,1.31266 -2.71594,1.35797 -3.31918,1.81429 -6.56329,2.62531 -2.62531,0.65633 0,-1.31265 -3.93797,0 -0.58704,0.19568 -0.75919,1.03593 -1.31266,1.31266 -0.39136,0.19568 -0.8751,0 -1.31265,0 -0.87511,0.43755 -1.81124,0.76994 -2.62532,1.31266 -1.02973,0.68649 -1.51838,2.07185 -2.62531,2.62531 -0.39136,0.19568 -1.00326,-0.30939 -1.31266,0 -0.69183,0.69183 -0.49858,2.0826 -1.31266,2.62532 -0.72813,0.48542 -1.89718,-0.48542 -2.62531,0 -0.81408,0.54271 -0.62083,1.93348 -1.31266,2.62531 -0.30939,0.3094 -1.00326,-0.3094 -1.31265,0 -0.3094,0.3094 0.30939,1.00326 0,1.31266 -3.18819,3.18818 -1.92754,-0.39034 -3.93797,2.62531 -0.54272,0.81408 -0.62083,1.93348 -1.31266,2.62532 -0.3094,0.30939 -1.00326,-0.3094 -1.31266,0 -0.3094,0.30939 0.13837,0.89755 0,1.31265 -0.3094,0.92819 -1.00326,1.69713 -1.31266,2.62532 -0.13836,0.4151 0.19568,0.9213 0,1.31265 -0.27673,0.55347 -1.03592,0.7592 -1.31265,1.31266 -0.19568,0.39136 0.13836,0.89756 0,1.31266 -0.3094,0.92819 -1.00326,1.69712 -1.31266,2.62531 -0.37829,1.13486 0.41764,5.72801 0,6.56329 -3.00376,6.00751 0.54406,-5.57015 -2.62531,3.93797 -0.31281,0.93842 0,7.71456 0,9.1886 0,0.8751 0.27673,1.79511 0,2.62531 -0.3094,0.92819 -1.00326,1.69713 -1.31266,2.62532 -0.13837,0.41509 0.19568,0.92129 0,1.31265 -0.27673,0.55347 -1.11698,0.72562 -1.31266,1.31266 -0.2489,0.74672 0,5.32697 0,6.56328 0,0.43756 0.13837,0.89756 0,1.31266 -0.30939,0.92819 -1.00326,1.69713 -1.31265,2.62532 -0.13837,0.41509 0.30939,1.00326 0,1.31265 -0.3094,0.3094 -1.11698,-0.39136 -1.31266,0 -1.31266,2.62532 0.65633,1.96899 0,3.93797 -0.3094,0.92819 -1.00326,1.69713 -1.31266,2.62532 -0.13837,0.4151 0.19568,0.9213 0,1.31265 -0.27673,0.55347 -1.11698,0.72562 -1.31266,1.31266 -0.27673,0.8302 0,1.75021 0,2.62532 0,0.43755 0.19568,0.92129 0,1.31265 -0.27673,0.55347 -1.03592,0.75919 -1.31265,1.31266 -0.39136,0.78272 0.27673,1.79512 0,2.62531 -1.50834,4.52501 -1.31266,0.97237 -1.31266,3.93797 0,1.31266 0.58704,2.7639 0,3.93798 -0.55346,1.10692 -1.93883,1.59558 -2.62531,2.62531 -0.24271,0.36406 0.13836,0.89756 0,1.31266 -0.3094,0.92819 -1.00326,1.69712 -1.31266,2.62531 -0.13837,0.4151 0.19568,0.9213 0,1.31266 -0.27673,0.55346 -0.87511,0.8751 -1.31266,1.31265 -0.8751,1.31266 -2.0394,2.47319 -2.62531,3.93798 -0.32501,0.81251 0.21224,1.77633 0,2.62531 0.79117,2.37583 -2.12643,2.44131 -2.62532,3.93797 -0.27673,0.8302 0.27674,1.79512 0,2.62531 -0.39135,1.17408 -2.07185,1.51839 -2.62531,2.62532 -0.39136,0.78272 0.27673,1.79512 0,2.62531 -0.3094,0.92819 -1.00326,1.69713 -1.312657,2.62532 -0.138366,0.4151 0.195679,0.92129 0,1.31265 -0.276733,0.55347 -1.035925,0.7592 -1.312657,1.31266 -0.525063,1.05013 0.525063,2.88785 0,3.93797 -0.276733,0.55347 -1.035925,0.75919 -1.312657,1.31266 -0.195679,0.39136 0.195679,0.9213 0,1.31266 -0.276733,0.55346 -1.035925,0.75919 -1.312657,1.31265 -0.391359,0.78272 0.391359,1.8426 0,2.62532 -0.276733,0.55346 -1.035925,0.75919 -1.312657,1.31265 -0.412517,0.82504 0.412517,4.4256 0,5.25063 -0.19568,0.39136 -1.003261,-0.30939 -1.312657,0 -0.309396,0.3094 0.138366,0.89756 0,1.31266 -0.309396,0.92819 -1.003261,1.69712 -1.312657,2.62531 -0.467635,1.40291 0.554933,5.45342 0,6.56329 -0.19568,0.39136 -1.003261,-0.3094 -1.312657,0 -0.656329,0.65633 0.656328,3.28164 0,3.93797 -0.309396,0.3094 -1.003261,-0.3094 -1.312657,0 -0.309396,0.3094 0.195679,0.9213 0,1.31266 -0.276733,0.55346 -1.035925,0.75919 -1.312657,1.31265 -0.345283,0.69057 0.345283,1.93475 0,2.62532 -2.731482,5.46296 0.09062,-1.40328 -2.625314,1.31265 -0.309396,0.3094 0.309396,1.00326 0,1.31266 -0.309396,0.3094 -1.003261,-0.3094 -1.312657,0 -0.309396,0.3094 0.309396,1.00326 0,1.31266 -0.309396,0.30939 -0.921299,-0.19568 -1.312657,0 -0.553465,0.27673 -0.782047,0.99429 -1.312657,1.31266 -1.677937,1.00676 -3.500419,1.7502 -5.250628,2.62531 z"
             id="path4820"
             inkscape:connector-curvature="0"
             transform="translate(-55.24454,-68.08751)" />
          <path
             style="fill:#000000;stroke:none;stroke-width:1px;stroke-linecap:butt;stroke-linejoin:miter;stroke-opacity:1;fill-opacity:0.31100478999999998"
             d="m 90.573334,306.80135 c 2.187761,0.87511 4.29002,2.00533 6.563285,2.62532 2.567745,0.70029 5.293881,0.66714 7.875941,1.31265 2.6847,0.67118 5.19124,1.95414 7.87594,2.62532 2.4284,0.6071 15.12153,2.34774 17.06454,2.62531 3.06287,0.43755 6.10375,1.07536 9.1886,1.31266 2.61758,0.20135 5.29298,-0.46963 7.87595,0 2.31828,0.4215 4.23905,2.23794 6.56328,2.62531 3.02119,0.50353 6.16135,-0.46573 9.1886,0 2.73514,0.42079 5.17452,2.025 7.87594,2.62532 1.2814,0.28475 2.62532,0 3.93797,0 1.75021,0 3.50042,0 5.25063,0 7.87594,0 15.75188,0 23.62783,0 4.37552,0 8.75104,0 13.12657,0 2.18776,0 4.37552,0 6.56328,0 1.31266,0 2.65081,0.25743 3.93797,0 0.9594,-0.19188 1.7169,-0.94929 2.62532,-1.31266 1.28469,-0.51388 2.58118,-1.0413 3.93797,-1.31266 0.85811,-0.17162 1.75021,0 2.62531,0 1.31266,0 2.62532,0 3.93797,0 1.75021,0 3.52424,0.28773 5.25063,0 0.96509,-0.16085 1.67613,-1.07536 2.62532,-1.31265 0.84897,-0.21225 1.7672,0.17162 2.62531,0 1.35679,-0.27136 2.59562,-0.97707 3.93797,-1.31266 0.42449,-0.10612 0.8751,0 1.31266,0 1.31265,-0.43755 2.59562,-0.97707 3.93797,-1.31266 0.42449,-0.10612 0.9213,0.19568 1.31266,0 0.55346,-0.27673 0.79779,-0.96941 1.31265,-1.31266 0.81408,-0.54271 1.81124,-0.76994 2.62532,-1.31265 0.51486,-0.34325 0.79779,-0.96942 1.31265,-1.31266 0.81408,-0.54272 1.81124,-0.76994 2.62532,-1.31266 0.51486,-0.34324 0.75919,-1.03592 1.31265,-1.31265 0.39136,-0.19568 0.9213,0.19568 1.31266,0 2.12325,-1.06163 1.96369,-3.93444 3.93797,-5.25063 0.24451,-0.16301 5.16652,-2.5412 5.25063,-2.62532 0.3094,-0.30939 -0.19568,-0.92129 0,-1.31265 0.27673,-0.55347 0.96941,-0.79779 1.31266,-1.31266 0.54271,-0.81408 0.62082,-1.93348 1.31265,-2.62531 0.69184,-0.69183 1.93349,-0.62083 2.62532,-1.31266 0.69183,-0.69183 0.76994,-1.81124 1.31266,-2.62531 0.34324,-0.51487 0.8751,-0.87511 1.31265,-1.31266 0.43755,-0.87511 0.76994,-1.81124 1.31266,-2.62532 0.34324,-0.51486 1.11698,-0.72561 1.31266,-1.31265 0.27673,-0.8302 -0.27674,-1.79512 0,-2.62532 0.19568,-0.58704 0.8751,-0.8751 1.31265,-1.31265 0.87511,-0.87511 2.16569,-1.47625 2.62532,-2.62532 0.48751,-1.21877 -0.31837,-2.6645 0,-3.93797 0.15008,-0.60032 0.96941,-0.79779 1.31265,-1.31266 0.54272,-0.81407 1.07537,-1.67613 1.31266,-2.62531 0.21225,-0.84898 -0.21224,-1.77634 0,-2.62531 0.2373,-0.94919 1.00326,-1.69713 1.31266,-2.62532 0.13836,-0.4151 -0.13837,-0.89756 0,-1.31266 0.61879,-1.85637 2.00652,-3.39425 2.62531,-5.25062 0.4151,-1.2453 -0.31836,-2.66451 0,-3.93797 0.2373,-0.94919 0.76994,-1.81124 1.31266,-2.62532 0.34324,-0.51486 1.16258,-0.71234 1.31266,-1.31266 0.31836,-1.27346 -0.31837,-2.6645 0,-3.93797 0.15008,-0.60031 1.11697,-0.72562 1.31265,-1.31265 3.00376,-9.01128 -5.02609,6.11421 1.31266,-6.56329 0.27673,-0.55346 1.03593,-0.75919 1.31266,-1.31266 0.19568,-0.39135 -0.24271,-0.94859 0,-1.31265 0.68649,-1.02974 2.16568,-1.47625 2.62531,-2.62532 0,-9.31031 -0.92819,-0.76893 1.31266,-5.25062 0.19568,-0.39136 -0.0858,-0.88361 0,-1.31266 0.35381,-1.76904 0.95885,-3.48159 1.31266,-5.25063 0.33665,-1.68328 -0.41687,-3.58315 0,-5.25063 0.23729,-0.94918 1.07536,-1.67613 1.31265,-2.62531 0.21225,-0.84898 -0.27673,-1.79512 0,-2.62532 0.19568,-0.58703 1.11698,-0.72561 1.31266,-1.31265 0.22398,-0.67194 0,-6.93751 0,-7.87594 0,-0.43756 -0.19568,-0.9213 0,-1.31266 0.27673,-0.55347 1.03592,-0.75919 1.31266,-1.31266 0.19568,-0.39136 0,-0.8751 0,-1.31266 0.43755,-0.43755 1.03592,-0.75919 1.31265,-1.31265 0.19568,-0.39136 0,-0.87511 0,-1.31266 0,-0.43755 0,-0.8751 0,-1.31266 0,-2.62531 0,-5.25062 0,-7.87594 0,-3.50042 0,-7.00084 0,-10.50125 0,-0.59117 0.19975,-3.53849 0,-3.93798 -0.27673,-0.55346 -1.11697,-0.72561 -1.31265,-1.31265 -0.40441,-1.21322 0.40814,-5.33885 0,-6.56329 -0.3094,-0.92819 -1.00326,-1.69712 -1.31266,-2.62531 -0.30096,-0.90289 0.38725,-3.16348 0,-3.93797 -0.27673,-0.55347 -1.11698,-0.72562 -1.31266,-1.31266 -0.27673,-0.8302 0.39136,-1.8426 0,-2.62531 -0.19568,-0.39136 -1.11697,0.39135 -1.31265,0 -0.44535,-0.89069 0.42972,-6.58676 0,-7.87595 -0.3094,-0.92818 -1.00326,-1.69712 -1.31266,-2.62531 -0.27673,-0.8302 0.61879,-2.00652 0,-2.62531 -0.3094,-0.3094 -1.00326,0.30939 -1.31266,0 -0.30939,-0.3094 0,-0.87511 0,-1.31266 0,-0.87511 -0.61879,-2.00652 0,-2.62532 0.43755,-0.43755 0.87511,0.87511 1.31266,1.31266 0.43755,0.43755 0.8751,0.87511 1.31266,1.31266 0.43755,0.43755 1.03592,0.75919 1.31265,1.31266 0.19568,0.39135 -0.13836,0.89755 0,1.31265 0.43756,0.87511 0.87511,1.75021 1.31266,2.62532 0,0.43755 -0.13837,0.89756 0,1.31265 0.3094,0.92819 0.76994,1.81124 1.31266,2.62532 0.34324,0.51486 1.11697,0.72562 1.31265,1.31265 0.40536,1.21607 -0.41926,5.30549 0,6.56329 0.3094,0.92819 0.87511,1.75021 1.31266,2.62531 0.43755,0.87511 1.07536,1.67613 1.31266,2.62532 0.39869,1.59477 -0.39869,3.65585 0,5.25063 0.23729,0.94918 0.94929,1.71689 1.31265,2.62531 0.70924,1.7731 1.91608,6.10284 2.62532,7.87594 0.36337,0.90842 1.00326,1.69713 1.31266,2.62532 0.13836,0.41509 -0.16251,0.9064 0,1.31265 0.8751,1.75021 1.75021,3.50042 2.62531,5.25063 0,0.43755 -0.13837,0.89756 0,1.31266 0.3094,0.92819 1.07536,1.67613 1.31266,2.62531 0.42449,1.69795 -0.34325,3.53441 0,5.25063 -2.88392,1.59414 2.29853,4.2703 2.62531,5.25063 0.27673,0.8302 0,1.75021 0,2.62531 0,0.43755 -0.19568,0.9213 0,1.31266 0.27673,0.55346 1.11698,0.72562 1.31266,1.31266 0.27673,0.83019 0,1.75021 0,2.62531 0,0.43755 -0.19568,0.9213 0,1.31266 1.62205,3.2441 1.31266,-0.4531 1.31266,2.62531 0,5.97559 -0.6188,0.0751 1.31265,3.93797 0.39136,0.78272 -0.27673,1.79512 0,2.62532 0.3094,0.92819 1.12078,1.66591 1.31266,2.62531 0.25743,1.28717 0,2.62531 0,3.93797 0,1.31266 0,2.62532 0,3.93797 0,0.87511 -0.21225,1.77634 0,2.62532 0.2373,0.94918 1.00326,1.69712 1.31266,2.62531 0.27673,0.8302 0,1.75021 0,2.62531 0,1.31266 0,2.62532 0,3.93798 0,5.25062 0,10.50125 0,15.75188 0,1.52487 -0.2975,5.3733 0,6.56328 0.23729,0.94919 1.07536,1.67613 1.31265,2.62532 0.24956,0.99823 0,5.46408 0,6.56328 0,3.93797 0,7.87595 0,11.81392 0,1.75021 0,3.50042 0,5.25063 0,0.8751 0,1.7502 0,2.62531 0,0.43755 0.13837,0.89756 0,1.31266 -0.30939,0.92818 -1.07536,1.67613 -1.31265,2.62531 -0.32531,1.30122 0.38745,5.40094 0,6.56329 -0.3094,0.92818 -1.00326,1.69712 -1.31266,2.62531 -0.13837,0.4151 0.19568,0.9213 0,1.31266 -0.27673,0.55346 -1.03593,0.75919 -1.31266,1.31265 -0.33889,0.67778 0.33889,1.94754 0,2.62532 -0.27673,0.55346 -1.11698,0.72562 -1.31265,1.31265 0,5.97559 0.61879,0.0751 -1.31266,3.93798 -0.19568,0.39135 0.10612,0.88816 0,1.31265 -0.33559,1.34235 -0.97707,2.59562 -1.31266,3.93797 -0.10612,0.42449 0.3094,1.00326 0,1.31266 -0.69183,0.69183 -2.0826,0.49858 -2.62531,1.31266 -0.48542,0.72813 0.27673,1.79511 0,2.62531 -0.19568,0.58704 -0.96942,0.79779 -1.31266,1.31266 -2.892,0.66104 -0.69386,2.70038 -1.31266,3.93797 -2.73148,5.46296 0.0906,-1.40328 -2.62531,1.31266 -0.61879,0.61879 0.39136,1.84259 0,2.62531 -0.27673,0.55347 -0.87511,0.87511 -1.31266,1.31266 -1.0253,1.0253 -3.18284,2.80528 -3.93797,3.93797 -4.82398,7.23597 1.14854,0.73839 -2.62531,2.62531 -1.10693,0.55347 -1.45124,2.23396 -2.62532,2.62532 -0.83019,0.27673 -1.77633,-0.21225 -2.62531,0 -10.50126,2.62531 4.81307,-0.43756 -3.93797,3.93797 -1.09388,0.54694 -5.10478,-0.36463 -6.56329,0 -0.94918,0.23729 -1.75021,0.8751 -2.62531,1.31265 -1.31266,0.43756 -2.58118,1.0413 -3.93797,1.31266 -1.71622,0.34325 -3.50042,0 -5.25063,0 -0.43755,0 -0.89756,-0.13836 -1.31266,0 -0.92819,0.3094 -1.66591,1.12078 -2.62531,1.31266 -1.73939,0.34788 -4.59198,0 -6.56329,0 -0.8751,0 -1.77633,-0.21225 -2.62531,0 -0.94918,0.23729 -1.67613,1.07536 -2.62531,1.31266 -0.84898,0.21224 -1.75021,0 -2.62532,0 -1.51943,0 -5.39137,-0.29298 -6.56328,0 -0.94919,0.23729 -1.67613,1.07536 -2.62532,1.31265 -0.84897,0.21225 -1.75021,0 -2.62531,0 -0.87511,0.43755 -1.69713,1.00326 -2.62532,1.31266 -0.76038,0.25346 -4.1131,0 -5.25062,0 -3.50042,0 -7.00084,0 -10.50126,0 -10.50126,0 -21.00251,0 -31.50377,0 -11.37636,0 -22.75272,0 -34.12908,0 -4.37552,0 -8.75105,0 -13.12657,0 -1.31266,0 -2.62531,0 -3.93797,0 -0.43755,0 -0.9213,0.19568 -1.31266,0 -0.55346,-0.27673 -0.75919,-1.03592 -1.31266,-1.31266 -0.82503,-0.41251 -4.42559,0.41252 -5.25062,0 -0.55347,-0.27673 -0.87511,-0.8751 -1.31266,-1.31265 -0.87511,0 -1.79512,0.27673 -2.62531,0 -0.58704,-0.19568 -0.72562,-1.11698 -1.31266,-1.31266 -0.8302,-0.27673 -1.75021,0 -2.62532,0 -0.43755,0 -0.94859,0.24271 -1.31265,0 -1.02974,-0.68649 -1.63525,-1.88276 -2.62532,-2.62532 -6.03778,-4.52833 1.37862,2.66929 -6.56328,-2.62531 -0.36407,-0.24271 0.30939,-1.00326 0,-1.31266 -0.69183,-0.69183 -1.69713,-1.00326 -2.62532,-1.31265 -0.41509,-0.13837 -1.11697,0.39136 -1.31265,0 -0.39136,-0.78272 0.48542,-1.89719 0,-2.62532 -1.08544,-1.62815 -3.86697,-1.24165 -5.25063,-2.62531 -2.71593,-2.71594 4.15031,0.10617 -1.31266,-2.62532 -3.23301,-1.6165 1.18498,3.8103 -3.93797,-1.31265 -0.3094,-0.3094 0.3094,-1.00326 0,-1.31266 -0.61879,-0.61879 -1.89718,0.48542 -2.62531,0 -1.02974,-0.68649 -1.59558,-1.93882 -2.62532,-2.62531 -0.36406,-0.24271 -0.94859,0.24271 -1.31265,0 -1.02974,-0.68649 -1.59559,-1.93883 -2.62532,-2.62532 -0.36406,-0.24271 -0.9213,0.19568 -1.31266,0 -0.55346,-0.27673 -0.79779,-0.96941 -1.31265,-1.31265 -0.81408,-0.54272 -1.93349,-0.62083 -2.62532,-1.31266 -0.30939,-0.3094 0.39136,-1.11698 0,-1.31266 -0.78271,-0.39136 -1.79511,0.27673 -2.62531,0 -1.174076,-0.39136 -1.518385,-2.07185 -2.625314,-2.62531 -1.810623,-0.90531 -1.174136,1.5897 -2.625314,-1.31266 -0.195679,-0.39136 0.309396,-1.00326 0,-1.31266 -0.309396,-0.30939 -0.875105,0 -1.312657,0 -0.437552,-0.8751 -1.003261,-1.69712 -1.312657,-2.62531 -0.138366,-0.4151 0,-0.87511 0,-1.31266 -0.437553,-0.43755 -1.035925,-0.75919 -1.312657,-1.31265 -0.19568,-0.39136 0.309396,-1.00327 0,-1.31266 -0.309396,-0.3094 -1.003261,0.30939 -1.312657,0 -0.309396,-0.3094 0.195679,-0.9213 0,-1.31266 -0.276733,-0.55346 -1.035925,-0.75919 -1.312657,-1.31266 -0.19568,-0.39135 -0.07193,-0.88105 0,-1.31265 0.366788,-2.20073 0.875104,-4.37553 1.312657,-6.56329 z"
             id="path4822"
             inkscape:connector-curvature="0"
             transform="translate(-55.24454,-68.08751)" />
          <path
             style="fill:#000000;fill-opacity:0.08133971000000000;stroke:none;stroke-width:0.65613854000000005px;stroke-linecap:butt;stroke-linejoin:miter;stroke-opacity:1;display:inline"
             d="m 93.923012,257.43317 c 1.723964,0.47812 3.380555,1.09559 5.171894,1.43431 2.023404,0.3826 4.171614,0.3645 6.206284,0.71716 2.11556,0.36669 4.09072,1.06762 6.20628,1.43432 1.9136,0.33167 11.91584,1.28266 13.44694,1.43431 2.41355,0.23905 4.80978,0.58751 7.24065,0.71715 2.06267,0.11001 4.1709,-0.25658 6.20628,0 1.82682,0.23028 3.34039,1.22268 5.1719,1.43432 2.38071,0.27509 4.85517,-0.25445 7.24066,0 2.1553,0.22989 4.07755,1.10632 6.20628,1.43431 1.00975,0.15557 2.06876,0 3.10313,0 1.37917,0 2.75835,0 4.13752,0 6.20628,0 12.41255,0 18.61884,0 3.44792,0 6.89585,0 10.34379,0 1.72396,0 3.44793,0 5.17189,0 1.03439,0 2.08885,0.14064 3.10315,0 0.756,-0.10483 1.35291,-0.51864 2.06876,-0.71716 1.01234,-0.28075 2.03397,-0.5689 3.10313,-0.71715 0.67619,-0.0938 1.37917,0 2.06875,0 1.03439,0 2.06877,0 3.10314,0 1.37918,0 2.77712,0.15719 4.13752,0 0.7605,-0.0879 1.32081,-0.58752 2.06877,-0.71716 0.66899,-0.11596 1.39256,0.0938 2.06875,0 1.06917,-0.14825 2.04536,-0.53381 3.10315,-0.71716 0.3345,-0.058 0.68958,0 1.03437,0 1.03438,-0.23905 2.04536,-0.53381 3.10315,-0.71715 0.3345,-0.058 0.72598,0.1069 1.03437,0 0.43614,-0.15119 0.62867,-0.52964 1.03438,-0.71716 0.6415,-0.29651 1.42727,-0.42064 2.06877,-0.71715 0.4057,-0.18754 0.62866,-0.52964 1.03436,-0.71717 0.64151,-0.2965 1.42727,-0.42063 2.06877,-0.71715 0.40572,-0.18752 0.59825,-0.56597 1.03438,-0.71716 0.3084,-0.1069 0.72599,0.10691 1.03437,0 1.67314,-0.58001 1.54741,-2.14953 3.10315,-2.86862 0.19267,-0.089 4.07124,-1.38836 4.13752,-1.43432 0.24381,-0.16903 -0.1542,-0.50333 0,-0.71714 0.21806,-0.30238 0.76389,-0.43587 1.03437,-0.71716 0.42766,-0.44477 0.48921,-1.05634 1.03439,-1.43431 0.54516,-0.37798 1.52359,-0.33918 2.06876,-0.71716 0.54516,-0.37797 0.60672,-0.98955 1.03437,-1.43431 0.27048,-0.28129 0.68959,-0.47811 1.03439,-0.71716 0.34479,-0.47811 0.60671,-0.98955 1.03438,-1.43431 0.27047,-0.2813 0.88018,-0.39643 1.03438,-0.71715 0.21806,-0.45357 -0.21807,-0.98075 0,-1.43432 0.15419,-0.32072 0.68958,-0.4781 1.03437,-0.71715 0.6896,-0.47811 1.70657,-0.80653 2.06877,-1.43432 0.38415,-0.66586 -0.25088,-1.45571 0,-2.15146 0.11826,-0.32798 0.7639,-0.43587 1.03437,-0.71716 0.42767,-0.44476 0.8474,-0.91574 1.03438,-1.43431 0.16726,-0.46383 -0.16725,-0.97048 0,-1.43431 0.18699,-0.51857 0.79057,-0.92722 1.03439,-1.43432 0.10903,-0.22679 -0.10904,-0.49037 0,-0.71715 0.48761,-1.01421 1.58114,-1.85442 2.06875,-2.86862 0.3271,-0.68035 -0.25087,-1.45573 0,-2.15147 0.187,-0.51858 0.60672,-0.98955 1.03438,-1.43432 0.27047,-0.28128 0.91612,-0.38918 1.03439,-0.71716 0.25086,-0.69574 -0.25088,-1.45571 0,-2.15146 0.11825,-0.32797 0.88017,-0.39644 1.03437,-0.71715 2.36697,-4.92322 -3.96058,3.34043 1.03438,-3.58579 0.21807,-0.30237 0.81632,-0.41477 1.03438,-0.71716 0.1542,-0.21381 -0.19126,-0.51825 0,-0.71715 0.54095,-0.56258 1.70656,-0.80652 2.06876,-1.43431 0,-5.08658 -0.73142,-0.4201 1.03438,-2.86862 0.1542,-0.21381 -0.0676,-0.48275 0,-0.71715 0.2788,-0.9665 0.75558,-1.90213 1.03438,-2.86863 0.26528,-0.91964 -0.3285,-1.95761 0,-2.86863 0.18698,-0.51856 0.84739,-0.91573 1.03438,-1.43431 0.16725,-0.46382 -0.21807,-0.98073 0,-1.43431 0.15419,-0.32071 0.88018,-0.39643 1.03438,-0.71715 0.1765,-0.36711 0,-3.79024 0,-4.30294 0,-0.23905 -0.1542,-0.50333 0,-0.71716 0.21806,-0.30238 0.8163,-0.41477 1.03438,-0.71715 0.1542,-0.21381 0,-0.4781 0,-0.71715 0.3448,-0.23906 0.81631,-0.41479 1.03437,-0.71716 0.1542,-0.21381 0,-0.4781 0,-0.71715 0,-0.23906 0,-0.47811 0,-0.71717 0,-1.43431 0,-2.86862 0,-4.30293 0,-1.91241 0,-3.82483 0,-5.73725 0,-0.32298 0.1574,-1.93321 0,-2.15146 -0.21806,-0.30238 -0.88017,-0.39644 -1.03437,-0.71716 -0.31867,-0.66283 0.32162,-2.91682 0,-3.58578 -0.2438,-0.50711 -0.79058,-0.92721 -1.03438,-1.43431 -0.23715,-0.49329 0.30515,-1.72834 0,-2.15147 -0.21807,-0.30238 -0.88019,-0.39644 -1.03438,-0.71716 -0.21807,-0.45356 0.30838,-1.00669 0,-1.43431 -0.1542,-0.21381 -0.88018,0.21381 -1.03438,0 -0.35094,-0.48661 0.33863,-3.5986 0,-4.30295 -0.24381,-0.50709 -0.79057,-0.92718 -1.03438,-1.4343 -0.21807,-0.45357 0.48761,-1.09624 0,-1.43431 -0.2438,-0.16904 -0.79058,0.16903 -1.03438,0 -0.24381,-0.16904 0,-0.47811 0,-0.71715 0,-0.4781 -0.48761,-1.09624 0,-1.43432 0.34478,-0.23905 0.68959,0.4781 1.03438,0.71716 0.3448,0.23906 0.68958,0.47811 1.03438,0.71716 0.34479,0.23904 0.81631,0.41476 1.03438,0.71715 0.15419,0.21381 -0.10902,0.49037 0,0.71716 0.3448,0.4781 0.68959,0.95621 1.03438,1.43431 0,0.23905 -0.10904,0.49037 0,0.71714 0.2438,0.50712 0.60672,0.98957 1.03438,1.43432 0.27048,0.2813 0.88017,0.39644 1.03437,0.71716 0.31943,0.66439 -0.33037,2.8986 0,3.58578 0.24382,0.50712 0.68959,0.95621 1.03439,1.43431 0.34479,0.47811 0.84738,0.91574 1.03438,1.43432 0.31417,0.87129 -0.31417,1.99733 0,2.86863 0.18699,0.51856 0.74805,0.938 1.03437,1.43431 0.55889,0.9687 1.50988,3.33422 2.06877,4.30293 0.28634,0.4963 0.79056,0.9272 1.03438,1.43432 0.10903,0.22677 -0.12806,0.4952 0,0.71714 0.68958,0.95622 1.37918,1.91243 2.06875,2.86863 0,0.23904 -0.10903,0.49037 0,0.71716 0.24382,0.5071 0.84739,0.91574 1.03439,1.43431 0.3345,0.92766 -0.27049,1.93099 0,2.86863 -2.27254,0.87093 1.81125,2.33302 2.06875,2.86861 0.21807,0.45358 0,0.95622 0,1.43431 0,0.23906 -0.15419,0.50335 0,0.71716 0.21807,0.30238 0.88018,0.39644 1.03438,0.71716 0.21806,0.45357 0,0.95622 0,1.43431 0,0.23905 -0.1542,0.50334 0,0.71716 1.27818,1.77239 1.03439,-0.24755 1.03439,1.43432 0,3.26469 -0.48762,0.041 1.03437,2.15145 0.3084,0.42764 -0.21806,0.98075 0,1.43432 0.24382,0.50711 0.88318,0.91016 1.03439,1.43431 0.20285,0.70324 0,1.43431 0,2.15148 0,0.71715 0,1.4343 0,2.15146 0,0.4781 -0.16726,0.97048 0,1.43431 0.18699,0.51857 0.79056,0.92721 1.03438,1.43431 0.21805,0.45357 0,0.95621 0,1.4343 0,0.71716 0,1.43432 0,2.15148 0,2.86862 0,5.73724 0,8.60587 0,0.8331 -0.23443,2.93564 0,3.58578 0.18698,0.51858 0.84738,0.91573 1.03438,1.43431 0.19664,0.54538 0,2.98524 0,3.58578 0,2.15147 0,4.30294 0,6.45441 0,0.9562 0,1.91241 0,2.86862 0,0.4781 0,0.9562 0,1.43431 0,0.23905 0.10903,0.49037 0,0.71716 -0.24381,0.5071 -0.8474,0.91573 -1.03438,1.43431 -0.25634,0.71091 0.30531,2.95075 0,3.58578 -0.24382,0.5071 -0.79058,0.9272 -1.03438,1.43431 -0.10905,0.22678 0.15419,0.50335 0,0.71715 -0.21808,0.30238 -0.81633,0.41479 -1.03439,0.71716 -0.26705,0.3703 0.26705,1.06402 0,1.43432 -0.21806,0.30237 -0.88019,0.39643 -1.03437,0.71715 0,3.26469 0.48761,0.041 -1.03439,2.15147 -0.1542,0.21381 0.0837,0.48524 0,0.71716 -0.26444,0.73337 -0.76993,1.41808 -1.03438,2.15146 -0.0836,0.23191 0.24381,0.54813 0,0.71716 -0.54516,0.37798 -1.6411,0.27239 -2.06875,0.71716 -0.38252,0.3978 0.21807,0.98073 0,1.4343 -0.1542,0.32073 -0.76392,0.43587 -1.03439,0.71717 -2.2789,0.36115 -0.54676,1.47532 -1.03438,2.15145 -2.15242,2.98465 0.0713,-0.76665 -2.06875,0.71717 -0.48761,0.33807 0.30838,1.00668 0,1.43431 -0.21807,0.30238 -0.6896,0.4781 -1.03439,0.71715 -0.80793,0.56017 -2.50809,1.53263 -3.10313,2.15148 -3.80132,3.95328 0.90505,0.4034 -2.06876,1.43431 -0.87226,0.30238 -1.14358,1.22049 -2.06876,1.43431 -0.6542,0.15119 -1.39975,-0.11596 -2.06876,0 -8.27504,1.43431 3.79272,-0.23906 -3.10314,2.15146 -0.86198,0.29882 -4.02259,-0.19921 -5.1719,0 -0.74795,0.12965 -1.37918,0.47811 -2.06875,0.71716 -1.03439,0.23906 -2.03399,0.5689 -3.10314,0.71715 -1.35239,0.18753 -2.75835,0 -4.13752,0 -0.3448,0 -0.70729,-0.0756 -1.03438,0 -0.73142,0.16904 -1.31275,0.61233 -2.06876,0.71716 -1.37065,0.19007 -3.6185,0 -5.17191,0 -0.68958,0 -1.39975,-0.11596 -2.06876,0 -0.74794,0.12964 -1.32079,0.58751 -2.06875,0.71716 -0.669,0.11595 -1.37917,0 -2.06877,0 -1.1973,0 -4.24842,-0.16007 -5.17188,0 -0.74798,0.12964 -1.3208,0.58751 -2.06877,0.71715 -0.66899,0.11596 -1.37917,0 -2.06875,0 -0.68959,0.23906 -1.33735,0.54812 -2.06877,0.71716 -0.59918,0.13848 -3.24114,0 -4.13751,0 -2.75834,0 -5.51669,0 -8.27504,0 -8.27505,0 -16.55008,0 -24.82512,0 -8.96462,0 -17.92923,0 -26.89385,0 -3.44793,0 -6.89587,0 -10.3438,0 -1.03438,0 -2.06877,0 -3.10314,0 -0.34479,0 -0.72599,0.1069 -1.03438,0 -0.43613,-0.15119 -0.59825,-0.56596 -1.03438,-0.71716 -0.65013,-0.22537 -3.48738,0.22538 -4.13751,0 -0.43614,-0.15119 -0.68959,-0.4781 -1.0344,-0.71715 -0.68958,0 -1.41455,0.15118 -2.06875,0 -0.46258,-0.10691 -0.57179,-0.61025 -1.03437,-0.71716 -0.65421,-0.15119 -1.37918,0 -2.06877,0 -0.34478,0 -0.74749,0.1326 -1.03437,0 -0.81144,-0.37505 -1.28859,-1.02862 -2.06877,-1.43431 -4.75779,-2.47401 1.08636,1.45834 -5.17189,-1.43431 -0.28688,-0.1326 0.24381,-0.54812 0,-0.71717 -0.54516,-0.37797 -1.33735,-0.54811 -2.06876,-0.71714 -0.32709,-0.0756 -0.88018,0.21382 -1.03438,0 -0.30838,-0.42763 0.38251,-1.03651 0,-1.43431 -0.85533,-0.88953 -3.04719,-0.67837 -4.13752,-1.43431 -2.14016,-1.48383 3.27047,0.058 -1.03438,-1.43432 -2.54763,-0.88316 0.93378,2.08171 -3.10314,-0.71716 -0.2438,-0.16903 0.24381,-0.54812 0,-0.71715 -0.48761,-0.33807 -1.49498,0.2652 -2.06876,0 -0.81143,-0.37506 -1.25732,-1.05926 -2.06876,-1.43431 -0.28688,-0.13261 -0.74749,0.1326 -1.03437,0 -0.81144,-0.37506 -1.25733,-1.05926 -2.06877,-1.43431 -0.28688,-0.13262 -0.72599,0.1069 -1.03438,0 -0.43613,-0.15119 -0.62866,-0.52963 -1.03438,-0.71716 -0.64149,-0.2965 -1.52359,-0.33918 -2.06876,-0.71715 -0.2438,-0.16904 0.30839,-0.61025 0,-0.71717 -0.61678,-0.21381 -1.41455,0.1512 -2.06876,0 -0.92518,-0.21381 -1.1965,-1.13193 -2.06876,-1.4343 -1.426778,-0.49461 -0.925222,0.86851 -2.068758,-0.71716 -0.154197,-0.21381 0.243801,-0.54812 0,-0.71716 -0.243809,-0.16903 -0.68959,0 -1.034382,0 -0.344791,-0.4781 -0.790573,-0.92721 -1.034382,-1.43431 -0.109028,-0.22679 0,-0.47811 0,-0.71715 -0.344792,-0.23906 -0.816309,-0.41478 -1.034374,-0.71716 -0.154197,-0.21382 0.243801,-0.54812 0,-0.71716 -0.243809,-0.16904 -0.790574,0.16904 -1.034382,0 -0.243809,-0.16904 0.154197,-0.50334 0,-0.71715 -0.218065,-0.30238 -0.816318,-0.41479 -1.034382,-0.71716 -0.154197,-0.21381 -0.05666,-0.48136 0,-0.71715 0.289032,-1.20235 0.68959,-2.39053 1.034382,-3.58579 z"
             id="path4822-0"
             inkscape:connector-curvature="0" />
          <path
             style="fill:#ffffff;fill-opacity:0.33971291999999997;stroke:none;stroke-width:0.69138515000000000px;stroke-linecap:butt;stroke-linejoin:miter;stroke-opacity:1;display:inline"
             d="m 18.102571,152.29 c -8.0154,-10.85266 -0.720488,0.54872 -2.701819,-5.4873 -0.134255,-0.409 -0.710745,-0.52895 -0.900608,-0.91455 -2.719726,-5.52367 0.129822,-0.38722 -0.900609,-4.57276 -2.090557,-4.24584 -0.07644,0.52641 -0.900602,-3.65819 -0.186178,-0.94531 -0.63981,-1.81673 -0.900608,-2.74365 -0.340042,-1.20858 -0.509192,-2.46578 -0.900609,-3.6582 -0.21227,-0.64669 -0.768961,-1.16068 -0.9006014,-1.82911 -0.3828475,-1.94387 0.3349374,-5.27564 0,-7.3164 -0.2034887,-1.23982 -0.7255653,-2.4139 -0.9006086,-3.6582 -0.1273665,-0.90535 0.1480592,-1.84154 0,-2.74365 -0.1560659,-0.9509 -0.7445428,-1.79275 -0.9006088,-2.74365 -0.148059,-0.90211 0,-1.8291 0,-2.74365 0,-2.4388 0,-4.8776 0,-7.3164 0,-7.011548 0,-14.023101 0,-21.034649 0,-2.438801 0,-4.877602 0,-7.316403 0,-0.609697 -0.117747,-1.231238 0,-1.829098 0.1861788,-0.945298 0.7144303,-1.798358 0.9006088,-2.743656 0.1177475,-0.59786 -0.2229875,-1.263009 0,-1.829105 0.4019895,-1.020537 1.26419,-1.789314 1.80121,-2.743649 4.964044,-8.821576 0.506832,-0.229617 1.801217,-5.487299 0.437104,-1.775485 2.05615,-2.933595 2.701819,-4.572747 0.222981,-0.566096 -0.145623,-1.237606 0,-1.829104 0.162804,-0.66131 0.600401,-1.219401 0.900602,-1.829098 3.864193,-7.848031 -0.216456,0.06152 3.602427,-6.401849 0.345366,-0.584524 0.425948,-1.347088 0.900609,-1.829104 0.47466,-0.48201 1.32655,-0.432536 1.80121,-0.914545 0.474661,-0.48201 0.497844,-1.283771 0.900609,-1.829105 0.764192,-1.034694 1.80121,-1.829097 2.701819,-2.743649 0.924182,-0.938492 4.176798,-4.490632 5.403637,-5.4873 0.845214,-0.686635 1.835906,-1.169606 2.701819,-1.829097 0.339644,-0.258677 0.569088,-0.645229 0.900609,-0.914552 1.172089,-0.952189 2.462776,-1.751685 3.602427,-2.74365 0.967022,-0.841717 1.707263,-1.935688 2.701819,-2.743649 0.524176,-0.425834 1.225598,-0.563839 1.80121,-0.914552 0.928148,-0.565511 1.773677,-1.263594 2.701819,-1.829098 0.575612,-0.350713 1.326556,-0.432542 1.801217,-0.914552 0.765366,-0.777215 0.900609,-2.133953 1.80121,-2.74365 1.029883,-0.697218 2.464739,-0.419423 3.602428,-0.914552 0.994878,-0.432974 1.762041,-1.283767 2.701819,-1.829099 1.165653,-0.676401 2.355903,-1.322772 3.602427,-1.8291 0.278733,-0.113219 0.650822,0.1691 0.900608,0 0.706492,-0.478288 1.073114,-1.385479 1.801211,-1.829101 0.814037,-0.495984 1.80121,-0.609699 2.701819,-0.91455 0.900608,-0.30485 1.801217,-0.609699 2.701818,-0.91455 0.900609,-0.30485 1.765417,-0.756066 2.701819,-0.91455 0.888355,-0.150351 1.813471,0.150352 2.701819,0 11.224054,-1.899638 -9.629183,0.07031 7.204855,-1.8291 1.193468,-0.13466 2.424938,0.239144 3.602424,0 1.861772,-0.37812 3.541866,-1.45098 5.403638,-1.8291 1.177489,-0.239144 2.413687,0.172449 3.602428,0 0.939777,-0.136333 1.765409,-0.7560661 2.701818,-0.9145504 1.776703,-0.3007024 3.626935,0.3007023 5.403634,0 0.93641,-0.1584835 1.75984,-0.7949783 2.70182,-0.9145502 1.48942,-0.1890597 3.00203,0 4.50304,0 0.6004,0 1.21247,0.1195719 1.80121,0 0.93089,-0.1890597 1.76542,-0.7560658 2.70182,-0.9145501 0.88835,-0.1503508 1.80122,0 2.70182,0 0.90061,0 1.80121,0 2.70182,0 2.40162,0 4.80323,0 7.20485,0 2.40162,0 4.80324,0 7.20486,0 0.9006,0 1.8187,-0.1793579 2.70182,0 0.65823,0.133686 1.14297,0.7808648 1.80121,0.9145501 0.88312,0.1793579 1.81347,-0.1503508 2.70182,0 3.74811,0.6343564 1.56319,0.8339791 4.50303,1.8291006 0.2848,0.0964 0.61581,-0.0964 0.90061,0 0.63682,0.215561 1.14998,0.749222 1.80121,0.91455 0.87371,0.221811 1.84743,-0.289206 2.70182,0 0.60041,0.30485 1.20081,0.6097 1.80121,0.91455 0,0.30485 -0.21227,0.698989 0,0.91455 0.21228,0.215561 0.61581,-0.0964 0.90061,0 6.52346,2.208156 -1.4199,-0.263668 2.70182,1.8291 0.8491,0.431124 1.85272,0.483428 2.70182,0.91455 0.37973,0.192805 0.50642,0.754436 0.9006,0.91455 1.14924,0.466812 2.49534,0.352435 3.60243,0.91455 0.75946,0.385609 1.09472,1.350813 1.80121,1.829101 0.24979,0.1691 0.6321,-0.136333 0.90061,0 0.37973,0.192804 0.52088,0.721746 0.90061,0.91455 0.26851,0.136333 0.68833,-0.215562 0.9006,0 0.21228,0.215562 -0.21227,0.698988 0,0.91455 1.86339,1.892238 -0.0728,-2.891588 1.80122,0.914549 0.26851,0.545334 -0.26851,1.28377 0,1.829105 0.54036,1.097454 2.16145,1.646188 2.70182,2.743649 0.13425,0.272667 -0.13426,0.641878 0,0.914545 0.37972,0.771217 1.42148,1.057888 1.80121,1.829105 0.13425,0.272667 0,0.609697 0,0.914545 0.3002,0.304855 0.71074,0.528947 0.9006,0.914552 0.17855,0.362613 -0.18412,2.556686 0,2.74365 0.21228,0.215564 0.68834,-0.215557 0.90061,0 0.21227,0.215564 -0.0949,0.625345 0,0.914552 0.21227,0.646685 0.68833,1.182412 0.90061,1.829097 0.18986,0.578415 -0.42455,1.397983 0,1.829105 0.21227,0.215557 0.68833,-0.215564 0.9006,0 0.21228,0.215557 0,0.609696 0,0.914545 0,0.304855 0.26851,0.778219 0,0.914552 -0.53702,0.272667 -1.20081,0 -1.80121,0 -0.3002,0 -0.6321,0.136334 -0.90061,0 -0.37973,-0.192802 -0.52087,-0.721743 -0.9006,-0.914552 -0.26851,-0.136327 -0.60624,0.05978 -0.90061,0 -1.21372,-0.246498 -2.38869,-0.66804 -3.60242,-0.914545 -0.29438,-0.05978 -0.60041,0 -0.90061,0 -1.80121,0 -3.60243,0 -5.40364,0 -0.60041,0 -1.21246,0.11957 -1.80122,0 -0.93088,-0.189061 -1.78084,-0.680741 -2.70181,-0.914553 -1.16963,-0.296933 -3.35645,0.291089 -4.50303,0 -1.30246,-0.330654 -2.29997,-1.498442 -3.60243,-1.829097 -0.58248,-0.147878 -1.20081,0 -1.80121,0 -0.60041,0 -1.20081,0 -1.80122,0 -1.80121,0 -3.60243,0 -5.40364,0 -6.30424,0 -12.60849,0 -18.91274,0 -8.40565,0 -16.81132,0 -25.216975,0 -2.701819,0 -5.403645,0 -8.105463,0 -0.587476,0 -2.892835,-0.18015 -3.602421,0 -0.920979,0.233804 -1.77093,0.725491 -2.701823,0.914545 -0.588744,0.119578 -1.21873,-0.147871 -1.80121,0 -0.651227,0.165331 -1.200809,0.609704 -1.80121,0.914552 -1.863391,0.946121 -2.277271,1.264047 -4.503036,1.829098 -1.801211,0.457276 0,-0.914545 -2.701819,0 -0.402765,0.136333 -0.520876,0.72175 -0.900609,0.914552 -0.26851,0.136334 -0.600401,0 -0.900601,0 -0.600408,0.304848 -1.242682,0.53643 -1.801218,0.914552 -0.706491,0.478289 -1.041751,1.443493 -1.80121,1.829098 -0.26851,0.136333 -0.688331,-0.215558 -0.900608,0 -0.474661,0.482009 -0.342073,1.450982 -0.900609,1.829104 -0.499566,0.3382 -1.301644,-0.3382 -1.80121,0 -0.558536,0.378115 -0.425948,1.347088 -0.900609,1.829097 -0.212271,0.215565 -0.688331,-0.215564 -0.900602,0 -0.212277,0.215565 0.212271,0.698988 0,0.914553 -2.187399,2.221258 -1.322474,-0.271957 -2.701818,1.829097 -0.372357,0.567183 -0.425948,1.347088 -0.900609,1.829104 -0.212277,0.215558 -0.688331,-0.215564 -0.900608,0 -0.212278,0.215558 0.09493,0.625338 0,0.914546 -0.212278,0.646685 -0.688331,1.182418 -0.900609,1.829104 -0.09493,0.289207 0.134255,0.641885 0,0.914545 -0.189863,0.385612 -0.710739,0.528947 -0.900602,0.914552 -0.134255,0.272665 0.09493,0.625343 0,0.91455 -0.212277,0.646686 -0.688331,1.182412 -0.900608,1.829098 -0.259543,0.790676 0.28654,3.9908 0,4.572754 -2.060863,4.185532 0.373276,-3.880817 -1.801211,2.743649 -0.214617,0.653813 0,5.374863 0,6.401851 0,0.609697 0.189863,1.250683 0,1.829097 -0.212277,0.646686 -0.688331,1.182419 -0.900608,1.829105 -0.09493,0.2892 0.134255,0.641878 0,0.914552 -0.189863,0.385612 -0.766354,0.505552 -0.900609,0.914552 -0.170769,0.520252 0,3.711389 0,4.572747 0,0.304855 0.09493,0.625345 0,0.914552 -0.21227,0.646686 -0.688331,1.182419 -0.900601,1.829105 -0.09493,0.2892 0.21227,0.698988 0,0.914545 -0.212278,0.215564 -0.766354,-0.272667 -0.900609,0 -0.900609,1.829104 0.450304,1.371828 0,2.743649 -0.212278,0.646686 -0.688331,1.182419 -0.900609,1.829105 -0.09493,0.289207 0.134255,0.641885 0,0.914545 -0.189862,0.385612 -0.766353,0.505552 -0.900608,0.914552 -0.189863,0.578414 0,1.219401 0,1.829105 0,0.304848 0.134255,0.641878 0,0.914545 -0.189863,0.385612 -0.710739,0.52894 -0.900602,0.914552 -0.26851,0.545334 0.189863,1.25069 0,1.829097 -1.034863,3.152653 -0.900608,0.677467 -0.900608,2.743653 0,0.91455 0.402764,1.92565 0,2.74365 -0.379726,0.77121 -1.330221,1.11167 -1.801211,1.829098 -0.166522,0.25365 0.09493,0.62535 0,0.91455 -0.212277,0.64669 -0.688331,1.18241 -0.900608,1.8291 -0.09493,0.28921 0.134255,0.64189 0,0.91455 -0.189863,0.38561 -0.600408,0.6097 -0.900609,0.91455 -0.600401,0.91455 -1.39922,1.72311 -1.80121,2.74365 -0.222988,0.56609 0.145617,1.2376 0,1.8291 0.542817,1.65528 -1.458932,1.7009 -1.801217,2.74365 -0.189863,0.57842 0.18987,1.25069 0,1.8291 -0.268503,0.818 -1.421485,1.05789 -1.80121,1.8291 -0.26851,0.54534 0.189862,1.25069 0,1.8291 -0.212278,0.64669 -0.688331,1.18242 -0.900609,1.8291 -0.09493,0.28921 0.134255,0.64188 0,0.91455 -0.189863,0.38561 -0.710739,0.52895 -0.900602,0.91455 -0.360247,0.73165 0.360241,2.01202 0,2.74365 -0.189869,0.38561 -0.710745,0.52894 -0.900608,0.91455 -0.134255,0.27267 0.134255,0.64189 0,0.91456 -0.189863,0.3856 -0.710739,0.52894 -0.900609,0.91454 -0.26851,0.54534 0.26851,1.28377 0,1.82911 -0.189863,0.3856 -0.710739,0.52894 -0.900601,0.91454 -0.283028,0.57482 0.28302,3.08339 0,3.6582 -0.134255,0.27267 -0.688331,-0.21555 -0.900609,0 -0.212278,0.21557 0.09494,0.62535 0,0.91456 -0.212278,0.64668 -0.688331,1.18241 -0.900609,1.82909 -0.320838,0.97743 0.380742,3.79949 0,4.57276 -0.134255,0.27266 -0.68833,-0.21557 -0.900601,0 -0.450304,0.45727 0.450297,2.28637 0,2.74365 -0.212278,0.21556 -0.688338,-0.21557 -0.900609,0 -0.212277,0.21556 0.134255,0.64188 0,0.91455 -0.189863,0.3856 -0.710745,0.52894 -0.900608,0.91454 -0.236895,0.48113 0.236894,1.34798 0,1.82911 -1.874053,3.80613 0.06216,-0.97769 -1.801211,0.91454 -0.212277,0.21557 0.212271,0.69899 0,0.91456 -0.212277,0.21556 -0.688331,-0.21557 -0.900608,0 -0.212278,0.21556 0.212277,0.69898 0,0.91455 -0.212278,0.21555 -0.632099,-0.13634 -0.900609,0 -0.379725,0.1928 -0.536553,0.69274 -0.900602,0.91455 -1.151225,0.70143 -2.401618,1.21939 -3.602427,1.8291 z"
             id="path4820-9"
             inkscape:connector-curvature="0" />
        </g>
      </g>
      <g
         id="g4641" />
    </g>
  </g>
</svg>
