<?xml version="1.0" encoding="UTF-8" standalone="no"?>
<!-- Generator: Adobe Illustrator 14.0.0, SVG Export Plug-In . SVG Version: 6.00 Build 43363)  -->

<svg
   xmlns:a="http://ns.adobe.com/AdobeSVGViewerExtensions/3.0/"
   xmlns:dc="http://purl.org/dc/elements/1.1/"
   xmlns:cc="http://creativecommons.org/ns#"
   xmlns:rdf="http://www.w3.org/1999/02/22-rdf-syntax-ns#"
   xmlns:svg="http://www.w3.org/2000/svg"
   xmlns="http://www.w3.org/2000/svg"
   xmlns:sodipodi="http://sodipodi.sourceforge.net/DTD/sodipodi-0.dtd"
   xmlns:inkscape="http://www.inkscape.org/namespaces/inkscape"
   version="1.1"
   id="Ebene_1"
   x="0px"
   y="0px"
   width="279"
   height="279"
   viewBox="0 0 279 279"
   enable-background="new 0 0 566.93 566.93"
   xml:space="preserve"
   inkscape:version="0.48.4 r9939"
   sodipodi:docname="Anonymous_Logos.svg"><metadata
   id="metadata3118"><rdf:RDF><cc:Work
       rdf:about=""><dc:format>image/svg+xml</dc:format><dc:type
         rdf:resource="http://purl.org/dc/dcmitype/StillImage" /><dc:title></dc:title></cc:Work></rdf:RDF></metadata><defs
   id="defs3116" /><sodipodi:namedview
   pagecolor="#ffffff"
   bordercolor="#666666"
   borderopacity="1"
   objecttolerance="10"
   gridtolerance="10"
   guidetolerance="10"
   inkscape:pageopacity="0"
   inkscape:pageshadow="2"
   inkscape:window-width="1211"
   inkscape:window-height="1002"
   id="namedview3114"
   showgrid="false"
   showguides="true"
   inkscape:guide-bbox="true"
   fit-margin-top="0"
   fit-margin-left="0"
   fit-margin-right="0"
   fit-margin-bottom="0"
   inkscape:zoom="2.3548191"
   inkscape:cx="169.11128"
   inkscape:cy="120.32212"
   inkscape:window-x="1592"
   inkscape:window-y="-8"
   inkscape:window-maximized="1"
   inkscape:current-layer="_x31_" />

<rect
   y="-5.6843419e-014"
   width="279"
   height="279"
   id="rect3085"
   x="0" />



<g
   id="_x31_"
   transform="translate(0,0.07)">
	<linearGradient
   id="SVGID_2_"
   gradientUnits="userSpaceOnUse"
   x1="83.322304"
   y1="118.9004"
   x2="197.4355"
   y2="118.9004">
		<stop
   offset="0"
   style="stop-color:#3E3D40"
   id="stop3104" />
		<stop
   offset="0.5"
   style="stop-color:#282829"
   id="stop3106" />
		<stop
   offset="1"
   style="stop-color:#3E3D40"
   id="stop3108" />
		<a:midPointStop
   offset="0"
   style="stop-color:#3E3D40" />
		<a:midPointStop
   offset="0.5"
   style="stop-color:#3E3D40" />
		<a:midPointStop
   offset="0.5"
   style="stop-color:#282829" />
		<a:midPointStop
   offset="0.5"
   style="stop-color:#282829" />
		<a:midPointStop
   offset="1"
   style="stop-color:#3E3D40" />
	</linearGradient>
	<path
   d="m 140.379,61.844 c -31.461,0 -57.057,25.596 -57.057,57.057 0,31.461 25.596,57.056 57.057,57.056 31.461,0 57.057,-25.595 57.057,-57.056 0,-31.461 -25.596,-57.057 -57.057,-57.057 z m 54.955,56.019 h -18.918 c -0.064,-6.402 -0.731,-12.094 -1.846,-17.144 7.742,-2.813 12.188,-6.056 14.233,-7.831 4.026,7.464 6.363,15.958 6.531,24.975 z m -7.586,-26.829 c -1.692,1.49 -5.955,4.732 -13.675,7.585 -2.431,-9.578 -6.491,-16.728 -10.962,-22.045 2.495,-1.999 4.248,-3.864 5.223,-4.991 7.994,4.741 14.687,11.447 19.414,19.451 z m -15.644,47.455 c -2.405,9.612 -6.434,16.571 -10.581,21.528 -2.957,-2.147 -6.722,-4.281 -11.207,-5.649 1.676,-5.579 3.186,-12.171 4.123,-19.651 7.13,0.815 12.965,2.2 17.665,3.772 z M 150.315,83.434 c 4.458,-1.36 8.204,-3.476 11.152,-5.61 4.337,5.146 8.287,12.109 10.639,21.486 -4.699,1.573 -10.535,2.959 -17.668,3.776 -0.937,-7.482 -2.447,-14.073 -4.123,-19.652 z m 4.362,49.204 c 0.433,-3.998 0.696,-8.236 0.731,-12.701 h 18.934 c -0.064,6.167 -0.704,11.628 -1.751,16.459 -4.791,-1.576 -10.711,-2.948 -17.914,-3.758 z m 0.731,-14.775 c -0.035,-4.465 -0.299,-8.703 -0.731,-12.701 7.205,-0.81 13.126,-2.183 17.917,-3.759 1.054,4.851 1.685,10.315 1.749,16.459 h -18.935 z m 11.077,-47.341 c -0.973,1.075 -2.584,2.713 -4.778,4.453 -4.942,-5.378 -10.219,-8.654 -14.264,-10.587 6.812,0.878 13.243,2.993 19.042,6.134 z m -6.433,5.699 c -2.771,1.979 -6.258,3.934 -10.359,5.204 -2.601,-8.111 -5.454,-13.852 -7.091,-16.813 3.652,1.26 10.836,4.459 17.45,11.609 z m -18.635,-9.446 c 1.625,3.076 4.045,8.228 6.284,15.202 -1.969,0.475 -4.07,0.773 -6.284,0.848 v -16.05 z m 0,18.126 c 2.445,-0.074 4.753,-0.401 6.908,-0.919 1.645,5.474 3.131,11.954 4.053,19.324 -3.371,0.322 -7.026,0.511 -10.961,0.541 V 84.901 z m -16.067,35.037 c 0.036,4.465 0.299,8.703 0.731,12.701 -7.205,0.81 -13.126,2.183 -17.917,3.759 -1.054,-4.851 -1.684,-10.315 -1.749,-16.46 h 18.935 z m -18.934,-2.075 c 0.065,-6.167 0.706,-11.629 1.751,-16.458 4.791,1.576 10.711,2.948 17.914,3.758 -0.433,3.998 -0.695,8.236 -0.731,12.701 h -18.934 z m 19.903,16.853 c 0.938,7.48 2.447,14.072 4.123,19.651 -4.458,1.361 -8.204,3.475 -11.152,5.609 -4.337,-5.147 -8.286,-12.109 -10.638,-21.487 4.699,-1.571 10.536,-2.957 17.667,-3.773 z M 108.655,99.312 c 2.404,-9.613 6.433,-16.571 10.58,-21.528 2.957,2.148 6.722,4.281 11.207,5.65 -1.676,5.579 -3.186,12.171 -4.123,19.652 -7.13,-0.817 -12.965,-2.203 -17.664,-3.774 z m 23.784,-15.329 c 2.152,0.518 4.459,0.844 6.901,0.918 v 18.945 c -3.934,-0.029 -7.587,-0.218 -10.959,-0.54 0.924,-7.368 2.412,-13.848 4.058,-19.323 z m 0.624,-2.004 c 2.239,-6.968 4.655,-12.119 6.278,-15.198 v 16.044 c -2.212,-0.074 -4.31,-0.372 -6.278,-0.846 z m -1.998,-0.555 c -4.132,-1.279 -7.64,-3.253 -10.422,-5.248 0.955,-1.038 1.908,-1.978 2.839,-2.82 5.738,-5.19 11.525,-7.682 14.679,-8.754 -1.636,2.959 -4.493,8.703 -7.096,16.822 z m 2.249,-17.036 c -4.045,1.934 -9.321,5.209 -14.264,10.587 -2.194,-1.739 -3.806,-3.378 -4.777,-4.453 5.799,-3.141 12.23,-5.256 19.041,-6.134 z m -20.89,7.195 c 0.976,1.127 2.728,2.992 5.223,4.991 -4.47,5.318 -8.531,12.468 -10.962,22.045 -7.72,-2.853 -11.982,-6.096 -13.674,-7.585 4.727,-8.004 11.419,-14.71 19.413,-19.451 z m -20.47,21.306 c 2.045,1.775 6.491,5.018 14.233,7.831 -1.114,5.049 -1.781,10.741 -1.846,17.144 H 85.424 c 0.168,-9.018 2.506,-17.512 6.53,-24.975 z m -6.53,27.049 h 18.918 c 0.064,6.403 0.731,12.094 1.846,17.145 -7.742,2.812 -12.188,6.055 -14.233,7.83 -4.025,-7.463 -6.363,-15.958 -6.531,-24.975 z m 7.587,26.829 c 1.691,-1.489 5.954,-4.731 13.674,-7.584 2.431,9.577 6.492,16.727 10.962,22.044 -2.495,1.999 -4.247,3.865 -5.223,4.992 -7.994,-4.742 -14.686,-11.448 -19.413,-19.452 z m 21.263,20.51 c 0.971,-1.073 2.582,-2.713 4.776,-4.452 4.942,5.377 10.219,8.653 14.264,10.587 -6.811,-0.878 -13.242,-2.992 -19.04,-6.135 z m 6.432,-5.698 c 2.771,-1.979 6.258,-3.933 10.359,-5.203 2.601,8.111 5.454,13.852 7.091,16.813 -3.652,-1.262 -10.836,-4.46 -17.45,-11.61 z m 18.635,9.446 c -1.625,-3.077 -4.044,-8.227 -6.284,-15.202 1.97,-0.474 4.07,-0.775 6.284,-0.848 v 16.05 z m 0,-18.125 c -2.445,0.073 -4.753,0.399 -6.908,0.919 -1.239,-4.125 -2.388,-8.822 -3.273,-14.041 -0.399,-0.691 -0.742,-1.416 -1.01,-2.172 -1.085,-3.072 -0.975,-6.098 -0.351,-8.977 -0.215,-2.792 -0.35,-5.684 -0.374,-8.692 h 3.379 c 0.285,-0.716 0.547,-1.407 0.78,-2.075 h -4.159 c 0.035,-4.39 0.293,-8.556 0.719,-12.484 3.445,0.323 7.176,0.514 11.197,0.542 v 6.956 h 2.076 v -6.956 c 4.021,-0.029 7.754,-0.22 11.198,-0.542 0.426,3.927 0.683,8.093 0.718,12.484 h -3.093 c 0.271,0.588 0.565,1.281 0.866,2.075 h 2.227 c -0.021,2.646 -0.132,5.201 -0.303,7.681 0.158,1.24 0.26,2.538 0.26,3.897 0,1.893 -0.496,3.797 -1.275,5.626 -0.927,6.28 -2.25,11.867 -3.696,16.676 -2.152,-0.519 -4.458,-0.845 -6.901,-0.918 v -3.149 c -0.456,-0.205 -1.184,-0.546 -2.076,-1.023 v 4.173 z m 2.076,2.076 c 2.212,0.073 4.311,0.373 6.278,0.847 -2.238,6.967 -4.655,12.118 -6.278,15.197 v -16.044 z m 8.275,1.4 c 4.132,1.279 7.641,3.254 10.423,5.248 -0.956,1.038 -1.909,1.977 -2.84,2.82 -5.737,5.19 -11.525,7.682 -14.679,8.754 1.636,-2.959 4.494,-8.702 7.096,-16.822 z m -2.249,17.037 c 4.045,-1.934 9.321,-5.209 14.264,-10.587 2.194,1.739 3.806,3.378 4.777,4.452 -5.798,3.142 -12.229,5.256 -19.041,6.135 z m 20.891,-7.195 c -0.975,-1.127 -2.728,-2.993 -5.223,-4.992 4.471,-5.317 8.531,-12.467 10.962,-22.044 7.72,2.853 11.982,6.095 13.675,7.584 -4.727,8.005 -11.42,14.711 -19.414,19.452 z m 20.47,-21.306 c -2.045,-1.775 -6.491,-5.018 -14.233,-7.83 1.114,-5.051 1.781,-10.741 1.846,-17.145 h 18.918 c -0.169,9.018 -2.506,17.513 -6.531,24.975 z"
   id="path3110"
   inkscape:connector-curvature="0"
   style="fill:url(#SVGID_2_)" />
	<path
   d="m 84.075,163.262 c -0.804,-2.027 -2.034,-3.934 -2.639,-6.056 -2.323,-9.708 -1.077,-20.881 -5.228,-29.84 0.772,5.099 -1.23,9.586 -1.689,14.429 -0.395,3.981 0.21,7.915 1.866,11.212 0.347,1.037 1.271,1.881 1.504,2.887 -1.487,-1.343 -2.453,-3.113 -3.571,-4.721 -4.722,-7.859 -14.92,-12.862 -15.604,-22.345 -0.345,4.215 -0.159,8.768 1.433,12.444 3.78,10.642 15.402,16.175 23.928,21.99 z M 81.188,76.395 c -2.429,3.266 -2.485,7.504 -4.198,11.06 3.168,-2.984 6.725,-5.252 9.522,-8.727 3.122,-4.343 6.05,-9.049 10.256,-12.74 -5.728,2.235 -12.137,4.366 -15.58,10.407 z m 60.517,36.347 -3.918,0 c -1.221,0.266 -2.243,1.005 -3.24,1.706 0.08,0.04 0.186,0.088 0.273,0.128 2.011,-1.021 4.383,-1.56 6.636,-1.11 1.335,0.281 2.551,0.909 3.845,1.311 -0.097,-0.129 -0.2,-0.233 -0.297,-0.354 -0.95,-0.796 -2.117,-1.311 -3.299,-1.681 z m -70.072,31.466 0.426,0.354 c -0.451,-3.129 -0.708,-6.516 0.178,-9.5 1.343,-4.785 2.895,-9.45 3.916,-14.381 0.547,-3.869 1.513,-8.156 1.062,-11.888 -0.515,2.011 -1.125,3.934 -2.164,5.679 -4.254,6.451 -8.492,14.132 -5.557,22.376 -0.016,0.008 -0.023,0.048 -0.049,0.073 -0.009,0.008 -0.017,0.016 -0.024,0.023 -0.016,0.016 -0.031,0.016 -0.048,0.023 -0.024,0.017 -0.056,0.025 -0.08,0.025 l -0.073,0 c -1.183,-2.719 -1.384,-5.847 -2.213,-8.744 -1.97,-7.745 -7.971,-14.204 -6.257,-23.124 -0.908,1.93 -1.279,4.102 -1.762,6.209 -1.03,5.47 -0.016,11.285 1.479,16.312 1.843,6.299 8.044,10.796 11.166,16.563 z m -1.585,-40.145 c 1.383,-2.831 3.82,-5.348 6.338,-7.561 6.097,-4.303 12.451,-10.327 12.54,-17.968 -1.971,5.493 -7.915,7.81 -11.937,11.534 -2.074,2.035 -3.732,4.4 -4.682,6.885 l -0.145,-0.128 c 0.491,-2.188 1.488,-4.182 2.06,-6.33 1.794,-5.815 1.415,-12.789 7.086,-16.689 -2.92,0.748 -5.519,2.501 -7.568,5.051 -4.706,4.955 -4.207,12.596 -3.539,19.28 0.136,2.066 -0.29,4.004 -0.153,5.926 z m 9.322,-1.527 c 1.286,-2.864 2.261,-5.976 2.646,-9.073 -0.523,1.319 -1.407,2.445 -2.413,3.571 -4.714,4.287 -10.11,8.703 -11.14,14.928 -0.169,0.885 -0.218,1.802 -0.476,2.663 -0.008,0 -0.023,0 -0.023,0 -0.008,0 -0.024,0.024 -0.024,0.024 -0.009,0 -0.024,0 -0.024,0 l -0.056,0 -0.024,-0.024 c -0.032,-0.032 -0.081,-0.081 -0.097,-0.129 -0.008,-0.008 -0.023,-0.04 -0.031,-0.048 0,0 -0.017,-0.024 -0.024,-0.024 l 0.578,-7.689 c 0.202,-7.537 -3.394,-15.878 0.958,-22.498 -0.041,-0.008 -0.072,-0.008 -0.097,0 l -0.032,0 c -0.017,0.008 -0.057,0.041 -0.073,0.049 -0.039,0.032 -0.08,0.056 -0.128,0.072 -3.948,5.051 -6.78,10.577 -6.604,17.349 -0.547,8.333 4.802,14.22 5.397,22.063 1.239,-8.188 8.035,-14.076 11.687,-21.234 z m 2.067,41.068 c 3.499,6.998 1.835,16.119 6.507,22.626 1.287,2.146 3.419,4.022 5.253,5.678 l -0.096,0.096 c -1.658,-0.772 -3.186,-1.882 -4.65,-3.193 -7.986,-6.548 -19.882,-7.448 -24.636,-18.218 1.287,7.907 7.439,15.114 14.324,19.352 6.314,4.408 14.696,3.756 21.846,6.105 -6.604,-5.325 -7.697,-13.304 -10.561,-20.357 -1.906,-4.319 -4.81,-8.276 -7.987,-12.089 z m 129.344,-30.21 c 0,0.016 -0.023,0.032 -0.023,0.048 -0.01,0.008 0,0.04 0,0.048 -0.01,0.016 -0.041,0.041 -0.05,0.057 -0.016,0.008 -0.041,0.016 -0.057,0.024 -0.031,0.016 -0.063,0.024 -0.096,0.024 -0.546,-1.777 -0.499,-3.829 -1.383,-5.477 -2.148,-6.54 -10.046,-9.604 -13.249,-15.54 0.452,2.59 1.265,5.035 2.213,7.416 3.001,7.279 10.28,12.772 12.291,20.486 0.231,0.716 0.297,1.576 0.554,2.212 0.54,-3.7 1.488,-7.263 2.863,-10.609 3.691,-7.883 2.607,-18.838 -2.461,-25.714 -0.894,-1.102 -1.48,-2.542 -2.767,-3.29 2.003,2.791 2.364,6.274 2.413,9.877 -0.908,6.651 -1.198,13.706 -0.248,20.438 z m 2.46,9.226 c -1.776,4.037 -2.372,8.606 -3.515,12.941 l -0.33,0.378 -0.153,-0.128 c 0.403,-1.882 1.063,-3.716 0.886,-5.856 0.483,-8.831 -7.229,-14.244 -8.976,-22.119 l -0.097,2.944 c 0.652,7.713 2.702,14.864 5.027,21.894 1.335,3.258 0.933,7.489 0.626,10.931 2.775,-4.351 6.404,-8.333 9.395,-12.619 4.216,-7.73 5.391,-18.79 1.538,-27.066 1.287,7.02 -1.868,12.884 -4.401,18.7 z M 201.057,79.057 c 1.697,5.566 2.533,11.445 4.971,16.666 l -0.146,0.152 c -0.917,-1.456 -1.398,-3.241 -2.814,-4.528 -4.247,-5.574 -11.614,-7.038 -14.358,-13.65 0.693,3.95 1.884,7.673 4.65,10.738 4.785,5.156 11.735,8.205 15.009,14.655 l 0.049,-0.057 c -1.224,-6.081 0.73,-11.944 -0.604,-17.969 -1.157,-5.325 -5.991,-11.148 -11.559,-12.29 2.266,1.521 3.95,3.871 4.802,6.283 z m -61.72,-46.299 c -48.794,0 -88.35,39.555 -88.35,88.35 0,48.795 39.556,88.35 88.35,88.35 48.794,0 88.35,-39.555 88.35,-88.35 0,-48.795 -39.556,-88.35 -88.35,-88.35 z m 25.466,169.02 c -0.268,-3.728 -0.522,-7.449 -0.769,-11.168 4.874,1.793 10.207,2.268 15.402,0.321 3.854,-1.368 7.576,-3.836 10.304,-7.239 -5.302,3.78 -13.312,4.432 -19.505,2.141 l -6.661,-2.688 c -0.023,-0.016 -0.047,-0.048 -0.072,-0.048 -0.008,-0.121 -0.016,-0.226 -0.023,-0.33 -0.146,-0.708 0.033,-1.432 -0.227,-2.115 0.122,-0.073 0.25,-0.146 0.38,-0.226 8.139,1.811 16.616,4.793 25.03,1.608 5.606,-1.97 11.767,-6.675 14.229,-12.29 -6.627,8.06 -17.455,6.531 -26.896,8.019 -2.543,0.258 -4.876,1.159 -7.44,1.103 1.801,-0.853 3.996,-1.038 5.726,-2.18 7.046,-3.522 7.505,-11.316 11.769,-16.794 -3.242,2.212 -6.131,4.81 -8.952,7.544 l 0,-3.5 c -0.194,-0.659 -0.058,-1.335 -0.194,-2.011 -0.144,-2.139 -0.273,-4.287 -0.555,-6.41 -0.548,-2.791 -0.459,-5.671 -0.981,-8.47 -0.161,-0.981 -0.717,-1.825 -1.005,-2.767 0.321,-0.129 0.651,-0.282 0.981,-0.402 -0.097,-0.241 -0.146,-0.523 -0.33,-0.725 -0.033,-0.039 -0.096,-0.096 -0.122,-0.128 -0.312,-0.282 -0.69,-0.595 -0.61,-1.054 0.146,-0.723 0.756,-1.247 1.135,-1.857 -0.402,-0.418 -0.958,-0.595 -1.48,-0.805 0.008,-0.683 0.039,-1.399 -0.08,-2.058 -0.338,-2.889 -0.845,-5.76 -1.102,-8.656 -0.065,-1.527 -1.078,-3.063 -2.614,-3.562 -3.46,-0.121 -6.877,-0.821 -10.232,-1.634 -2.258,-0.563 -4.656,-1.294 -6.256,-3.04 -0.917,-1.198 -2.269,-1.947 -3.442,-2.872 -1.313,-0.933 -2.574,-2.083 -4.225,-2.413 0.515,1.102 1.835,1.616 2.286,2.743 0.12,0.644 -0.363,1.246 -0.226,1.906 -0.081,0.804 1.013,0.949 1.158,1.665 0.458,1.457 0.2,3.016 0.273,4.52 -0.234,4.151 -0.853,8.277 -1.907,12.314 -0.699,2.406 -1.488,4.827 -2.839,6.966 -0.442,0.724 -1.037,1.383 -1.713,1.906 -0.008,-1.874 0.031,-3.788 0,-5.678 -0.233,-1.368 0.016,-2.767 -0.226,-4.119 0.008,-1.962 -0.434,-3.876 -0.756,-5.807 -0.242,-1.447 -0.66,-2.871 -0.982,-4.294 -0.2,-0.797 -0.441,-1.602 -0.474,-2.414 0.017,-0.467 0.508,-0.725 0.829,-0.981 1.094,1.021 1.721,2.413 2.687,3.539 -0.322,-1.295 -0.925,-2.518 -1.48,-3.74 -0.66,-1.408 -1.616,-2.647 -2.566,-3.877 0.942,-0.257 1.811,-0.684 2.696,-1.078 1.255,-0.7 2.693,-1.239 3.619,-2.389 -0.234,-0.41 -0.371,-0.941 -0.829,-1.158 0.128,0.394 0.281,0.78 0.449,1.158 -0.288,0.121 -0.61,0.41 -0.933,0.225 -1.439,-0.756 -2.975,-1.609 -4.673,-1.48 -0.635,0.032 -1.278,-0.008 -1.915,0 -0.522,0.008 -1.045,0.056 -1.551,0.225 -1.183,0.322 -2.269,0.893 -3.347,1.456 -0.177,-0.241 -0.387,-0.475 -0.556,-0.724 0.146,-0.145 0.299,-0.273 0.46,-0.402 -0.314,-0.032 -0.692,-0.024 -0.935,0.121 -0.032,0.032 -0.079,0.088 -0.104,0.129 -0.016,0.016 -0.023,0.056 -0.023,0.072 -0.016,0.024 -0.04,0.073 -0.048,0.105 -0.009,0.08 -0.033,0.161 0,0.273 1.134,1.078 2.702,1.689 4.118,2.34 0.82,0.386 1.656,0.708 2.445,1.15 -1.199,0.796 -1.601,2.196 -2.269,3.37 -0.507,1.255 -1.287,2.396 -1.634,3.724 0.806,-0.692 1.279,-1.648 1.964,-2.438 0.24,-0.394 0.643,-0.651 1.053,-0.828 0.347,0.33 0.667,0.667 0.981,1.054 -0.241,2.622 -1.432,5.042 -1.834,7.641 -0.153,1.826 -0.177,3.652 -0.272,5.478 -0.202,1.159 0.023,2.365 -0.202,3.524 -0.056,2.066 -0.009,4.149 -0.024,6.225 0.041,0.073 0.153,0.226 0.193,0.307 -0.048,0.016 -0.152,0.088 -0.193,0.096 -1.584,-1.85 -2.79,-3.949 -3.973,-6.057 -1.818,-3.033 -2.952,-6.443 -3.522,-9.902 -0.104,-1.255 -0.339,-2.525 -0.122,-3.796 0.081,-1.496 0.219,-3.056 0.781,-4.472 0.338,-0.94 0.828,-1.874 0.973,-2.863 -0.441,-0.724 -0.571,-1.609 -0.298,-2.414 0.242,-0.724 0.547,-1.432 0.781,-2.164 -1.408,0.909 -2.952,1.585 -4.328,2.542 -0.587,0.387 -0.98,0.981 -1.455,1.48 -0.837,0.764 -1.931,1.126 -2.968,1.561 -1.771,0.78 -3.74,1.03 -5.631,1.431 -2.22,0.443 -4.496,0.627 -6.708,1.182 -0.716,0.194 -1.416,0.652 -1.657,1.352 -0.354,0.949 -0.442,1.979 -0.757,2.944 -0.731,2.453 -1.286,4.938 -1.784,7.44 -0.153,0.756 -0.58,1.495 -0.45,2.292 0.112,0.337 0.369,0.62 0.603,0.901 -0.064,0.192 -0.129,0.386 -0.176,0.579 -0.411,0.273 -0.935,0.418 -1.255,0.78 -0.034,0.04 -0.042,0.08 -0.058,0.121 0,0.024 -0.023,0.04 -0.023,0.056 l 0,0.096 c 0,0.009 0,0.024 0,0.024 0,0.009 0.023,0.017 0.023,0.024 0,0.016 0.023,0.041 0.023,0.056 0.114,0.282 0.491,0.466 0.758,0.579 -0.018,0.612 -0.628,1.03 -0.677,1.656 -0.232,1.771 -0.668,3.5 -1.029,5.253 -0.402,2.164 -0.771,4.319 -0.981,6.508 -0.16,2.855 -0.845,5.653 -0.956,8.525 -0.009,0.9 -0.242,1.817 -0.05,2.71 0.153,0.973 0.732,1.817 1.231,2.637 0.153,0.234 0.29,0.452 0.451,0.685 -3.41,-3.29 -6.798,-6.467 -10.602,-9 4.303,5.815 5.484,14.47 13.439,17.269 1.327,0.692 3.017,0.612 4.224,1.384 -1.521,0.233 -2.839,-0.363 -4.271,-0.556 -10.151,-2.276 -22.618,0.611 -30.234,-8.067 2.886,5.67 8.83,10.223 14.574,12.041 7.672,2.605 15.651,0.426 23.075,-1.537 -0.137,1.062 -0.289,2.131 -0.427,3.193 -1.311,0.579 -2.613,1.183 -3.892,1.73 -6.25,2.46 -14.422,2.059 -19.916,-1.73 2.719,3.411 6.354,5.51 10.11,6.934 4.054,1.625 8.551,1.649 12.741,0.603 -0.389,2.98 -0.789,5.958 -1.166,8.932 -32.829,-11.623 -56.352,-42.925 -56.352,-79.736 0,-46.712 37.867,-84.579 84.579,-84.579 46.712,0 84.579,37.867 84.579,84.579 0.003,37.84 -24.845,69.868 -59.11,80.675 z m 44.44,-57.723 c -3.208,3.442 -5.347,7.303 -8.09,10.914 l -0.353,0 c 2.034,-3.097 3.305,-6.531 3.497,-10.407 0.194,-6.419 -2.572,-11.855 -1.865,-18.25 l -1.278,3.442 c -3.45,10.272 -0.709,23.101 -6.306,32.43 l 0,0.322 c 3.658,-2.839 7.504,-5.146 11.309,-7.641 9.233,-6.305 15.492,-16.079 13.801,-27.218 -0.658,6.676 -5.727,11.598 -10.715,16.408 z m -67.787,-39.412 c 0.595,-0.572 0.909,-1.279 0.909,-2.083 0,-0.804 -0.314,-1.472 -0.909,-2.035 -0.588,-0.563 -1.312,-0.853 -2.164,-0.853 -0.829,0 -1.561,0.29 -2.155,0.853 -0.595,0.563 -0.885,1.231 -0.885,2.035 0,0.805 0.29,1.512 0.885,2.083 0.587,0.563 1.326,0.836 2.155,0.836 0.844,-0.008 1.576,-0.273 2.164,-0.836 z m 4.125,-22.923 c -1.271,-1.11 -3.136,-1.681 -5.58,-1.681 -2.31,0 -4.095,0.547 -5.382,1.609 -1.287,1.078 -1.931,2.3 -1.931,3.724 0,0.764 0.226,1.423 0.7,1.906 0.482,0.458 1.078,0.676 1.785,0.676 0.637,0 1.158,-0.177 1.585,-0.571 0.418,-0.394 0.627,-0.901 0.627,-1.488 0,-0.652 -0.266,-1.439 -0.804,-2.365 -0.242,-0.402 -0.354,-0.684 -0.354,-0.876 0,-0.29 0.177,-0.579 0.53,-0.853 0.458,-0.346 1.021,-0.506 1.704,-0.506 0.901,0 1.689,0.378 2.341,1.134 0.652,0.756 0.981,1.923 0.981,3.515 0,1.037 -0.111,1.914 -0.329,2.614 -0.201,0.708 -0.643,1.625 -1.304,2.791 -0.65,1.15 -1.061,2.051 -1.229,2.718 -0.153,0.652 -0.211,1.649 -0.177,2.992 l 0.779,0 c 0.088,-1.279 0.307,-2.236 0.7,-2.839 0.409,-0.635 1.246,-1.319 2.519,-2.115 1.873,-1.174 3.136,-2.252 3.787,-3.218 0.66,-0.965 1.006,-2.019 1.014,-3.168 0.002,-1.571 -0.674,-2.897 -1.962,-3.999 z m 55.347,4.801 -0.699,-1.608 c -1.231,-5.043 -3.12,-9.91 -7.32,-13.674 -3.57,-3.209 -8.067,-4.254 -12.242,-6.032 l 4.754,4.802 c 3.884,6.225 9.419,12.129 15.507,16.512 z m 7.689,70.838 c -6.636,4.97 -14.647,6.708 -20.783,12.836 -0.66,0.434 -1.32,1.094 -2.061,1.134 2.294,-2.003 4.377,-4.496 5.832,-7.038 3.772,-6.411 2.341,-14.985 5.63,-21.587 -2.011,2.195 -3.435,4.616 -5.154,6.933 -5.406,8.196 -4.938,18.982 -13.047,25.939 4.786,-1.632 10.055,-2.042 14.985,-3.37 9.521,-3.032 19.633,-12.587 20.88,-22.771 -1.159,3.009 -3.619,5.8 -6.282,7.924 z"
   id="path3112"
   inkscape:connector-curvature="0"
   style="fill:#ffffff"
   sodipodi:nodetypes="cccccccccccccccccccccccccccccccscsccccccccccccccccccccccccccscccccccccccccccccccccccccccccccccccccccccccccccccccccccccccccsssssccccccccccccccccccccccccccccccccccccccccccccccccccccccccccccccccccccccccccccccccccccccccccccccccccccsscsccccccccccccccccccccccssccccccccccccccscscsccccscscscscscssscccccccccccccccccccccccccc" />
</g>
</svg>