  0
SECTION
  2
HEADER
  9
$ACADVER
  1
AC1018
  9
$ACADMAINTVER
 70
     0
  9
$DWGCODEPAGE
  3
ANSI_1252
  9
$INSBASE
 10
0.0
 20
0.0
 30
0.0
  9
$EXTMIN
 10
-3.08585776343176
 20
-1.187500000000001
 30
-0.0000000000000002
  9
$EXTMAX
 10
3.085857763431761
 20
1.187500000000001
 30
0.0250000000000001
  9
$LIMMIN
 10
0.0
 20
0.0
  9
$LIMMAX
 10
12.0
 20
9.0
  9
$ORTHOMODE
 70
     0
  9
$REGENMODE
 70
     1
  9
$FILLMODE
 70
     1
  9
$QTEXTMODE
 70
     0
  9
$MIRRTEXT
 70
     1
  9
$LTSCALE
 40
1.0
  9
$ATTMODE
 70
     1
  9
$TEXTSIZE
 40
0.2
  9
$TRACEWID
 40
0.05
  9
$TEXTSTYLE
  7
Standard
  9
$CLAYER
  8
Rotor
  9
$CELTYPE
  6
ByLayer
  9
$CECOLOR
 62
   256
  9
$CELTSCALE
 40
1.0
  9
$DISPSILH
 70
     0
  9
$DIMSCALE
 40
1.0
  9
$DIMASZ
 40
0.18
  9
$DIMEXO
 40
0.0625
  9
$DIMDLI
 40
0.38
  9
$DIMRND
 40
0.0
  9
$DIMDLE
 40
0.0
  9
$DIMEXE
 40
0.18
  9
$DIMTP
 40
0.0
  9
$DIMTM
 40
0.0
  9
$DIMTXT
 40
0.18
  9
$DIMCEN
 40
0.09
  9
$DIMTSZ
 40
0.0
  9
$DIMTOL
 70
     0
  9
$DIMLIM
 70
     0
  9
$DIMTIH
 70
     1
  9
$DIMTOH
 70
     1
  9
$DIMSE1
 70
     0
  9
$DIMSE2
 70
     0
  9
$DIMTAD
 70
     0
  9
$DIMZIN
 70
     0
  9
$DIMBLK
  1

  9
$DIMASO
 70
     1
  9
$DIMSHO
 70
     1
  9
$DIMPOST
  1

  9
$DIMAPOST
  1

  9
$DIMALT
 70
     0
  9
$DIMALTD
 70
     2
  9
$DIMALTF
 40
25.4
  9
$DIMLFAC
 40
1.0
  9
$DIMTOFL
 70
     0
  9
$DIMTVP
 40
0.0
  9
$DIMTIX
 70
     0
  9
$DIMSOXD
 70
     0
  9
$DIMSAH
 70
     0
  9
$DIMBLK1
  1

  9
$DIMBLK2
  1

  9
$DIMSTYLE
  2
Standard
  9
$DIMCLRD
 70
     0
  9
$DIMCLRE
 70
     0
  9
$DIMCLRT
 70
     0
  9
$DIMTFAC
 40
1.0
  9
$DIMGAP
 40
0.09
  9
$DIMJUST
 70
     0
  9
$DIMSD1
 70
     0
  9
$DIMSD2
 70
     0
  9
$DIMTOLJ
 70
     1
  9
$DIMTZIN
 70
     0
  9
$DIMALTZ
 70
     0
  9
$DIMALTTZ
 70
     0
  9
$DIMUPT
 70
     0
  9
$DIMDEC
 70
     4
  9
$DIMTDEC
 70
     4
  9
$DIMALTU
 70
     2
  9
$DIMALTTD
 70
     2
  9
$DIMTXSTY
  7
Standard
  9
$DIMAUNIT
 70
     0
  9
$DIMADEC
 70
     0
  9
$DIMALTRND
 40
0.0
  9
$DIMAZIN
 70
     0
  9
$DIMDSEP
 70
    46
  9
$DIMATFIT
 70
     3
  9
$DIMFRAC
 70
     0
  9
$DIMLDRBLK
  1

  9
$DIMLUNIT
 70
     2
  9
$DIMLWD
 70
    -2
  9
$DIMLWE
 70
    -2
  9
$DIMTMOVE
 70
     0
  9
$LUNITS
 70
     5
  9
$LUPREC
 70
     1
  9
$SKETCHINC
 40
0.1
  9
$FILLETRAD
 40
0.5
  9
$AUNITS
 70
     0
  9
$AUPREC
 70
     0
  9
$MENU
  1
.
  9
$ELEVATION
 40
0.0
  9
$PELEVATION
 40
0.0
  9
$THICKNESS
 40
0.0
  9
$LIMCHECK
 70
     0
  9
$CHAMFERA
 40
0.5
  9
$CHAMFERB
 40
0.5
  9
$CHAMFERC
 40
1.0
  9
$CHAMFERD
 40
0.0
  9
$SKPOLY
 70
     0
  9
$TDCREATE
 40
2456753.914706204
  9
$TDUCREATE
 40
2456753.914706204
  9
$TDUPDATE
 40
2456753.956372882
  9
$TDUUPDATE
 40
2456753.914706215
  9
$TDINDWG
 40
0.0000000116
  9
$TDUSRTIMER
 40
0.0000000116
  9
$USRTIMER
 70
     1
  9
$ANGBASE
 50
0.0
  9
$ANGDIR
 70
     0
  9
$PDMODE
 70
     0
  9
$PDSIZE
 40
0.0
  9
$PLINEWID
 40
0.0
  9
$SPLFRAME
 70
     0
  9
$SPLINETYPE
 70
     6
  9
$SPLINESEGS
 70
     8
  9
$HANDSEED
  5
B5
  9
$SURFTAB1
 70
     6
  9
$SURFTAB2
 70
     6
  9
$SURFTYPE
 70
     6
  9
$SURFU
 70
     6
  9
$SURFV
 70
     6
  9
$UCSBASE
  2

  9
$UCSNAME
  2

  9
$UCSORG
 10
0.0
 20
0.0
 30
0.0
  9
$UCSXDIR
 10
1.0
 20
0.0
 30
0.0
  9
$UCSYDIR
 10
0.0
 20
1.0
 30
0.0
  9
$UCSORTHOREF
  2

  9
$UCSORTHOVIEW
 70
     0
  9
$UCSORGTOP
 10
0.0
 20
0.0
 30
0.0
  9
$UCSORGBOTTOM
 10
0.0
 20
0.0
 30
0.0
  9
$UCSORGLEFT
 10
0.0
 20
0.0
 30
0.0
  9
$UCSORGRIGHT
 10
0.0
 20
0.0
 30
0.0
  9
$UCSORGFRONT
 10
0.0
 20
0.0
 30
0.0
  9
$UCSORGBACK
 10
0.0
 20
0.0
 30
0.0
  9
$PUCSBASE
  2

  9
$PUCSNAME
  2

  9
$PUCSORG
 10
0.0
 20
0.0
 30
0.0
  9
$PUCSXDIR
 10
1.0
 20
0.0
 30
0.0
  9
$PUCSYDIR
 10
0.0
 20
1.0
 30
0.0
  9
$PUCSORTHOREF
  2

  9
$PUCSORTHOVIEW
 70
     0
  9
$PUCSORGTOP
 10
0.0
 20
0.0
 30
0.0
  9
$PUCSORGBOTTOM
 10
0.0
 20
0.0
 30
0.0
  9
$PUCSORGLEFT
 10
0.0
 20
0.0
 30
0.0
  9
$PUCSORGRIGHT
 10
0.0
 20
0.0
 30
0.0
  9
$PUCSORGFRONT
 10
0.0
 20
0.0
 30
0.0
  9
$PUCSORGBACK
 10
0.0
 20
0.0
 30
0.0
  9
$USERI1
 70
     0
  9
$USERI2
 70
     0
  9
$USERI3
 70
     0
  9
$USERI4
 70
     0
  9
$USERI5
 70
     0
  9
$USERR1
 40
0.0
  9
$USERR2
 40
0.0
  9
$USERR3
 40
0.0
  9
$USERR4
 40
0.0
  9
$USERR5
 40
0.0
  9
$WORLDVIEW
 70
     1
  9
$SHADEDGE
 70
     3
  9
$SHADEDIF
 70
    70
  9
$TILEMODE
 70
     1
  9
$MAXACTVP
 70
    64
  9
$PINSBASE
 10
0.0
 20
0.0
 30
0.0
  9
$PLIMCHECK
 70
     0
  9
$PEXTMIN
 10
1.000000000000000E+20
 20
1.000000000000000E+20
 30
1.000000000000000E+20
  9
$PEXTMAX
 10
-1.000000000000000E+20
 20
-1.000000000000000E+20
 30
-1.000000000000000E+20
  9
$PLIMMIN
 10
0.0
 20
0.0
  9
$PLIMMAX
 10
12.0
 20
9.0
  9
$UNITMODE
 70
     0
  9
$VISRETAIN
 70
     1
  9
$PLINEGEN
 70
     0
  9
$PSLTSCALE
 70
     1
  9
$TREEDEPTH
 70
  3020
  9
$CMLSTYLE
  2
Standard
  9
$CMLJUST
 70
     0
  9
$CMLSCALE
 40
1.0
  9
$PROXYGRAPHICS
 70
     1
  9
$MEASUREMENT
 70
     0
  9
$CELWEIGHT
370
    -1
  9
$ENDCAPS
280
     0
  9
$JOINSTYLE
280
     0
  9
$LWDISPLAY
290
     0
  9
$INSUNITS
 70
     1
  9
$HYPERLINKBASE
  1

  9
$STYLESHEET
  1

  9
$XEDIT
290
     1
  9
$CEPSNTYPE
380
     0
  9
$PSTYLEMODE
290
     0
  9
$FINGERPRINTGUID
  2
{FAEB1C30-E019-11D5-929B-00C0DF256EC4}
  9
$VERSIONGUID
  2
{FAEB1C32-E019-11D5-929B-00C0DF256EC4}
  9
$EXTNAMES
290
     1
  9
$PSVPSCALE
 40
0.0
  9
$OLESTARTUP
290
     0
  9
$SORTENTS
280
   127
  9
$INDEXCTL
280
     0
  9
$HIDETEXT
280
     1
  9
$XCLIPFRAME
290
     0
  9
$HALOGAP
280
     0
  9
$OBSCOLOR
 70
   257
  9
$OBSLTYPE
280
     0
  9
$INTERSECTIONDISPLAY
280
     0
  9
$INTERSECTIONCOLOR
 70
   257
  9
$DIMASSOC
280
     2
  9
$PROJECTNAME
  1

  0
ENDSEC
  0
SECTION
  2
CLASSES
  0
CLASS
  1
ACDBDICTIONARYWDFLT
  2
AcDbDictionaryWithDefault
  3
ObjectDBX Classes
 90
        0
 91
        1
280
     0
281
     0
  0
ENDSEC
  0
SECTION
  2
TABLES
  0
TABLE
  2
VPORT
  5
8
330
0
100
AcDbSymbolTable
 70
     2
  0
VPORT
  5
29
330
8
100
AcDbSymbolTableRecord
100
AcDbViewportTableRecord
  2
*Active
 70
     0
 10
0.0
 20
0.0
 11
1.0
 21
1.0
 12
0.0000000000000004
 22
-0.0000000000000002
 13
0.0
 23
0.0
 14
0.5
 24
0.5
 15
0.5
 25
0.5
 16
0.0
 26
0.0
 36
1.0
 17
0.0
 27
0.0
 37
0.0
 40
3.720433211774283
 41
1.6
 42
50.0
 43
0.0
 44
0.0
 50
0.0
 51
0.0
 71
     0
 72
   100
 73
     1
 74
     3
 75
     0
 76
     0
 77
     0
 78
     0
281
     0
 65
     1
110
0.0
120
0.0
130
0.0
111
1.0
121
0.0
131
0.0
112
0.0
122
1.0
132
0.0
 79
     0
146
0.0
  0
ENDTAB
  0
TABLE
  2
LTYPE
  5
5
330
0
100
AcDbSymbolTable
 70
     1
  0
LTYPE
  5
14
330
5
100
AcDbSymbolTableRecord
100
AcDbLinetypeTableRecord
  2
ByBlock
 70
     0
  3

 72
    65
 73
     0
 40
0.0
  0
LTYPE
  5
15
330
5
100
AcDbSymbolTableRecord
100
AcDbLinetypeTableRecord
  2
ByLayer
 70
     0
  3

 72
    65
 73
     0
 40
0.0
  0
LTYPE
  5
16
330
5
100
AcDbSymbolTableRecord
100
AcDbLinetypeTableRecord
  2
Continuous
 70
     0
  3
Solid line
 72
    65
 73
     0
 40
0.0
  0
ENDTAB
  0
TABLE
  2
LAYER
  5
2
330
0
100
AcDbSymbolTable
 70
     2
  0
LAYER
  5
10
330
2
100
AcDbSymbolTableRecord
100
AcDbLayerTableRecord
  2
0
 70
     0
 62
     7
  6
Continuous
370
    -3
390
F
  0
LAYER
  5
2A
330
2
100
AcDbSymbolTableRecord
100
AcDbLayerTableRecord
  2
Rotor
 70
     0
 62
     7
  6
Continuous
370
    -3
390
F
  0
ENDTAB
  0
TABLE
  2
STYLE
  5
3
330
0
100
AcDbSymbolTable
 70
     1
  0
STYLE
  5
11
330
3
100
AcDbSymbolTableRecord
100
AcDbTextStyleTableRecord
  2
Standard
 70
     0
 40
0.0
 41
1.0
 50
0.0
 71
     0
 42
0.2
  3
txt
  4

  0
ENDTAB
  0
TABLE
  2
VIEW
  5
6
330
0
100
AcDbSymbolTable
 70
     0
  0
ENDTAB
  0
TABLE
  2
UCS
  5
7
330
0
100
AcDbSymbolTable
 70
     0
  0
ENDTAB
  0
TABLE
  2
APPID
  5
9
330
0
100
AcDbSymbolTable
 70
     1
  0
APPID
  5
12
330
9
100
AcDbSymbolTableRecord
100
AcDbRegAppTableRecord
  2
ACAD
 70
     0
  0
ENDTAB
  0
TABLE
  2
DIMSTYLE
  5
A
330
0
100
AcDbSymbolTable
 70
     1
100
AcDbDimStyleTable
  0
DIMSTYLE
105
27
330
A
100
AcDbSymbolTableRecord
100
AcDbDimStyleTableRecord
  2
Standard
 70
     0
340
11
  0
ENDTAB
  0
TABLE
  2
BLOCK_RECORD
  5
1
330
0
100
AcDbSymbolTable
 70
     1
  0
BLOCK_RECORD
  5
1F
330
1
100
AcDbSymbolTableRecord
100
AcDbBlockTableRecord
  2
*Model_Space
340
22
  0
BLOCK_RECORD
  5
1B
330
1
100
AcDbSymbolTableRecord
100
AcDbBlockTableRecord
  2
*Paper_Space
340
1E
  0
BLOCK_RECORD
  5
23
330
1
100
AcDbSymbolTableRecord
100
AcDbBlockTableRecord
  2
*Paper_Space0
340
26
  0
ENDTAB
  0
ENDSEC
  0
SECTION
  2
BLOCKS
  0
BLOCK
  5
20
330
1F
100
AcDbEntity
  8
0
100
AcDbBlockBegin
  2
*Model_Space
 70
     0
 71
     0
 10
0.0
 20
0.0
 30
0.0
  3
*Model_Space
  1

  0
ENDBLK
  5
21
330
1F
100
AcDbEntity
  8
0
100
AcDbBlockEnd
  0
BLOCK
  5
1C
330
1B
100
AcDbEntity
 67
     1
  8
0
100
AcDbBlockBegin
  2
*Paper_Space
 70
     0
 71
     0
 10
0.0
 20
0.0
 30
0.0
  3
*Paper_Space
  1

  0
ENDBLK
  5
1D
330
1B
100
AcDbEntity
 67
     1
  8
0
100
AcDbBlockEnd
  0
BLOCK
  5
24
330
23
100
AcDbEntity
  8
0
100
AcDbBlockBegin
  2
*Paper_Space0
 70
     0
 71
     0
 10
0.0
 20
0.0
 30
0.0
  3
*Paper_Space0
  1

  0
ENDBLK
  5
25
330
23
100
AcDbEntity
  8
0
100
AcDbBlockEnd
  0
ENDSEC
  0
SECTION
  2
ENTITIES
  0
POLYLINE
  5
2B
330
1F
100
AcDbEntity
  8
Rotor
100
AcDb2dPolyline
 66
     1
 10
0.0
 20
0.0
 30
2.375
210
1.0
220
0.0
230
0.0
  0
VERTEX
  5
2D
330
2B
100
AcDbEntity
  8
Rotor
100
AcDbVertex
100
AcDb2dVertex
 10
0.0
 20
0.0249999999999998
 30
2.375
  0
VERTEX
  5
2E
330
2B
100
AcDbEntity
  8
Rotor
100
AcDbVertex
100
AcDb2dVertex
 10
0.0
 20
-0.0000000000000002
 30
2.375
  0
SEQEND
  5
2C
330
2B
100
AcDbEntity
  8
Rotor
  0
POLYLINE
  5
2F
330
1F
100
AcDbEntity
  8
Rotor
100
AcDb2dPolyline
 66
     1
 10
0.0
 20
0.0
 30
0.0
  0
VERTEX
  5
31
330
2F
100
AcDbEntity
  8
Rotor
100
AcDbVertex
100
AcDb2dVertex
 10
2.375
 20
0.0
 30
0.0
 42
0.9999999999999994
  0
VERTEX
  5
32
330
2F
100
AcDbEntity
  8
Rotor
100
AcDbVertex
100
AcDb2dVertex
 10
2.125
 20
-0.0000000000000006
 30
0.0
 42
0.999999999999995
  0
VERTEX
  5
33
330
2F
100
AcDbEntity
  8
Rotor
100
AcDbVertex
100
AcDb2dVertex
 10
2.375
 20
0.0
 30
0.0
  0
SEQEND
  5
30
330
2F
100
AcDbEntity
  8
Rotor
  0
POLYLINE
  5
34
330
1F
100
AcDbEntity
  8
Rotor
100
AcDb2dPolyline
 66
     1
 10
0.0
 20
0.0
 30
0.025
  0
VERTEX
  5
36
330
34
100
AcDbEntity
  8
Rotor
100
AcDbVertex
100
AcDb2dVertex
 10
2.374999999999999
 20
0.0
 30
0.025
 42
-1.000000000000002
  0
VERTEX
  5
37
330
34
100
AcDbEntity
  8
Rotor
100
AcDbVertex
100
AcDb2dVertex
 10
2.125
 20
0.0000000000000003
 30
0.025
 42
-0.9999999999999972
  0
VERTEX
  5
38
330
34
100
AcDbEntity
  8
Rotor
100
AcDbVertex
100
AcDb2dVertex
 10
2.375
 20
0.0
 30
0.025
  0
SEQEND
  5
35
330
34
100
AcDbEntity
  8
Rotor
  0
POLYLINE
  5
39
330
1F
100
AcDbEntity
  8
Rotor
100
AcDb2dPolyline
 66
     1
 10
0.0
 20
0.0
 30
-2.375
210
1.0
220
0.0
230
0.0
  0
VERTEX
  5
3B
330
39
100
AcDbEntity
  8
Rotor
100
AcDbVertex
100
AcDb2dVertex
 10
0.0
 20
0.0249999999999998
 30
-2.375
  0
VERTEX
  5
3C
330
39
100
AcDbEntity
  8
Rotor
100
AcDbVertex
100
AcDb2dVertex
 10
0.0
 20
-0.0000000000000002
 30
-2.375
  0
SEQEND
  5
3A
330
39
100
AcDbEntity
  8
Rotor
  0
POLYLINE
  5
3D
330
1F
100
AcDbEntity
  8
Rotor
100
AcDb2dPolyline
 66
     1
 10
0.0
 20
0.0
 30
0.0
  0
VERTEX
  5
3F
330
3D
100
AcDbEntity
  8
Rotor
100
AcDbVertex
100
AcDb2dVertex
 10
-2.375
 20
0.0
 30
0.0
 42
-0.9999999999999994
  0
VERTEX
  5
40
330
3D
100
AcDbEntity
  8
Rotor
100
AcDbVertex
100
AcDb2dVertex
 10
-2.125
 20
-0.0000000000000006
 30
0.0
 42
-0.999999999999995
  0
VERTEX
  5
41
330
3D
100
AcDbEntity
  8
Rotor
100
AcDbVertex
100
AcDb2dVertex
 10
-2.375
 20
0.0
 30
0.0
  0
SEQEND
  5
3E
330
3D
100
AcDbEntity
  8
Rotor
  0
POLYLINE
  5
42
330
1F
100
AcDbEntity
  8
Rotor
100
AcDb2dPolyline
 66
     1
 10
0.0
 20
0.0
 30
0.025
  0
VERTEX
  5
44
330
42
100
AcDbEntity
  8
Rotor
100
AcDbVertex
100
AcDb2dVertex
 10
-2.374999999999999
 20
0.0
 30
0.025
 42
1.000000000000002
  0
VERTEX
  5
45
330
42
100
AcDbEntity
  8
Rotor
100
AcDbVertex
100
AcDb2dVertex
 10
-2.125
 20
0.0000000000000003
 30
0.025
 42
0.9999999999999972
  0
VERTEX
  5
46
330
42
100
AcDbEntity
  8
Rotor
100
AcDbVertex
100
AcDb2dVertex
 10
-2.375
 20
0.0
 30
0.025
  0
SEQEND
  5
43
330
42
100
AcDbEntity
  8
Rotor
  0
POLYLINE
  5
47
330
1F
100
AcDbEntity
  8
Rotor
100
AcDb2dPolyline
 66
     1
 10
0.0
 20
0.0
 30
-0.4375
210
1.0
220
0.0
230
0.0
  0
VERTEX
  5
49
330
47
100
AcDbEntity
  8
Rotor
100
AcDbVertex
100
AcDb2dVertex
 10
-0.0000000000000001
 20
0.0250000000000001
 30
-0.4375
  0
VERTEX
  5
4A
330
47
100
AcDbEntity
  8
Rotor
100
AcDbVertex
100
AcDb2dVertex
 10
-0.0000000000000001
 20
0.0
 30
-0.4375
  0
SEQEND
  5
48
330
47
100
AcDbEntity
  8
Rotor
  0
POLYLINE
  5
4B
330
1F
100
AcDbEntity
  8
Rotor
100
AcDb2dPolyline
 66
     1
 10
0.0
 20
0.0
 30
0.0
  0
VERTEX
  5
4D
330
4B
100
AcDbEntity
  8
Rotor
100
AcDbVertex
100
AcDb2dVertex
 10
-0.4375
 20
0.0000000000000001
 30
0.0
 42
-0.9999999999999997
  0
VERTEX
  5
4E
330
4B
100
AcDbEntity
  8
Rotor
100
AcDbVertex
100
AcDb2dVertex
 10
0.4375
 20
0.0000000000000001
 30
0.0
 42
-1.0
  0
VERTEX
  5
4F
330
4B
100
AcDbEntity
  8
Rotor
100
AcDbVertex
100
AcDb2dVertex
 10
-0.4375
 20
-0.0000000000000002
 30
0.0
  0
SEQEND
  5
4C
330
4B
100
AcDbEntity
  8
Rotor
  0
POLYLINE
  5
50
330
1F
100
AcDbEntity
  8
Rotor
100
AcDb2dPolyline
 66
     1
 10
0.0
 20
0.0
 30
0.025
  0
VERTEX
  5
52
330
50
100
AcDbEntity
  8
Rotor
100
AcDbVertex
100
AcDb2dVertex
 10
-0.4375000000000001
 20
-0.0000000000000003
 30
0.025
 42
0.9999999999999994
  0
VERTEX
  5
53
330
50
100
AcDbEntity
  8
Rotor
100
AcDbVertex
100
AcDb2dVertex
 10
0.4375000000000001
 20
0.0000000000000001
 30
0.025
 42
0.9999999999999994
  0
VERTEX
  5
54
330
50
100
AcDbEntity
  8
Rotor
100
AcDbVertex
100
AcDb2dVertex
 10
-0.4375000000000001
 20
-0.0000000000000001
 30
0.025
  0
SEQEND
  5
51
330
50
100
AcDbEntity
  8
Rotor
  0
POLYLINE
  5
55
330
1F
100
AcDbEntity
  8
Rotor
100
AcDb2dPolyline
 66
     1
 10
0.0
 20
0.0
 30
2.891309219021722
210
1.0
220
0.0
230
0.0
  0
VERTEX
  5
57
330
55
100
AcDbEntity
  8
Rotor
100
AcDbVertex
100
AcDb2dVertex
 10
0.75
 20
0.0
 30
2.891309219021722
  0
VERTEX
  5
58
330
55
100
AcDbEntity
  8
Rotor
100
AcDbVertex
100
AcDb2dVertex
 10
0.75
 20
0.025
 30
2.891309219021722
  0
SEQEND
  5
56
330
55
100
AcDbEntity
  8
Rotor
  0
POLYLINE
  5
59
330
1F
100
AcDbEntity
  8
Rotor
100
AcDb2dPolyline
 66
     1
 10
0.0
 20
0.0
 30
2.891309219021723
210
1.0
220
0.0
230
0.0
  0
VERTEX
  5
5B
330
59
100
AcDbEntity
  8
Rotor
100
AcDbVertex
100
AcDb2dVertex
 10
-0.749999999999999
 20
0.0
 30
2.891309219021723
  0
VERTEX
  5
5C
330
59
100
AcDbEntity
  8
Rotor
100
AcDbVertex
100
AcDb2dVertex
 10
-0.749999999999999
 20
0.025
 30
2.891309219021723
  0
SEQEND
  5
5A
330
59
100
AcDbEntity
  8
Rotor
  0
POLYLINE
  5
5D
330
1F
100
AcDbEntity
  8
Rotor
100
AcDb2dPolyline
 66
     1
 10
0.0
 20
0.0
 30
0.9206824914160148
210
1.0
220
0.0
230
0.0
  0
VERTEX
  5
5F
330
5D
100
AcDbEntity
  8
Rotor
100
AcDbVertex
100
AcDb2dVertex
 10
-0.7500000000000002
 20
0.0
 30
0.9206824914160148
  0
VERTEX
  5
60
330
5D
100
AcDbEntity
  8
Rotor
100
AcDbVertex
100
AcDb2dVertex
 10
-0.7500000000000002
 20
0.025
 30
0.9206824914160148
  0
SEQEND
  5
5E
330
5D
100
AcDbEntity
  8
Rotor
  0
POLYLINE
  5
61
330
1F
100
AcDbEntity
  8
Rotor
100
AcDb2dPolyline
 66
     1
 10
0.0
 20
0.0
 30
-0.9206824914160144
210
1.0
220
0.0
230
0.0
  0
VERTEX
  5
63
330
61
100
AcDbEntity
  8
Rotor
100
AcDbVertex
100
AcDb2dVertex
 10
-0.7500000000000003
 20
0.0
 30
-0.9206824914160144
  0
VERTEX
  5
64
330
61
100
AcDbEntity
  8
Rotor
100
AcDbVertex
100
AcDb2dVertex
 10
-0.7500000000000003
 20
0.025
 30
-0.9206824914160144
  0
SEQEND
  5
62
330
61
100
AcDbEntity
  8
Rotor
  0
POLYLINE
  5
65
330
1F
100
AcDbEntity
  8
Rotor
100
AcDb2dPolyline
 66
     1
 10
0.0
 20
0.0
 30
-2.891309219021722
210
1.0
220
0.0
230
0.0
  0
VERTEX
  5
67
330
65
100
AcDbEntity
  8
Rotor
100
AcDbVertex
100
AcDb2dVertex
 10
-0.7499999999999991
 20
0.0
 30
-2.891309219021722
  0
VERTEX
  5
68
330
65
100
AcDbEntity
  8
Rotor
100
AcDbVertex
100
AcDb2dVertex
 10
-0.7499999999999991
 20
0.025
 30
-2.891309219021722
  0
SEQEND
  5
66
330
65
100
AcDbEntity
  8
Rotor
  0
POLYLINE
  5
69
330
1F
100
AcDbEntity
  8
Rotor
100
AcDb2dPolyline
 66
     1
 10
0.0
 20
0.0
 30
-2.891309219021721
210
1.0
220
0.0
230
0.0
  0
VERTEX
  5
6B
330
69
100
AcDbEntity
  8
Rotor
100
AcDbVertex
100
AcDb2dVertex
 10
0.7499999999999998
 20
0.0
 30
-2.891309219021721
  0
VERTEX
  5
6C
330
69
100
AcDbEntity
  8
Rotor
100
AcDbVertex
100
AcDb2dVertex
 10
0.7499999999999998
 20
0.025
 30
-2.891309219021721
  0
SEQEND
  5
6A
330
69
100
AcDbEntity
  8
Rotor
  0
POLYLINE
  5
6D
330
1F
100
AcDbEntity
  8
Rotor
100
AcDb2dPolyline
 66
     1
 10
0.0
 20
0.0
 30
-0.9206824914160148
210
1.0
220
0.0
230
0.0
  0
VERTEX
  5
6F
330
6D
100
AcDbEntity
  8
Rotor
100
AcDbVertex
100
AcDb2dVertex
 10
0.7500000000000002
 20
0.0
 30
-0.9206824914160148
  0
VERTEX
  5
70
330
6D
100
AcDbEntity
  8
Rotor
100
AcDbVertex
100
AcDb2dVertex
 10
0.7500000000000002
 20
0.025
 30
-0.9206824914160148
  0
SEQEND
  5
6E
330
6D
100
AcDbEntity
  8
Rotor
  0
POLYLINE
  5
71
330
1F
100
AcDbEntity
  8
Rotor
100
AcDb2dPolyline
 66
     1
 10
0.0
 20
0.0
 30
0.9206824914160148
210
1.0
220
0.0
230
0.0
  0
VERTEX
  5
73
330
71
100
AcDbEntity
  8
Rotor
100
AcDbVertex
100
AcDb2dVertex
 10
0.7500000000000001
 20
0.0
 30
0.9206824914160148
  0
VERTEX
  5
74
330
71
100
AcDbEntity
  8
Rotor
100
AcDbVertex
100
AcDb2dVertex
 10
0.7500000000000001
 20
0.025
 30
0.9206824914160148
  0
SEQEND
  5
72
330
71
100
AcDbEntity
  8
Rotor
  0
POLYLINE
  5
75
330
1F
100
AcDbEntity
  8
Rotor
100
AcDb2dPolyline
 66
     1
 10
0.0
 20
0.0
 30
0.0
  0
VERTEX
  5
77
330
75
100
AcDbEntity
  8
Rotor
100
AcDbVertex
100
AcDb2dVertex
 10
2.891309219021722
 20
0.7500000000000002
 30
0.0
  0
VERTEX
  5
78
330
75
100
AcDbEntity
  8
Rotor
100
AcDbVertex
100
AcDb2dVertex
 10
0.9206824914160148
 20
0.7500000000000001
 30
0.0
  0
SEQEND
  5
76
330
75
100
AcDbEntity
  8
Rotor
  0
POLYLINE
  5
79
330
1F
100
AcDbEntity
  8
Rotor
100
AcDb2dPolyline
 66
     1
 10
0.0
 20
0.0
 30
0.0
  0
VERTEX
  5
7B
330
79
100
AcDbEntity
  8
Rotor
100
AcDbVertex
100
AcDb2dVertex
 10
0.9206824914160147
 20
0.75
 30
0.0
 42
0.4751909633114915
  0
VERTEX
  5
7C
330
79
100
AcDbEntity
  8
Rotor
100
AcDbVertex
100
AcDb2dVertex
 10
-0.9206824914160151
 20
0.7500000000000001
 30
0.0
  0
SEQEND
  5
7A
330
79
100
AcDbEntity
  8
Rotor
  0
POLYLINE
  5
7D
330
1F
100
AcDbEntity
  8
Rotor
100
AcDb2dPolyline
 66
     1
 10
0.0
 20
0.0
 30
0.0
  0
VERTEX
  5
7F
330
7D
100
AcDbEntity
  8
Rotor
100
AcDbVertex
100
AcDb2dVertex
 10
-0.9206824914160148
 20
0.7500000000000001
 30
0.0
  0
VERTEX
  5
80
330
7D
100
AcDbEntity
  8
Rotor
100
AcDbVertex
100
AcDb2dVertex
 10
-2.891309219021721
 20
0.75
 30
0.0
  0
SEQEND
  5
7E
330
7D
100
AcDbEntity
  8
Rotor
  0
POLYLINE
  5
81
330
1F
100
AcDbEntity
  8
Rotor
100
AcDb2dPolyline
 66
     1
 10
0.0
 20
0.0
 30
0.0
  0
VERTEX
  5
83
330
81
100
AcDbEntity
  8
Rotor
100
AcDbVertex
100
AcDb2dVertex
 10
-2.891309219021722
 20
0.7500000000000002
 30
0.0
 42
0.1275877079710376
  0
VERTEX
  5
84
330
81
100
AcDbEntity
  8
Rotor
100
AcDbVertex
100
AcDb2dVertex
 10
-2.891309219021723
 20
-0.7499999999999989
 30
0.0
  0
SEQEND
  5
82
330
81
100
AcDbEntity
  8
Rotor
  0
POLYLINE
  5
85
330
1F
100
AcDbEntity
  8
Rotor
100
AcDb2dPolyline
 66
     1
 10
0.0
 20
0.0
 30
0.0
  0
VERTEX
  5
87
330
85
100
AcDbEntity
  8
Rotor
100
AcDbVertex
100
AcDb2dVertex
 10
-2.891309219021722
 20
-0.7499999999999988
 30
0.0
  0
VERTEX
  5
88
330
85
100
AcDbEntity
  8
Rotor
100
AcDbVertex
100
AcDb2dVertex
 10
-0.9206824914160148
 20
-0.7500000000000002
 30
0.0
  0
SEQEND
  5
86
330
85
100
AcDbEntity
  8
Rotor
  0
POLYLINE
  5
89
330
1F
100
AcDbEntity
  8
Rotor
100
AcDb2dPolyline
 66
     1
 10
0.0
 20
0.0
 30
0.0
  0
VERTEX
  5
8B
330
89
100
AcDbEntity
  8
Rotor
100
AcDbVertex
100
AcDb2dVertex
 10
-0.9206824914160148
 20
-0.7500000000000002
 30
0.0
 42
0.4751909633114918
  0
VERTEX
  5
8C
330
89
100
AcDbEntity
  8
Rotor
100
AcDbVertex
100
AcDb2dVertex
 10
0.9206824914160147
 20
-0.7500000000000004
 30
0.0
  0
SEQEND
  5
8A
330
89
100
AcDbEntity
  8
Rotor
  0
POLYLINE
  5
8D
330
1F
100
AcDbEntity
  8
Rotor
100
AcDb2dPolyline
 66
     1
 10
0.0
 20
0.0
 30
0.0
  0
VERTEX
  5
8F
330
8D
100
AcDbEntity
  8
Rotor
100
AcDbVertex
100
AcDb2dVertex
 10
0.9206824914160149
 20
-0.7500000000000002
 30
0.0
  0
VERTEX
  5
90
330
8D
100
AcDbEntity
  8
Rotor
100
AcDbVertex
100
AcDb2dVertex
 10
2.891309219021722
 20
-0.7499999999999991
 30
0.0
  0
SEQEND
  5
8E
330
8D
100
AcDbEntity
  8
Rotor
  0
POLYLINE
  5
91
330
1F
100
AcDbEntity
  8
Rotor
100
AcDb2dPolyline
 66
     1
 10
0.0
 20
0.0
 30
0.0
  0
VERTEX
  5
93
330
91
100
AcDbEntity
  8
Rotor
100
AcDbVertex
100
AcDb2dVertex
 10
2.891309219021723
 20
-0.749999999999999
 30
0.0
 42
0.1275877079710374
  0
VERTEX
  5
94
330
91
100
AcDbEntity
  8
Rotor
100
AcDbVertex
100
AcDb2dVertex
 10
2.891309219021722
 20
0.7500000000000003
 30
0.0
  0
SEQEND
  5
92
330
91
100
AcDbEntity
  8
Rotor
  0
POLYLINE
  5
95
330
1F
100
AcDbEntity
  8
Rotor
100
AcDb2dPolyline
 66
     1
 10
0.0
 20
0.0
 30
0.025
  0
VERTEX
  5
97
330
95
100
AcDbEntity
  8
Rotor
100
AcDbVertex
100
AcDb2dVertex
 10
-2.891309219021722
 20
0.7499999999999999
 30
0.025
  0
VERTEX
  5
98
330
95
100
AcDbEntity
  8
Rotor
100
AcDbVertex
100
AcDb2dVertex
 10
-0.9206824914160148
 20
0.7500000000000002
 30
0.025
  0
SEQEND
  5
96
330
95
100
AcDbEntity
  8
Rotor
  0
POLYLINE
  5
99
330
1F
100
AcDbEntity
  8
Rotor
100
AcDb2dPolyline
 66
     1
 10
0.0
 20
0.0
 30
0.025
  0
VERTEX
  5
9B
330
99
100
AcDbEntity
  8
Rotor
100
AcDbVertex
100
AcDb2dVertex
 10
-0.920682491416015
 20
0.7500000000000003
 30
0.025
 42
-0.4751909633114914
  0
VERTEX
  5
9C
330
99
100
AcDbEntity
  8
Rotor
100
AcDbVertex
100
AcDb2dVertex
 10
0.9206824914160154
 20
0.7500000000000003
 30
0.025
  0
SEQEND
  5
9A
330
99
100
AcDbEntity
  8
Rotor
  0
POLYLINE
  5
9D
330
1F
100
AcDbEntity
  8
Rotor
100
AcDb2dPolyline
 66
     1
 10
0.0
 20
0.0
 30
0.025
  0
VERTEX
  5
9F
330
9D
100
AcDbEntity
  8
Rotor
100
AcDbVertex
100
AcDb2dVertex
 10
0.9206824914160151
 20
0.7500000000000004
 30
0.025
  0
VERTEX
  5
A0
330
9D
100
AcDbEntity
  8
Rotor
100
AcDbVertex
100
AcDb2dVertex
 10
2.891309219021722
 20
0.75
 30
0.025
  0
SEQEND
  5
9E
330
9D
100
AcDbEntity
  8
Rotor
  0
POLYLINE
  5
A1
330
1F
100
AcDbEntity
  8
Rotor
100
AcDb2dPolyline
 66
     1
 10
0.0
 20
0.0
 30
0.025
  0
VERTEX
  5
A3
330
A1
100
AcDbEntity
  8
Rotor
100
AcDbVertex
100
AcDb2dVertex
 10
2.891309219021722
 20
0.7500000000000002
 30
0.025
 42
-0.1275877079710374
  0
VERTEX
  5
A4
330
A1
100
AcDbEntity
  8
Rotor
100
AcDbVertex
100
AcDb2dVertex
 10
2.891309219021724
 20
-0.7499999999999989
 30
0.025
  0
SEQEND
  5
A2
330
A1
100
AcDbEntity
  8
Rotor
  0
POLYLINE
  5
A5
330
1F
100
AcDbEntity
  8
Rotor
100
AcDb2dPolyline
 66
     1
 10
0.0
 20
0.0
 30
0.025
  0
VERTEX
  5
A7
330
A5
100
AcDbEntity
  8
Rotor
100
AcDbVertex
100
AcDb2dVertex
 10
2.891309219021723
 20
-0.7499999999999989
 30
0.025
  0
VERTEX
  5
A8
330
A5
100
AcDbEntity
  8
Rotor
100
AcDbVertex
100
AcDb2dVertex
 10
0.9206824914160148
 20
-0.7500000000000002
 30
0.025
  0
SEQEND
  5
A6
330
A5
100
AcDbEntity
  8
Rotor
  0
POLYLINE
  5
A9
330
1F
100
AcDbEntity
  8
Rotor
100
AcDb2dPolyline
 66
     1
 10
0.0
 20
0.0
 30
0.025
  0
VERTEX
  5
AB
330
A9
100
AcDbEntity
  8
Rotor
100
AcDbVertex
100
AcDb2dVertex
 10
0.9206824914160148
 20
-0.7500000000000002
 30
0.025
 42
-0.475190963311491
  0
VERTEX
  5
AC
330
A9
100
AcDbEntity
  8
Rotor
100
AcDbVertex
100
AcDb2dVertex
 10
-0.9206824914160148
 20
-0.7499999999999998
 30
0.025
  0
SEQEND
  5
AA
330
A9
100
AcDbEntity
  8
Rotor
  0
POLYLINE
  5
AD
330
1F
100
AcDbEntity
  8
Rotor
100
AcDb2dPolyline
 66
     1
 10
0.0
 20
0.0
 30
0.025
  0
VERTEX
  5
AF
330
AD
100
AcDbEntity
  8
Rotor
100
AcDbVertex
100
AcDb2dVertex
 10
-0.9206824914160149
 20
-0.75
 30
0.025
  0
VERTEX
  5
B0
330
AD
100
AcDbEntity
  8
Rotor
100
AcDbVertex
100
AcDb2dVertex
 10
-2.891309219021722
 20
-0.7499999999999991
 30
0.025
  0
SEQEND
  5
AE
330
AD
100
AcDbEntity
  8
Rotor
  0
POLYLINE
  5
B1
330
1F
100
AcDbEntity
  8
Rotor
100
AcDb2dPolyline
 66
     1
 10
0.0
 20
0.0
 30
0.025
  0
VERTEX
  5
B3
330
B1
100
AcDbEntity
  8
Rotor
100
AcDbVertex
100
AcDb2dVertex
 10
-2.891309219021722
 20
-0.7499999999999991
 30
0.025
 42
-0.1275877079710372
  0
VERTEX
  5
B4
330
B1
100
AcDbEntity
  8
Rotor
100
AcDbVertex
100
AcDb2dVertex
 10
-2.891309219021722
 20
0.7499999999999997
 30
0.025
  0
SEQEND
  5
B2
330
B1
100
AcDbEntity
  8
Rotor
  0
ENDSEC
  0
SECTION
  2
OBJECTS
  0
DICTIONARY
  5
C
330
0
100
AcDbDictionary
281
     1
  3
ACAD_GROUP
350
D
  3
ACAD_LAYOUT
350
1A
  3
ACAD_MLINESTYLE
350
17
  3
ACAD_PLOTSETTINGS
350
19
  3
ACAD_PLOTSTYLENAME
350
E
  0
DICTIONARY
  5
D
102
{ACAD_REACTORS
330
C
102
}
330
C
100
AcDbDictionary
281
     1
  0
DICTIONARY
  5
1A
102
{ACAD_REACTORS
330
C
102
}
330
C
100
AcDbDictionary
281
     1
  3
Layout1
350
1E
  3
Layout2
350
26
  3
Model
350
22
  0
DICTIONARY
  5
17
102
{ACAD_REACTORS
330
C
102
}
330
C
100
AcDbDictionary
281
     1
  3
Standard
350
18
  0
DICTIONARY
  5
19
102
{ACAD_REACTORS
330
C
102
}
330
C
100
AcDbDictionary
281
     1
  0
ACDBDICTIONARYWDFLT
  5
E
102
{ACAD_REACTORS
330
C
102
}
330
C
100
AcDbDictionary
281
     1
  3
Normal
350
F
100
AcDbDictionaryWithDefault
340
F
  0
LAYOUT
  5
1E
102
{ACAD_REACTORS
330
1A
102
}
330
1A
100
AcDbPlotSettings
  1

  2

  4

  6

 40
0.0
 41
0.0
 42
0.0
 43
0.0
 44
0.0
 45
0.0
 46
0.0
 47
0.0
 48
0.0
 49
0.0
140
0.0
141
0.0
142
1.0
143
1.0
 70
   688
 72
     0
 73
     0
 74
     5
  7

 75
    16
 76
     0
 77
     2
 78
   300
147
1.0
148
0.0
149
0.0
100
AcDbLayout
  1
Layout1
 70
     1
 71
     1
 10
0.0
 20
0.0
 11
12.0
 21
9.0
 12
0.0
 22
0.0
 32
0.0
 14
1.000000000000000E+20
 24
1.000000000000000E+20
 34
1.000000000000000E+20
 15
-1.000000000000000E+20
 25
-1.000000000000000E+20
 35
-1.000000000000000E+20
146
0.0
 13
0.0
 23
0.0
 33
0.0
 16
1.0
 26
0.0
 36
0.0
 17
0.0
 27
1.0
 37
0.0
 76
     0
330
1B
  0
LAYOUT
  5
26
102
{ACAD_REACTORS
330
1A
102
}
330
1A
100
AcDbPlotSettings
  1

  2

  4

  6

 40
0.0
 41
0.0
 42
0.0
 43
0.0
 44
0.0
 45
0.0
 46
0.0
 47
0.0
 48
0.0
 49
0.0
140
0.0
141
0.0
142
1.0
143
1.0
 70
   688
 72
     0
 73
     0
 74
     5
  7

 75
    16
 76
     0
 77
     2
 78
   300
147
1.0
148
0.0
149
0.0
100
AcDbLayout
  1
Layout2
 70
     1
 71
     2
 10
0.0
 20
0.0
 11
0.0
 21
0.0
 12
0.0
 22
0.0
 32
0.0
 14
0.0
 24
0.0
 34
0.0
 15
0.0
 25
0.0
 35
0.0
146
0.0
 13
0.0
 23
0.0
 33
0.0
 16
1.0
 26
0.0
 36
0.0
 17
0.0
 27
1.0
 37
0.0
 76
     0
330
23
  0
LAYOUT
  5
22
102
{ACAD_REACTORS
330
1A
102
}
330
1A
100
AcDbPlotSettings
  1

  2

  4

  6

 40
0.0
 41
0.0
 42
0.0
 43
0.0
 44
0.0
 45
0.0
 46
0.0
 47
0.0
 48
0.0
 49
0.0
140
0.0
141
0.0
142
1.0
143
1.0
 70
  1712
 72
     0
 73
     0
 74
     0
  7

 75
     0
 76
     0
 77
     2
 78
   300
147
1.0
148
0.0
149
0.0
100
AcDbLayout
  1
Model
 70
     1
 71
     0
 10
0.0
 20
0.0
 11
0.0
 21
0.0
 12
0.0
 22
0.0
 32
0.0
 14
-3.08585776343176
 24
-1.187500000000001
 34
-0.0000000000000002
 15
3.085857763431761
 25
1.187500000000001
 35
0.0250000000000001
146
0.0
 13
0.0
 23
0.0
 33
0.0
 16
1.0
 26
0.0
 36
0.0
 17
0.0
 27
1.0
 37
0.0
 76
     0
330
1F
  0
MLINESTYLE
  5
18
102
{ACAD_REACTORS
330
17
102
}
330
17
100
AcDbMlineStyle
  2
Standard
 70
     0
  3

 62
   256
 51
90.0
 52
90.0
 71
     2
 49
0.5
 62
   256
  6
BYLAYER
 49
-0.5
 62
   256
  6
BYLAYER
  0
ACDBPLACEHOLDER
  5
F
102
{ACAD_REACTORS
330
E
102
}
330
E
  0
ENDSEC
  0
EOF
