<?xml version="1.0" encoding="utf-8"?>
<!DOCTYPE svg PUBLIC "-//W3C//DTD SVG 1.1//EN" "http://www.w3.org/Graphics/SVG/1.1/DTD/svg11.dtd">
<svg version="1.1" xmlns="http://www.w3.org/2000/svg" x="0px" y="0px"
	 viewBox="0 0 274.3 577.3" enable-background="new 0 0 274.3 577.3" xml:space="preserve">
<path fill="#F7F7F7" d="M260.8,535.1c14.1,3.8,4,14.5,5.5,22.4c3.1-1.4,5.4-2.4,7.7-3.5c0,2.7,0,5.3,0,8c-3.1,2.4-4.9,5.2-3.8,9.4
	c0.7,2.7-1.3,4.2-3.2,5.6c-20.3,0-40.7,0-61,0c-4.8-7.5-13.4-9.3-20.5-12.4c-16.7-7.2-15.7-22.2-17.1-35.7
	c-2-19.5-3.6-39.2-3.6-58.7c0-7.7-4.4-12.9-5.7-19.5c1.5-1.2,3-1.3,4.5,0c1.2,1.5,2.7,2.7,3.6,4.4c0.5,4.7-0.3,9.4,1.3,13.9
	c0.5,1.4,0.9,2.9,1.6,4.2c0.3,2.3,1.5,4.5,1.7,6.9c0,4.9-0.8,9.8,1.5,14.4c-1.6,5.6-2.1,11.3-0.4,16.9c1.3,6.9,2.7,13.8,2.4,20.8
	c-0.3,3.2,0.2,6.5-0.3,9.7c-0.3,2.3,0.6,4.3,3.1,5.2c1.8,1,1.3,3,2,4.4c0.6,1.2,1.7,2.1,2.3,3.3c0.7,3.4,3.7,2.1,5.8,2.8
	c0.6,0.3,1.1,0.7,1.6,1.1c0.8,0.7,1.6,1.6,2.8,1.8c1.8-0.3,2.9-2.1,4.7-2.4c0.9-0.4,1.8-0.6,2.8-0.2c3.3,5.3,7.8,9,14,10.3
	c2.2,2.3,4.7,3.1,7.8,1.8c1.8-0.7,3.8-0.9,5.7-0.9c7.7-1.2,15.4-2.6,23.2-1.9c2.4,0,4.3,1.7,6.9,1.8c3.1-1.7,4.4-4.5,4.2-8.1
	c-0.1-1.8-0.5-3.6-0.1-5.5c1.8-3.8,1.7-7.4-0.6-11.2C259.7,541.7,258.2,538.4,260.8,535.1z"/>
<path fill="#121212" d="M182.1,202.1c-1,4.8,1.3,8.8,3.5,12.5c20.5,34.7,32.9,72.5,45.3,110.6c6.7,20.5,17.8,39.7,22.8,61.1
	c2.1,9,3,18.3,4.4,27.5c0.5,3.7,0.6,7.4,0,11.1c-3.4,0.8-3.1-2.1-3.7-3.9c-2.6-6.8-1.8-14.1-2.7-21.1c-0.9-7.6-2.8-15-5.7-22.1
	c-8.2-19.8-15.2-40-26-58.6c-0.6-1-1-2.1-1.1-3.3c2.4-4,1.9-8.2,0-12.2c-2.6-5.6-3.3-11.9-7.3-17.1c1.9-4,0.3-7.2-2.6-10
	c-1.1-1.1-1.8-2.3-1.9-3.9c-1.7-5-4-9.7-7.9-13.3c-0.8-0.7-0.9-1.7-1.2-2.6c-0.5-2.4-2.3-4.1-3.2-6.3c-0.6-1.8-0.3-4.3-3.2-4.5
	c-0.5,0.3-1.1,0.5-1.7,0.5c-1-0.1-1.6-0.7-2-1.6c-0.1-0.3-0.1-0.6-0.2-0.9c-0.1,0.5,0,1,0,1.5c0.1,1.3-0.4,2.3-1.6,2.9
	c-0.5,0.1-0.9,0-1.4-0.2c-2.7-4.7-2.8-9.7-1.8-14.8c-0.2,0.7-0.7,1.5-0.7,2.5c-0.1,1.1-0.1,2.3,0,3.4c0.2,2.1-0.2,3.6-2.8,3.4
	c-1-0.4-1.6-1.1-1.9-2.1c1.5-4.9,1-9.9,1.1-14.9c-0.1,3.8,0.1,7.5-0.1,11c-1.4,0.9-2.2,0.4-2.9-0.4c-0.4-3,1.1-5.9,0.5-8.4
	c-0.1,2.2,0.4,4.8-1.1,7.2c-1.9-1.4-1.9-1.4-1.9-11.2c-0.4,2.5,0.7,5.4-0.7,8.1c-3.9,5.2-4.4,10.2-1.3,14.8
	c0.4,2.1,1.1,3.9,2.9,5.3c0.3,0.4,0.5,0.8,0.6,1.2c3.2,2.8,6,5.7,6,10.4c0.6,3.2,1.1,6.4,1.6,9.5c1.2,3.5-0.7,6.6-1,9.9
	c-0.7,1.3-2.1,1.6-3.2,2.1c-2,0.5-3.1-0.6-3.9-2.3c-8.5-18.6-18.9-36.2-26-55.4c-0.2-0.5-0.3-1-0.3-1c5.4,14.7,12.6,29.2,20.2,43.5
	c8.7,16.6,15.6,33.9,21.2,51.8c0.4,1.3,0.4,2.6,0.1,3.9c-0.5,1.2-1.8,1.7-2.3,2.9c-3,2.6-2.2,6.2-2.5,9.5c-0.2,1.9,1,4.4-2,5.3
	c-2.5-0.6-3-2.3-2.5-4.5c1-4.4,0.8-8.8,0.2-13c-1.2,4.3-0.3,8.4-0.6,12.6c0.1,3.3,0.5,6.5,0.4,9.7c-0.1,3.2-1.1,4.9-4.4,4.8
	c-2.6-0.8-2.2-3.1-2-4.9c0.6-7.7,0.6-15.3,1.2-22.8c-1.3,1.2-2.3,0.8-2.6-0.6c-0.4-1.4,0-2.8-0.2-4.2c0.1,0.5,0.1,1,0.1,1.5
	c0,1.1-0.1,2.1-1,2.9c-2.6,2.1-4.9,0.3-7.3-0.6c-2.3-1-3-3.2-3-5.3c0.1-13.8-4.6-26.6-8-39.5c-5-18.8-9-37.8-14.5-56.4
	c-0.3-1-0.5-1.9-0.9-2.8c-0.3-1-0.3-2.2-0.9-3c0.1,0.2,0,0.1,0.1,0.2c0.5,1.7,1,3.3,1.5,4.9c0.3,1.2,0.6,2.4,0.3,3.6
	c-2.9,3-5.5,2.9-7.4-0.3c-0.6-1-0.9-2.1-1.2-3.3c-1.4-7.9-2.5-16-6.4-23.2c-0.4-1.6-1.5-2.6-3-3.3c-1.5-0.7-2.7-1.7-2.2-3.7
	c1.3-2.5,3.5-1.5,5.4-1.5c4.9,0.3,6.8,4.4,9.2,7.6c4,5.3,8.8,8.9,15.4,10.2c2.9,0.6,5.6,0.9,7.1-2.6c0.8-2,3.5-1.9,4.8-4.1
	c-1.6-3.9-5.4-6.2-8-9.6c-3.4-3.6-6.6-7.4-11.1-9.8c-2-1.1-3.4-2.8-1.4-5.3c2.8-1.7,5-0.3,7.2,1.3c1.8,1.3,3.8,2.2,5.9,2.6
	c0.7,0.3,1.3,0.6,1.9,0.9c1.1,0.3,2.2,1.1,3.2-0.2c2.8-5.5,2.7-6.5-1.6-10.8c-1.8-1.8-3.7-3.3-5.9-5c-2,0.3-4.2,0.7-6.3,1
	c-1.3,0.8-2.5,1.7-3.7,2.7c-1.9,2.2-0.3,5.2-1.7,7.6c-0.9,2.3,0.2,4,2.1,5c4.9,2.5,8.2,6.7,11.9,10.5c1.9,1.9,3.7,3.9,4.9,6.3
	c-2.8,3.5-4.2,3.7-6.8,0.1c-4-5.6-9.3-9.8-14.8-13.9c-3.4-2.5-7.5-3.3-10.9-5.7c-1-0.6-2.2-0.9-3.2-1.7c-0.3-0.4-0.5-0.8-0.6-1.2
	c-0.1-1,0.5-1.9,0.5-2.9c-3.2-0.7-6.4-2.9-9,0.9c-0.7,0.7-1.4,1.5-2.4,1.8c-6.1-0.8-11.9-2.4-17.3-5.1c-1-2.3,0-4.7-0.5-7.1
	c0.8-3.2,2.5-5.6,5.7-6.7c1.4-0.6,2.2-1.6,2.7-3c3.1-2.3,2.8-6.5,5.3-9.1c2.8-0.4,4.1,1.1,4.6,3.4c0-1.8-1.6-2.8-2.9-4
	c0.5-2.7,0.4-5.5,3.6-6.4c7.2-1.1,9.4,4.3,12.1,9.2c1.5,1,2.8,0.2,4.1-0.5c3-3.2,5.8-3.5,9.3-0.4c6.2,5.6,13.5,5.8,21.1,3.3
	c2.1-0.1,3.4,0.8,4,2.8c0.5,2.8,2.7,1.7,3.9,1.2c5.3-2.1,10.7-1.4,16.2-1.6c3.1,0,6.1,0,9.2,0c7.1,0.3,13.9-1,20.7-2.7
	c7.1-1.8,12.9-5.3,16.4-11.9c1.3-0.6,1.9,0.2,2.5,1.1c1.2,3.4-1.4,5.8-2.1,8.7c-2.8,6.7-9.3,7.5-15.1,9.2c-10,2.8-20.2,3-30.5,2.7
	c-2-0.1-4.1-0.3-4.8,2.3c-0.2,3.3,2.5,5,4.1,7.1c7,9.3,6.3,19,1.9,29C183.8,199.5,183.1,200.9,182.1,202.1z"/>
<path fill="#171717" d="M265,488.1c-3.5,13.8-6.7,27.6-6.9,42c-1.1,0.7-2.2,0.4-3.2-0.1c-1.8-1.5-2.3-3.7-2.3-5.8
	c-0.1-7.7-2.6-15.5,2.4-22.7c1.3-2,0.7-4.9,0.5-7.4c-1.9-28-7-55.5-15.1-82.4c-1.1-5-2.5-9.9-4.2-14.7c-0.1-3.7-2.7-6.7-2.9-9.5
	c0.9,3.4,2.7,7.3,3.6,11.5c1.6,5.1,2.8,10.2,4.3,15.3c5.7,17,7.4,34.6,9.4,52.3c1.2,10.6,0.2,21.3,1.6,31.9
	c-0.1,5.1,1.2,10.3-2.3,14.8c-0.7,0.7-1.6,1-2.6,0.9c-2.3-0.5-3.7-2.3-3.7-4.2c0-9-3.4-17.6-3-26.6c0.1-1.9-0.5-4.1,2.1-5.5
	c1.9,3,1.8,6.5,2.4,9.6c0.3,3.2,1.4,6.4,1.5,9.2c0.4-2.2-1.3-4.6-1.1-7.2c-1.8-10.8-2.4-21.8-4.2-32.6c-0.2-1.5-0.6-3-0.9-4.5
	c-2.3-12.2-4.3-24.5-7-36.6c-0.5-2.1-1.1-4.2-1.8-6.2c-0.2-0.5-0.4-1-0.6-1.5c-1-3.6-0.8-7.4-1.5-11c-0.6-3.9-1.6-7.8-2.7-11.7
	c0.6-3.5-0.3-6.8-0.9-10.1c-0.1-0.6-0.2-1.2-0.3-1.9c0.1,1.5,0.5,3,0.7,4.6c0.4,6.8,1.8,13.3,3.2,19.9c0.4,1.8,0.4,3.7-1.9,4.4
	c-2.1-0.5-2.6-2.2-3-4c-0.8-3.3-2.4-6.3-2.9-9.7c-1.5-5.1-0.1-10.8-2.8-15.5c0,0.2-0.3,0.3-0.3,0.5c1.3,5.3,1,10.5,1,15.7
	c-0.1,1.7,0,3.4-2.1,4c-2.6-0.6-2.8-2.8-3.2-4.8c-6.5-33.7-14.1-67-25.3-99.5c-2.3-6.6-3.9-13.4-6.3-19.9c-0.6-1.7-1-3.5-1.3-5.3
	c-0.4-2,0-3.7,2.1-4.5c2.1-0.8,3.6,0.4,4.4,2.2c3.6,7.8,7.6,15.4,10.2,23.6c0.4,1.3,1,2.4,1.3,3.7c0.8,2.7,1.6,5.5,3.1,7.9
	c5.4,12.7,10.1,25.7,16,38.1c0.4,0.7,0.7,1.5,0.4,2.3c-1.1,4.1,0.8,6.1,4.6,6.9c5.5,8.1,9,17.1,12.8,25.9
	c5.1,11.8,10.3,23.6,14.1,35.8c4.4,14.2,7.8,28.8,11.4,43.2c2.9,11.6,1.4,23.3,2.8,34.8c0.1,0.5,0.2,1,0.3,1.4
	C265.3,486.1,265.8,487.1,265,488.1z"/>
<path fill="#1A1A1A" d="M164,323c2.3,0.3,4.5,0.6,6.8,1c0.5,0.1,0.7,0.5,0.7,0.8c-0.4-1.1,0.8-2.7-0.7-3.8
	c-3.5-3.5,0.4-6.2,2.1-9.3c0.2,4,0.4,8.1,0.6,12.8c0.6-1.2,0.9-1.9,1.2-2.5c2,5.1,0.4,10.3,0.5,15.5c0.2,5.6-1.8,11.2,0.3,16.8
	c-0.1,5.1,1.1,10.2,0.2,15.3c-0.4,2.4-0.4,4.9-3,7c4.7-1,7.8,1.8,8.2,6.8c0.4,4.5,0.1,9-1,13.4c-2.4,10.2-6.3,19.9-9,30
	c-1.9,6.9-1.6,14.2-3.5,21.1c-0.6,2.1-0.4,5.5-4.4,4.4c-1.3-0.5-2.6-1-3.8-1.5c-0.7-0.9-1.4-1.8-2.1-2.7c-0.7-0.7-0.5-1.8-1-2.6
	c-0.5-2.2-2.4-3.4-3.4-5.3c-0.2-1.6-0.7-3.3,0.9-4.6c1.7-1.4,0.8-3.4,0.9-5.2c-0.5-13.8,2.6-27.2,3.5-40.8c0.3-4,0.3-8,0.6-12
	c0.3-3.2,0-6.8,3.3-8.9c2.5,0.2,3.7,1.7,4,4c-1.2,9.2,2.2,18.4,0.9,25.9c1-9.6-0.1-21-0.5-32.5c-0.3-9.7-2.5-19.3-2-29
	c0.5-3.4-2.8-5.6-2.6-8.8C161.9,326.2,161.7,324,164,323z"/>
<path fill="#212121" d="M75,411.9c-4.2,1.5-8.5,2.9-13,2c-0.8-3.4,2.6-3.6,3.7-5.8c-0.7-1.5-1.4-3.3-2.2-5
	c-11.7,1.8-15.3-1.8-12.6-13.6c10.2-43.3,17-87.2,22.2-131.3c1.6-0.2,1.9,1,2.2,2.1c0.7,11.9-1.5,23.6-3,35.3
	c-1.6,12.6-3.5,25.2-5.4,37.8c-2.8,18.7-7.1,37-11.8,55.2c-0.6,2.3-2.4,5.1,0.9,7c1.2,0.4,2.5,0.4,3.7,0.5c3.9,0.9,7.2,4.1,11.6,3
	c2.3,0.2,4.6-0.3,6.9-0.7c1.4-0.4,1.5-1.5,1.6-2.7c0.8-5.6,0.8-11.2,1-16.9c0.2-2.7,0.7-5.2,3.8-6.1c2,0.3,2.9,2,4,3.4
	c1.1,7.3-0.2,14.6-0.3,21.8c0,1.6-0.5,3.3-0.6,5c-0.2,2.8-0.1,5.6-0.5,8.3c-0.4,2.5-1.1,4.8-4.2,5l0,0
	C80.7,413.9,78.7,411.4,75,411.9z"/>
<path fill="#F1F1F1" d="M55.7,398.8c-6.2-0.1-3.8-4.2-3.1-7.1c10.5-43.3,18.6-87,21.6-131.6c0.1-2.4,0.3-4.8-1.1-7
	c-0.6-5.3,0.8-10.3,2.7-15.2c2,1.1,1.6,3.1,1.6,4.9c0.5,16.7-1.5,33.2-2.5,49.7c-0.9,15.2-3.4,30.2-5.4,45.2
	c-1.4,9.9-2.8,19.7-4.9,29.4c-1.1,5.1-2.6,10.2-4.3,15.2c-1.1,3.1-2,6.2-1.3,9.7C59.5,395,58,397.2,55.7,398.8z"/>
<path fill="#202020" d="M126.9,437.8c-4,0.8-7.9,3.4-12.3,0.4c0.7-1.8,1.2-3.3,1.8-4.8c-11.2-2.7-20.9-9.6-32.4-10.5
	c-0.9-1.1-0.3-2,0.4-2.8c1.3-0.7,2.7-1.2,4.2-1.6c7.9-2.6,7.8-2.6,8-11.2c0.2-10.5-3.1-20.7-2.1-31.3c0.6-1.3,1.5-2.3,3-2.6
	c3,0.3,2.8,2.9,3.3,4.9c2.6,11.9,3.2,24,4.7,36c0.3,2,0.3,4,1,5.9c1.3,3.4,3.7,5.2,7.3,4.4c2.6-0.5,5.2-0.6,7.8-1.3
	c1.7-0.1,3.3-0.8,4.9-0.8c0.6,0,1.1,0.2,1.7,0.4c2.6,1.7,2,4.6,2.6,7C131.6,433.6,129.2,435.7,126.9,437.8z"/>
<path fill="#DCDCDC" d="M75.8,208c-1.3-1.4-2.5-2.7-3.8-4.1c0.5-2.1-1.5-2.4-2.6-3.1c-6.1-3.9-11.7-8.4-16.9-13.5
	c-0.9-0.8-1.7-1.5-1.4-2.9c0.9-2.7,3.4-3.4,5.5-4.7c0.9-0.2,1.9-0.2,2.9-0.2c3,1,4.9-1.2,7.1-2.5c1.4-0.6,2.9-0.6,4.4-0.4
	c1.4,1,3.1,1.1,4.6,1.9c2.7,2.3,4.1,4.9,3.4,8.6c-1,5.3,0.4,10.6,0.9,15.8c0.3,3,0.5,5.9,0.4,8.8c-0.2,0.5-0.4,1-0.8,1.3
	c-1.7,0.9-2.3-0.1-2.5-1.6C76.9,210.2,77.4,208.8,75.8,208z"/>
<path fill="#282828" d="M75.8,208c0.2-0.9,0.4-1.8,1-5.1c0.6,4.9,0.9,7.5,1.2,10.1c1.9,1.9,1.4,4.3,1.4,6.6c0,15.7,0,31.4,0,47.1
	c-0.9,8.7-0.2,17.4-1.2,26.1c-2,11.4-2.9,22.9-4.2,34.3c-0.2,1.7,0,3.3,0.3,4.9c-2.5,8.6-2.5,17.8-5.7,26.3c-1.6,2.4-1.1,5.3-1.9,8
	c-0.5,1.7-0.6,3.5-2.7,4.1c-1.8-0.3-1.6-1.4-1.2-2.7C70.4,327,75.5,286,76.1,244.5c0-2.2-0.1-4.3-0.2-6.5
	C75.8,228,75.8,218,75.8,208z"/>
<path fill="#484848" d="M178.1,19.6c-22.1-17.6-72-18.7-99.1-2.2c-3.3,2-6.6,3.9-9.9,5.8C68.1,23.5,67.8,23,68,22
	c43.2-33.3,111.4-20.6,145.9,27.1c0.3,0.9-0.2,1.4-0.9,1.7c-2,0.7-3.1-0.7-4.2-1.9c-8.1-9.8-17.3-18.3-28-25.3
	C179.4,22.6,179,21,178.1,19.6z"/>
<path fill="#313131" d="M60,181c-1-0.1-1.9-0.2-2.9-0.3c-13.9,2.2-27.5,6-41.2,9c-3.9,0.9-7-0.3-9.9-2.8c0.9-5.6,6-4.3,9.4-5.4
	c5.5-1.8,11.2-2.9,17.3-4.5c-1.9-6.1-1-11.6,0.5-17.1c0.3-0.3,0.8-0.5,1.2-0.4c0.4,0.2,0.8,0.4,1.2,0.7c1,0.6,1.7,1.6,2.3,2.6
	c0.8,1.6,0.1,3.2-0.2,4.7c-0.5,2.6,0.4,4.1,3.2,4.2c2.6-0.1,4.3,1.5,6.2,3c2.5,0.2,5.1-1.1,7.6,0.4c2.3,1.9,5.9,1.4,7.8,4
	C62.6,181,61.9,181.9,60,181z"/>
<path fill="#C3C3C3" d="M173.9,161c-2.6-4.5,1.7-3.1,3-3.1c13.1-0.1,26.3,0.2,39.1-3.7c4.5-1.4,8.5-4.3,12.8-6.5
	c0.4,4.8-2.4,7.7-5.9,10.2c-1.2-0.5-2,0.5-3.1,0.8c-4.2,2.9-9,3.5-13.7,4.8c-8.2,2.2-16.3-0.1-24.5,0.6
	C178.5,164.4,176.1,162.9,173.9,161z"/>
<path fill="#C4C4C4" d="M6,187c13.7,2.1,26.2-3.5,39.1-6.2c4.2-0.9,8-1.9,12,0c-1.8,1.4-3.5,2.8-5.3,4.3c-1.6,0.9-2.5-1.4-4-0.9
	c-11.1,2.9-22.1,5.7-33.2,8.6C9.4,194,8.2,189.9,6,187z"/>
<path fill="#6A6A6A" d="M212.9,50c0.3-0.3,0.7-0.6,1-0.9c18.3,25.9,23.7,54.3,17.1,85.1c-0.3,1.5,0,3.2,0,4.8
	c-0.6-0.3-1.2-0.6-1.9-0.9c-1.2,0-1.9-0.7-2.3-1.7c-0.2-1.6-0.4-3.1,0.2-4.7c6.1-26.4,1.4-51-12.3-74.1
	C213.4,55.3,210.7,53.2,212.9,50z"/>
<path fill="#2B2B2B" d="M157,444.9c0,1,0,2,0.1,3c-4.5-4.9-9.5-8.8-16.8-7.8c-2.5,0.4-5,1-7.4-0.4c-0.3-2.3,1.7-2.6,3.1-3.3
	c1.4-0.8,2.8-1.6,4.4-1.8c2.6-0.2,3.8-1.4,3.4-4.2c-0.8-5.8,1.6-11.2,2.9-16.7c0.4-0.3,0.9-0.4,1.4-0.3c3.8,1.8,2.5,5.4,2.4,8.2
	c-0.2,5.1,1.4,8.6,6.5,10.1c2.6,3.9-2.1,5.3-2.8,8.1C154.3,441.9,156.3,443,157,444.9z"/>
<path fill="#6C6C6C" d="M22.1,105.9c-0.3,10.5-0.6,21,3,31.1c2.8,2.1,3.7,4.7,2.1,7.9c0.2,4.2,4.3,7.6,2.7,12.2
	c-11.5-25.4-13.1-51.4-4.9-77.9c0.7-2.1,2-4.1,2.9-6.1c0.2,0.2,0.4,0.4,0.6,0.6c0.6,4.7-1.5,8.9-2.8,13.1
	C23.9,93,24.2,99.7,22.1,105.9z"/>
<path fill="#606060" d="M221,157c0.7-1,1.5-2,3.4-4.5c-0.8,3.1-1.1,4.3-1.4,5.4c-9.6,18.4-22.1,34.2-40.8,44.2
	c0.3-1.4,0.5-2.8,0.8-4.2c12.2-9.3,23-20.1,31.2-33.2C216,161.8,218.1,159,221,157z"/>
<path fill="#333333" d="M265,488.1c-0.3-0.7-0.7-1.4-1-2.1c-0.6-3.7-0.4-7.5,0.1-11.2c1.3-9.8-1.7-19.1-2.6-28.7
	c0.3-1.1,0.7-2.2,2.2-2C269.9,458.6,271.1,473.2,265,488.1z"/>
<path fill="#4E4E4E" d="M34.2,160c-0.4,0-0.7,0-1.1,0c-0.1-0.7-0.3-1.3-0.4-2c1-10.6,11.3-12.2,17.4-18c2-3.5,3.4-7.7,8.3-8.1
	c2,1.1,3.5,2.4,3.3,5c-4.6,4.4-10,7.7-15.5,10.8c-4.7,2.6-9.4,5-10,11.2C36.1,159.7,35.2,160.2,34.2,160z"/>
<path fill="#545454" d="M47.7,184.1c-0.1-0.7-0.3-1.4-0.6-3.1c2.1,1.8,3.4,2.9,4.7,4c6.6,5.3,13.2,10.6,19.7,15.9
	c1,0.8,4.4,1.3,0.5,3C63.1,198.3,55.1,191.6,47.7,184.1z"/>
<path fill="#434343" d="M256.1,529c0.7,0.4,1.4,0.7,2,1.1c0.9,1.7,1.8,3.3,2.7,5c0.4,7.5,6.3,14,4.2,21.9c-0.5,0.4-1,0.4-1.6,0.2
	c-2-1-2.9-2.8-3-4.8c-0.4-6.3-2.7-12-4.9-17.7C254.7,532.8,253.6,530.6,256.1,529z"/>
<path fill="#6E6E6E" d="M68,22c0.4,0.4,0.8,0.8,1.1,1.2C59.7,29.4,51.8,37.5,44,45.6C49.5,35.1,58.7,28.5,68,22z"/>
<path fill="#505050" d="M263.8,444.1c-0.3,0.7-0.6,1.5-1,2.2c-0.7-0.1-1.4-0.3-1.6-0.9c-1.9-6.4-3.7-12.7-4.8-19.3
	c-0.1-0.5,0.5-0.8,0.8-1.1c0.3-3.7,0.6-7.4,0.9-11.1C260,423.9,261.9,434,263.8,444.1z"/>
<path fill="#575757" d="M133,438.7c2.4,0.5,4.8,0.9,7.2,1.4c-3.4,0.7-6.7,1.4-10.3,2.2c-0.9-1.3-1.9-2.9-2.9-4.5
	c0.4-2.3,0.8-4.6,1.2-7C132.5,431.8,132.8,435.2,133,438.7z"/>
<path fill="#7C7C7C" d="M40,48.9c0,6.6-6.1,10.4-7.7,16.3c-0.3,3.2-0.6,6.5-4.3,7.9c0,0,0.1,0.1,0.1,0.1
	C29.6,63.8,35.4,56.6,40,48.9z"/>
<path fill="#4D4D4D" d="M75,411.9c2.1-0.4,4.2-0.9,6.8-1.4c0.4,2.4,0.7,4,1.1,5.7C78.9,417.2,78,412.6,75,411.9z"/>
<path fill="#4D4D4D" d="M85,421c-0.3,0.7-0.6,1.3-1,2c-0.4-2.3-0.7-4.6-1.1-6.9c0.7-4.4,1.3-8.8,2-13.2C88.5,407,88.5,416.7,85,421
	z"/>
<path fill="#6C6C6C" d="M73.1,253.2c0.4-1.5,0.9-3,1.3-4.5c0.3,0,0.7,0.1,1,0.1c-0.4,3.8-0.8,7.6-1.2,11.4c-0.3-0.7-0.7-1.3-1-2
	C73.1,256.5,73.1,254.8,73.1,253.2z"/>
<path fill="#F1F1F1" d="M257.2,424.9c1.9,7.1,3.7,14.2,5.6,21.4c4,13.1,5.2,26.4,1.2,39.7c-1,0.9-2.2,1.8-2-0.5
	c2.8-39.1-11.3-74.1-25.8-109c-4.4-10.6-9.5-20.9-14.3-31.3c-3.7-2-3.7-6.3-5.7-9.3c-5.1-12.9-10.2-25.8-15.2-38.7
	c-0.5-0.7-0.6-1.4,0.2-2c1.2-0.4,1.5,0.6,2.1,1.3c6,5.7,6,5.7,9.7,16.1c-0.7-2.1-1.7-4.1-2-6.3c-0.3-2.4-1.8-4.3-2.1-6.4
	c-1.6-1.8-4.2-0.9-5.3-3c-1.8-2.3-2.9-5.2-5.5-6.8c-4.4-9.7-8.8-19.4-13.2-29c-0.2-0.4-0.8-0.5-3.1-1.9
	c15.8,44.8,28.2,88.7,35.4,133.9c1.4,1.1,2.1,2.6,2.4,4.2c1.8,10.5,5.7,20.5,7.5,31c0.2,0.9,0.1,2,0.8,2.6c4,3.7,3.8,8.6,4.1,13.5
	c0.4,5.4,2.7,10.5,3.1,16c-0.1,1.6-0.8,2.8-2.6,3.2c-2.5-0.5-3.2-3.1-5-4.5c-1.4-1.1-2.6-2-4.4-1.2c-2.7,1.2-8.6,10.4-8.5,13.3
	c0,0.5,0.5,0.8,0.8,1.2c1.4,1.7,3.2,1.4,4.8,0.6c1.2-0.5,2.3-1.2,3.6-0.3c2.5,2.8,0.6,6.1,1,9.2c0.4,3.4-0.5,6.7,0,10.3
	c0.6,3.7-2.6,5.7-7,5.2c-2.6-2.7-2.8-6.9-5.4-9.6c-1.1,0.1-1.6,0.8-2.1,1.7c-1.2,2.9-2.5,5.7-4.3,8.3c-1.3,1.9-2.3,4.1-2.4,6.4
	c-0.2,6-0.1,12-1.1,17.9c-0.1,3-1.3,5.9-1.3,8.9c-1.1,1.3-1.1,2.8-0.5,4.3c-1,7.2-1.5,14.6-6.5,20.6c-0.8,0.9-0.6,2.2-1,3.3
	c-0.8,1.3-1.8,1.7-3.1,0.8c-1.1-1-2.3-1.9-3.5-2.7c-5-3.4-5.2-4.3-2.7-10c0.5-1.1,0.5-2.2,0.6-3.4c0.2-4.1,4.5-6.4,4.8-10.4
	c0.7-1.7,3.8-2.9,1-5.3c-2.2-1-2.7-3.1-3.5-5c-4.6,0.4-4.8,4.2-5.9,7.2c-0.8,1.6,0.5,3.2,0.2,4.8c-0.9,2.3-1.2,4.6-0.2,7
	c-0.8,2.4-1.1,5-3.2,6.8c-7.7-2.9-3.2-10.3-5.7-15.2c1-9.4,0.6-18.9-0.5-28.2c2.6-14.7,4.4-29.6,10.7-43.4c0.9-2,0.5-3.9,0.3-5.8
	c0.2-1,0.7-1.9,1.5-2.5c1.1-0.9,2.6-1.1,3.4-2.3c1.8-2.3,4.4-1.7,6.8-1.9c2.6,0,2.1-2.9,3.7-4c2.1-3.6,5-6.4,8-9.2
	c3,0.2,3.2,2.2,2.9,4.5c-0.3,1.8-0.7,3.6-0.3,5.3c0.3,1.5,0.4,3.6,2.9,2.3c4.9-7.9,5.4-16.7,5.3-25.7c0-3.1-1.3-5.8-2.3-8.6
	c-3.1-9.4-1.9-19.4-4.4-28.8c0-2.1-1.5-3.9-0.8-5.9c-0.7,1.3,0.5,2.9-0.1,4.5c-1.6,2.7-2.2,5.7-2.8,8.7c-1.1,2.1-0.9,5.4-4.7,4.7
	c-1.5-1-2.6-2.3-2.8-4.2c-0.8-21.3-5.8-41.9-10.8-62.6c-0.5-2.1,0.3-3.9,0.1-5.9c-6.7-23.1-16.5-44.9-27.2-66.4
	c-6.8-13.6-12.6-27.7-17.8-42c10.5,23,20.8,46,33.7,67.8c3.1,1.3,3.4,4.4,4.2,6.9c1.1,3.2,2.4,6.1,4.6,8.6
	c1.3,8.5,5.3,16.4,6.1,22.9c-4.3-15-8.7-32.3-12.8-49.6c-0.4-3.2-0.8-6.5-1.2-9.7c-1.8-3.3-0.5-8.1-5-10.1l0,0
	c-1.7-1.3,0-5.2-3.8-4.9c-0.1,0.6-0.2,1.2-0.6,3.7c-1.1-8.2-3.6-14.5-0.3-21.3c0.7,0.1,1.8,0.2,2.8,0.4c2.3,0.4,2.3,2.5,2.9,4.1
	c1.6,1.7,4.7,1.9,5.1,4.9c0.4,0.7,0.7,1.3,1.1,2c3.3,0.7,4,3.5,4.8,6.1l0.1,0c4.2,1.4,5.1,5.3,6.2,8.8c1.1,3.7,2.3,7.4,4.1,10.9
	c0.2,0.4,0.4,0.9,0.6,1.3c0.7,1.8,1.9,3.2,2.8,4.8c1.3,2.7,2.8,5.3,4.5,9c-1.3-3.2-2-5.5-2.7-7.9c2.2-4.7,0.7-9-1.6-13.2
	c-1-1.8-1.3-3.6-0.4-5.5c0.2-0.1,0.4-0.3,0.6-0.4c3.3,5,6.6,10.1,9.9,15.1c1.9,4.6,4.3,9,3.1,14.3c-0.3,1.4,0.7,2.5,1.2,3.7
	c3.4,8.4,7.2,16.7,7.9,26c11.4,20.6,19.1,42.8,28.6,64.3C256.1,394.1,252.6,410.1,257.2,424.9z"/>
<path fill="#1C1C1C" d="M188.1,324.8c7.2,22.1,12.3,44.6,12.9,68c0.9,2.4,0.5,4.7-1,6.8c-2.5,4.7-3,10.1-4.7,15
	c-0.6,1.8-0.8,3.6-2.7,4.5c-2,0.4-2.8,1.5-3.3,3.6c-1,4.1-2.9,7.8-4.8,11.4c-0.8,1.5-1.5,2.9-3.5,2.8c-1.9-0.6-1.8-2-1.3-3.6
	c0.7-1.9,1-3.8,1.4-5.5c-0.3,3.6-3,7.2-0.9,11.2c0.2,2.5-0.9,4.6-2.3,6.4c-4.5,6.2-6.7,13.1-7.3,20.7c-0.2,2.1,0,4.9-3.4,5
	c-0.3-5.4-0.7-10.7-1-16.1c-0.1-0.3-0.3-0.7-0.2-1c3.5-12.6,3.3-25.9,8.2-38.2c0.2-0.4,0.6-0.8,0.9-1.1c4.8-1.2,3.7,2.4,3.4,4.7
	c-0.5,3.8-2.4,7.4-2.5,11.1c0.5-4.4,2.2-8.9,3.3-13.5c2.1-5.8,2.9-12.1,5.6-18c4.1,2.1,3,4.7,2.3,6.5c0.7-6.7,4.4-13.3,5.1-19.6
	c-1.8,3.7-0.8,9.6-4.6,13.7c-3.7-1.1-4-3.5-3.7-6.1c-1.1-3.4,1.2-5.9,2.4-8.6c2.8-1.3,3.3-3.9,3.2-6.6c-0.2-2.9,0.3-5.7,0.8-8.5
	c0.3-0.6,0-1.4,0.4-1.8c-1.1,3.9-2,7.7-6.1,9.3c-2.7-1.5-1.4-4.1-1.7-6.3c-0.1-3.4-0.1-6.7-0.8-10.1c-0.7-3.5-0.7-7.2,1.9-10.4
	c1.2-1.4,2-3.4,1.9-5.8c-0.1,1.1,0.2,2.1-1,2.4c-0.9-0.2-1.8-0.8-1.6-1.6c1-6.3,1-12.8,1.6-19.1c0-0.3,0.5-0.4,0.8-0.5
	C186.2,325.6,187.2,325.2,188.1,324.8z"/>
<path fill="#EFEFEF" d="M180.9,435.9c5.2-7.2,7.7-15.5,10.6-24c0.1,1.7,0.3,3.3,0.4,5c1,3.7,1.6,7.4-0.8,10.9
	c-3.9,7.2-4.1,15.5-7,23c-0.8,2.2-2,4.4-2.1,6.8c0,3.9-1.8,7.4-2.8,11c-1.8,7-3,14.1-5,21.1c-0.5,1.7-0.1,4.4-3.2,4.3
	c-3.9-4.4,0.7-9.3-1-13.8c0.4-2.2,2-4.7-1.2-6.2c-0.6-1-1.2-1.9-1.8-2.9c0.4-12.1,5.1-22.7,11.2-32.9
	C178.7,436.9,179.7,436.4,180.9,435.9z"/>
<path fill="#F0F0F0" d="M176,415c-6.4,12.6-3.9,27.4-10,40c-1-0.9-2-1.9-3-2.8c6.3-7.2,3.7-16.6,5.8-24.8
	c3.3-12.8,10.1-24.6,10.2-38.3c0-4.6-0.2-8.9-4.2-12.6c-0.7,2.3-1.3,4.5-1.9,6.7c-0.3,0-0.6-0.1-0.9-0.1c0.7-9.3,1.4-18.6,2.1-27.9
	c0.6-0.7,1.5-0.9,2.4-0.7c2.1,1.1,3,3.4,2.9,5.4c-0.2,4.4,1.7,8.2,2.3,12.3c0.3,2.5,1,4.9,2,7.3c0.9,2.2,1.6,4.4,1,6.8
	c-1.4,5-1.2,10.2-2.9,15.1c-1,3.4-2.8,6.7-2.7,10.4C179.1,413.9,177.6,414.5,176,415z"/>
<path fill="#525252" d="M171,494c2.9-12.1,5.9-24.1,8.8-36.2c1.3-0.5,2.4-2.2,4.1-0.8c1.1,1.1,2.1,2.3,3.2,3.5
	c-9.5,12.9-8.8,29.2-14.2,43.6c-0.7,1.7-0.2,3.5-0.4,5.3c-0.1,1-0.1,2-1.6,1.8C170.9,505.4,171,499.7,171,494z"/>
<path fill="#4B4B4B" d="M252,569.1c-8.8-1.5-17.3,1.4-26,1.9c-1.7-0.7-4.3,1.3-5.2-1.8c0.3-1,1-1.9,2-2.1c8.3-1.5,16.4-4.5,25-3.5
	c2.4,0.3,4.7,0.7,5,3.7C252.7,568.1,252.4,568.6,252,569.1z"/>
<path fill="#6E6E6E" d="M177.8,549c0-2.4,0.1-4.8,0.1-7.1c3-1.2,1.7-5.9,5.5-6.5c1.8,0.1,3.6,0.2,4.4,2.1c0.4,1.5-0.3,2.6-1.3,3.4
	c-1.8,1.5-1.1,3.2-0.6,4.9c-0.5,2.9-3.4,4.2-4.2,7c-0.4,1.2-2.2,1.3-3.4,0.2C178.1,551.7,177.9,550.4,177.8,549z"/>
<path fill="#4D4D4D" d="M213,571c-5.4-2.8-12.1-4.3-13.2-11.9c0.3-2.4,1.4-4,3.9-4.4c0.6,0,1.5,0,1.8,0.5c3,4.9,6.6,9.5,7.9,15.2
	C213.3,570.6,213.2,570.8,213,571z"/>
<path fill="#696969" d="M252,569.1c0.1-0.5,0.1-0.9,0.2-1.4c3.3-1.9,3.1-6.9,7.3-8c2-0.1,1.9-3.5,4.4-2.7c0.4,0,0.8,0,1.2,0
	c-2.6,4.1,2,10.6-4.4,13.4C257.5,571.8,254.5,571.6,252,569.1z"/>
<path fill="#373737" d="M178.2,553.1c4-1.5,5.2-5.4,7.4-8.5l0.2-0.3c0.5,2.6,1,5.3,1.8,10c-2.2-2.4-2.8-3.1-3.5-3.8
	c-0.3,0.2-0.6,0.5-0.8,0.7c2.3,2.6,4.5,5.2,6.8,7.8c0.2,0.9-0.2,1.3-1.1,1.1c-0.4-0.4-0.8-0.7-1.2-1.1c-2.2-2.1-5.7-0.9-7.9-3.1
	C179.4,554.9,178.8,554,178.2,553.1z"/>
<path fill="#818181" d="M204.2,555.9c-1.4,1.1-2.9,2.1-4.3,3.2c-0.6,0.3-1.3,0.7-1.9,1c-1.3-0.8-2.3-1.7-2.3-3.3
	c0.6-5.7,3.2-8.5,8.2-9.3C207.4,550.2,207.5,551.9,204.2,555.9z"/>
<path fill="#D8D8D8" d="M197.2,556.3c0.2,1.3,0.5,2.5,0.7,3.8c-1.5,1.4-2.4,3,0.2,7.5c-4.4-3.6-6.8-5.6-9.1-7.5
	c0.4-0.4,0.7-0.7,1.1-1.1c0.7,0,1.3-0.1,2-0.1C193.2,556.9,194.2,554.6,197.2,556.3z"/>
<path fill="#838383" d="M170.9,511.1c0.6-2.4,1.3-4.7,1.9-7.1c-0.2,10,1.5,20-0.8,29.8C171.7,526.3,171.3,518.7,170.9,511.1z"/>
<path fill="#2C2C2C" d="M220.9,569.9c1.7,0.4,3.4,0.7,5.1,1.1c-4.3,1.4-8.7,3.1-13,0c0,0,0,0.1,0,0.1
	C215.9,567.2,217.1,567,220.9,569.9z"/>
<path fill="#525252" d="M168.8,474c0.3-0.9,0.6-3,1.9-1.2c1.6,2.3,2.9,5.3-0.7,7.4C169.6,478.1,169.2,476.1,168.8,474z"/>
<path fill="#F1F1F1" d="M180,555.9c3,0,6.7-1.5,7.9,3.1C184.8,559,181.6,559.5,180,555.9z"/>
<path fill="#EEEEEE" d="M212.9,50c15.7,23.2,22.1,48.5,17.7,76.3c-0.4,2.5,0.2,5.5-2.7,7c-0.8,0.8-1.7,0.8-2.7,0.6
	c-10.5-2.6-19.9,0.7-29.1,5.1c-7.2,3.4-14.1,7.6-21.6,10.4c-2.8,1-4.2-0.6-5.4-2.8c-2.2-4-4.6-7.9-8-11.1
	c-3.3-3.5-8.1-3.8-12.2-5.4c-2.7-3.7-5.8-7-8.4-10.8c-0.4-0.6-0.7-1.2-0.8-2c0-3.4,3.4-6.2,2-9.9c0.1-3.9-4.3-4-5.5-6.7
	c-0.9-1-1.1-2.2-0.7-3.5c0.6-1.3,1.7-2.4,2.2-3.7c0.1-0.1,0.2-0.4,0.3-0.4c8.4-1.5,8.7-7.9,9.5-14.5c0.9-7.1-1-12.8-6.4-17.4
	c-1.9-1.6-2.7-3.3-1.9-5.7c1.7-2,3.4-4,5.3-6.2c2.2,2.6,3.6,5.8,7.3,3.9c1.7-0.9,2.5-2.3,1.9-4.1c-1.2-4.1-4.5-2.3-7.2-2.3
	c-1.8-2.1-2.1-4.4-1.1-7.1c3.2,0,6.5-0.2,9.6,0c14.9,1.4,13.9-15.3,23.2-20.2C192.6,26.4,202.8,38.3,212.9,50z"/>
<path fill="#111111" d="M137.1,97c0.3,1,0.5,2,0.8,3.1c1.2,3.4,4.8,5.7,4.2,9.9c0.8,2.5-2.8,4.3-0.9,6.9c0.3,0.5,0.5,0.9,0.8,1.4
	c0.3,0.8,0,1.4-0.5,1.9c-7.1,0.9-13.5,3.6-18.9,8.4c-1.9,1.8-4,2.4-6.4,1.2c-3.2-1.4-3.7,1.4-4.9,3.1c-0.6,0.7-1.2,1.4-1.7,2.2
	c-2,3.3-1.2,7.6-3.6,10.8c-1.2,1.5-2.8,2.3-4.6,2.7c-3.9-0.9-5.5-4-6.8-7.3c-0.3-1-0.7-2-0.8-3.1c0-1.3-0.4-2.6-0.7-3.9
	c-1.8-6.9,1.9-12.6,4.1-18.6c1.2-2.1,2.7-3.7,4.9-5.1c1.9-1.2,4.2-2.7,4.6-5.4c0.5-0.9,1.3-1.5,2.3-1.8c3-1.1,4.9-3.3,5.8-6.4
	c1.5-3.5,4.4-3.8,7.7-3.8c3.8,0,8.2,0.7,9.7-4.5c1.2-2.2,3.6-2.6,5.6-3.7c2.9-4.3,2.5-5.9-2-7.7c-1.4,0.2-2.9,0.6-4.1-0.6
	c-1.2-3.1-3.1-5-6.7-4.6c-2.4,0.3-4-0.7-4.1-3.4c-0.1-2.3,0.6-4.3,2-6.1c3.9-1.7,5.1-1.6,9.1,0.8c-1.7-2.4-5.4-1-7.3-3.4
	c-2.3-3.5-2.9-6.8,0.7-9.9c1.9-0.9,4.2-0.2,6-1.2c2.7,2.3,5.3,4.6,8,6.9c11.3,11.9,14.1,27.1,7.2,39.8c-2.4,0.1-4.8-3.4-7.5-0.6
	C138.7,96,137.5,96.2,137.1,97z"/>
<path fill="#ECECEC" d="M57.9,132.9c-2.2,2.8-4.1,6-7.8,7.2c-4.5-6.9-4.6,2.2-8.1,1.6c-1-0.4-0.4-0.2,3.3-11.1
	c1.6-4.6,0.3-10.2,0.3-16.3c-3.8,2.8-2,8.9-7,8.2c-8.7-1.1-13.6-10.9-7.9-15.4c4.5-3.5,10,4.2,14.8-1.1c-2.3-3.7-7.6-0.5-9.7-5.2
	c0.7-1.2,1.7-2.9,2.9-5c3.5,4.2,7.6,2.1,11.3,2c2.1-4.7,4-9,6.5-14.8c-6,0.6-16.2,17-15.9-3.2c2.9-0.7,3.7,6.1,7.4,2.6
	c2.9-2.8-1.4-5-1.2-8.2c1.8,0.5,3.4,1,5.2,1.5c2.6-2.2,4.6-7.2,9-2.3c3.4,3.8,4,7.2-1.1,10.4c4.1,5.2-4.5,13.4,5,17.8
	c0.9-6.3,1.8-12.1,2.7-18.3c2,0.7,3.6,1.3,5.6,2.1c1-1.8,2.1-3.6,3.2-5.7c4.9,3.1,1,8,2.8,11.4c0.4,1.1,0.1,1.9-0.7,2.7
	c-6.5,3.9-8.3,7.8-6.2,13.4c-0.3,1.8,0.7,3.5,0.8,5.3c0.3,7.9-2.4,14.1-10.1,17.4C61.2,130.7,60.2,132.9,57.9,132.9z"/>
<path fill="#717171" d="M70.1,112c0.4-1.6,0.9-3.2,1.3-4.9c-1.4-6.3,2.4-10.3,6.3-14.2c0.5-0.5,1-1.1,1.4-1.6
	c1.2-1.4,3.7-3.1,3.4-4c-4.1-12.1,9.4-16.2,11.4-25.5c0.7-0.1,1.4,0.1,2,0.6c0.7,0.9,1,2,1.6,3c2.6,4.2,2.2,5-2.8,6
	c-2.1,0.8-2.7,3.4-4.9,4.2c-2,2.6-2.5,5.3-1.1,8.4c0.5,1.1,0.8,2.4,0.4,3.4c-2.2,4.7,0.2,7.5,4,9.6c1.1,2.7,0.2,4.7-1.9,6.6
	c-1.6,1.4-3.5,2.5-4.7,4.4c-1.1,1.6-2.7,2.8-3.5,4.7c-2,4.7-4.4,5-7.7,1.2c-0.4-0.5-0.5-1.2-1.2-1.6c-1-0.2-1.8,0.7-2.8,0.5
	C70.9,112.6,70.5,112.3,70.1,112z"/>
<path fill="#575757" d="M95,63c-0.4-0.4-0.7-0.8-1.1-1.1c-1-6.7,2.8-11.2,7.7-14.4c2.3-1.5,3.7-3,4.4-5.4c0.9-0.7,1.8-1.1,2.9-0.8
	c1.7,0.8,1.6,2.5,2.1,4c0.1,1-0.4,1.9-0.7,2.9c-0.3,2-2,2.8-3.4,3.8c-2.1,1.6-3.9,3.4-3.9,6.3c-0.2,0.9-0.6,1.8-1.2,2.5
	c-0.5,0.5-1.1,0.8-1.7,1.3c-0.6,0.4-1.1,0.9-1.8,1.2C97.2,63.8,96.1,63.9,95,63z"/>
<path fill="#ECECEC" d="M28,73c1.4-2.6,2.9-5.2,4.3-7.9c-3.4,13.6-6.8,27.2-10.1,40.8C21.8,94.5,25.7,83.9,28,73z"/>
<path fill="#ECECEC" d="M27.3,144.9c-0.7-2.6-1.4-5.3-2.1-7.9c6.1-2.2,9.2-5.6,4.3-11.7c2.9-1.6,4.7-0.8,5.1,1.2
	C35.9,134.1,33.1,140.1,27.3,144.9z"/>
<path fill="#8A8A8A" d="M109,45c0-1,0-2,0-3c0.7-4.2,5.1-2,7-4c5.8,0.2,6.4,5.6,9,9c-1.9,2.9-4.3-0.2-6.4,0.5
	C115.5,46.5,112,46.6,109,45z"/>
<path fill="#353535" d="M119,46.1c2.6-3.4,3.9,1.1,6,0.9c2,0.6,4,1.2,6,1.8c-1,2.4-3,2.2-5,2.2c-2.9,0.2-4.8,4.3-8.3,1.9
	C115.8,50.1,116.5,47.9,119,46.1z"/>
<path fill="#272727" d="M116,38c-0.9,3.9-5.6,1-7,4c-1,0-1.9,0-2.9,0C108.3,38.1,112.1,38,116,38z"/>
<path fill="#F5F5F5" d="M156.8,431.7c-9.1,5.1-8.9-1.1-8.9-7.2c0-3.5,0-7,0-10.5c-2.1-2.3-1.5-5.1-1.3-7.6
	c1.4-12.6,1.7-25.3,1.7-37.9c0-9.6,0.9-19.3-0.6-29c-0.5-3.3,0-6.9,0-10.4c-0.1-8.5-1.6-17-1.2-25.5c0.1-1.8-0.3-4,2-4.7
	c-0.9-23.3-7.3-46-12-69c-0.4-1.5,1-2.6,0.6-4.1c-0.1-1.3-0.1-2.5-0.2-3.8c-0.3-1.3-1.4-2.9,1.2-3.2
	c10.4,34.3,21.9,68.2,25.9,104.1c0,2,0,4,0,6c1.6,1.7,1.1,3.8,0.9,5.7c-0.9,9.9,0.3,19.9-1.2,29.8c-0.3,1.6-0.2,3.4-1.6,4.6
	C160.4,390,158.6,410.8,156.8,431.7z"/>
<path fill="#E2E2E2" d="M221,157c-7.4,16.7-19.5,29.4-33.9,40.2c-1.1,0.8-2.5,2.7-4.3,0.7c6.1-14.5,0.2-26.1-8.9-36.9
	C189.8,162,205.7,162.9,221,157z"/>
<path fill="#F0F0F0" d="M126.3,177.2c12,4.8,21.5,12.9,30.1,22.4c-1.5-2.2-3-4.4-4.4-6.6c-0.2-1,0.2-1.4,1.1-1.2
	c4.3,5.5,14.5,6.9,11.7,17.7c-2.5-1.4-3.6-5.6-7.6-3.3c0.7,1.9,1.3,3.9,2,6.1c-16.7,1.9-25.6-9.2-34.8-19.6
	c-0.6-0.2-1.4-0.1-1.9-0.5C119.8,189.5,122.6,178.6,126.3,177.2z"/>
<path fill="#F8F8F8" d="M73.4,180.2c-0.9,0.1-1.8,0.2-3.3,0.4c0.4-1.1,0.7-1.8,1-2.6c-1.2-1.4,0-3.5-1.5-4.7
	c-1.4-2.1-4.5-1-5.8-3.3c-0.1-2.7,2.2-3.2,4.1-4.1c4-1.3,8-2.7,12.4-1.4c3.1,0.8,6.1,1.6,9.2,2.3c1.9,0.4,4.1,0.7,4.8,3
	c5.3,1.4,10.5,2.8,15.8,4.2c0.2,0.1,0.3,0.2,0.5,0.2c3.6,0.4,8.4-1.7,10.3,2.6c2.1,4.8,1.8,10-2,14.4c-3,1.5-5.7,0.1-8.3-1.1
	c-3.6-1.6-6.8-3.9-10.6-4.9c-3.7-0.7-6.4-3.6-10.1-4.4C84.3,178.9,78.7,182.3,73.4,180.2z"/>
<path fill="#EAEAEA" d="M122.1,149.8c-1.5-5-5.1-8.1-9.8-10c-3.2-0.9-4.2-2.6-1.9-5.4c4.1-2.4,9.1-3,12.8-6.2
	c1.9-0.4,3.7-0.5,5.4,0.4c4.6,4.8,10.5,3.5,16.2,3.6c0.5,0.1,1,0.1,1.4,0c1.5-0.3,3-0.3,3.8,1.4c0.3,2.2-0.8,4.2-1.7,6.1
	c-0.9,2-0.5,3.1,1.4,4c0.4,0.3,0.7,0.6,0.9,0.9c0.6,1,0.2,2.5,1.3,3.4c1.8,0.9,4.3,0.5,5.4,2.7c0.1,0.5,0.1,1-0.2,1.4
	c-8,3-15.9,0.8-23.7-1.3c-2.6-0.8,0.7-2.9-0.7-4.9c-1.2,1.8-2.3,3.4-3.5,5.1c-0.7-0.4-1.3-1-1.5-1.9
	C126,150.5,124.2,151.3,122.1,149.8z"/>
<path fill="#161616" d="M157.1,152c-0.1-0.3-0.2-0.5-0.3-0.8c-2.9-2.2-2.2-6.2-4.2-8.9c-0.6-2.1-3.3-3-3-5.6c0.2-1.1,0.9-2,1.3-3.1
	c1.5-2,3.3-2.2,5.5-1.3c1.8,0.8,3.8,1.1,5.7,1.5c6,2.9,7,10.1,11.8,14c0.4-0.3,0.8-0.4,1.3-0.2c2.5,0.9,4.2-1.1,6.4-1.7
	c1.5-0.4,2.9-1.7,4.5-0.2c0.1,2.3,3.1,3.7,2.2,6.3c1.8-0.6,3.7-1.4,4,1.8c-3.8,0-7.7,0-11.5-0.1c-3.4-0.5-6.6-0.7-10.1,0.4
	c-3.1,0.9-6.6,2.3-9.7-0.6C159.7,153.1,158.4,152.5,157.1,152z"/>
<path fill="#DEDEDE" d="M152.8,183.2c-4.3-1.7-8.5-3.4-12.8-5.1c-1.4,1-2.4,0.3-3.2-0.9c-0.9-3.4,0.5-6.3,2.1-9.1
	c3.4-1.1,4.9,2.1,7.1,3.1c-0.8-1.9-6.3-1.7-2.9-6c11.8-3.5,15.1,6.4,21.6,13c-8,1.9-1.5,6.4-3.1,9.9c-0.7-1.2-1.2-2.1-1.8-2.9
	c-1.6-1.1-3.2-2.2-3.3-4.4c0.1-1.8-0.4-3.4-1-5c0.1,0.4,0.2,0.8,0.3,1.2C156.2,179.6,158.4,183.3,152.8,183.2z"/>
<path fill="#373737" d="M180.1,372.9c-1.4-5.9-2.8-11.9-4.2-17.8c-0.5-1-1.7-1.9-0.7-3.3c6-4.1-0.7-10.4,2.6-15
	c1.6-3.4,0.3-6.9,0.8-10.4c0.2-1.6-0.8-3.7,1.6-4.6c3.7,4.9,1.2,10.5,1.7,15.8c0.2,1.7,0.6,3.4,0.9,5.1c1.4,2.1,0,4.9,2.4,6.8
	c-3.4,3.4-2.8,7.4-2.6,11.3c0.2,2.9,0,5.7-0.2,8.5C182.3,371.1,182.6,372.9,180.1,372.9z"/>
<path fill="#4F4F4F" d="M221,315c-7.6-13.7-10.3-28.7-12.1-43.9c5.6,14.8,11.3,29.6,16.8,44.1C223,317.4,222.9,312.7,221,315z"/>
<path fill="#353535" d="M137.1,225.8c0.3,1.1,0.6,2.1,0.9,3.2c-0.9,2.5,0.8,5.5-1.6,7.7c-4.8,0.4-7.8-2.8-11-5.6
	c-1.7-5.9-0.6-11.8-0.8-17.7c-0.1-3.8-0.3-7.6-1.9-11.2c-0.1-2.3,0.1-4.3,3.1-4.4c2.4,8.8,4.8,17.7,7.2,26.5
	C133.7,226.7,135.5,225.9,137.1,225.8z"/>
<path fill="#787878" d="M179,273c7.9,19.3,12.1,39.6,15,60.3c-3.7-10.7-7.4-21.5-11.1-32.2c0.5-4.8-1.9-8.9-3.3-13.3
	c-0.5-1.7-1.3-3.2,0.1-4.8C179.6,279.6,179.3,276.3,179,273z"/>
<path fill="#B2B2B2" d="M192.2,153.9c-2.3-0.4-4.5-0.7-6.8-1.1c2.6-2.3-1.9-4.3-0.5-6.7c-0.3-0.3-0.5-0.8-0.6-1.2
	c2.1-2.7,5-3.8,8.3-4.6c2.3,3.3-1.5,4.7-1.9,7.2c0.9,2.2,3,2.1,4.9,2.2c5.8,0.1,11.4-1.6,17.2-2c1.4-0.1,2.8-0.7,3.7-1.8
	c2-2.5,4.9-3.8,7.7-5c-0.2-4.1-2.2-5.7-6.5-4.8c-3.7,0.8-7.5,1.5-11.1,2.5c-1.9,0.5-3.9,1-5.5-0.9c-0.9-1.8,0.3-2.5,1.6-2.8
	c5.8-1.8,11.7-3.4,17.8-3.2c3,0.1,6.2,0.8,7.6,4.2c0.3,0.7,0.6,1.5,0.9,2.2c-3.5,13.4-15.5,12.9-25.6,15.3
	C199.9,154.3,196,153.8,192.2,153.9z"/>
<path fill="#E2E2E2" d="M100,159c-1.7,2-3.4,3.9-5.1,5.9c-0.8,0.9,0.1,2.4-1.2,3.5c-4.6-1-9.8-1-14.3-3.6c-3.7-1.7-3-5-2.1-7.7
	c1.3-3.8,4.8-2.5,7.9-2.1c2.3-2.8,5.3-4.3,9-3.6C96.9,153.4,101.4,154,100,159z"/>
<path fill="#5B5B5B" d="M180.1,372.9c0.9-10,1.8-20.1,2.7-30.1c1.6-5.5-2.6-11.9,2.5-16.9c-0.4,6.2-0.8,12.3-1.2,18.5
	c0.2,0,0.3,0,0.5,0c0.4-3.2,0.8-6.3,1.3-9.5c0.4,0.1,0.8,0.1,1.2,0.2c-0.8,7.6-1.5,15.2-2.5,24.8c-0.6-2.8-0.7-3.5-0.7-3.1
	c0,3.6,0,8.4,0,13.1c-2.3,2.7,0.6,6.6-2.1,9.3C181.3,377.1,180.7,375,180.1,372.9z"/>
<path fill="#4B4B4B" d="M193.9,269.1c-3-7-6-14-9-21c0.4-1.1,0.8-2.2,1.3-3.3c0.8-0.8,1.6-1.6,2.8-0.8c0.3,0.7,0.7,1.3,1,2
	c2.1-0.4,4.1,0.6,4.4,2.4C195.7,255.2,197,262.3,193.9,269.1z"/>
<path fill="#585858" d="M173.2,235.8c-0.8-1.6-1.5-3.2-2.3-4.8c0.4-5.9,0.7-11.9,1.1-17.8c0.5,0,1.1,0.1,1.6,0.1
	c0,6.4,0,12.7,0,19.1c0.4,0,0.8,0,1.3,0c0-5,0-10,0-15c0.7,0,1.4,0,2.1,0c-0.3,6.1-0.6,12.1-0.9,18.2
	C175.2,236.8,174.2,236.8,173.2,235.8z"/>
<path fill="#696969" d="M184.8,248.1c-1.6-2-3.2-4.1-4.8-6.1c0.5-6.4,1.1-12.9,1.6-19.3c1.1-0.1,2.1-0.1,3.2-0.2
	C184.8,231,184.8,239.5,184.8,248.1z"/>
<path fill="#D8D8D8" d="M112.3,172.7c4.8-5.2,11.1-0.3,16.5-2.4c2.3-0.9,3,2.2,3.4,4.8c-2.3,0-4.2,0-6.1,0c-3.7,1.2-7.3,0.8-11-0.1
	C113.7,174.7,112.6,174.3,112.3,172.7z"/>
<path fill="#484848" d="M112.3,172.7c4.4,2.1,9,2.5,13.7,2.3c-1.3,0.6-2.6,1.2-4,1.8c-0.4,2.2,0.2,4.5-0.1,6.7
	c0.3-2.2-0.4-4.4,0.2-6.6c1.4,0.1,2.8,0.2,4.1,0.3c-3.3,4.9-3.4,10.1-2,15.6c-1.8,0.1-3.5,0.1-5.3,0.2c-0.4,0.4-0.8,0.7-1.3,0.8
	c-1.5,0-2.6-0.5-3-2.1c0.4-1.4,1.4-1.4,2.5-0.9c3-4.4,3.3-9.1,2.2-13.8c-3.6-1.1-6.6-2-9.6-2.9
	C110.6,173.7,111.5,173.2,112.3,172.7z"/>
<path fill="#4B4B4B" d="M110.9,135c0.4,1.6,0.9,3.2,1.3,4.8c-5.1,5,1.5,9.9,0.3,14.9c-0.4,1.6,1.1,3.7-2.6,3.9
	c-0.6-4.3,3.1-9.8-2.9-12.6c-2-2.2-0.3-4.6-0.3-6.9c-0.1-2.4,1.5-4.7,0.3-7.1c0.9-2.3,1.9-0.2,2.9,0c1.3,0.4,1.5,1.3,1.2,2.4
	C111,134.6,111,134.8,110.9,135z"/>
<path fill="#444444" d="M100,159c-1.9-2.3-3.5-4.9-7-5c-0.6-4.3,3.6-3.9,5.5-5.6c0.9-0.4,1.8-0.6,2.5-1.4c1.3-0.7,2.6-1.3,3.9-2
	c2.3,3-0.5,5.8-0.3,8.8c0.1,1.3-0.7,2.8-0.6,4.3C102.7,158.3,101.3,158.7,100,159z"/>
<path fill="#6A6A6A" d="M143.1,165.1c1.9,5.3,10.6,6,8.9,14.6c-4.6-4.2-8.8-7.9-13-11.7C140.4,167,141.7,166.1,143.1,165.1z"/>
<path fill="#CBCBCB" d="M161,153.6c6.6,2.2,13.2-3.7,19.7,0.2c-9.5,1.4-18.9,2.9-28.4,4.3c-0.1-0.5-0.3-0.9-0.4-1.4
	C154.9,155.7,158,154.7,161,153.6z"/>
<path fill="#1F1F1F" d="M193.9,269.1c-1.2-7.8,3.2-16.4-3.9-23.2c0-0.6,0-1.2,0-1.9c0.5-0.4,0.9-0.9,1.5-1.2
	c0.3-0.1,0.6-0.2,1.4-0.2c1.4,2.1,2.9,4.5,3.2,7.4c1,2,2,3.9,3,5.9l0.1,0.1c-2.3,3.5-2.2,7.3-1.7,11.3c0.4,3.7-0.4,4-3.3,2.6
	C194,269.7,193.9,269.4,193.9,269.1z"/>
<path fill="#6D6D6D" d="M175.2,351.9c0.2,1.1,0.5,2.2,0.7,3.3c-0.6,0-1.2,0-1.8,0c0.2-11.1,0.4-22.1,0.5-33.2
	c0.2-2,0.3-3.9,0.5-5.9C175.2,328,175.2,340,175.2,351.9z"/>
<path fill="#1E1E1E" d="M122.1,149.8c1.1,0.1,2.2,0.3,3.2,0.4c-0.3-3.9-0.5-7.4-1-14.1c4.2,6.4,7.1,9.8,5,14.9
	C126.8,150.5,124.5,150.1,122.1,149.8z"/>
<path fill="#333333" d="M179.8,282.9c1,6,5.9,11.4,3.2,18.1c-2.1-5.6-4.1-11.3-6.2-16.9C177.8,283.7,178.8,283.3,179.8,282.9z"/>
<path fill="#727272" d="M136.9,177.1c1.1,0.3,2.1,0.6,3.2,0.9c1.7,7.1,10.3,7.6,13,13.8c-0.4,0.4-0.8,0.8-1.1,1.2
	c-4.9-4.1-9.7-8.2-14.6-12.1C135.6,179.6,135.2,178.6,136.9,177.1z"/>
<path fill="#D0D0D0" d="M104,158c0.3-4.3,0.6-8.7,0.9-13c0.7-4.3,1.4-8.6,2.1-13c2.5,4.7-1,9.3,0,14C106,150,105,154,104,158z"/>
<path fill="#8C8C8C" d="M140,160c2.4-3.7,5.7-3.8,9.4-2.1c-1.5,5.5-5.9,3.8-9.5,4C139.4,161.2,139.4,160.6,140,160z"/>
<path fill="#7C7C7C" d="M118,193c0.3,0,0.7,0,1,0c1.8,2.2,6.1,1,6.8,4.8c-0.6,1.4-1.2,2.8-1.8,4.2c-1,0.7-2,0.5-2.9-0.1
	c-1-1.7-3.2-1.9-4.3-3.6C115.7,196.2,115.9,194.4,118,193z"/>
<path fill="#6C6C6C" d="M180.1,321.9c-0.6,5.6-1.2,11.2-1.8,17.6c-0.3-1.5-0.4-2.1-0.5-2.7c0-7.1,0-14.3,0-21.4c0.6,0,1.3,0,1.9,0
	C179.8,317.6,180,319.8,180.1,321.9z"/>
<path fill="#AAAAAA" d="M118.5,165.8c-4.7,1.1-9.4,2.2-14.1,3.3c-0.2-0.7-0.4-1.4-0.5-2.1c4.7-1,9.4-2,14.1-3.1
	C118.2,164.6,118.4,165.2,118.5,165.8z"/>
<path fill="#434343" d="M80,163.9c4.5,1.3,8.9,2.6,13.3,3.9c0.7-1.2,1.1-2.1,1.6-2.9c-0.3,1.7-0.6,3.3-0.8,5
	c-4.7-1.3-9.4-2.5-14-3.8C79.4,165.3,79.5,164.6,80,163.9z"/>
<path fill="#C1C1C1" d="M169.1,248.3c-0.2-1.9-0.8-3.9,1.4-5.5c3.5,2.9,2.3,6.8,2.3,10.4C171.6,251.5,170.4,249.9,169.1,248.3z"/>
<path fill="#C1C1C1" d="M172.9,253.1c0.6-1.1,1.3-2.1,2.7-4.6c0.9,5.8,1.6,10.3,2.3,14.7C176.2,259.9,174.5,256.5,172.9,253.1z"/>
<path fill="#A9A9A9" d="M127.7,164.4c-1.9,2.3-3.9,3.5-7,1.2c0.6-1.4,1.2-3,1.7-4.5C125.4,160.5,127.1,161.4,127.7,164.4z"/>
<path fill="#DBDBDB" d="M189,243.9c-0.9,0.3-1.8,0.5-2.8,0.8c0-3.5,0-7.1,0-10.6c0.9,0,1.8,0,2.8,0.1
	C189,237.5,189,240.7,189,243.9z"/>
<path fill="#9A9A9A" d="M173.2,235.8c1,0,1.9,0,2.9,0c4.3-4.8,0.1-10.8,2.8-16.5c0,7.3,0,14,0,20.7
	C177,238.6,175.1,237.2,173.2,235.8z"/>
<path fill="#808080" d="M118,161.6c0.7-3.4,1.2-5.7,1.9-8.9c1.8,2,2.9,3.2,4.3,4.8C122.3,158.7,120.6,159.8,118,161.6z"/>
<path fill="#4B4B4B" d="M196,250.1c-2.3-1.8-1.3-6.8-6.1-6c0.3-1.7,0.6-3.4,1.2-6.6C192.8,242.8,197.3,245.2,196,250.1z"/>
<path fill="#989898" d="M152.8,183.2c4.1-2.1,0.7-5.6,1.5-8.3c0.6-0.7,0.8-1.7,1.9-1.9c0.6,2.4,1.1,4.8,1.7,7.3
	c-1.1,1.5,0,5.3-3.9,4C153.6,183.8,153.2,183.5,152.8,183.2z"/>
<path fill="#BFBFBF" d="M140,160c0,0.6,0,1.3-0.1,1.9c-3.2,0.6-6.3,1.1-12.7,2.3C133,160.3,136.3,159.5,140,160z"/>
<path fill="#494949" d="M134.9,216c-3.1-2.2-3.1-4.9-0.9-9.1c1.2,3.1,2,5.2,2.8,7.2C136.1,214.7,135.9,215.8,134.9,216z"/>
<path fill="#8A8A8A" d="M169.1,161.4c5.4,1.4,4.4,5.5,7.1,8.3C170.2,169.3,171.3,165,169.1,161.4z"/>
<path fill="#7A7A7A" d="M176.4,187.8c-3.1-6-1.6-8.3,0-11.1C178.9,180.1,175.4,182.2,176.4,187.8z"/>
<path fill="#787878" d="M167.3,198.5c-1.9-4.2-3-6.5-5.4-11.7C166.3,190.9,167.9,192.9,167.3,198.5z"/>
<path fill="#7A7A7A" d="M177.3,199.5c-0.7-3.1-1.4-6.3-2.1-9.4c0.4-0.1,0.9-0.2,1.3-0.3c0.8,3.1,1.5,6.3,2.3,9.4
	C178.3,199.3,177.8,199.4,177.3,199.5z"/>
<path fill="#DBDBDB" d="M138.5,157.9c-3.8,1-5.8,1.5-7.7,2C131.9,156.9,133.8,155.9,138.5,157.9z"/>
<path fill="#515151" d="M170.8,321c2.6,4,1.4,8.3,0,12.6c0-3.2,0-6.4,0-9.6C170.8,323,170.8,322,170.8,321z"/>
<path fill="#5F5F5F" d="M153.9,184.1c1.3-1.3,2.6-2.6,3.9-4c0.7,1.6,1.3,3.3,2,4.9C157.9,184.7,155.9,184.4,153.9,184.1z"/>
<path fill="#A7A7A7" d="M134.9,216c0.2-1-0.2-2.8,1.9-1.9c0.4,1.6,0.8,3.2,1.3,4.8c-0.4,1.1-0.8,2.1-1.2,3.2
	C136.2,220.1,135.6,218.1,134.9,216z"/>
<path fill="#F5F5F5" d="M263.8,557c-0.7,3.1-1.3,6.1-2,9.2c-1-1.8-1.9-3.7-2.9-5.5c-3.1-0.4-3.1-3-3.8-5.2
	c2.8-10.3-3.5-18.1-7.6-26.4c-1.8-3.7-2.1-7-1.1-10.7c4.8-6.3,2.9-13.6,2.7-20.6c0.1-28.6-2.9-56.8-9.2-84.7
	c-0.6-1.3-0.7-2.2,1.2-2.2c11.4,32,18,64.8,16.6,101.6c-2-3.2-2.6-4.1-4.6-7.3c1.2,9.6,2,16.7,2.9,23.8
	C260.1,537.9,262.1,547.4,263.8,557z"/>
<path fill="#292929" d="M233.2,460.8c-5.4-22.6-10.7-45.3-16.1-67.9c0.3-1.4,0.7-2.8,1-4.2c2.3,2.2,1.6,5.3,2.2,8
	c0.4,1.6,0.7,3.2,1,4.8c-2.1-10.4-3.3-21-5.3-31.4c-1.1-2.6-2.2-5.2,2-6.2c2.6,7.5,3.5,15.5,5.4,23.2c0.5,5.1,1.6,10.1,2.7,15.1
	c2.4,3.6,2.8,7.8,3.2,11.9c0.8,8.2,4.3,15.7,5.4,23.8c1,7.3,2.8,14.5,3.8,19.8c-2.6-9.2-2.9-21-6.8-32.1c-1.6-4.6-2-9.4-2.6-14.2
	c-0.3-2.6,0.4-4.8,3.9-3.6c0,0.3,0.1,0.7,0.1,1c3.1,14.3,5.8,28.6,8.5,42.9c0.1,0.5,0.3,0.9,0.7,1.2c0.3,1.3,0.5,2.6,0.8,3.9
	c-1.5,3.8,0.8,7.4,1,11.1c0.1,2.3,0.6,4.6,0.6,6.8c-0.3,1.8-2.5,1.7-3.2,4.1c-0.1,1.4-0.2,3.8,0.4,5.9c0.9,3,0.4,6.3,1.7,9.2
	c0.4,0.8,0.2,2-0.8,2.7c-0.7,0.4-1.5,0.4-2.3,0.2c-2.6-1.1-2.7-3.6-3.2-5.8c-1.9-7-1.3-14.6-5.4-21
	C230.8,466.8,234,464.1,233.2,460.8z"/>
<path fill="#6E6E6E" d="M232.9,407.9c-3.2,9.5,2,18.2,3,27.3c1,9,3.4,17.9,5,26.9c0.3,1.5-0.3,3.2-0.8,9.1
	c-5.6-25.6-10.2-46.9-14.9-68.3c0.6-0.5,1.1-1.1,2-1c-1-8.3-2-16.7-3-25c0.8-1.1,0-2.5,0.6-3.6c1.1-1.2,1.6,0.3,2.4,0.5
	c0.6,3.7,1.2,7.5,1.8,11.2c0,4.1,0.3,8.1,2.2,11.8C231.8,400.5,232.4,404.2,232.9,407.9z"/>
<path fill="#242424" d="M240.8,495.9c0.6,0,1.3,0.1,1.9,0.1c1.7,4.7,2,9.7,2.8,14.6c0.1,0.9-0.7,2.5,1.4,2.4c0.6,0,1.3-0.1,1.9-0.1
	c1.3,2.4,0.2,4.8,0.3,7.2c-3.2,5,0.4,8.9,2.2,12.9c3.3,7,7.4,13.7,6.6,21.9c-2.7,0.9-3.6-1-4.3-2.9c-2.9-8.2-7.5-15.6-10.8-23.5
	c-3.8-9.1-4.5-19-4.9-28.8C237.8,497.8,238.2,495.9,240.8,495.9z"/>
<path fill="#4D4D4D" d="M246.9,513c-1.4,2.9-1.6,0.5-1.8-0.5c-0.9-5.5-1.6-11-2.4-16.5c-1-8.4-2.1-16.8-3.3-26.7
	c2.1,1.8,3.1,2.6,4.2,3.5c0.6-5.3-3.1-10.5-0.6-16c0.9,10.7,1.8,21.4,2.7,32.1c-0.1,0.2-0.2,0.5-0.4,0.7c-0.1-0.2-0.3-0.5-0.4-0.7
	c-0.8-2.8-1.6-5.7-2.4-8.5c-0.2,0-0.5,0.1-0.7,0.1C243.6,491.4,245.2,502.2,246.9,513z"/>
<path fill="#818181" d="M242.2,453c-1.7-6.8-3.7-13.5-5.1-20.3c-1.6-7.9-2.8-15.9-4.2-23.8C238,423.2,239.2,438.3,242.2,453z"/>
<path fill="#949494" d="M216.1,370.2c2.5,12.9,4.9,25.9,7.4,38.8c-0.4,0.1-0.8,0.2-1.2,0.2c-1.4-6.8-2.7-13.7-4.1-20.5
	C217.5,382.5,216.8,376.4,216.1,370.2z"/>
<path fill="#9A9A9A" d="M222.9,387c-1.6-7.7-3.3-15.3-4.9-23c4,7.2,4.3,15.3,5.9,23C223.5,387.8,223.2,387.8,222.9,387z"/>
<path fill="#9A9A9A" d="M198,290c0.5-0.9,1.1-1.8,1.9-3.2c1.5,3.4,2.8,6.3,4.1,9.2c-0.3,0.5-0.5,1.1-1.2,1.2
	c-0.6,0-1.3-0.1-1.9-0.1C200,294.7,199,292.3,198,290z"/>
<path fill="#565656" d="M216.2,335.8c1.9,3.1,3.8,6.2,5.7,9.3c-0.5,0.8-1,1.6-2.2,3.5C218.3,343.7,217.2,339.7,216.2,335.8z"/>
<path fill="#AAAAAA" d="M241.1,410.9c-0.4,0.7-0.8,1.4-1.2,2.2c-1.4-5-2.8-10-4.1-15c-0.3-1.1-0.7-2.2,1.2-2
	C238.4,401,239.8,405.9,241.1,410.9z"/>
<path fill="#575757" d="M237,396c-0.4,0.7-0.8,1.4-1.2,2c-1.8-5.8-3.5-11.6-5.3-17.5c0.3-0.1,0.7-0.2,1-0.4
	C233.4,385.5,235.2,390.8,237,396z"/>
<path fill="#DBDBDB" d="M222.9,387c0.3,0,0.6,0.1,1,0.1c1.1,5,2.2,9.9,3.2,14.9c-0.1,0.6-0.2,1.2-0.4,2.2c-0.7-0.5-1.2-0.9-1.6-1.2
	C224.4,397.6,223.6,392.3,222.9,387z"/>
<path fill="#939393" d="M227.2,373.8c-1,1-2,2.1-3.1,3.1c-0.5-3.6-1.1-7.1-2-13.2C224.6,368.6,225.9,371.2,227.2,373.8z"/>
<path fill="#4D4D4D" d="M249.1,520.2c-0.1-2.4-0.2-4.8-0.3-7.2c0.1-5.1,0.2-10.1,0.4-15.2C250.2,505.2,250.7,512.7,249.1,520.2z"/>
<path fill="#5D5D5D" d="M245,489c0.3,0,0.5,0,0.8,0c0.8,5.2,1.6,10.3,2.4,15.5c-0.5,0.1-0.9,0.1-1.4,0.2
	C246.2,499.4,245.6,494.2,245,489z"/>
<path fill="#9F9F9F" d="M231.2,396.8c-3.1-3.5-2.9-7.6-2.2-11.8C229.7,388.9,230.5,392.9,231.2,396.8z"/>
<path fill="#E6E6E6" d="M165.9,336.1c0.7,19.3,4.8,38.3,4,57.7c-0.2,5.8-2.3,10.8-4.8,16.2c-0.7-11.9-1.4-23.9-2-35.8
	c-0.2-9.7,1.2-19.4,1.1-29.1C164.1,342.1,163,338.6,165.9,336.1z"/>
<path fill="#494949" d="M165.9,336.1c-1,12.7-1.9,25.3-2.9,38c-0.3-1.7-0.6-3.3-0.9-5c0.6-13.4,1.2-26.7,1.8-40.1
	C168.7,330.3,165.1,333.8,165.9,336.1z"/>
<path fill="#CCCCCC" d="M157,444.9c-2.2-1.7-4.3-3.3-7.6-5.9c2.5,0.4,3.6,0.6,4.7,0.8C155.7,441.1,157.4,442.4,157,444.9z"/>
<path fill="#F4F4F4" d="M85,421c0-6-0.1-12-0.1-18c0.4-9,0.7-18,1.1-27c-1.6-10.7-0.2-21.4-0.5-32.1c-0.3-11.7,0.2-23.4-0.2-35.1
	c-0.4-10.6-1.1-21.1-2.6-31.6c0.6-9.3-0.7-18.6-1.1-27.8c0.1-3-0.2-6.1,0.1-9.1c0.3-2.4,0.5-5.2,4.3-3.8c2.4,3.7,2.2,8.2,2.6,12.3
	c0.7,8.4,5.4,15.7,5.6,24.2c0,1.7,0.2,3.2-0.2,4.9c-1.2,5.5,1,10.6,1.6,15.9c0.3,2.9,2.7,5,4.9,6.9c1,2.6,2.9,5,2.2,8
	c-0.2,1.6,0.8,3.5-0.7,4.9c-1,0.9-2.3,1.1-3.6,1.2c-2.5,0.9-2.1,3.2-1.9,5c0.9,7.2,0.6,14.4,2,21.5c0.3,6.2,0.7,12.4,1.1,18.6
	c0.2,2.5,1.3,5.3-1.4,7.3c-0.5,0.1-0.9,0-1.5-0.3c3,3.4-0.9,6.9,0.4,10.4c1.1,14,2.2,28,3.3,42.6C95.2,420.2,90.1,420.6,85,421z"/>
<path fill="#323232" d="M84.9,277c2.5,33,3.1,66,1.1,99c-0.4-0.4-0.9-0.8-1.4-1.4c-0.7,1.9,1.1,4.2-1.3,5.4
	c-3.8-2.4-2.2-5.9-1.9-9.1c-1.8-8.7,1.6-17.5-0.2-26.3c0.6-5.8,0.7-11.6-0.2-17.4c-0.6-4,1.2-8,1-11.7c-0.2-6.7-0.4-13.4-1.6-20.1
	c-0.7-3.8-1.2-7.6-0.1-11.3c0.5-0.9,1.1-1.6,2.3-1.4C81.8,280.2,81.1,277.6,84.9,277z"/>
<path fill="#F1F1F1" d="M63.9,370c1-4,2.1-8,3.1-12c2.5-1.5,3.6-0.1,4.1,2.1c0.4,1.6,0.6,3.3,0.2,4.9c-0.7,2.8,0.5,4.3,3,5.2
	c2,4.6,4.2,9.2,1.3,14.2c-1.4,1.3-2.9,0.9-4.6,0.7c-3.9-0.4-4.9,1.1-3.7,5.3c1.5,1.3,3.6-0.2,5.2,1.1c0.4,0.4,0.7,0.8,0.9,1.3
	c2.3,6.4,2.3,6.8-2.3,9.4c-4.7,2.8-6.9-3.4-10.9-3.1c-0.9-0.8-2.4,0-3.7-1.7C56.7,387.9,60.3,378.9,63.9,370z"/>
<path fill="#D2D2D2" d="M73.8,383.9c-0.4-4.3-0.8-8.6-1.1-12.9c-1.4-1.7-1.8-3.5-0.2-5.3c4-1.1,8.4,0.6,10.5,4.3
	c0.1,3.3,0.1,6.7,0.2,10c-0.3,7.3-0.7,14.5-1.1,22.2c-1-0.4-2.1-0.9-3.1-1.3c-4.3-1.5-4.4-6.1-6.9-8.9l-0.3,0.1
	C70.2,388.9,71.3,386.2,73.8,383.9z"/>
<path fill="#4A4A4A" d="M63.9,370c-2.2,7.5-4.4,14.9-6.5,22.4c-0.8,2.8-1.3,5.7,2.7,6.6c-1.5,0-2.9-0.1-4.4-0.1
	c-0.4-11,4.7-20.8,7.1-31.1C63.2,368.4,63.5,369.2,63.9,370z"/>
<path fill="#A3A3A3" d="M72.1,392c3.9,1.7,5.4,5.3,6.9,8.9c-2.7,0.4-5.3,0.7-8,1.1C74.5,399,72.3,395.4,72.1,392z"/>
<path fill="#F4F4F4" d="M121.9,424.9c-17,6.2-17.4,5.9-19.4-12.7c-1.4-12.7-3.1-25.4-4.6-38.1c-0.8-0.9-0.9-1.9-0.9-3
	c1.6-4.4,2.7-8.7,1-13.4c1.9-7.3,0.2-14.5,0-21.8c-0.1-2.1-0.8-4.3,0.1-6.4c2-2.8,4.5-3.8,7.7-2c1.3,1.5,1.1,3.4,1.2,5.1
	c0.4,5.7,1.5,11.3,3.4,16.8c-0.3,8.6,3,16.6,4,24.9c0.1,1.4,0.2,2.8,0.3,4.3c0.4,3.2,0.9,6.3,2.3,9.3c0.7,1.4,1.3,2.8,1.1,4.4
	c-1.4,6.1,0.3,12.2,0.4,18.3C123.7,411.2,125.6,419.1,121.9,424.9z"/>
<path fill="#F5F5F5" d="M133,438.7c-3.8-1.3-3.8-4.9-4.9-7.9c-0.4-2.3-0.8-4.6-1.2-6.9c-2.1-4-2.8-8.3-2.3-12.7
	c2.7-6.3,8.3-8.3,14.3-9.7c0.8-0.2,1.6-0.5,2.4-1.9c-1.2-4.2-0.1-9-0.3-13.7c-0.2-5.4-1.4-10.4-8.1-12.1c-4.2-1.1-5.2-6-2-9.3
	c2.6-2.6,5.5-5.2,9.1-6.5c4,0.9,2.5,4.1,2.8,6.3c0.7-2.5,1.9-4.2,4.8-1.6c1.2,3.2,1,6.6,0.7,9.8c-1.3,13.8,0.7,27.8-1.6,41.6
	c0,7.1,0,14.2,0,21.5c-2.4,0.5-4.1,0.9-5.9,1.3c-1.8-1-2.9,0-4,1.2C135.7,438.2,134.4,438.5,133,438.7z"/>
<path fill="#242424" d="M125.8,411c0.4,4.3,0.7,8.6,1.1,13c-0.5-0.1-1-0.1-1.4-0.2c-1.7-0.5-2.1-1.9-2.4-3.4
	c-1.9-11-4.5-21.8-4.6-33c-0.6-7-2.5-13.8-4.1-20.7c0.2-1.4,0.1-2.8-0.1-4.2c-3-16.7-5.4-33.6-8.7-50.3c-0.3-1.8-0.2-3.6,0-5.4
	c0.3-1.2,0.9-2.2,2.3-2.2c2.1,0.7,2.9,2.5,3,4.5c0.1,1.6,0.4,3.2,1.3,4.5c6.1,29.2,11.3,58.5,14.6,88.2
	C127.3,405.1,127.6,408.1,125.8,411z"/>
<path fill="#9A9A9A" d="M119.9,387c1.9,12.3,3.7,24.6,5.6,36.9c-1.2,0.3-2.4,0.7-3.6,1c0-3.9,0-7.8,0-11.6c-0.5,0-1,0-1.5,0
	c0,2.7,0,5.5,0,9.8c-3.9-10.8-6-20.2-5.2-30.2c1.2-5.9-1.5-11.7-0.4-17.5c0.2-0.5,0.4-1,0.8-1.3c2.7-0.9,2,1.6,2.3,2.6
	C118.7,380,118.6,383.7,119.9,387z"/>
<path fill="#565656" d="M98.1,371c-0.1,1-0.1,2.1-0.2,3.1c-0.4,1.1-0.7,2.1-1.1,3.2c-0.8-6.2-1.5-12.3-2.3-18.5
	c0.5-0.1,1-0.2,1.5-0.2c0.4,2.7,0.8,5.3,1.2,8C98.6,367.8,96.8,369.7,98.1,371z"/>
<path fill="#1C1C1C" d="M84.9,277c-1.6,2.2-1.6,4.6-0.6,8.3c-1.4-1.5-1.9-1.9-2.3-2.4c-4.2-2-2.6-6-3.2-9.3c0.7-4.5,0.4-9,0.3-13.5
	c-0.4-15.7-0.2-31.4-0.3-47.2c-0.7-9.7-1.6-19.4-2.1-29.2c-0.1-2.5-2-2.7-3.4-3.7C79,180.4,84.1,174,90,179
	c0.8,0.9,1.8,1.6,2.6,2.4c1.4,3.9-1.5,6.8-2.6,10.2c-0.5,1.5-1,3.2-1.7,4.6c-2.1,4.6-1.1,9,0.1,13.5c0,1.1-0.4,2.2-0.5,3.2
	c0.4,1.6,2.1,1.6,2.9,2.6c0.7,1.1,1.5,2.1,1.9,3.4c-0.9,6,0.8,11.8,1.3,17.6c0.1,1.6,0.9,3.2-0.5,4.6c-0.5,0.3-1,0.4-1.5,0.4
	c-4.4-4.4-5.1-10.5-7.2-15.9c-0.9-5.3-1.9-10.6-2.7-15.9c0-3.6-0.1-7.3-0.8-10.9c1,4.5,0.3,9.2,1.3,13.7c0.2,4.9,2.5,9.5,2,14.5
	c0,0.9,0,1.8,0,2.7c-0.8,6.4-1.1,12.8-1.2,19.3C83.8,258.4,84.4,267.7,84.9,277z"/>
<path fill="#E3E3E3" d="M78.9,213c0.7,20.3,1.3,40.7,2,61c-2.4,0.4-3-1-2.5-2.9c0.4-1.5,1-2.8-0.3-4.1c0-18,0.1-36,0.1-54
	C78.3,213,78.6,213,78.9,213z"/>
<path fill="#C6C6C6" d="M71.9,172.9c-0.3,1.7-0.6,3.4-0.9,5.1c-1.3,0.3-2.7,0.7-4,1c-1.7,0.7-3.4,1.1-5.1,0.1
	c-2.8-0.4-5.6-0.8-8.5-1.2c-1.3-2.9,0-4.8,2.8-5.3c3.5-0.6,7.1-1.2,10.7-1.4c2.3-0.1,2.4,0,2,3.2C69.8,173.8,70.3,172.2,71.9,172.9
	z"/>
<path fill="#808080" d="M61.9,179.1c1.7,0,3.4-0.1,5.1-0.1c-2,2.1-0.3,2.8,1.7,3.5c-3.5,1.8-6-0.3-8.7-1.5
	C60.6,180.4,61.2,179.8,61.9,179.1z"/>
<path fill="#F2F2F2" d="M78,267c1,2.3,1.9,4.7,2.9,7c0.4,3,0.8,6,1.2,9c0.6,20.7,1.3,41.3,1.9,62c-1.1,4.7,0.2,9.5-0.8,14.1
	c-3.4,0.8-3.1-2.7-5-3.7c-2.1,3.3,1.4,8.8-4.1,10.6c-0.5,1.7-0.9,3.4-1.4,5.1c-1.3,0-2.7,0-3.8,0c-1.4-4.8,2.4-9.5-1.9-13
	c1.4-8.6,2.8-17.3,4.2-25.9c2.7-3,2.1-6.9,2.6-10.4c0.5-3.2,1.7-6.4,1.2-9.8c-0.2-1.8,1.6-2.4,2.3-3.7c0.5-5.3-3.1-10.1-1.5-15.4
	C76.5,284.2,77.3,275.6,78,267z"/>
<path fill="#B8B8B8" d="M75.8,292.8c1.9,7.5,6,14.6,3.5,24.3c-1.4-2.4-2.1-3.5-2.6-4.5c-2.8,6.1,0,13.9-5.5,19.5
	C72.8,319,74.3,305.9,75.8,292.8z"/>
<path fill="#E0E0E0" d="M40.1,175c-1.7,0.4-3.3,0.8-4.8,1.1c-3.2-4.9-0.6-8.8,1-12.8c0.5-4.4,2-8.4,5.5-11.3
	c0.4-0.2,0.9-0.3,1.3-0.4c2,0.2,4.1-1.6,6.2,0.4c-0.2,4.1-5.6,5-5.6,8.2c1.7-4,6.1-6.6,9.4-10c1.5-1.5,4.1-0.4,4.6,1.9
	c0.8,4.2,4,5.4,7.2,6.8c0.4,0.3,0.6,0.7,0.8,1.1c0.3,1-0.2,1.8-0.7,2.6c-1.1,1-2.1,2.2-2.3,3.8c-0.6,1.9,1.3,3.4,0.7,5.2
	c-0.6,1.1-1.6,1.4-2.6,1.3c-3.4-0.3-6.8,0-9.8,1.7C47.4,176.7,43.7,173.2,40.1,175z"/>
<path fill="#343434" d="M40.1,175c7.6-0.1,14.3-5.4,22.3-3.1c0-4.2-3-4.8-5.4-5.9c2.1-1.7,5.6-1,6.8-4.1c0.4-0.6,0.7-1.2,1.1-1.8
	c3.4-0.4,4.7,1,3.9,4c-0.4,1.4-1.9,2.3-1.7,4c-0.7,0.4-1.3,0.8-3.7,2.2c4.6-0.5,7.3-0.7,10.8-1.1c-0.9,1.5-1.6,2.6-2.3,3.6
	c-3.6,3.3-7.5,5.5-12.6,3.6c3-0.8,6-1.6,9-2.5c-5.2,0.6-11.5-2.1-15,4C49,177,44.5,176,40.1,175z"/>
<path fill="#DEDEDE" d="M34.2,160c3.3-14.2,16.2-17.3,26.8-23.1c1-0.1,1.4,0.4,1.6,1.2c-1.8,5.9-4.7,11.1-11.6,11.9
	c-3,0.4-5,3-8.1,2.9l0.1,0c-3.9-0.2-3.6,3.5-5,5.5c-1.6,2.4-1.4,2.5-3.9,2C34.2,160.4,34.3,160.2,34.2,160z"/>
<path fill="#D3D3D3" d="M22.7,182.9c7.4-4.3,12.3-5.2,19.8-4.5C36,182.3,30.9,182.4,22.7,182.9z"/>
<path fill="#4E4E4E" d="M34.1,160.6c3.1-4,6.2-7.9,10.7-13.8c-1.1,3.6-1.5,4.9-1.8,6.2c-2.3,3.4-4.5,6.9-6.8,10.3
	C35.6,162.4,34.8,161.5,34.1,160.6z"/>
<path fill="#EAEAEA" d="M8.8,186c4.3-2.9,7.4-3.3,11.5-2.4C17,186.3,13.7,186.3,8.8,186z"/>
<path fill="#454545" d="M228.2,135.9c-9.1-6.6-17.7-3.2-26.2,1.4c0.2,3.6-4.3,3.6-5,6.5c-0.8,0.5-2,0.5-2.4,2.9
	c0,0.5,1.9,1.6,1.5,3.4c-0.1,0.7-0.5,1.3-1,1.8c-2.7,0.5-5.1-0.1-6.4-2.6c-1.8-3.5,1.9-5,4.8-9c-4,2.4-6.2,3.7-8.4,5
	c-3.4,1.1-6.1,4.4-10.2,2.8l-0.5,0l-0.5-0.1c12.9-5.5,24.4-14.2,38.7-16.5c5.4-0.9,10.5-1.2,15.4,1.9
	C228,134.1,228.1,135,228.2,135.9z"/>
<path fill="#1B1B1B" d="M146.9,414.1c-0.1-15.4-0.2-30.8-0.3-46.2c0-2-0.4-3.9-0.5-5.9c-3.3-2-1.5-5.3-2.2-8
	c0.7-7.7,1.5-15.5-0.2-23.2c-0.4-7.8-0.1-15.6-0.1-23.4c0-2.4,0.1-4.6-1.6-6.6c-0.4-0.5-0.8-1.1-0.9-1.8
	c-1.3-11.6-7.5-22.4-5.5-34.6c0.2-1.3-0.1-2.7,1.3-3.5c4.4,1.1,4.5,1.5,6.6,18.6c-1.6-6.7-1.1-14.1-4.7-20.6
	c-1.3-2.3-2-5.1-1.6-7.7c0.5-3-0.7-5.1-2.4-7.1c-0.2-2.8-1.7-5.7,1.2-8c-1.6-3,1-4.7,2-6.9c6.6,27,12.2,54.1,13,82.5
	c-3.3-3.2-1.5-7-3.4-13.1c3,40.5,3.6,78,0.3,115.5C147.5,414,147.2,414,146.9,414.1z"/>
<path fill="#F8F8F8" d="M137,437.9c-0.3-2.6-3-5-0.7-8c5.4-0.3,4.9,3.4,4.7,6.9C139.7,437.2,138.3,437.6,137,437.9z"/>
<path fill="#2C2C2C" d="M61.7,137.9c-0.2-0.3-0.4-0.7-0.7-1c-1-1.3-2-2.7-3.1-4c0.6-1.7,1.3-3.3,1.9-5c0.7-0.5,1.3,0,1.9,0.3
	c1,1.4,2,2.6,3.1,3.9c0.9,1,1.6,2.1,1.5,3.5c-0.3,1.9-1.4,2.9-3.3,3.1C62.5,138.6,62.1,138.4,61.7,137.9z"/>
<path fill="#F7F7F7" d="M240.8,495.9c-1.8,10.3,1.1,20.3,3.8,29.8c2.9,10.2,8.8,19.5,13.4,29.2c0.3,1.9,0.6,3.8,0.9,5.7
	c-0.4,4.1,1.5,10.4-6.8,7.1c-5.9-4.7-12.2-1-18.2-0.5c-4.4,0.4-8.7,1.8-13,2.7c-2.6,0.4-5.3,0.8-7.9,1.1
	c-2.9-5.1-5.9-10.1-8.8-15.2c0-2.3,0-4.6,0-6.9c-0.9-6.1,1.3-11.4,4.2-16.5c0.8-1.4,2-2.7,2.1-4.5c0.3-2.2,2.1-3.7,2.9-5.7
	c4.9-3.9,4.6-9.5,4.8-15c-3.3-1.5-6.7-3-6.1-7.5c0.4-3.1,1.6-5.4,5.5-4c8-1.1,3.8-5.2,1.7-8.8c5-3.8,1.4-9.7,3.6-14.2
	c-0.3-0.4-0.5-0.8-0.5-1.3c0.4-2.8,1.8-5.3,2.5-7.9c0.5-2.1,1.9-3.3,4.5-3.3c2.5,2.3,4.1,5.2,4.6,8.7
	C239.9,477.1,237.5,487.2,240.8,495.9z"/>
<path fill="#8B8B8B" d="M212,385c2.5,13.3,6.1,26.5,7.1,39.9c0.6,8.4-2.7,17.1-4.3,25.7c-1.5,0.9-2.5-0.3-2.6-1.2
	c-0.1-4.5-2.9-9-0.3-13.6c-4.8-0.8-5-4.4-4.9-7.9c0.1-2.7-0.1-5.2-1-7.8c-3.6-9.3-2.7-18.7-1.1-28.2c0.7-3,1.4-6,2-9
	C208.8,383.4,210.1,384.9,212,385z"/>
<path fill="#4B4B4B" d="M217.6,495.9c-1.1,1-2.2,1.9-3.9,3.5c1.9,0,3,0,4.6,0c-1.4,1.7-2.5,2.9-3.8,4.4c2.5,0,4.5,0,7,0
	c-0.6,1-1,1.6-1.4,2.2c0,0.7,0.4,1.5,0,1.9c-5.3,4.9-9.4,11.3-16.7,13.9c-1.3,0.4-2.3,0-3.2-0.8c0.1-11.7-0.2-23.5,8.9-32.8
	c2.9-1.4,3.1-5.9,7-6.1c2.8,2.2-2.5,3-0.5,5C218,489.5,221.4,491.7,217.6,495.9z"/>
<path fill="#C3C3C3" d="M204.9,392c0,7,0,14,0,21.9c2-1,2.9-1.4,3.7-1.9c1.6,2.7-3.4,7.2,2.1,8.8c-0.6,4.1-1.1,8.1-1.6,12
	c1.2-1.7,1.5-3.4,3.8-4.2c0.6,7.4,1.2,14.6,1.9,21.9c-0.4,2.2-0.8,4.5-1.3,7.3c-3.1-3.4-5.7-6.2-8.4-9.2c0.4-3.7,0.7-7.6,1.1-11.5
	c-1.2,0.1-2.3,0.2-3.2-0.8c-1-1.6-1.9-3.3-2.4-5.1c0.8-3.6-2.8-6.2-2-9.8c0.9-6.5,2-12.9,1.9-19.5c0-1.8-0.1-3.7,1.6-5
	C203,395.3,204,393.6,204.9,392z"/>
<path fill="#555555" d="M211.7,528c-2.5,7-5,14-7.5,21c-3.3,1.5-6,3.6-7,7.3c-1.7,0.8-3.4,1.7-5.1,2.6c2.1-7.9,4.2-15.9,6.3-23.8
	c1.9-4.3,6.4-5.5,9.9-7.9C209.3,526.4,210.7,526.7,211.7,528z"/>
<path fill="#9E9E9E" d="M234,469c-1.5-2.3-3-4.6-5.1-7.7c-1.6,4.2-2.5,8.3-5.9,10.7c-3.5,1.6-7.6-0.1-11,2.1c-4,1.4-1.1-1.7-1-1.9
	c3.6-6.7,7.3-13.4,11.1-20.4c2.2,2.2,3.5,0.9,4.6-1c3.5,2.8,1.4,8.7,6.5,9.9C233.5,463.6,233.7,466.3,234,469z"/>
<path fill="#393939" d="M200.2,521c9-1.9,12.3-11.3,19.9-15.1c1.6-0.1,3.6,0.3,3.1,2c-0.6,1.9-2.5,3.4-4,5.4c0.6,0.2,1.3,0.5,2.4,1
	c-2.2,3-4.3,6-6.4,9c-1.9,0.5-1.9-0.9-2.1-1.9c-0.1,0.3-0.1,0.5-0.2,0.8c-3.3,5-7.9,7.9-13.7,8.7
	C199.5,527.6,199.9,524.3,200.2,521z"/>
<path fill="#555555" d="M197,492.7c-5.3,5.8-3.5,17.3-15.9,18.9c1.9-4.8,3.4-8.7,4.9-12.6c1.6-4.9,3.6-9.5,8-11.6
	C197.2,488.9,193.9,492.1,197,492.7z"/>
<path fill="#686868" d="M202.8,297.2c0.4-0.4,0.8-0.8,1.2-1.2c4.4,2.3,3.1-2.3,4.9-4.2c2.5,10.3,7.3,19.5,7.2,32.7
	C210,314.3,209.5,304.2,202.8,297.2z"/>
<path fill="#1E1E1E" d="M183.9,457c-1.4,0.3-2.7,0.5-4.1,0.8c3.1-10.3,6.3-20.5,9.4-30.8c3.8-2.2,3,0.8,3.3,2.8c0,0.5,0,1-0.1,1.5
	c-1.6,2.9,0.1,5.5,1,8.1c0,1,0,1.9-0.3,2.8c-3.7,2-4.3,6-5.7,9.4c-0.6,1.4-0.1,3.2-1.4,4.5C185.3,456.4,184.6,456.7,183.9,457z"/>
<path fill="#1E1E1E" d="M202.1,397c0,8.7,0.8,17.4-2.2,25.8c0.3,5.2-0.4,9.9-5,13.2c-3.4,0-4.5-1.8-3.8-5l0,0
	c1.9-7.6,5.3-14.9,5.2-23.1c0-1.5,1.1-2.7,1.7-4c0.9-1.9,1.9-4,0.1-6c2.1-1.1,3.1-2.8,3.1-5.2C201.4,394.1,201.7,395.6,202.1,397z"
	/>
<path fill="#353535" d="M203,275c1,5.3,2.1,10.6,3.1,15.9c-0.7,0.2-1.3,0.4-2,0.6c-2.5-5.7-4.9-11.4-7.4-17.1
	c-0.9-3.8-0.1-7.6-0.6-12.5C201.6,265.7,203.3,269.9,203,275z"/>
<path fill="#575757" d="M203,275c-0.8-2.2-1.5-4.5-2.7-8c-0.9,2.4-1.3,3.5-2,5.4c-0.2-2.8-0.3-4.8-0.4-6.8c-0.2,0-0.4,0-0.6,0
	c-0.1,2.9-0.3,5.9-0.4,8.8c-0.9-1.5-1.8-2.9-2.7-4.4c3.9-4.7-1.2-10.1,1.4-15c0.9,0.7,1.8,2.8,3.6,1.1
	C199.2,262.6,206.7,267.7,203,275z"/>
<path fill="#8B8B8B" d="M197,492.7c-2.2,1.2-2.2,1.2-3.1-4c-2.9,3.7-5.4,7-8,10.4c0.2-2.3-2.2-4.7,0-7c4.1-3.4,5-8,4.6-13
	c1.1-2.3,2-4.8,5.4-4C196.4,480.9,196.7,486.8,197,492.7z"/>
<path fill="#707070" d="M214.3,519.9c0.3,1.1,0.6,2.2,0.9,3.4c-0.6,2-0.7,4.4-3.6,4.7c-4.5,2.4-8.9,4.7-13.4,7.1
	c0.3-1.4,0.6-2.8,0.9-4.2c4.3-3.3,8.5-6.6,12.8-9.9C212.4,520,213.1,519.2,214.3,519.9z"/>
<path fill="#383838" d="M183.9,536.9c-2,1.7-2.5,5.1-6,4.9c0.1-2.3,0.2-4.5,0.4-6.8c0.5-1.9,1.8-3.6,2.8-5.3
	c3.1-5.1,5.2-5.3,9.8-1.3C190.9,533.4,187.8,535.5,183.9,536.9z"/>
<path fill="#C5C5C5" d="M212.1,474.2c1.1-2.4,2.3-4.8,3.4-7.2c4.8-1.7,3.4,5.8,7.5,5.1c0,0.3-0.1,0.6-0.1,0.8
	c-2.5,4-7,3.9-11.2,6.1C211.9,476.8,212,475.5,212.1,474.2z"/>
<path fill="#898989" d="M190.1,528.9c-1.2-0.5-2.4-1-4.7-2.1c-2.2,2.6-4.7,5.4-7.1,8.3c0.3-1.7,0.5-3.4,0.8-5.2
	c2.2-5.1,5.2-9.3,10.8-11c0.8,0.5,1.6,0.9,2.1,1.2c1.7,2.5-6,3.9-0.3,6.6C191.9,528,191.3,528.7,190.1,528.9z"/>
<path fill="#3C3C3C" d="M188.1,478.9c2.8-7.4,5.7-14.8,14.4-22.6c-2,4.9-2.7,6.8-3.5,8.7c-1.5,4.7-4.3,8.6-7.4,12.4
	C190.7,478.4,189.9,480,188.1,478.9z"/>
<path fill="#D5D5D5" d="M195.1,451.1c-1,2-2,3.9-4,7.8c0-3.7,0-5.2,0-7.1c-0.9,0.4-1.5,0.8-2.2,1.1c-2.6-3.9,1.1-6.6,1.9-9.8
	c1.6-0.6,1.7-2.6,3.1-3.6c2.5-0.6,4,0.4,4.5,2.9C197.4,445.4,196.6,448.4,195.1,451.1z"/>
<path fill="#666666" d="M212,385c-1.3,1.9-2.6,3.7-4.3,6.1c-0.3-3-0.5-5.6-0.7-8.1c0.5-3.7,0.9-7.4,1.7-13.6
	C210.1,376.1,211.1,380.6,212,385z"/>
<path fill="#8E8E8E" d="M190.1,528.9c0.5-0.7,1.1-1.4,1.6-2.1c4.5,2.2,2.5,4.8,0.5,7.4c-2.2,0.6-2.3,4.1-5.2,3.9
	c-1.1-0.4-2.1-0.8-3.2-1.1C186,534.3,188,531.6,190.1,528.9z"/>
<path fill="#4B4B4B" d="M192.1,443c-1.1,3.3-2.1,6.6-3.2,9.9c-2.2-0.2,1,4.8-2.9,3.1c-0.9-5,1.6-9.3,2.8-13.9
	c0.6-2.4,1.8-2.6,3-0.3C192.5,442.1,192.6,442.5,192.1,443z"/>
<path fill="#515151" d="M192,479.9c1.8,2.1,1.7,4.8,0,6.4c-2,1.8-1.3,6.9-6.1,5.6c0.3-1.7,0.6-3.3,0.9-5c1-1.8,1.4-3.9,2.2-5.7
	C189.7,479.9,190.8,479.7,192,479.9z"/>
<path fill="#6A6A6A" d="M192,479.9c-0.7,0.7-1.4,1.4-2.2,2.1c-1.8-0.3-1.5-1.3-0.8-2.4c0.7-1.1,1.6-1.9,2-3.2
	c2.7-3.8,5.4-7.7,8-11.5c-1,3.3-2,6.7-3,10C194.7,476.6,193.4,478.3,192,479.9z"/>
<path fill="#474747" d="M189.9,519c-3.6,3.7-7.2,7.3-10.8,11c-0.7-8.1,8.5-8.6,11.7-14C190.5,516.9,190.2,517.9,189.9,519z"/>
<path fill="#A9A9A9" d="M204,436c0.8-0.7,1.6-1.4,2.8-2.5c-0.3,1.6-0.5,2.7-0.7,3.7c-2.4,3.3-4.7,6.6-7.1,9.9
	c-0.2-0.2-0.3-0.5-0.5-0.7c-0.3-3.2,1.6-6,2.1-9C200.9,436,202.2,434.9,204,436z"/>
<path fill="#3D3D3D" d="M187.1,538.1c2.1-0.8,2-4.6,5.2-3.9c-2.1,3.4-4.3,6.8-6.4,10.2c0,0-0.2,0.3-0.2,0.3
	c-1.1,0.7-2.2,1.3-4.2,2.6C183.7,543.6,185.4,540.9,187.1,538.1z"/>
<path fill="#C5C5C5" d="M216.1,482.1c-1.8,2.7-3.6,5.3-5.5,8.2c-0.5-0.7-1-1.4-1.5-2.1C211,485.7,210.1,480,216.1,482.1z"/>
<path fill="#A9A9A9" d="M195.1,451.1c-2-3.3,0.7-5.7,1.7-8.4c0.5,0,0.9,0.2,1.3,0.5c0.9,0.9,0.9,2.1,0.8,3.2
	c0.1,0.2,0.2,0.4,0.3,0.6C197.4,448.1,199,452.5,195.1,451.1z"/>
<path fill="#8B8B8B" d="M191,476.5c-0.4,1.9-0.8,3.7-1.1,5.6c-1,1.6-2,3.3-2.9,4.9c0.4-2.7,0.8-5.4,1.2-8.1
	C189.1,478.1,190,477.3,191,476.5z"/>
<path fill="#2F2F2F" d="M181.9,379.2c0.9-3-1.1-6.7,2.1-9.3c0.3,2.4,0.7,4.7,1,7.1c3.1-3.4,1.6-8.4,4.1-12c-0.1-1.1-0.2-2.2-0.3-4
	c3.1,2.3,3.3,5.1,3.3,8c0.3,6.3-1.4,12-5.2,17c-0.4,2.3-0.7,4.6-1.1,6.9c1.4,1,0.3,2,0,3c-1.8,6.8-3.3,13.7-5.3,20.4
	c-3.8,1.6-2.5-1.3-2.3-2.7c0.6-4,1.9-7.8,1.6-11.9C181,394.3,185.2,387.1,181.9,379.2z"/>
<path fill="#474747" d="M198,397.9c0.9,1.1,2.8,2.7,2.6,3.2c-4.5,9.6,0.2,22.1-9.5,29.9c-0.4-1.4,0.8-3.6-1.8-4
	c0.9-3.4,1.8-6.8,2.7-10.2C193.9,410.5,195.9,404.2,198,397.9z"/>
<path fill="#515151" d="M179.8,401.7c4.5,3.1-0.2,6.4,0.1,9.6c0.2,1.9,0,3.7,0,5.6c0.4,0.1,0.7,0.4,0.9,0.9
	c-2.1,7.6-4.2,15.1-6.5,23.6c-2.1-9.8,1.9-17.9,1.7-26.4C177.3,410.6,178.6,406.2,179.8,401.7z"/>
<path fill="#7A7A7A" d="M180.8,417.8c-0.3-0.3-0.6-0.6-0.9-0.9c1.9-8,3.9-16,5.8-24c3.1,1-0.8,3.4,1.9,5.3c2.1-7.1,4.2-14,6.3-20.9
	c0.4,0.1,0.8,0.2,1.3,0.4c-3.3,12.3-6.7,24.6-10,36.9c-0.4-0.1-0.7-0.2-1.1-0.3c0.9-4.1,1.7-8.2,2.6-12.3c-0.5-0.1-1-0.2-1.4-0.3
	C183.7,407.2,182.3,412.5,180.8,417.8z"/>
<path fill="#7F7F7F" d="M186.8,386c1.7-5.7,3.5-11.3,5.2-17c2.5,7.6-3.1,13.7-4.8,20.7C187.1,388.5,187,387.3,186.8,386z"/>
<path fill="#626262" d="M180.9,435.9c-0.9,0.8-1.8,1.6-2.7,2.3c1.3-6.6,2.7-13.1,4-19.7c0.4,0.1,0.8,0.2,1.3,0.2
	C182.6,424.5,181.8,430.2,180.9,435.9z"/>
<path fill="#6D6D6D" d="M189,365c-1.1,5.1-2.2,10.1-4.1,18.9c0-4.8,0-5.9,0-6.9C186.6,373.1,185.6,368.3,189,365z"/>
<path fill="#343434" d="M152,133.8c0,1.1-0.1,2.2-0.1,3.3c-2.5,0.3-2-2.1-2.8-3.2c-1,0-2.1,0.1-3.1,0.1c-2.7-4.6-5.7-9.2-5.2-14.9
	c0.4-0.3,0.8-0.6,1.2-1c2.7,3.3,5.4,6.6,8.1,9.9C151.1,129.8,153.9,131,152,133.8z"/>
<path fill="#6B6B6B" d="M152,133.8c-0.7-1.9-1.4-3.8-2-5.8c4,2,8.1,3.9,12.1,5.9C158.7,133.9,155.4,133.9,152,133.8z"/>
<path fill="#A4A4A4" d="M141,110c-1.1-3.3-2.1-6.6-3.2-9.9c1.5,3,7.5,2.6,6.1,7.9C142.8,108.3,142.9,110.5,141,110z"/>
<path fill="#CCCCCC" d="M141,110c1-0.7,1.9-1.4,2.9-2.1c-0.9,3-1.9,5.9-2.8,8.9C137.4,114.6,140.2,112.3,141,110z"/>
<path fill="#F1F1F1" d="M137.1,97c-0.9-1.7-0.8-1.7,1.6-2.1c0.9,0.3,1.9,0.6,6.8,2.1C140,97,138.5,97,137.1,97z"/>
<path fill="#F9F9F9" d="M140.7,119.1c3.1,4.5,6.5,8.9,5.2,14.9c0,0,0-0.1,0-0.1c-6.5,1.8-12.4,0.6-18-3c-1.8-0.3-3.5-0.5-5.3-0.8
	c-3,0.3-2.3-1.5-1.7-3.2C126.7,122.3,131.8,115.8,140.7,119.1z"/>
<path fill="#171717" d="M108,106.5c-3,3.2-5.9,6.3-8.9,9.5c-2.5-0.6-2.1,2.4-3.6,3c-1,0.6-2,0.9-3.1,1.3c-0.4,0.1-0.9,0.2-1.3,0.4
	c-1.1,0.3-2.2,0.7-3.2,1.3c-1.1,0.4-2.1,1.2-3.4,1c-3.3-1.5-1.6-4.8-2.8-7.1c0.1-0.7,0.3-1.5,0.5-2.2c3.9-5.5,8.2-10.7,14.3-13.9
	c1.1-0.5,2.7-0.5,3.1,0.4c1.8,3.4,5.2,3.9,8.3,5C108.2,105.7,108.3,106.1,108,106.5z"/>
<path fill="#141414" d="M118,52c2.7-0.3,5.3-0.7,8-1c-2.9,3.1-1.5,5.6,1,8c-1.4,2.5-4.3,2.7-6.3,4.3c-2.1,0.3-4.3,0.1-5.5,2.5
	c-1.4,1.4-3.4,1.9-5,3c-1.2,0.2-2.4,0.7-3.7,0.5c-3.4-2.2-5.8-4.9-5.4-9.3c-0.3-0.6-0.6-1.1-0.9-1.7c0.9-2.9,4-3.7,5.4-5.6
	c2-0.9,3.4,1.2,5,0C113,51.6,115.5,52.4,118,52z"/>
<path fill="#F2F2F2" d="M119.8,61.7c1.4-3.4,4.3-3.1,7.2-2.8c2.9,1.2,5.7,2.5,8.6,3.7c2.7,1.1,3.6,3.4,3.3,6
	c-0.1,1-1.6,2.4-2.6,2.5c-2.8,0.4-3.6-1.6-4.5-4.1c-1.3-3.4-3.9-5.4-7.8-2.9c-1.2,1.6-2.7,2.2-4.5,0.8
	C118.9,63.9,119.1,62.8,119.8,61.7z"/>
<path fill="#545454" d="M133.1,89.3c-1.6,5.6-5.5,7.5-10.9,6.4c-2.7-0.6-4.8-0.5-6.1,2.4c-1.7-0.3-2.1-2.8-4.2-2.4
	c-0.7-0.1-1.4-0.1-2-0.2c-0.8-0.1-1.4-0.3-2-0.8c-2-3.4-1.2-7.1-1.1-10.6c0.2-0.7,0.8-1.3,1.4-1.7c3.9-0.4,6.9,1.6,9.2,4.3
	c4.4,5.1,7.1,5.1,10.8-0.5c0.3-0.4,0.6-0.8,1-1.1c0.7-0.5,1.4-0.6,2.2-0.5C133.7,85.4,133.2,87.4,133.1,89.3z"/>
<path fill="#F1F1F1" d="M133.1,89.3c-0.8-1.4-1.6-2.9-2.4-4.3c-0.9-0.6-1.2-1.6-1.6-2.4c-0.5-1-1.2-2-1.2-3.1
	c0.4-2,1.7-2.9,3.4-3.4c0.3,0,0.5,0,0.8,0c1-0.7,1.9-1.4,2.9-2.1c2.6-0.3,3.2,1.4,3.8,3.4c0.8,2.9,1.2,5.8,0.5,8.8
	C138.2,89.3,134.8,87.8,133.1,89.3z"/>
<path fill="#C3C3C3" d="M121.9,68.2c3.3,2.7,10.7,0.1,10.1,7.8c0,0,0.1,0,0.1,0c-3.1,3.1-6.5-0.2-9.8,0.6c-2.4-0.3-5,0.7-7.1-1.2
	C114.5,70.3,117.3,67.3,121.9,68.2z"/>
<path fill="#494949" d="M121,127c0.3,1.2-0.5,3,1.7,3.2c-2.9,4.1-7.7,3.6-11.8,4.8c0,0,0.1,0.1,0.1,0.1c-0.3-3.9,2.3-6,5-8.1
	C117.7,127,119.3,127,121,127z"/>
<path fill="#E6E6E6" d="M94.9,117.9c1.2-1.5,2.3-3,4.2-5.4c0,2,0,2.7,0,3.5c-2.7,5.7-6.3,11.1-4.3,17.9c-1.5,2.3-2.8,0.9-2.9-0.6
	C91.5,128,90.1,122.3,94.9,117.9z"/>
<path fill="#CDCDCD" d="M101,147c0.5,0.8,1,1.6,1.8,2.9c-1.3,0.1-2.1,0.2-3,0.3c-2.2-0.6-4.9,1-6.8-1.1c-0.5-0.9-0.6-1.9-0.9-2.9
	c-0.5-1.7,0.2-3.3,0.6-4.8c0.4-1.6,1.4-2.7,3.1-1.1C97.6,142.4,99.3,144.7,101,147z"/>
<path fill="#B2B2B2" d="M139.1,86.2c-2.8-3.6,0.3-9.3-4.2-12.3c1.5-1.2,3.4-1.5,4.1,0.3C140.7,78.1,142.4,82.2,139.1,86.2z"/>
<path fill="#9F9F9F" d="M94.9,117.9c-0.6,5.3-4.7,10.6-0.1,16c0,1.3,0,2.6,0,3.9c-1.4,2.6-3,1.6-4-0.1c-1-1.8-2.7-3.4-2.9-5.7
	c3-3.9,1.8-9.1,3.9-13.2C92.9,118.5,93.9,118.2,94.9,117.9z"/>
<path fill="#555555" d="M88.9,132.1c3.8,0.1,1.4,6.4,5.9,5.8c0.4,0.8,0.8,1.5,1.1,2.3c-3.3,2.2,0.9,3.7,0.5,5.7
	c0,0.2-0.1,0.3-0.1,0.5c-0.4-0.1-0.8-0.2-1.3-0.3c-4.6-0.3-5.9-3.7-6.9-7.4c-0.9-1.8-1.9-3.6-1.1-5.7
	C87.5,132.2,88,131.8,88.9,132.1z"/>
<path fill="#373737" d="M121.9,68.2c-2.5,1.7-6.3,2.3-5.5,6.8c-1.3,1.4-2.7,0.9-4,0c-1.6-4.8-1.4-5.3,3.7-7.8
	c1.2-0.9,1.9-2.9,4-2.3c1.3-0.2,2.7-0.4,4-0.6C125.5,66.7,122.2,66.6,121.9,68.2z"/>
<path fill="#D7D7D7" d="M112.1,91.8c1.3,2.1,2.6,4.2,4,6.3c-1.2,3-2.7,5.8-6.1,6.9c-0.7-0.4-1.1-1.1-1.2-1.8
	C110.2,99.4,110.6,95.4,112.1,91.8z"/>
<path fill="#EAEAEA" d="M116,127c0,3.7-3,5.6-5,8.1c-0.4-1-0.8-2.1-1.1-3.1C109.8,127.7,112.5,126.8,116,127z"/>
<path fill="#555555" d="M110.2,102.9c0,0.7-0.1,1.3-0.1,2c-0.7,0.5-1.4,1.1-2,1.6c-0.1-0.2-0.1-0.4,0-0.6c-2.2-5.6-1.9-9,1.3-11.9
	c0.5,0,1,0,1.4,0C113.1,97.1,110.2,99.9,110.2,102.9z"/>
<path fill="#E0E0E0" d="M77.7,93c-2.1,4.7-4.2,9.5-6.3,14.2C65.8,99,72.8,96.5,77.7,93z"/>
<path fill="#565656" d="M65,135c-0.6-0.7-1.3-1.5-1.9-2.2c1-2.1-0.9-2.7-2-3.7c-0.4-0.4-0.8-0.8-1.2-1.2
	c10.8-0.5,10.6-8.1,10.2-15.9c0.3,0,0.6,0,1,0c3,1.6,2.2,4.6,2.4,7.1c0.4,5-1.2,9.5-4,13.6C68.4,134.2,67.3,135.8,65,135z"/>
<path fill="#FAFAFA" d="M109.3,94c-0.4,4-0.9,8-1.3,11.9c-2.7,1.1-5.4,2.2-8.2,3.4c-2.2-2.3,1.2-6.7-2.8-8.4
	c-2.8,0.9-3.6-1.6-4.9-3c-2.9-0.9-5.8-1.8-9.6-3c3.9-5.7,5.5-11.1,0.9-16.6c2.1-1.7,3.9-3.1,5.6-4.5c1-0.8,2.6,0,3.4-1.3
	c1.2-1.3-0.3-3.2,0.9-4.5c1.4,0.2,2.7,0.5,4.1,0.7c-0.2-2.4-4.6-2.7-2.4-5.8c1-0.3,1.9-0.6,2.9-0.8c5,0.7,5,4.9,5.2,8.4
	c0.3,5.1,1.3,9.7,4.7,13.7C111.3,87,107.8,90.9,109.3,94z"/>
<path fill="#F5F5F5" d="M65,135c5.6-6.8,7.3-14.5,6-23.1c0.8-3.4,3.5-5.1,5.9-6.8c2.7,0.5,3.3,2.2,2.8,4.8
	c-0.7,0.9-3.4-0.7-3.3,2.5c0.9,0.5,2.2,1.3,3.7,2.1c1.3-3,2.6-5.8,3.8-8.6c2.7,0.3,1.7,2,1.4,3.5c-0.4,1.7-1.2,3.2-2.3,4.5
	c-0.1,0.6-0.1,1.2-0.2,1.8c-0.2,5.2-3.6,9.7-2.9,15c-0.1,0.5-0.2,1-0.3,1.4c-1.1,4.6-3.8,8.6-5.1,13.1c-1.4,2.8-2.8,5.5-4,8.3
	c-0.9,2-1.9,3.8-4.3,4.2c-6.4,0.2-10.4-5.1-8.6-11.2c1-3.4,3.1-6.1,5.2-8.8C63.5,137,64.3,136,65,135z"/>
<path fill="#E4E4E4" d="M83,114.1c0.3-2.7,0.6-5.4,0.9-8.1c0.3-1.4,0.7-2.7,0.9-3.6c4.8,1.6,5.9-1.6,7.2-4.4c1.6,1,3.3,2,4.9,3
	C92.3,105.3,87.7,109.7,83,114.1z"/>
<path fill="#D8D8D8" d="M84.9,99.3c-4.7,2.2-2.7,4.7-2.9,7c-2-1-3.8-1.9-5.9-3c1.4-3.5,2.7-7,4.1-10.5
	C79.9,95.8,80.2,97.9,84.9,99.3z"/>
<path fill="#B4B4B4" d="M93.2,68.1c2.6,2.4,1.9,4.9-0.1,7.8c-1.4-0.7-2.8-1.3-4.2-2C90.4,72,91.8,70.1,93.2,68.1z"/>
<path fill="#111111" d="M118,52c1.5,0.8,2.9,1.5,4.7,2.5c-5.9,5-8.4-0.4-11.8-0.5c-5.3-0.3-3.5-3.9-3.1-6.8
	c0.4-0.8,0.8-1.5,1.1-2.3c3.8-3.6,6.9-1.3,10,1.1C118.7,48,118.3,50,118,52z"/>
<path fill="#1F1F1F" d="M107.8,84.2c-6.7-1.2-7.8-6.4-7.3-11.6c0.4-4.1,0-7.4-2.6-10.4c0.3-0.7,0.6-1.4,0.9-2.2
	c3.7,1.6,4.6,5.9,7.7,8.2c0.9-0.7,1.9-1.3,2.8-2c2.4,1.5,2.2,4,1.8,6.1c-0.6,3.6-0.8,7.4-2.2,10.8
	C108.6,83.4,108.2,83.8,107.8,84.2z"/>
<path fill="#9B9B9B" d="M107.8,47.2c0.3,2.6-0.1,5.6,3.1,6.8c1.3,2.1,2.5,4.3,3.8,6.4c-0.4,0.3-0.8,0.5-1.2,0.8
	c-2.2-2.7-4.5-5.4-6.8-8.1c-2.5,1.9-4.6,3.5-6.7,5.1c-1.3,0.4-2.6,0.9-3.9,1.3C100.9,56,105.1,52.4,107.8,47.2z"/>
<path fill="#9B9B9B" d="M106.6,68.2c0,0.2,0.1,0.4,0.1,0.5c-0.1,0.2-0.3,0.4-0.5,0.5c-2.4-3.1-4.9-6.1-7.3-9.2
	c0.7,0,1.5-0.1,2.2-0.1C102.9,62.7,104.7,65.4,106.6,68.2z"/>
<path fill="#121212" d="M66.1,156.6c2-4.2,4-8.3,6-12.5c0.5-0.6,1.2-0.9,1.9-1.3c4-2.6,7.4-2.2,10.5,1.6c0.7,0.8,1.7,1.3,2.9,1.4
	c2.3,0.4,5-0.5,6.5,2.3c2,0.7,4,1.3,6,2c-2.3,1.3-4.6,2.6-6.9,3.9c-1.1-0.1-2.3-0.2-3.9-0.3c0,2.8,0,5.5,0,8.6
	c-3.5-2-5-6.2-9.4-5.3c-2,2.4-1,4.7,0.3,6.9c0,0.7,0,1.4,0,2.1c-4.3,0.7-8.6,1.3-12.9,2c-5.7-1.3,3.5-6.7-2.2-8c0,0,0,0,0,0
	C64,158.5,65,157.5,66.1,156.6z"/>
<path fill="#343434" d="M91,182c-0.3-1-0.7-2-1-3c3.3,1.4,6.6,2.7,10,4.1c0.6,0.6,1.1,1.3,1.4,2.2c0.1,5.1,0.4,10.3-1.2,15.3
	c-0.4,0.7-1.1,1.2-1.9,1.4c-3.3,0.1-2.6-3.2-4-4.8c-0.4-0.6-0.7-1.2-1-1.9c-0.3-3.4,0.6-6.8,0.2-10.2C93.3,183.6,93.7,181.6,91,182
	z"/>
<path fill="#6A6A6A" d="M100,185c0-0.6,0-1.3,0-1.9c5.7,2.6,11.5,5.2,17.2,7.8c-0.7,0.3-1.4,0.6-2.1,0.9c-2.4,2.9-5,0.9-6.9-0.3
	c-2-1.3-4.2-2.2-6.3-3.2C100.5,187.6,100.8,186,100,185z"/>
<path fill="#A6A6A6" d="M149.1,133.9c0.9,1.1,1.9,2.1,2.8,3.2c0.7,1.6,1.4,3.2,2.1,4.9c0.6,1.8-0.7,2.1-1.8,2
	c-1.2-0.1-2.3-0.1-3.2,0.9c-1.7-0.5-3.4-1-5.9-1.7C145.4,139.7,147.2,136.8,149.1,133.9z"/>
<path fill="#7D7D7D" d="M149,145c0.1-3.5,3.3-1.9,4.9-2.9c0.9,3.1,1.9,6.1,2.8,9.2c-2.3-0.4-4.5-0.9-6.8-1.3
	c-0.6-0.5-1.7-0.2-2.1-1c-1-2,3.2-1.5,1.8-3.7C149.5,145.1,149.3,145,149,145z"/>
<path fill="#818181" d="M128,130.9c5.8,2.5,11.8,3.4,18,3c-7.1,3.7-13.3,0.1-19.6-2.2C126.9,131.4,127.5,131.2,128,130.9z"/>
<path fill="#A6A6A6" d="M149.8,145.1c1,0.3,2.1,0.6,2.9,0.9c0.5,2.6-4.7,0.4-2.7,3.9c-2.5-0.3-5.3,0-6.3-3.6
	C145.8,145.8,147.8,145.5,149.8,145.1z"/>
<path fill="#5D5D5D" d="M155.1,136c2.5,1.4,4.9,2.8,7.4,4.2c-0.2,0.4-0.5,0.9-0.7,1.3c-2.5-1.4-5-2.8-7.6-4.2
	C154.4,136.9,154.8,136.5,155.1,136z"/>
<path fill="#979797" d="M174.8,148c3.4-0.9,6.8-1.9,10.2-2.8c0,0.3-0.1,0.7-0.1,1C181.5,146.3,179,151.7,174.8,148z"/>
<path fill="#616161" d="M156.2,172.9c-0.6,0.6-1.2,1.3-1.9,1.9c-1.4-2.3-2.8-4.7-4.7-7.9C154.1,167.7,154.5,170.9,156.2,172.9z"/>
<path fill="#EDEDED" d="M102.1,187.1c4.3,1.5,8.7,3.1,13,4.6c1,0.4,2,0.8,2.9,1.3c0.3,1.7,0.6,3.3,0.9,5c2.5,2.8,1.7,6.3,2.1,9.5
	c0.6,4.3,1.4,8.6,1.9,12.9c-0.2,3.2,0.2,6.5,0.1,9.4c-0.1-5.6,0.1-11.7-1.5-17.6c-0.1-2.3-0.2-4.6-0.6-6.8
	c-0.3-1.6-0.6-3.2,1.3-4.2c0.6,0.3,1.2,0.5,1.8,0.8c4,9.7,1,20.1,2.9,30c3.2,2.8,3.5,6.8,3.4,10.5c-0.1,11,2.3,21.8,2.2,32.8
	c0,2.6,1.1,5,2.1,7.4c1.9,3.4-0.6,5-2.6,6.7c-3,0-3.2-2.2-3.7-4.1c-0.5-1.9-1.8-3.5-2.2-4.5c1.6,2.3,2,5.7,2.5,9.3
	c0.6,4.7,0.8,9.4,3,13.9c1.9,4,0.4,8.4-2.6,12c-1.6,1-1.9,2.4-2.2,4.1c-0.3,1.5-1.5,2.5-3.2,2.6c-1.7,0.1-2.8-0.7-2.9-2.5
	c0.2-5.4-1.6-10.4-2.9-15.6c-0.6-2.7-1.3-5.3-1.6-8.1c0.2-2.4,1.6-4,3.4-5.1c2.2-0.1,2.4,1.6,3.1,2.7c0.3,1.5,0.6,2.9,0.7,3.2
	c-2.6-8.3-2.8-18.5-5.4-28c-1.2-4.5,0.1-9.4-2.7-13.2c-2.2,6.4-3.9,7.1-7.8,3.5c-1.6-4.1-0.7-8.5-2.2-12.6
	c1.5,4.2,0.6,8.9,2.4,13.1c3.4,2.7,5.4,6.1,6.2,10.3c-3.2,5.7-1.7,11.5-0.5,17.3c0.5,2.4,1.8,4.1,2.9,6.1
	c-0.1,3.9,0.7,7.6,1.9,11.2c1.2,4.6,1.8,9.4,3.3,13.9c-2.8,3.1-4.5,3.1-6.9-0.1c-1.4-1.8-2.2-4-4.5-5.1c-0.8-3-1.5-5.9-2.3-8.9
	c-3.8-3.4-3.7-8.5-4.7-12.8c-2.1-8.5-3.7-17.1-5.2-25.7c-0.3-1.6-0.5-3.3-0.2-4.9c2.3-3,4.3-2.2,5.2,1c0.8,2.6,1.2,5.4,1.8,6.7
	c-0.8-5-3.8-10.8-4-17.3c0-1-0.4-1.8-1.2-2.6c-3.8-4-2.7-8.7-1.9-13.4c0.2-0.5,0.4-0.9,0.4-1.4c0.7-5.5,0.4-10.9,0.5-16.4
	c0-3.8-0.1-7.6,0.9-11.3c0-2.1,0-4.2,1.6-6c1.4-1.6,1.5-3.6,0.8-5.5C100.8,192.7,100.1,189.8,102.1,187.1z"/>
<path fill="#1C1C1C" d="M133.1,283.8c-6.4-16.8-4.1-34.6-6.2-51.8c1.6-0.7,3.2-1.4,4.8-2.2c1.6,2.2,2.9,4.2,4.2,6.1
	c0.3,2.7,0.7,5.3,1,8c0.2,5.9-0.2,11.7-0.9,17.6c-0.9,8.8-0.5,17.8,3.2,26.3c1.3,3,1.1,5.6-3.1,6c-2.8-1.3-3.8-3.5-3-6.5
	C133.6,286.1,133.7,284.9,133.1,283.8z"/>
<path fill="#1D1D1D" d="M195,142.1c2.3-1.6,4.7-3.2,7-4.9c6-1.1,12-2.3,18-3c2.5-0.3,5.6,0,6.6,3.1c1,3.2-1,5.5-3.3,7.2
	c-8.5,5.9-18.1,7.7-28.3,7.3c-0.1-0.7-0.1-1.3-0.2-2c-1.8-0.7-2-2-1.4-3.7c0.7-1.8,2.4-2.2,3.9-2.1c5.8,0.1,11.7-0.5,17.5,0.5
	c-5.1-0.8-10.3-0.5-15.4-0.6C197.7,143.9,195.9,144.1,195,142.1z"/>
<path fill="#BEBEBE" d="M122.1,176.9c1.3,3.4,0.9,6.7-1.1,11.7C121.6,183.5,119.7,180.1,122.1,176.9L122.1,176.9z"/>
<path fill="#555555" d="M122.2,201.2c0.3,3.9,0.7,7.7,1,11.6c-0.6,3,1.9,6.4-1.1,9.1c-1.1-8-2.1-16-3.2-24
	C120,199,121.1,200.1,122.2,201.2z"/>
<path fill="#E8E8E8" d="M86.8,225.1c1.8,5.3,3.6,10.5,5.4,15.8c5.5,3.4,5.9,9.2,5.8,14.6c-0.2,8,2.1,15.4,3.5,23
	c1.4,7.8,3.5,15.5,4.8,23.4c0.3,1.8-0.2,3.6,0.4,5.4c3.1,18.6,6.2,37.1,9.4,55.7c0.7,1.8-0.1,2.8-2.2,3.6
	c-4.8-6.2-2.3-13.9-4.5-20.5c-1.4-6.6-2.6-13.2-3.4-19.9c-0.2,0.9-0.4,1.6-1.3,2c-1.6,0.7-3.2,1.4-4.8,2c-1.6,0.1-2.4-0.8-2.6-2.3
	c-0.8-4.9-1.9-9.9-0.2-14.8c1.2,0,2.5,0,3.7,0c4,1.3,1.9,5,3.1,8c-1.7-7.5-0.1-14.9-3.9-21.4c-2.4-4.7-1.2-10.2-3.5-15
	c-0.1-8.2-3.1-15.9-4.9-23.7c-2.4-10.1-4.1-20.3-6.9-30.2c-0.3-1.1-0.2-2.3-0.1-3.5C84.9,226,85.3,225,86.8,225.1z"/>
<path fill="#9D9D9D" d="M86,227c4.4,19,8.7,37.9,13.1,56.9c-0.6,3,0.2,5.9,0.4,8.8c-2.3,3-3.3,1.9-4.3-1.1
	c-1.5-4.5-1.2-9.3-3.1-13.7c-0.7-5.6-1.4-11.2-2.4-19.6c-0.7,3.5-0.9,4.3-1.3,6.6c-1.2-10-2.2-18.5-3.2-27c-1-2.9-1.9-5.9-2.2-9
	c0-0.7,0.1-1.3,0.1-2C84.1,226.2,85,226.2,86,227z"/>
<path fill="#B6B6B6" d="M97.1,313c0.9,5.7,1.9,11.4,2.8,17.1c0.8,9.4,2.5,18.8-1.2,27.9c-2.9-4.5-2.4-9.8-3.3-14.7
	c-0.2-1.1,0.4-2.3-0.6-3.2c0-10.5,0-21,0-34.3C96.2,309.9,96.7,311.4,97.1,313z"/>
<path fill="#CECECE" d="M92,277.9c4.6,2.4,1.8,7.7,4.3,10.9c1,1.3,1.6,2.9,2.4,4.3c0.9,2.6,2.1,5.2,0.1,7.9
	c-6.8-0.9-5.5-6.5-6-10.9C92.4,286.1,92.3,282,92,277.9z"/>
<path fill="#A7A7A7" d="M101.8,299.2c3.6,8.2,3.9,16.7,1.8,27.2c-1.2-5.6-2-9.5-2.8-13.4c-0.3-1.4-0.5-2.7-0.8-4.1
	c0.8-1.5,0.3-3.1,0.1-4.7C99.9,302.3,99.7,300.3,101.8,299.2z"/>
<path fill="#8A8A8A" d="M94.9,340.1c1.3,6,2.6,12,3.9,17.9c1.8,4.4,0.6,8.7-0.7,13c-0.3-1.5-0.5-3-0.8-4.4
	C96.5,357.7,95.7,348.9,94.9,340.1z"/>
<path fill="#6B6B6B" d="M101.8,299.2c-0.6,3.2-1.2,6.5-1.8,9.7c-0.4-2.6-0.7-5.3-1.1-7.9c0-2.6-0.1-5.3-0.1-7.9
	c-0.2-3.1-1.7-6.2,0.3-9.3C100,289,100.9,294.1,101.8,299.2z"/>
<path fill="#B6B6B6" d="M83,229c0.7,3,1.5,6,2.2,9c-0.6,3.7-1.3,7.4-1.9,11.1C83.2,242.3,83.1,235.6,83,229z"/>
<path fill="#A2A2A2" d="M74.1,365.9c2.2-6.9-1.2-14.7,3.5-22.9c1.8,5.6,3.2,9.6,4.8,14.6c0.6-4.9,1.1-8.8,1.6-12.7
	c-0.3,8.3-0.6,16.7-0.9,25C79.1,370.6,76.4,368.8,74.1,365.9z"/>
<path fill="#F2F2F2" d="M73.8,383.9c1,3.2,0.1,5.8-2,8.3c-1.1,1.4-2.1,2.8-3.3,4.3c-4-1.6-5.4-4.6-5.4-8.3c0-3.2,1.7-5.9,4.4-7.2
	C70.3,379.7,71.9,382.4,73.8,383.9z"/>
<path fill="#888888" d="M110.8,345c2.2,6.3,0.4,13.4,4.2,19.8c0.4-0.7,0.8-1.3,1.1-1.9c0.2,1.1,0.5,2.2,0.7,3.2
	c-1.3,2.5,1.3,5.4-0.8,7.9l-0.4,0.1c-0.7,1-1.7,1.2-2.8,1c-1.3-8.4-2.6-16.7-3.9-25.1c-1.7-2.5-1.7-5.1-1.1-8
	C110.5,341.5,110.2,343.7,110.8,345z"/>
<path fill="#A7A7A7" d="M110.8,345c-0.7-0.5-1.3-1.1-2.9-2.4c0.4,3.2,0.7,5.4,1,7.5c-3.8-6.9-2.6-14.7-4.1-22.1
	c0.5-3.2,1-6.5,1.6-10.6C108,327.2,109.4,336.1,110.8,345z"/>
<path fill="#535353" d="M112.8,375.2c0.9-0.3,1.9-0.7,2.8-1c-0.2,6.2-0.4,12.5-0.5,18.7c-0.1-1.6-0.2-3.1-0.3-4.7
	c-0.8-3.1,0.1-6.4-1.7-9.3C113,377.7,112.9,376.4,112.8,375.2z"/>
<path fill="#888888" d="M113.1,378.9c0.3-0.6,0.7-1.1,1.7-2.8c0,4.8,0,8.4,0,12.1C114.3,385.1,113.7,382,113.1,378.9z"/>
<path fill="#F8F8F8" d="M110.1,314c1.2-0.8,2.4-1.6,3.7-2.4c3.1,2.5,1.7,8.6,7.3,8.3l0-0.1c5.7,3.2,3.4-4.9,6.9-4.8
	c3.7-0.1,3.4,2.7,4.3,5.3c2.4,0.3,3.1,2,3.5,4.8c0.8,5.4,0.3,11.1,3.3,16.1c0.7,5.3,2.6,10.3,2.4,15.7c-0.2,0.8-0.6,1.5-1.4,1.9
	c-0.6,2-1.2,4.1-1.8,6.3c-1.6,0-3,0-4.4,0c-1.8,1.6-2.7,3.3-1.3,5.3c1.8,2.6,3.8-0.4,5.6-0.2c8.6,10.4,3.2,23.4,8.9,36.2
	c-10-4.1-15.3,1.3-21.2,4.6C120.6,378.7,115.4,346.3,110.1,314z"/>
<path fill="#A6A6A6" d="M140.1,358.9c0-0.7,0-1.3,0.1-2c1.3-2.5-0.8-4.9-0.3-7.4c0.7-3.4,0.4-6.9,0.2-10.1c1.5-2,3.1-2.1,5.2-0.7
	c0.5,5,0.5,10.2,1.7,15.3c-0.3,2.7-0.6,5.3-0.9,8c-0.5,3.3-1,6.5-1.7,11.7C142.6,367.6,141.3,363.3,140.1,358.9z"/>
<path fill="#F8F8F8" d="M145,416.6c-1.9,4.2-4.1,7.6-8.8,6.7c-2.4-0.4-1.8-2.7-1-4.5C137.2,414.3,140.6,414.4,145,416.6z"/>
<path fill="#616161" d="M106.8,307.2c-4.8-22.1-9.7-44.2-14.5-66.3l0.5,0.1c2.3-0.9,3,1.1,3.4,2.4c1.7,4.5,3,9.2,3.8,14
	c0.2,1.4-0.6,2.5-1.2,3.6c3,14.7,6,29.5,9.1,44.2C107.5,305.8,107.1,306.5,106.8,307.2z"/>
<path fill="#C8C8C8" d="M116.1,374c0.3-2.6,0.5-5.2,0.8-7.9c1,6.9,2.1,13.9,3.1,20.8C116.1,383.4,118.2,378.1,116.1,374z"/>
<path fill="#B7B7B7" d="M98.7,260.9c-2-6.7-4-13.3-6-20c-0.9-7.3-1.8-14.6-2.7-22c3.3-1.1,3.6,1.2,3.9,3.4
	c0.7,4.6,0.7,9.4,4.3,12.9c0.5,0.5,0.8,1.1,0.8,1.9c0.2,3.2,0.3,6.5,0.6,11c1.1-1.9,1.4-2.5,2-3.4c2.2,11.7,4.3,23.2,6.4,34.6
	C104.1,273.6,104.1,266,98.7,260.9z"/>
<path fill="#E5E5E5" d="M97,237c-0.1,0.6-0.2,1.3-0.5,2.9c-2.4-7.6-4.4-14.3-6.5-20.9c-0.4-1-0.7-2-1.1-2.9
	c-4.5-8.3-1.4-17.1,7.2-19.9c4.4,0.7-0.3,3.5,1.1,4.9c2.3,3.3,1.5,7.1,1.2,10.6c-0.7,7.6-1.1,15.1-0.5,22.7
	C97.9,235.3,97.7,236.2,97,237z"/>
<path fill="#DDDDDD" d="M91,182c2-3.2,3.1,1.1,5.1-0.3c-0.2,5,1.1,9.2-1.1,13.2c-0.4,1.1-0.9,2.2-1.9,2.8c-3.5,2.3-5,5.5-4.6,9.7
	c0.1,0.8,0.8,2.6-1.3,2.3c-3.6-6.6-0.1-13.7-1.8-20.8c1.3-0.1,2.3-0.1,3.1-0.1C89.3,186.5,90.2,184.3,91,182z"/>
<path fill="#707070" d="M87.1,209.9c1-5.8,1.8-11.7,7.8-14.9c0.4,0.4,0.8,0.8,1.1,1.2c-8.2,4.6-7.6,12.3-7.2,19.9
	c-0.6,0.9-1.1,1.8-1.9,3C85.3,215.7,85.8,212.8,87.1,209.9z"/>
<path fill="#B6B6B6" d="M86,227c-1,0-2,0-2.9,0c-0.3-5.3-0.7-10.7-1-16c-0.8-1.1-0.8-1.7,0.8-1.7c1.3,5.3,2.7,10.6,4,15.8
	C86.5,225.7,86.3,226.4,86,227z"/>
<path fill="#5F5F5F" d="M82.8,209.3c-0.3,0.6-0.5,1.1-0.8,1.7c-0.6-7-1.1-13.9-1.7-20.9c0.4,0,0.9-0.1,1.3-0.1
	C82,196.4,82.4,202.8,82.8,209.3z"/>
<path fill="#323232" d="M66.1,156.6c-0.4,1.2-0.8,2.3-1.2,3.5c-6.1,0.4-7.9-4.3-10.4-10.1c-1.2,3.5-1.9,5.6-2.8,8.2
	c-0.7-0.9-1.4-1.6-2-2.4c-6.6,2.6-4.7,8.4-5,14.7c-5.6-8.3-0.9-13,4-17.6c-2.3-1.5-3.9,3.1-5.9,0c5.7-5.7,15.7-6.1,18.7-15
	c0.4,0,0.7,0,1.1,0.1C60.1,144.9,53.2,152.5,66.1,156.6z"/>
<path fill="#272727" d="M63.8,161.9c-0.3,4.7-4,3.7-6.8,4.1C57.7,162,61.9,163.9,63.8,161.9z"/>
<path fill="#C1C1C1" d="M195,142.1c7.6,0,15.3,0,22.9,0c0.8-2,1.5-3.9,2.4-6.2c2.7,2.5,3.4,5.2,2,7.2c-1.1,1.6-3.8,2.8-5.9,2.9
	c-6.1,0.4-12.3,0.2-18.5,0c-3-0.1-4.1,0.9-3.1,3.8c-2.2,0.5-2.6-0.7-3.1-2.5C190.9,144.1,193.4,143.5,195,142.1z"/>
<path fill="#EBEBEB" d="M136.2,292.9c2.8-2.2,2.3-4.7,1.4-7.8c-4.1-13.7-4.3-27.5-0.6-41.3c5.2,15.3,7.1,31.2,10.4,49.5
	c-7.9-11-4.7-22.1-9.9-34.3c-2.3,26.4,13.1,47.5,8.5,71c-1.5,3.2-3.1,6.4-5.4,9.2c-0.7,0.9-1.3,1.4-2.3,0.6
	c-0.4-0.4-0.6-0.9-0.8-1.5c-1.8-3.5-0.7-7.3-1.5-11c-2.2-9.6-2.2-19.5-3.9-29.2c-0.3-1.4-0.1-3,0.4-4.4
	C133.2,291.9,134.5,291.1,136.2,292.9z"/>
<path fill="#C3C3C3" d="M139.1,339.9c1.5-3.9,1.9-8.5,6.9-10c0.3,8,0.6,16,0.9,24c-1.1-4.8-2.3-9.6-3.7-15.4
	c-2.8,4.2,0.7,8.7-3,11.4C138.5,346.8,138.4,343.4,139.1,339.9z"/>
<path fill="#D7D7D7" d="M61.1,129.1c1.5-0.4,3.1-0.7,4.9-1.1c0.3,2.7-0.2,4.5-2.9,4.9C62.4,131.6,61.7,130.4,61.1,129.1z"/>
<path fill="#A9A9A9" d="M192.1,443c-0.1-0.4-0.2-0.7-0.3-1.1c0.1-0.9,0.2-1.9,0.3-2.8c0.2-1.5-0.1-3.3,1.8-4.2c2-4,4-8.1,6-12.1
	c2.4,2.2,4.2,4.8,4.1,8.3c-2,2.7-3,5.8-4.1,8.8c-0.6,1.5-0.3,3.6-2.9,3.2c0,0-0.3-0.2-0.3-0.2C195,440.3,193.5,441.1,192.1,443z"/>
<path fill="#717171" d="M197,443c2.2-4.1,2.7-9.2,7-12c0,1.7,0,3.3,0,5c-1.7,3.5-3.5,7-5.2,10.5C198.2,445.3,197.6,444.2,197,443z"
	/>
<path fill="#787878" d="M214.3,519.9c-0.8,0.4-1.6,0.8-2.4,1.1c-1.5,0.6-3,1.2-5.7,2.4c1.5-6,5.9-6.9,9.4-8.9
	C217.7,517.2,214.5,518.1,214.3,519.9z"/>
<path fill="#4B4B4B" d="M193.9,434.9c-0.6,1.4-1.2,2.8-1.8,4.2c-3-2.3-2.6-5.1-1.1-8.1C192,432.3,192.9,433.6,193.9,434.9z"/>
<path fill="#7A7A7A" d="M77,131c0.3-5.7,2.3-10.7,5.8-15.1c3.5,1.1-0.3,4.6,2.1,6c1.3,0.1,2.6,0.1,2.1-1.9c1.4-0.3,2.7-0.6,4.1-0.9
	c0.3,4.8-1.1,9.2-3.6,13.2c-0.7,2.1-2.3,2.6-3.9,1.5C81.6,132.5,78.9,132.7,77,131z"/>
<path fill="#E0E0E0" d="M86.9,133c1.4-4.6,2.8-9.2,4.2-13.8c0.2-0.1,0.5-0.2,0.7-0.3c-1.1,4.4,3,10-3,13.3
	c-0.4,0.3-0.7,0.6-1.1,0.9C87.5,133.3,87.2,133.2,86.9,133z"/>
<path fill="#E6E6E6" d="M87,120c1.1,2.8,1.1,3-2.6,8.1c-4.2-2.4-0.3-4.2,0.5-6.2C85.6,121.3,86.3,120.7,87,120z"/>
<path fill="#E6E6E6" d="M109,83.1c-4.6-5.7,1.3-11.2,0.4-16.9c1.5-0.8,3.1-1.5,4.6-2.3c1.3,0.2,2.6-0.1,3.7,0.5
	c1.1,1.3,1,2.5,0.4,3.8c-1.2,2.4-5.9,1.7-4.9,5.8c0.6,1.7,1.7,2.4,3.4,1.8c2.1-0.7,4.2-0.1,6.3,0.2c2.8-0.3,4,0.9,4.8,3.7
	c0.6,1.9,1.7,3.8,2.6,5.8c0.5,13.8-9.7,5.5-15.2,7.3c-1.8-1.9-3.5-3.6,1.1-5C113.5,86,111.3,84.5,109,83.1z"/>
<path fill="#BDBDBD" d="M118.1,68.1c-1.4-1.4-2.7-2.8-4.1-4.3c2-0.7,3.9-1.4,5.9-2.1c0.1,1,0.2,2,0.2,3
	C119.4,65.9,118.8,67,118.1,68.1z"/>
<path fill="#2D2D2D" d="M130.2,85.4c-3.6-4.9-7.6-3.8-12.7,0.9c1.6-6,6.3-5.7,8.9-8.6c-1.6-0.3-2.6-0.4-3.6-0.6
	c-0.7-1.2,0.5-1.6,1-2.3c3.1-2.1,5.3,2,8.2,1.1c-3.7,2.5-1.3,5.9-1.4,9C130.4,85,130.3,85.2,130.2,85.4z"/>
<path fill="#E6E6E6" d="M110.2,102.9c0.2-3,0.4-6,0.6-8.9c0.9-0.5-1.1-2.7,1.4-2.2C112.3,95.6,113.4,99.7,110.2,102.9z"/>
<path fill="#6D6D6D" d="M123.9,74.8c-0.3,0.8-0.6,1.5-1,2.3c-2.9-0.8-5.7-1.6-8.4,0.9c-0.6,1.5,1.5,4-1.8,5.7
	c0.2-3.6,0.3-6.7,0.5-9.8c1.1,0.3,2.1,0.7,3.2,1C118.9,74.9,121.4,74.9,123.9,74.8z"/>
<path fill="#979797" d="M93.9,148.2c-2.3-0.2-4.7,3.2-7,0c0.2-1.7-1.2-2.6-2-3.7c-1.3-1.8-1.2-3.8,0-5.5c1.3-1.8,3-2.6,5.1-1.1
	c1.7,2.7,3.4,5.4,5.1,8.1C94.6,146.7,94.2,147.5,93.9,148.2z"/>
<path fill="#E7E7E7" d="M89.9,137.9c-7.6,1.5-0.8,7.2-3.1,10.3c-4.1-2-7.4-6.2-12.8-4.3c-0.8-4.7,2.3-8.6,3-13c0,0,0,0.1,0,0.1
	c0.8-1.4,1.5-2.8,2.3-4.3c2.7,2.2,5.1,4.2,7.6,6.2c0.3,0,0.6,0,0.9,0.1C88.5,134.7,89.2,136.3,89.9,137.9z"/>
<path fill="#838383" d="M77,130.9c-1,4.3-2,8.7-3,13c-0.6,0.1-1.3,0.1-1.9,0.2C73.7,139.7,75.4,135.3,77,130.9z"/>
<path fill="#414141" d="M97,237c-2.8-12,0.4-24,0.2-36c0.5,0,1,0,1.5,0c2,1.2,1.1,3.1,1.2,4.7c-0.4,2.6-1.1,5.1-0.9,7.7
	c0,6-0.1,12,0,18.1c-0.1,1.8,2.6,3.2,0.9,5.3c-0.3,0.2-0.5,0.4-0.8,0.5C98.4,237.1,97.7,237.1,97,237z"/>
<path fill="#ABABAB" d="M98.9,206c0-1.7-0.1-3.4-0.1-5c0.4-5.3,0.9-10.7,1.3-16c0.7,0.7,1.4,1.4,2.1,2.1c0,1.5,0,3.1,0,4.9
	c1.8-0.3,4.2-2.9,3.9,1.1c-1.4,3.1-0.9,7-4.7,9c-1.2,0.6-0.6,2.7-0.8,4.2C99.7,207.3,99.1,207.8,98.9,206z"/>
<path fill="#C3C3C3" d="M136.2,292.9c-4.1,3.8-0.2,7.8,0,11.6c0.6,11.6,1.8,23.1,2.7,34.6c-0.8,0.6-0.9,1.8-2.1,1.9
	c-1.2-5.8-2.3-11.6-3.4-17.3c-0.4,1.8-0.8,3.9-1.4,7.4c-1.5-6.3-2.8-11.2-4-16.1c2.5-13.9-4.3-27-3.3-40.8c0.1-1.2,0-2.4,1.2-3.6
	c0.1,2.2,0.3,4.3,0.4,7.3c0.4-1.3,0.6-1.9,1-3.1c1.5,4.3,2.9,8.2,4.6,12.9c0.5-1.6,0.8-2.7,1.2-3.8
	C134.1,286.9,135.1,289.9,136.2,292.9z"/>
<path fill="#DEDEDE" d="M108,260c8.1-0.1,2.7-6.4,4.3-9.5c0.9-1.6,1-3.6,1.7-6.2c1.7,2,2.8,3.3,4,4.6c-1.3,4.5,0.2,8.8,0.4,13.2
	c0.2,5.4,0.3,10.9,1.1,16.3c-0.4,1.9-0.7,3.9-2.9,5.1c0.9,2.8,3.4,5.9-1.8,8.1c-3.1-6.7-3.1-13.8-4-20.6c-1.3-3.6-2.5-7.3-3.8-10.9
	C107.3,259.7,107.6,259.7,108,260z"/>
<path fill="#C7C7C7" d="M110.8,271c1.5,5.8,3,11.7,5.3,20.8c-0.9-7-1.3-10.8-2-16.3c1.2,2.8,1.8,4.1,2.4,5.6
	c0.5-0.8,0.9-1.5,1.3-2.2c3.7,1.1,3.1,4.5,3.8,7.2c0.7,2.7,1.4,5.3,0.1,8c-1.5,0.6-3.1,1.3-4.6,1.9c-2.4,1.2-1.1-1.9-2.4-2
	C110.6,286.9,108.8,279.3,110.8,271z"/>
<path fill="#ADADAD" d="M121.8,294.1c0.4-5.5-2.1-10.3-3.9-15.2c-0.2-10-2-20,0.1-30c1,20.4,5,40.3,7.4,60.6
	C124.2,304.4,123,299.3,121.8,294.1z"/>
<path fill="#878787" d="M122.1,221.9c0.4-3,0.7-6.1,1.1-9.1c0.5,8.8,1,17.5,1.5,26.3c-0.5,0-1,0.1-1.5,0.1
	C122.8,233.5,122.4,227.7,122.1,221.9z"/>
<path fill="#676767" d="M98.9,206c0.4,0,0.8-0.1,1.2-0.1c0.2-0.6,0.5-0.5,0.7,0c-0.3,10.3-0.6,20.5-0.9,30.8
	c-0.6-1.3-1.2-2.6-1.8-3.9c0.8-6.5,0.5-13,0.1-19.5C98.4,210.9,98.6,208.5,98.9,206z"/>
<path fill="#B5B5B5" d="M108,260c-0.4,0-0.7,0.1-1.1,0.1c-1-6.3-2-12.6-2.9-18.9c0.4-0.1,0.9-0.1,1.3-0.2
	C106.2,247.3,107.1,253.7,108,260z"/>
<path fill="#404040" d="M100.8,205.9c-0.2,0-0.5,0-0.7,0c-1.2-5.7,4.2-8.4,5.8-12.9C108.3,199,101.3,201.2,100.8,205.9z"/>
<path fill="#969696" d="M118.2,304.8c1.7,4.9,3.7,9.6,2.9,15c0,0,0,0.1,0,0.1c-1.1-4.9-2.2-9.8-3.3-14.7
	C117.9,305.1,118.1,305,118.2,304.8z"/>
<path fill="#949494" d="M114.8,294c0.8,0.7,1.6,1.3,2.4,2c0.3,2.9,0.6,5.9,0.9,8.8c-0.1,0.1-0.3,0.2-0.4,0.3
	C116.8,301.5,115.8,297.8,114.8,294z"/>
<path fill="#5F5F5F" d="M136.8,341.1c0.7-0.6,1.4-1.3,2.1-1.9c0,0.3,0.1,0.5,0.2,0.8c0.4,3.3,0.7,6.6,1.1,10c0,2.3-0.1,4.6-0.1,6.9
	C139,351.6,137.9,346.3,136.8,341.1z"/>
<path fill="#7D7D7D" d="M139.8,296.3c1.1,2.1,2,3.7,3,5.4c-2.4,1.1-3.8,0.9-5-1.4C136.5,297.9,138.7,297.9,139.8,296.3z"/>
<path fill="#C9C9C9" d="M98.2,213.3c0.8,6.5,1.7,13-0.1,19.5C98.1,226.4,98.2,219.8,98.2,213.3z"/>
</svg>
