<?xml version="1.0" encoding="UTF-8" standalone="no"?>
<!-- Created with Inkscape (http://www.inkscape.org/) -->

<svg
   xmlns:dc="http://purl.org/dc/elements/1.1/"
   xmlns:cc="http://creativecommons.org/ns#"
   xmlns:rdf="http://www.w3.org/1999/02/22-rdf-syntax-ns#"
   xmlns:svg="http://www.w3.org/2000/svg"
   xmlns="http://www.w3.org/2000/svg"
   xmlns:sodipodi="http://sodipodi.sourceforge.net/DTD/sodipodi-0.dtd"
   xmlns:inkscape="http://www.inkscape.org/namespaces/inkscape"
   width="400"
   height="400"
   id="svg2"
   version="1.1"
   inkscape:version="0.48.4 r9939"
   sodipodi:docname="building0.svg"
   style="display:inline">
  <defs
     id="defs4">
    <inkscape:perspective
       sodipodi:type="inkscape:persp3d"
       inkscape:vp_x="0 : 200 : 1"
       inkscape:vp_y="0 : 1000 : 0"
       inkscape:vp_z="400 : 200 : 1"
       inkscape:persp3d-origin="200 : 133.33333 : 1"
       id="perspective5475" />
  </defs>
  <sodipodi:namedview
     id="base"
     pagecolor="#ffffff"
     bordercolor="#666666"
     borderopacity="1.0"
     inkscape:pageopacity="0.0"
     inkscape:pageshadow="2"
     inkscape:zoom="1.1670336"
     inkscape:cx="208.38796"
     inkscape:cy="144.32307"
     inkscape:document-units="px"
     inkscape:current-layer="layer2"
     showgrid="false"
     inkscape:window-width="1187"
     inkscape:window-height="1002"
     inkscape:window-x="1685"
     inkscape:window-y="-8"
     inkscape:window-maximized="1"
     showguides="true"
     inkscape:guide-bbox="true">
    <sodipodi:guide
       position="0,0"
       orientation="0,575"
       id="guide3710" />
    <sodipodi:guide
       position="200,200"
       orientation="1,0"
       id="guide3712" />
    <sodipodi:guide
       position="427.76607,199.94731"
       orientation="0,-575"
       id="guide3714" />
    <inkscape:grid
       type="xygrid"
       id="grid5771" />
  </sodipodi:namedview>
  <metadata
     id="metadata7">
    <rdf:RDF>
      <cc:Work
         rdf:about="">
        <dc:format>image/svg+xml</dc:format>
        <dc:type
           rdf:resource="http://purl.org/dc/dcmitype/StillImage" />
        <dc:title></dc:title>
      </cc:Work>
    </rdf:RDF>
  </metadata>
  <g
     inkscape:groupmode="layer"
     id="layer3"
     inkscape:label="shadow"
     style="display:inline">
    <path
       style="opacity:0.2079646;fill:#000000;fill-opacity:1;stroke:none;display:inline"
       d="m 85.687337,316.02641 29.133693,26.56308 228.78518,-2.57062 -0.85687,-234.7833 -23.99246,-21.421831 -235.640163,0.85687 z"
       id="path5717"
       inkscape:connector-curvature="0" />
  </g>
  <g
     inkscape:groupmode="layer"
     id="layer2"
     inkscape:label="Warstwa"
     style="display:inline"
     transform="translate(0,-65)">
    <g
       id="g4710"
       transform="translate(-1.7101537,63.408902)">
      <g
         id="g4241"
         transform="translate(58.772396,42.413066)">
        <g
           inkscape:groupmode="layer"
           id="layer1"
           inkscape:label="Layer" />
        <g
           id="g3983"
           transform="translate(-1.8177028,27.265542)">
          <rect
             style="fill:#f3aa69;fill-opacity:1;stroke:none"
             id="rect5603"
             width="125.45202"
             height="246.77953"
             x="19.303442"
             y="2.0162573" />
          <rect
             style="fill:#9e5510;fill-opacity:1;stroke:none;display:inline"
             id="rect5603-7"
             width="125.45202"
             height="246.77953"
             x="145.08957"
             y="2.0162563" />
          <path
             style="fill:#ba6918;fill-opacity:1;stroke:none"
             d="m 27.872173,156.25345 c 0.571249,-1.42812 1.142498,-2.85624 1.713747,-4.28436 0.285624,-0.28563 0.676228,-0.49559 0.856873,-0.85688 0.127735,-0.25547 -0.201967,-0.6549 0,-0.85687 0.201967,-0.20197 0.729138,0.25547 0.856873,0 0.510941,-1.02188 -0.51094,-2.40561 0,-3.42749 0.127735,-0.25547 0.729138,0.25547 0.856874,0 0.25547,-0.51094 -0.180645,-1.17181 0,-1.71375 0.127735,-0.3832 0.676228,-0.49558 0.856873,-0.85687 0.127735,-0.25547 -0.09032,-0.58591 0,-0.85688 0.201967,-0.6059 0.654906,-1.10784 0.856873,-1.71374 0.09032,-0.27097 -0.09032,-0.58591 0,-0.85688 0.403934,-1.2118 1.309813,-2.21569 1.713747,-3.42749 0.850256,-2.55077 -2.028965,1.75814 0.856873,-2.57062 0.224063,-0.33609 0.632811,-0.52078 0.856874,-0.85687 1.313473,-1.97021 0.400272,-2.31416 1.713746,-4.28437 0.448125,-0.67219 1.458277,-0.94733 1.713747,-1.71375 0.180645,-0.54193 -0.25547,-1.2028 0,-1.71374 0.541934,-1.08387 2.028686,-1.48675 2.57062,-2.57062 0.458636,-0.91728 -0.741985,-1.82864 0.856873,-3.4275 0.451612,-0.45161 1.262135,-0.40526 1.713747,-0.85687 0.234877,-0.23488 -0.20084,-3.68185 0,-4.28437 2.068897,-6.20669 -0.24704,1.35096 1.713747,-2.57062 0.127735,-0.25547 -0.09032,-0.5859 0,-0.85687 0.201967,-0.6059 0.654906,-1.10784 0.856873,-1.71375 0.09032,-0.27096 -0.127735,-0.6014 0,-0.85687 0.180645,-0.36129 0.571249,-0.57125 0.856873,-0.85687 0.285625,-0.28563 0.495584,-0.67623 0.856874,-0.85688 0.25547,-0.12773 0.6014,0.12774 0.85687,0 0.36129,-0.18064 0.49559,-0.67622 0.85688,-0.85687 0.43958,-0.21979 3.58288,0.1403 4.28436,0 0.88569,-0.17714 1.69437,-0.63781 2.57062,-0.85687 0.5542,-0.13855 1.1425,0 1.71375,0 1.1425,0 2.285,0 3.42749,0 0.28563,0 0.57125,0 0.85688,0 0.28562,0 0.6549,-0.20197 0.85687,0 0.0883,0.0883 -0.0712,4.07075 0,4.28436 0.12773,0.38321 0.67623,0.49559 0.85687,0.85688 0.12774,0.25547 -0.0903,0.5859 0,0.85687 0.20197,0.6059 0.65491,1.10785 0.85688,1.71375 0.25706,0.77118 -0.25707,1.79943 0,2.57062 0.20196,0.6059 0.57125,1.1425 0.85687,1.71374 0.28562,0.57125 0.47367,1.20281 0.85687,1.71375 -0.73322,3.97538 1.84242,0.98555 2.57062,1.71375 0.45161,0.45161 0.47367,1.2028 0.85688,1.71374 0.48472,0.6463 1.35245,0.99117 1.71374,1.71375 0.25547,0.51094 -0.25547,1.20281 0,1.71375 0.30711,0.61421 2.70202,2.70202 3.4275,3.42749 0.28562,0.28563 0.52078,0.63281 0.85687,0.85687 0.53141,0.35428 1.26213,0.40527 1.71375,0.85688 0.20196,0.20196 -0.20197,0.6549 0,0.85687 1.14249,1.1425 0.82222,-1.8177 1.71374,0.85687 0.18065,0.54194 0,1.1425 0,1.71375 0,0.99185 -0.19125,3.51937 0,4.28437 0.1549,0.6196 0.70197,1.09414 0.85688,1.71374 0.13854,0.5542 0,1.1425 0,1.71375 0,1.71375 0,3.42749 0,5.14124 0,0.28563 0,0.57125 0,0.85687 0,0.28563 0.20196,0.65491 0,0.85688 -0.20197,0.20196 -0.65491,-0.20197 -0.85688,0 -0.20196,0.20196 0.12774,0.6014 0,0.85687 -0.37974,0.75948 -2.0506,1.7906 -2.57062,2.57062 -0.35427,0.53141 -0.40526,1.26214 -0.85687,1.71375 -0.20197,0.20196 -0.65491,-0.20197 -0.85687,0 -0.20197,0.20196 0.20196,0.6549 0,0.85687 -0.20197,0.20197 -0.60141,-0.12773 -0.85688,0 -1.02825,0.51412 -1.54237,2.0565 -2.57062,2.57062 -0.25547,0.12774 -0.6014,-0.12773 -0.85687,0 -0.36129,0.18065 -0.49558,0.67623 -0.85687,0.85687 -0.25547,0.12774 -0.60141,-0.12773 -0.85688,0 -1.95036,1.95037 0.17747,0.22647 -1.71374,0.85688 -0.6059,0.20196 -1.18234,0.5026 -1.71375,0.85687 -0.33609,0.22406 -0.465,0.75891 -0.85687,0.85687 -0.83129,0.20783 -1.73039,-0.16804 -2.57062,0 -1.55089,-0.51646 -1.59364,1.38809 -2.57062,1.71375 -0.54194,0.18065 -1.1425,0 -1.71375,0 -1.42812,0 -2.85624,0 -4.28437,0 -0.85687,0 -1.73933,-0.20782 -2.57062,0 -2.3774,0.59435 0.0755,0.78138 -0.85687,1.71375 -0.40393,0.40393 -1.30981,-0.40394 -1.71375,0 -0.20196,0.20196 0.20197,0.6549 0,0.85687 -0.20196,0.20197 -0.5859,-0.0903 -0.85687,0 -0.605901,0.20197 -1.107846,0.65491 -1.713747,0.85687 -0.333429,0.11115 -2.437645,-0.13297 -2.57062,0 -0.201967,0.20197 0.201967,0.65491 0,0.85688 -0.201967,0.20196 -0.601403,-0.12774 -0.856873,0 -0.36129,0.18064 -0.495584,0.67623 -0.856874,0.85687 -0.339743,0.16987 -2.395444,-0.17518 -2.57062,0 -0.201967,0.20197 0.201967,0.65491 0,0.85687 -0.201967,0.20197 -0.601403,-0.12773 -0.856873,0 -0.36129,0.18065 -0.495584,0.67623 -0.856873,0.85688 -0.260776,0.13039 -2.184721,0 -2.57062,0 -1.635164,0 -0.125487,-0.20197 -1.713747,0.85687 -0.782743,0.52183 -2.079453,0.73141 -2.57062,1.71375 -0.127735,0.25547 0.201967,0.6549 0,0.85687 -0.201967,0.20197 -0.571249,0 -0.856873,0 -0.3859,0 -2.309845,0.13039 -2.57062,0 -1.894594,-0.9473 -0.265907,-0.53181 -0.856874,-1.71375 -0.54718,-1.09436 -1.166566,-0.61938 -1.713746,-1.71374 -0.252787,-0.50558 0.196461,-1.98124 0,-2.57062 -0.285625,-0.57125 -0.571249,-1.1425 -0.856874,-1.71375 -0.285624,0 -0.654906,0.20197 -0.856873,0 -0.201967,-0.20197 0,-0.57125 0,-0.85687 0,-0.28563 0,-0.57125 0,-0.85688 0,-0.44807 -0.112654,-3.20218 0,-3.42749 0.744817,-1.48963 1.713747,-2.85624 2.57062,-4.28437 z"
             id="path5631"
             inkscape:connector-curvature="0" />
          <path
             style="fill:#ba6918;fill-opacity:1;stroke:none;display:inline"
             d="m 82.28363,90.702644 c 0.571249,-1.42812 1.142498,-2.85624 1.713747,-4.28436 0.285624,-0.28563 0.676228,-0.49559 0.856873,-0.85688 0.127735,-0.25547 -0.201967,-0.6549 0,-0.85687 0.201967,-0.20197 0.729138,0.25547 0.856873,0 0.510941,-1.02188 -0.51094,-2.40561 0,-3.42749 0.127735,-0.25547 0.729138,0.25547 0.856874,0 0.25547,-0.51094 -0.180645,-1.17181 0,-1.71375 0.127735,-0.3832 0.676228,-0.49558 0.856873,-0.85687 0.127735,-0.25547 -0.09032,-0.58591 0,-0.85688 0.201967,-0.6059 0.654906,-1.10784 0.856873,-1.71374 0.09032,-0.27097 -0.09032,-0.58591 0,-0.85688 0.403934,-1.2118 1.309813,-2.21569 1.713746,-3.42749 0.850256,-2.55077 -2.028964,1.75814 0.856874,-2.57062 0.224062,-0.33609 0.632811,-0.52078 0.856874,-0.85687 1.313472,-1.97021 0.400271,-2.31416 1.713746,-4.28437 0.448124,-0.67219 1.458277,-0.94733 1.713747,-1.71375 0.180644,-0.54193 -0.255471,-1.2028 0,-1.71374 0.541934,-1.08387 2.028686,-1.48675 2.57062,-2.57062 0.45863,-0.91728 -0.741986,-1.82864 0.85687,-3.4275 0.45161,-0.45161 1.26214,-0.40526 1.71375,-0.85687 0.23488,-0.23488 -0.20084,-3.68185 0,-4.28437 2.0689,-6.20669 -0.24704,1.35096 1.71375,-2.57062 0.12773,-0.25547 -0.0903,-0.5859 0,-0.85687 0.20196,-0.6059 0.6549,-1.10784 0.85687,-1.71375 0.0903,-0.27096 -0.12774,-0.6014 0,-0.85687 0.18064,-0.36129 0.57125,-0.57125 0.85687,-0.85687 0.28563,-0.28563 0.49559,-0.67623 0.85688,-0.85688 0.25547,-0.12773 0.6014,0.12774 0.85687,0 0.36129,-0.18064 0.49559,-0.67622 0.85688,-0.85687 0.43958,-0.21979 3.58288,0.1403 4.28436,0 0.88569,-0.17714 1.69437,-0.63781 2.57062,-0.85687 0.5542,-0.13855 1.1425,0 1.71375,0 1.1425,0 2.285,0 3.42749,0 0.28563,0 0.57125,0 0.85688,0 0.28562,0 0.6549,-0.20197 0.85687,0 0.0883,0.0883 -0.0712,4.07075 0,4.28436 0.12773,0.38321 0.67623,0.49559 0.85687,0.85688 0.12774,0.25547 -0.0903,0.5859 0,0.85687 0.20197,0.6059 0.65491,1.10785 0.85688,1.71375 0.25706,0.77118 -0.25707,1.79943 0,2.57062 0.20196,0.6059 0.57125,1.1425 0.85687,1.71374 0.28562,0.57125 0.47367,1.20281 0.85687,1.71375 -0.73322,3.97538 1.84242,0.98555 2.57062,1.71375 0.45161,0.45161 0.47367,1.2028 0.85688,1.71374 0.48472,0.6463 1.35245,0.99117 1.71374,1.71375 0.25547,0.51094 -0.25547,1.20281 0,1.71375 0.30711,0.61421 2.70202,2.70202 3.4275,3.42749 0.28562,0.28563 0.52078,0.63281 0.85687,0.85687 0.53141,0.35428 1.26213,0.40527 1.71375,0.85688 0.20196,0.20196 -0.20197,0.6549 0,0.85687 1.14249,1.1425 0.82222,-1.8177 1.71374,0.85687 0.18065,0.54194 0,1.1425 0,1.71375 0,0.99185 -0.19125,3.51937 0,4.28437 0.1549,0.6196 0.70197,1.09414 0.85688,1.71374 0.13854,0.5542 0,1.1425 0,1.71375 0,1.71375 0,3.42749 0,5.14124 0,0.28563 0,0.57125 0,0.85687 0,0.28563 0.20196,0.65491 0,0.85688 -0.20197,0.20196 -0.65491,-0.20197 -0.85688,0 -0.20196,0.20196 0.12774,0.6014 0,0.85687 -0.37974,0.75948 -2.0506,1.7906 -2.57062,2.57062 -0.35427,0.53141 -0.40526,1.26214 -0.85687,1.71375 -0.20197,0.20196 -0.65491,-0.20197 -0.85687,0 -0.20197,0.20196 0.20196,0.6549 0,0.85687 -0.20197,0.20197 -0.60141,-0.12773 -0.85688,0 -1.02825,0.51412 -1.54237,2.0565 -2.57062,2.57062 -0.25547,0.12774 -0.6014,-0.12773 -0.85687,0 -0.36129,0.18065 -0.49558,0.67623 -0.85687,0.85687 -0.25547,0.12774 -0.60141,-0.12773 -0.85688,0 -1.95036,1.95037 0.17747,0.22647 -1.71374,0.85688 -0.6059,0.20196 -1.18234,0.5026 -1.71375,0.85687 -0.33609,0.22406 -0.465,0.75891 -0.85687,0.85687 -0.83129,0.20783 -1.73039,-0.16804 -2.57062,0 -1.55089,-0.51646 -1.59364,1.38809 -2.57062,1.71375 -0.54194,0.18065 -1.1425,0 -1.71375,0 -1.42812,0 -2.85624,0 -4.28437,0 -0.85687,0 -1.73933,-0.20782 -2.57062,0 -2.3774,0.59435 0.0755,0.78138 -0.85687,1.71375 -0.40393,0.40393 -1.30981,-0.40394 -1.71375,0 -0.20196,0.20196 0.20197,0.6549 0,0.856866 -0.20196,0.20197 -0.5859,-0.0903 -0.85687,0 -0.6059,0.20197 -1.10785,0.65491 -1.71375,0.85687 -0.33343,0.11115 -2.43765,-0.13297 -2.57062,0 -0.20197,0.20197 0.20197,0.65491 0,0.85688 -0.20197,0.20196 -0.6014,-0.12774 -0.85687,0 -0.36129,0.18064 -0.49559,0.67623 -0.85688,0.85687 -0.33974,0.16987 -2.395441,-0.17518 -2.570617,0 -0.201967,0.20197 0.201966,0.65491 0,0.85687 -0.201967,0.20197 -0.601403,-0.12773 -0.856873,0 -0.361291,0.18065 -0.495585,0.67623 -0.856874,0.85688 -0.260775,0.13039 -2.18472,0 -2.570619,0 -1.635165,0 -0.125487,-0.20197 -1.713748,0.85687 -0.782742,0.52183 -2.079452,0.73141 -2.570619,1.71375 -0.127735,0.25547 0.201967,0.6549 0,0.85687 -0.201967,0.20197 -0.571249,0 -0.856873,0 -0.3859,0 -2.309845,0.13039 -2.57062,0 -1.894594,-0.9473 -0.265907,-0.53181 -0.856874,-1.71375 -0.54718,-1.09436 -1.166566,-0.61938 -1.713746,-1.71374 -0.252787,-0.50558 0.196461,-1.98124 0,-2.57062 -0.285625,-0.57125 -0.571249,-1.1425 -0.856874,-1.71375 -0.285624,0 -0.654906,0.20197 -0.856873,0 -0.201967,-0.201966 0,-0.571246 0,-0.856866 0,-0.28563 0,-0.57125 0,-0.85688 0,-0.44807 -0.112654,-3.20218 0,-3.42749 0.744817,-1.48963 1.713747,-2.85624 2.57062,-4.28437 z"
             id="path5631-1"
             inkscape:connector-curvature="0" />
          <path
             style="fill:#ba6918;fill-opacity:1;stroke:none;display:inline"
             d="m 83.140503,200.38243 c 0.571249,-1.42812 1.142498,-2.85624 1.713747,-4.28436 0.285624,-0.28563 0.676228,-0.49559 0.856873,-0.85688 0.127735,-0.25547 -0.201967,-0.6549 0,-0.85687 0.201967,-0.20197 0.729138,0.25547 0.856873,0 0.510941,-1.02188 -0.51094,-2.40561 0,-3.42749 0.127735,-0.25547 0.729138,0.25547 0.856874,0 0.25547,-0.51094 -0.180645,-1.17181 0,-1.71375 0.127735,-0.3832 0.676228,-0.49558 0.856873,-0.85687 0.127735,-0.25547 -0.09032,-0.58591 0,-0.85688 0.201967,-0.6059 0.654906,-1.10784 0.856873,-1.71374 0.09032,-0.27097 -0.09032,-0.58591 0,-0.85688 0.403934,-1.2118 1.309813,-2.21569 1.713746,-3.42749 0.850256,-2.55077 -2.028964,1.75814 0.856874,-2.57062 0.224062,-0.33609 0.632811,-0.52078 0.856874,-0.85687 1.313472,-1.97021 0.400271,-2.31416 1.713746,-4.28437 0.448124,-0.67219 1.458277,-0.94733 1.713747,-1.71375 0.180644,-0.54193 -0.255471,-1.2028 0,-1.71374 0.541934,-1.08387 2.028686,-1.48675 2.570619,-2.57062 0.458636,-0.91728 -0.741985,-1.82864 0.856873,-3.4275 0.451613,-0.45161 1.262135,-0.40526 1.713745,-0.85687 0.23488,-0.23488 -0.20084,-3.68185 0,-4.28437 2.0689,-6.20669 -0.24704,1.35096 1.71375,-2.57062 0.12773,-0.25547 -0.0903,-0.5859 0,-0.85687 0.20197,-0.6059 0.6549,-1.10784 0.85687,-1.71375 0.0903,-0.27096 -0.12773,-0.6014 0,-0.85687 0.18065,-0.36129 0.57125,-0.57125 0.85688,-0.85687 0.28562,-0.28563 0.49558,-0.67623 0.85687,-0.85688 0.25547,-0.12773 0.6014,0.12774 0.85687,0 0.36129,-0.18064 0.49559,-0.67622 0.85688,-0.85687 0.43958,-0.21979 3.58288,0.1403 4.28436,0 0.88569,-0.17714 1.69437,-0.63781 2.57062,-0.85687 0.5542,-0.13855 1.1425,0 1.71375,0 1.1425,0 2.285,0 3.42749,0 0.28563,0 0.57125,0 0.85688,0 0.28562,0 0.6549,-0.20197 0.85687,0 0.0883,0.0883 -0.0712,4.07075 0,4.28436 0.12773,0.38321 0.67623,0.49559 0.85687,0.85688 0.12774,0.25547 -0.0903,0.5859 0,0.85687 0.20197,0.6059 0.65491,1.10785 0.85688,1.71375 0.25706,0.77118 -0.25707,1.79943 0,2.57062 0.20196,0.6059 0.57125,1.1425 0.85687,1.71374 0.28562,0.57125 0.47367,1.20281 0.85687,1.71375 -0.73322,3.97538 1.84242,0.98555 2.57062,1.71375 0.45161,0.45161 0.47367,1.2028 0.85688,1.71374 0.48472,0.6463 1.35245,0.99117 1.71374,1.71375 0.25547,0.51094 -0.25547,1.20281 0,1.71375 0.30711,0.61421 2.70202,2.70202 3.4275,3.42749 0.28562,0.28563 0.52078,0.63281 0.85687,0.85687 0.53141,0.35428 1.26213,0.40527 1.71375,0.85688 0.20196,0.20196 -0.20197,0.6549 0,0.85687 1.14249,1.1425 0.82222,-1.8177 1.71374,0.85687 0.18065,0.54194 0,1.1425 0,1.71375 0,0.99185 -0.19125,3.51937 0,4.28437 0.1549,0.6196 0.70197,1.09414 0.85688,1.71374 0.13854,0.5542 0,1.1425 0,1.71375 0,1.71375 0,3.42749 0,5.14124 0,0.28563 0,0.57125 0,0.85687 0,0.28563 0.20196,0.65491 0,0.85688 -0.20197,0.20196 -0.65491,-0.20197 -0.85688,0 -0.20196,0.20196 0.12774,0.6014 0,0.85687 -0.37974,0.75948 -2.0506,1.7906 -2.57062,2.57062 -0.35427,0.53141 -0.40526,1.26214 -0.85687,1.71375 -0.20197,0.20196 -0.65491,-0.20197 -0.85687,0 -0.20197,0.20196 0.20196,0.6549 0,0.85687 -0.20197,0.20197 -0.60141,-0.12773 -0.85688,0 -1.02825,0.51412 -1.54237,2.0565 -2.57062,2.57062 -0.25547,0.12774 -0.6014,-0.12773 -0.85687,0 -0.36129,0.18065 -0.49558,0.67623 -0.85687,0.85687 -0.25547,0.12774 -0.60141,-0.12773 -0.85688,0 -1.95036,1.95037 0.17747,0.22647 -1.71374,0.85688 -0.6059,0.20196 -1.18234,0.5026 -1.71375,0.85687 -0.33609,0.22406 -0.465,0.75891 -0.85687,0.85687 -0.83129,0.20783 -1.73039,-0.16804 -2.57062,0 -1.55089,-0.51646 -1.59364,1.38809 -2.57062,1.71375 -0.54194,0.18065 -1.1425,0 -1.71375,0 -1.42812,0 -2.85624,0 -4.28437,0 -0.85687,0 -1.73933,-0.20782 -2.57062,0 -2.3774,0.59435 0.0755,0.78138 -0.85687,1.71375 -0.40393,0.40393 -1.30981,-0.40394 -1.71375,0 -0.20196,0.20196 0.20197,0.6549 0,0.85687 -0.20196,0.20197 -0.5859,-0.0903 -0.85687,0 -0.6059,0.20197 -1.10785,0.65491 -1.71375,0.85687 -0.33343,0.11115 -2.43764,-0.13297 -2.57062,0 -0.20196,0.20197 0.20197,0.65491 0,0.85688 -0.20196,0.20196 -0.6014,-0.12774 -0.85687,0 -0.361291,0.18064 -0.495584,0.67623 -0.856874,0.85687 -0.339743,0.16987 -2.395444,-0.17518 -2.57062,0 -0.201967,0.20197 0.201966,0.65491 0,0.85687 -0.201967,0.20197 -0.601403,-0.12773 -0.856873,0 -0.361291,0.18065 -0.495585,0.67623 -0.856874,0.85688 -0.260775,0.13039 -2.18472,0 -2.570619,0 -1.635165,0 -0.125487,-0.20197 -1.713748,0.85687 -0.782742,0.52183 -2.079452,0.73141 -2.570619,1.71375 -0.127735,0.25547 0.201967,0.6549 0,0.85687 -0.201967,0.20197 -0.571249,0 -0.856873,0 -0.3859,0 -2.309845,0.13039 -2.57062,0 -1.894594,-0.9473 -0.265907,-0.53181 -0.856874,-1.71375 -0.54718,-1.09436 -1.166566,-0.61938 -1.713746,-1.71374 -0.252787,-0.50558 0.196461,-1.98124 0,-2.57062 -0.285625,-0.57125 -0.571249,-1.1425 -0.856874,-1.71375 -0.285624,0 -0.654906,0.20197 -0.856873,0 -0.201967,-0.20197 0,-0.57125 0,-0.85687 0,-0.28563 0,-0.57125 0,-0.85688 0,-0.44807 -0.112654,-3.20218 0,-3.42749 0.744817,-1.48963 1.713747,-2.85624 2.57062,-4.28437 z"
             id="path5631-2"
             inkscape:connector-curvature="0" />
          <path
             style="fill:#ba6918;fill-opacity:1;stroke:none;display:inline"
             d="m 27.783175,58.769428 c 0.649669,-1.394196 1.299338,-2.788392 1.949007,-4.182588 0.301044,-0.269329 0.702704,-0.457275 0.903132,-0.807977 0.141724,-0.247983 -0.165289,-0.665104 0.04758,-0.855548 0.212871,-0.190443 0.713827,0.295564 0.855551,0.04758 0.566896,-0.991931 -0.376571,-2.43027 0.190324,-3.422201 0.141724,-0.247983 0.713827,0.295563 0.855552,0.04758 0.283447,-0.495966 -0.115298,-1.180033 0.09516,-1.711106 0.148816,-0.375516 0.702703,-0.457266 0.903131,-0.807967 0.141724,-0.247983 -0.05764,-0.590022 0.04758,-0.855558 0.2353,-0.59375 0.715412,-1.069765 0.950712,-1.663515 0.105227,-0.265537 -0.05765,-0.590021 0.04758,-0.855558 0.470601,-1.187501 1.430827,-2.139539 1.901426,-3.32704 0.990585,-2.499621 -2.123461,1.642762 0.998295,-2.519073 0.242379,-0.323129 0.660752,-0.484837 0.903132,-0.807967 1.420849,-1.894235 0.528156,-2.288363 1.949007,-4.182598 0.484758,-0.646269 1.508631,-0.864892 1.806265,-1.615943 0.210458,-0.531063 -0.188287,-1.215131 0.09516,-1.711096 0.601283,-1.052105 2.108113,-1.371806 2.709395,-2.423911 0.508864,-0.890398 -0.639298,-1.86702 1.045875,-3.374631 0.475994,-0.425836 1.282691,-0.33455 1.758685,-0.760386 0.247557,-0.221475 0.0039,-3.687322 0.237905,-4.27776 2.410352,-6.082231 -0.321676,1.335158 1.853845,-2.471492 0.141724,-0.247983 -0.05765,-0.590011 0.04758,-0.855548 0.235299,-0.59375 0.715411,-1.069764 0.950713,-1.663525 0.105227,-0.265526 -0.09414,-0.607565 0.04758,-0.855547 0.200428,-0.350702 0.602088,-0.538648 0.903132,-0.807967 0.301045,-0.269329 0.532369,-0.647668 0.903133,-0.807977 0.262168,-0.113347 0.593379,0.160937 0.855548,0.04758 0.370763,-0.160299 0.532375,-0.647657 0.903138,-0.807966 0.451107,-0.195042 3.569562,0.339035 4.27775,0.237904 0.89416,-0.127685 1.727173,-0.54274 2.614235,-0.712805 0.561038,-0.1075623 1.140737,0.06344 1.711104,0.09516 1.140738,0.06344 2.281475,0.126883 3.422202,0.190324 0.28519,0.01586 0.570369,0.03172 0.855558,0.04758 0.285179,0.01586 0.665105,-0.165293 0.855548,0.04758 0.08326,0.09307 -0.297133,4.060515 -0.237904,4.277749 0.106254,0.389712 0.647667,0.532376 0.807966,0.903139 0.113357,0.262169 -0.122694,0.579982 -0.04758,0.855548 0.168013,0.61618 0.592382,1.142507 0.760395,1.758687 0.213841,0.784264 -0.356593,1.782379 -0.142742,2.566654 0.168003,0.61618 0.506927,1.172458 0.760386,1.758676 0.253459,0.586229 0.406149,1.227257 0.760386,1.758687 -0.952836,3.928532 1.784849,1.086336 2.47149,1.853849 0.425836,0.47599 0.406149,1.227246 0.760396,1.758677 0.448084,0.672218 1.295325,1.06474 1.615934,1.806267 0.226704,0.524338 -0.321866,1.186768 -0.09516,1.711106 0.27253,0.630316 2.547812,2.84789 3.231888,3.612526 0.269319,0.301049 0.484837,0.660752 0.807967,0.903129 0.510918,0.383241 1.237679,0.474729 1.663525,0.95072 0.190434,0.212862 -0.238024,0.642674 -0.04758,0.855547 1.077286,1.204179 0.921886,-1.769238 1.663515,0.95071 0.150278,0.551135 -0.06344,1.140737 -0.09516,1.711106 -0.05508,0.990319 -0.386381,3.50332 -0.237905,4.277759 0.120256,0.627246 0.640131,1.131432 0.760396,1.758678 0.107553,0.561037 -0.06344,1.140737 -0.09516,1.711105 -0.09516,1.711106 -0.190323,3.422202 -0.285485,5.133308 -0.01586,0.285189 -0.03172,0.570369 -0.04758,0.855548 -0.01586,0.285189 0.165282,0.665114 -0.04758,0.855558 -0.212873,0.190433 -0.642685,-0.238025 -0.855558,-0.04758 -0.212863,0.190433 0.09415,0.607565 -0.04758,0.855548 -0.421327,0.737221 -2.146866,1.67397 -2.709397,2.42391 -0.383231,0.510918 -0.474719,1.23769 -0.95071,1.663526 -0.212873,0.190433 -0.642684,-0.238025 -0.855548,-0.04758 -0.212872,0.190433 0.165283,0.665104 -0.04758,0.855548 -0.212874,0.190443 -0.59339,-0.160929 -0.855558,-0.04758 -1.055212,0.45623 -1.654185,1.967682 -2.709397,2.423911 -0.262169,0.113357 -0.593379,-0.160927 -0.855548,-0.04758 -0.370764,0.160309 -0.532365,0.647667 -0.903128,0.807967 -0.262169,0.113357 -0.59339,-0.160929 -0.855558,-0.04758 -2.055652,1.83906 0.16462,0.235975 -1.758678,0.760396 -0.616177,0.168004 -1.208422,0.436171 -1.758684,0.760386 -0.348012,0.205052 -0.506424,0.731918 -0.903129,0.807967 -0.841548,0.161349 -1.718389,-0.263867 -2.566653,-0.142743 -1.519819,-0.601782 -1.668259,1.297456 -2.661815,1.568363 -0.551136,0.150278 -1.140738,-0.06344 -1.711106,-0.09516 -1.425917,-0.0793 -2.851833,-0.158603 -4.27776,-0.237905 -0.855548,-0.04758 -1.725106,-0.304081 -2.566654,-0.142742 -2.406735,0.461419 0.03199,0.784366 -0.95071,1.663525 -0.425736,0.380877 -1.285359,-0.476049 -1.711106,-0.09516 -0.212863,0.190433 0.165293,0.665104 -0.04758,0.855548 -0.212864,0.190443 -0.579982,-0.122695 -0.855548,-0.04758 -0.616182,0.168013 -1.142503,0.592382 -1.758684,0.760386 -0.339087,0.09246 -2.4265,-0.268124 -2.566654,-0.142743 -0.21287,0.190443 0.165288,0.665114 -0.04758,0.855558 -0.21287,0.190433 -0.593383,-0.160938 -0.855551,-0.04758 -0.370764,0.160299 -0.532369,0.647668 -0.903133,0.807967 -0.348651,0.150742 -2.38202,-0.307925 -2.566653,-0.142743 -0.212871,0.190444 0.165288,0.665115 -0.04758,0.855548 -0.212871,0.190444 -0.593383,-0.160928 -0.855551,-0.04758 -0.370765,0.160309 -0.532371,0.647668 -0.903133,0.807977 -0.267613,0.115708 -2.18135,-0.121314 -2.566653,-0.142743 -1.632642,-0.0908 -0.114078,-0.208626 -1.758685,0.760386 -0.810511,0.477561 -2.116858,0.614813 -2.661815,1.568363 -0.141723,0.247983 0.16529,0.665105 -0.04758,0.855548 -0.212871,0.190444 -0.570368,-0.03172 -0.855551,-0.04758 -0.385305,-0.02143 -2.313522,0.0019 -2.566654,-0.142742 -1.839069,-1.051043 -0.235966,-0.545755 -0.76039,-1.758687 -0.485567,-1.123056 -1.130373,-0.683202 -1.61594,-1.806258 -0.224323,-0.518837 0.306173,-1.967274 0.142743,-2.566654 -0.253464,-0.586229 -0.506927,-1.172458 -0.76039,-1.758687 -0.285184,-0.01586 -0.665111,0.165293 -0.855551,-0.04758 -0.190441,-0.212873 0.03172,-0.570368 0.04758,-0.855547 0.01586,-0.28519 0.03172,-0.570369 0.04758,-0.855558 0.02488,-0.447379 0.06533,-3.203495 0.190323,-3.422202 0.826385,-1.445973 1.869706,-2.756671 2.804559,-4.135017 z"
             id="path5631-6"
             inkscape:connector-curvature="0"
             inkscape:transform-center-x="-6.4429567"
             inkscape:transform-center-y="-6.894975" />
          <path
             style="fill:#864508;fill-opacity:1;stroke:none;display:inline"
             d="m 155.97474,60.71208 c 0.57124,-1.42812 1.14249,-2.85624 1.71374,-4.28436 0.28563,-0.28563 0.67623,-0.49559 0.85688,-0.85688 0.12773,-0.25547 -0.20197,-0.6549 0,-0.85687 0.20196,-0.20197 0.72913,0.25547 0.85687,0 0.51094,-1.021884 -0.51094,-2.405614 0,-3.427494 0.12773,-0.25547 0.72914,0.25547 0.85687,0 0.25547,-0.51094 -0.18064,-1.17181 0,-1.71375 0.12774,-0.3832 0.67623,-0.49558 0.85688,-0.85687 0.12773,-0.25547 -0.0903,-0.58591 0,-0.85688 0.20196,-0.6059 0.6549,-1.10784 0.85687,-1.71374 0.0903,-0.27097 -0.0903,-0.58591 0,-0.85688 0.40393,-1.2118 1.30981,-2.21569 1.71374,-3.42749 0.85026,-2.55077 -2.02896,1.75814 0.85688,-2.57062 0.22406,-0.33609 0.63281,-0.52078 0.85687,-0.85687 1.31347,-1.97021 0.40027,-2.31416 1.71375,-4.28437 0.44812,-0.67219 1.45828,-0.94733 1.71375,-1.71375 0.18064,-0.54193 -0.25548,-1.2028 0,-1.71374 0.54193,-1.08387 2.02868,-1.48675 2.57061,-2.57062 0.45864,-0.91728 -0.74198,-1.82864 0.85688,-3.4275 0.45161,-0.45161 1.26213,-0.40526 1.71375,-0.85687 0.23487,-0.23488 -0.20084,-3.68185 0,-4.28437 2.06889,-6.20669 -0.24704,1.35096 1.71374,-2.57062 0.12774,-0.25547 -0.0903,-0.5859 0,-0.85687 0.20197,-0.6059 0.65491,-1.10784 0.85688,-1.71375 0.0903,-0.27096 -0.12774,-0.6014 0,-0.85687 0.18064,-0.36129 0.57124,-0.57125 0.85687,-0.85687 0.28562,-0.28563 0.49558,-0.67623 0.85687,-0.85688 0.25547,-0.12773 0.6014,0.12774 0.85687,0 0.36129,-0.18064 0.49559,-0.67622 0.85688,-0.85687 0.43958,-0.21979 3.58288,0.1403 4.28436,0 0.88569,-0.17714 1.69437,-0.63781 2.57062,-0.85687 0.5542,-0.13855 1.1425,0 1.71375,0 1.1425,0 2.285,0 3.42749,0 0.28563,0 0.57125,0 0.85688,0 0.28562,0 0.6549,-0.2019698 0.85687,0 0.0883,0.0883 -0.0712,4.07075 0,4.28436 0.12773,0.38321 0.67623,0.49559 0.85687,0.85688 0.12774,0.25547 -0.0903,0.5859 0,0.85687 0.20197,0.6059 0.65491,1.10785 0.85688,1.71375 0.25706,0.77118 -0.25707,1.79943 0,2.57062 0.20196,0.6059 0.57125,1.1425 0.85687,1.71374 0.28562,0.57125 0.47367,1.20281 0.85687,1.71375 -0.73322,3.97538 1.84242,0.98555 2.57062,1.71375 0.45161,0.45161 0.47367,1.2028 0.85688,1.71374 0.48472,0.6463 1.35245,0.99117 1.71374,1.71375 0.25547,0.51094 -0.25547,1.20281 0,1.71375 0.30711,0.61421 2.70202,2.70202 3.4275,3.42749 0.28562,0.28563 0.52078,0.63281 0.85687,0.85687 0.53141,0.35428 1.26213,0.40527 1.71375,0.85688 0.20196,0.20196 -0.20197,0.6549 0,0.85687 1.14249,1.1425 0.82222,-1.8177 1.71374,0.85687 0.18065,0.54194 0,1.1425 0,1.71375 0,0.99185 -0.19125,3.51937 0,4.28437 0.1549,0.6196 0.70197,1.09414 0.85688,1.71374 0.13854,0.5542 0,1.1425 0,1.71375 0,1.71375 0,3.42749 0,5.14124 0,0.28563 0,0.57125 0,0.85687 0,0.28563 0.20196,0.65491 0,0.856884 -0.20197,0.20196 -0.65491,-0.201974 -0.85688,0 -0.20196,0.20196 0.12774,0.6014 0,0.85687 -0.37974,0.75948 -2.0506,1.7906 -2.57062,2.57062 -0.35427,0.53141 -0.40526,1.26214 -0.85687,1.71375 -0.20197,0.20196 -0.65491,-0.20197 -0.85687,0 -0.20197,0.20196 0.20196,0.6549 0,0.85687 -0.20197,0.20197 -0.60141,-0.12773 -0.85688,0 -1.02825,0.51412 -1.54237,2.0565 -2.57062,2.57062 -0.25547,0.12774 -0.6014,-0.12773 -0.85687,0 -0.36129,0.18065 -0.49558,0.67623 -0.85687,0.85687 -0.25547,0.12774 -0.60141,-0.12773 -0.85688,0 -1.95036,1.95037 0.17747,0.22647 -1.71374,0.85688 -0.6059,0.20196 -1.18234,0.5026 -1.71375,0.85687 -0.33609,0.22406 -0.465,0.75891 -0.85687,0.85687 -0.83129,0.20783 -1.73039,-0.16804 -2.57062,0 -1.55089,-0.51646 -1.59364,1.38809 -2.57062,1.71375 -0.54194,0.18065 -1.1425,0 -1.71375,0 -1.42812,0 -2.85624,0 -4.28437,0 -0.85687,0 -1.73933,-0.20782 -2.57062,0 -2.3774,0.59435 0.0755,0.78138 -0.85687,1.71375 -0.40393,0.40393 -1.30981,-0.40394 -1.71375,0 -0.20196,0.20196 0.20197,0.6549 0,0.85687 -0.20196,0.20197 -0.5859,-0.0903 -0.85687,0 -0.6059,0.20197 -1.10784,0.65491 -1.71374,0.85687 -0.33343,0.11115 -2.43765,-0.13297 -2.57062,0 -0.20197,0.20197 0.20196,0.65491 0,0.85688 -0.20197,0.20196 -0.60141,-0.12774 -0.85688,0 -0.36129,0.18064 -0.49558,0.67623 -0.85687,0.85687 -0.33974,0.16987 -2.39545,-0.17518 -2.57062,0 -0.20197,0.20197 0.20196,0.65491 0,0.85687 -0.20197,0.20197 -0.6014,-0.12773 -0.85687,0 -0.3613,0.18065 -0.49559,0.67623 -0.85688,0.85688 -0.26077,0.13039 -2.18472,0 -2.57062,0 -1.63516,0 -0.12548,-0.20197 -1.71375,0.85687 -0.78274,0.52183 -2.07945,0.73141 -2.57061,1.71375 -0.12774,0.25547 0.20196,0.6549 0,0.85687 -0.20197,0.20197 -0.57125,0 -0.85688,0 -0.3859,0 -2.30984,0.13039 -2.57062,0 -1.89459,-0.9473 -0.2659,-0.53181 -0.85687,-1.71375 -0.54718,-1.09436 -1.16657,-0.61938 -1.71375,-1.71374 -0.25278,-0.50558 0.19646,-1.98124 0,-2.57062 -0.28562,-0.57125 -0.57125,-1.1425 -0.85687,-1.71375 -0.28563,0 -0.65491,0.20197 -0.85687,0 -0.20197,-0.20197 0,-0.57125 0,-0.85687 0,-0.28563 0,-0.57125 0,-0.85688 0,-0.44807 -0.11266,-3.20218 0,-3.42749 0.74481,-1.48963 1.71374,-2.85624 2.57062,-4.28437 z"
             id="path5631-0"
             inkscape:connector-curvature="0" />
          <path
             style="fill:#864508;fill-opacity:1;stroke:none;display:inline"
             d="m 207.38714,112.12448 c 0.57124,-1.42812 1.14249,-2.85624 1.71374,-4.28436 0.28563,-0.28563 0.67623,-0.49559 0.85688,-0.85688 0.12773,-0.25547 -0.20197,-0.6549 0,-0.85687 0.20196,-0.20197 0.72913,0.25547 0.85687,0 0.51094,-1.02188 -0.51094,-2.40561 0,-3.42749 0.12773,-0.25547 0.72914,0.25547 0.85687,0 0.25547,-0.51094 -0.18064,-1.17181 0,-1.71375 0.12774,-0.3832 0.67623,-0.49558 0.85688,-0.85687 0.12773,-0.255473 -0.0903,-0.585913 0,-0.856883 0.20196,-0.6059 0.6549,-1.10784 0.85687,-1.71374 0.0903,-0.27097 -0.0903,-0.58591 0,-0.85688 0.40393,-1.2118 1.30981,-2.21569 1.71374,-3.42749 0.85026,-2.55077 -2.02896,1.75814 0.85688,-2.57062 0.22406,-0.33609 0.63281,-0.52078 0.85687,-0.85687 1.31347,-1.97021 0.40027,-2.31416 1.71375,-4.28437 0.44812,-0.67219 1.45828,-0.94733 1.71375,-1.71375 0.18064,-0.54193 -0.25548,-1.2028 0,-1.71374 0.54193,-1.08387 2.02868,-1.48675 2.57061,-2.57062 0.45864,-0.91728 -0.74198,-1.82864 0.85688,-3.4275 0.45161,-0.45161 1.26213,-0.40526 1.71375,-0.85687 0.23487,-0.23488 -0.20084,-3.68185 0,-4.28437 2.06889,-6.206693 -0.24704,1.35096 1.71374,-2.570623 0.12774,-0.25547 -0.0903,-0.5859 0,-0.85687 0.20197,-0.6059 0.65491,-1.10784 0.85688,-1.71375 0.0903,-0.27096 -0.12774,-0.6014 0,-0.85687 0.18064,-0.36129 0.57124,-0.57125 0.85687,-0.85687 0.28562,-0.28563 0.49558,-0.67623 0.85687,-0.85688 0.25547,-0.12773 0.6014,0.12774 0.85687,0 0.36129,-0.18064 0.49559,-0.67622 0.85688,-0.85687 0.43958,-0.21979 3.58288,0.1403 4.28436,0 0.88569,-0.17714 1.69437,-0.63781 2.57062,-0.85687 0.5542,-0.13855 1.1425,0 1.71375,0 1.1425,0 2.285,0 3.42749,0 0.28563,0 0.57125,0 0.85688,0 0.28562,0 0.6549,-0.201969 0.85687,0 0.0883,0.0883 -0.0712,4.07075 0,4.28436 0.12773,0.38321 0.67623,0.49559 0.85687,0.85688 0.12774,0.25547 -0.0903,0.5859 0,0.85687 0.20197,0.6059 0.65491,1.10785 0.85688,1.71375 0.25706,0.77118 -0.25707,1.799433 0,2.570623 0.20196,0.6059 0.57125,1.1425 0.85687,1.71374 0.28562,0.57125 0.47367,1.20281 0.85687,1.71375 -0.73322,3.97538 1.84242,0.98555 2.57062,1.71375 0.45161,0.45161 0.47367,1.2028 0.85688,1.71374 0.48472,0.6463 1.35245,0.99117 1.71374,1.71375 0.25547,0.51094 -0.25547,1.20281 0,1.71375 0.30711,0.61421 2.70202,2.70202 3.4275,3.42749 0.28562,0.28563 0.52078,0.63281 0.85687,0.85687 0.53141,0.35428 1.26213,0.40527 1.71375,0.85688 0.20196,0.20196 -0.20197,0.6549 0,0.85687 1.14249,1.1425 0.82222,-1.8177 1.71374,0.85687 0.18065,0.54194 0,1.1425 0,1.71375 0,0.99185 -0.19125,3.51937 0,4.28437 0.1549,0.6196 0.70197,1.09414 0.85688,1.71374 0.13854,0.5542 0,1.1425 0,1.71375 0,1.713753 0,3.427493 0,5.141243 0,0.28563 0,0.57125 0,0.85687 0,0.28563 0.20196,0.65491 0,0.85688 -0.20197,0.20196 -0.65491,-0.20197 -0.85688,0 -0.20196,0.20196 0.12774,0.6014 0,0.85687 -0.37974,0.75948 -2.0506,1.7906 -2.57062,2.57062 -0.35427,0.53141 -0.40526,1.26214 -0.85687,1.71375 -0.20197,0.20196 -0.65491,-0.20197 -0.85687,0 -0.20197,0.20196 0.20196,0.6549 0,0.85687 -0.20197,0.20197 -0.60141,-0.12773 -0.85688,0 -1.02825,0.51412 -1.54237,2.0565 -2.57062,2.57062 -0.25547,0.12774 -0.6014,-0.12773 -0.85687,0 -0.36129,0.18065 -0.49558,0.67623 -0.85687,0.85687 -0.25547,0.12774 -0.60141,-0.12773 -0.85688,0 -1.95036,1.95037 0.17747,0.22647 -1.71374,0.85688 -0.6059,0.20196 -1.18234,0.5026 -1.71375,0.85687 -0.33609,0.22406 -0.465,0.75891 -0.85687,0.85687 -0.83129,0.20783 -1.73039,-0.16804 -2.57062,0 -1.55089,-0.51646 -1.59364,1.38809 -2.57062,1.71375 -0.54194,0.18065 -1.1425,0 -1.71375,0 -1.42812,0 -2.85624,0 -4.28437,0 -0.85687,0 -1.73933,-0.20782 -2.57062,0 -2.3774,0.59435 0.0755,0.78138 -0.85687,1.71375 -0.40393,0.40393 -1.30981,-0.40394 -1.71375,0 -0.20196,0.20196 0.20197,0.6549 0,0.85687 -0.20196,0.20197 -0.5859,-0.0903 -0.85687,0 -0.6059,0.20197 -1.10784,0.65491 -1.71374,0.85687 -0.33343,0.11115 -2.43765,-0.13297 -2.57062,0 -0.20197,0.20197 0.20196,0.65491 0,0.85688 -0.20197,0.20196 -0.60141,-0.12774 -0.85688,0 -0.36129,0.18064 -0.49558,0.67623 -0.85687,0.85687 -0.33974,0.16987 -2.39545,-0.17518 -2.57062,0 -0.20197,0.20197 0.20196,0.65491 0,0.85687 -0.20197,0.20197 -0.6014,-0.12773 -0.85687,0 -0.3613,0.18065 -0.49559,0.67623 -0.85688,0.85688 -0.26077,0.13039 -2.18472,0 -2.57062,0 -1.63516,0 -0.12548,-0.20197 -1.71375,0.85687 -0.78274,0.52183 -2.07945,0.73141 -2.57061,1.71375 -0.12774,0.25547 0.20196,0.6549 0,0.85687 -0.20197,0.20197 -0.57125,0 -0.85688,0 -0.3859,0 -2.30984,0.13039 -2.57062,0 -1.89459,-0.9473 -0.2659,-0.53181 -0.85687,-1.71375 -0.54718,-1.09436 -1.16657,-0.61938 -1.71375,-1.71374 -0.25278,-0.50558 0.19646,-1.98124 0,-2.57062 -0.28562,-0.57125 -0.57125,-1.1425 -0.85687,-1.71375 -0.28563,0 -0.65491,0.20197 -0.85687,0 -0.20197,-0.20197 0,-0.57125 0,-0.85687 0,-0.28563 0,-0.57125 0,-0.85688 0,-0.44807 -0.11266,-3.20218 0,-3.42749 0.74481,-1.48963 1.71374,-2.85624 2.57062,-4.28437 z"
             id="path5631-0-4"
             inkscape:connector-curvature="0" />
          <path
             style="fill:#864508;fill-opacity:1;stroke:none;display:inline"
             d="m 156.83161,184.10184 c 0.57124,-1.42812 1.14249,-2.85624 1.71374,-4.28436 0.28563,-0.28563 0.67623,-0.49559 0.85688,-0.85688 0.12773,-0.25547 -0.20197,-0.6549 0,-0.85687 0.20196,-0.20197 0.72913,0.25547 0.85687,0 0.51094,-1.02189 -0.51094,-2.40562 0,-3.4275 0.12773,-0.25547 0.72914,0.25547 0.85687,0 0.25547,-0.51094 -0.18064,-1.17181 0,-1.71375 0.12774,-0.3832 0.67623,-0.49558 0.85688,-0.85687 0.12773,-0.25547 -0.0903,-0.58591 0,-0.85688 0.20196,-0.6059 0.6549,-1.10784 0.85687,-1.71374 0.0903,-0.27097 -0.0903,-0.58591 0,-0.85688 0.40393,-1.2118 1.30981,-2.21569 1.71374,-3.42749 0.85026,-2.55077 -2.02896,1.75814 0.85688,-2.57062 0.22406,-0.33609 0.63281,-0.52078 0.85687,-0.85687 1.31347,-1.97021 0.40027,-2.31416 1.71375,-4.28437 0.44812,-0.67219 1.45828,-0.94733 1.71375,-1.71375 0.18064,-0.54193 -0.25548,-1.2028 0,-1.71374 0.54193,-1.08387 2.02868,-1.48675 2.57061,-2.57062 0.45864,-0.91728 -0.74198,-1.82864 0.85688,-3.4275 0.45161,-0.45161 1.26213,-0.40526 1.71375,-0.85687 0.23487,-0.23488 -0.20084,-3.68185 0,-4.28437 2.06889,-6.20669 -0.24704,1.35096 1.71374,-2.57062 0.12774,-0.25547 -0.0903,-0.5859 0,-0.85687 0.20197,-0.6059 0.65491,-1.10784 0.85688,-1.71375 0.0903,-0.27096 -0.12774,-0.6014 0,-0.85687 0.18064,-0.36129 0.57124,-0.57125 0.85687,-0.85687 0.28562,-0.28563 0.49558,-0.67623 0.85687,-0.85688 0.25547,-0.12773 0.6014,0.12774 0.85687,0 0.36129,-0.18064 0.49559,-0.67622 0.85688,-0.85687 0.43958,-0.21979 3.58288,0.1403 4.28436,0 0.88569,-0.17714 1.69437,-0.63781 2.57062,-0.85687 0.5542,-0.13855 1.1425,0 1.71375,0 1.1425,0 2.285,0 3.42749,0 0.28563,0 0.57125,0 0.85688,0 0.28562,0 0.6549,-0.20197 0.85687,0 0.0883,0.0883 -0.0712,4.07075 0,4.28436 0.12773,0.38321 0.67623,0.49559 0.85687,0.85688 0.12774,0.25547 -0.0903,0.5859 0,0.85687 0.20197,0.6059 0.65491,1.10785 0.85688,1.71375 0.25706,0.77118 -0.25707,1.79943 0,2.57062 0.20196,0.6059 0.57125,1.1425 0.85687,1.71374 0.28562,0.57125 0.47367,1.20281 0.85687,1.71375 -0.73322,3.97538 1.84242,0.98555 2.57062,1.71375 0.45161,0.45161 0.47367,1.2028 0.85688,1.71374 0.48472,0.6463 1.35245,0.99117 1.71374,1.71375 0.25547,0.51094 -0.25547,1.20281 0,1.71375 0.30711,0.61421 2.70202,2.70202 3.4275,3.42749 0.28562,0.28563 0.52078,0.63281 0.85687,0.85687 0.53141,0.35428 1.26213,0.40527 1.71375,0.85688 0.20196,0.20196 -0.20197,0.6549 0,0.85687 1.14249,1.1425 0.82222,-1.8177 1.71374,0.85687 0.18065,0.54194 0,1.1425 0,1.71375 0,0.99185 -0.19125,3.51937 0,4.28437 0.1549,0.6196 0.70197,1.09414 0.85688,1.71374 0.13854,0.5542 0,1.1425 0,1.71375 0,1.71375 0,3.42749 0,5.14124 0,0.28563 0,0.57125 0,0.85687 0,0.28563 0.20196,0.65491 0,0.85689 -0.20197,0.20196 -0.65491,-0.20198 -0.85688,0 -0.20196,0.20196 0.12774,0.6014 0,0.85687 -0.37974,0.75948 -2.0506,1.7906 -2.57062,2.57062 -0.35427,0.53141 -0.40526,1.26214 -0.85687,1.71375 -0.20197,0.20196 -0.65491,-0.20197 -0.85687,0 -0.20197,0.20196 0.20196,0.6549 0,0.85687 -0.20197,0.20197 -0.60141,-0.12773 -0.85688,0 -1.02825,0.51412 -1.54237,2.0565 -2.57062,2.57062 -0.25547,0.12774 -0.6014,-0.12773 -0.85687,0 -0.36129,0.18065 -0.49558,0.67623 -0.85687,0.85687 -0.25547,0.12774 -0.60141,-0.12773 -0.85688,0 -1.95036,1.95037 0.17747,0.22647 -1.71374,0.85688 -0.6059,0.20196 -1.18234,0.5026 -1.71375,0.85687 -0.33609,0.22406 -0.465,0.75891 -0.85687,0.85687 -0.83129,0.20783 -1.73039,-0.16804 -2.57062,0 -1.55089,-0.51646 -1.59364,1.38809 -2.57062,1.71375 -0.54194,0.18065 -1.1425,0 -1.71375,0 -1.42812,0 -2.85624,0 -4.28437,0 -0.85687,0 -1.73933,-0.20782 -2.57062,0 -2.3774,0.59435 0.0755,0.78138 -0.85687,1.71375 -0.40393,0.40393 -1.30981,-0.40394 -1.71375,0 -0.20196,0.20196 0.20197,0.6549 0,0.85687 -0.20196,0.20197 -0.5859,-0.0903 -0.85687,0 -0.6059,0.20197 -1.10784,0.65491 -1.71374,0.85687 -0.33343,0.11115 -2.43765,-0.13297 -2.57062,0 -0.20197,0.20197 0.20196,0.65491 0,0.85688 -0.20197,0.20196 -0.60141,-0.12774 -0.85688,0 -0.36129,0.18064 -0.49558,0.67623 -0.85687,0.85687 -0.33974,0.16987 -2.39545,-0.17518 -2.57062,0 -0.20197,0.20197 0.20196,0.65491 0,0.85687 -0.20197,0.20197 -0.6014,-0.12773 -0.85687,0 -0.3613,0.18065 -0.49559,0.67623 -0.85688,0.85688 -0.26077,0.13039 -2.18472,0 -2.57062,0 -1.63516,0 -0.12548,-0.20197 -1.71375,0.85687 -0.78274,0.52183 -2.07945,0.73141 -2.57061,1.71375 -0.12774,0.25547 0.20196,0.6549 0,0.85687 -0.20197,0.20197 -0.57125,0 -0.85688,0 -0.3859,0 -2.30984,0.13039 -2.57062,0 -1.89459,-0.9473 -0.2659,-0.53181 -0.85687,-1.71375 -0.54718,-1.09436 -1.16657,-0.61938 -1.71375,-1.71374 -0.25278,-0.50558 0.19646,-1.98124 0,-2.57062 -0.28562,-0.57125 -0.57125,-1.1425 -0.85687,-1.71375 -0.28563,0 -0.65491,0.20197 -0.85687,0 -0.20197,-0.20197 0,-0.57125 0,-0.85687 0,-0.28563 0,-0.57125 0,-0.85688 0,-0.44807 -0.11266,-3.20218 0,-3.42749 0.74481,-1.48963 1.71374,-2.85624 2.57062,-4.28437 z"
             id="path5631-0-9"
             inkscape:connector-curvature="0" />
          <path
             style="fill:#864508;fill-opacity:1;stroke:none;display:inline"
             d="m 207.38714,222.66114 c 0.57124,-1.42812 1.14249,-2.85624 1.71374,-4.28436 0.28563,-0.28563 0.67623,-0.49559 0.85688,-0.85688 0.12773,-0.25547 -0.20197,-0.6549 0,-0.85687 0.20196,-0.20197 0.72913,0.25547 0.85687,0 0.51094,-1.02189 -0.51094,-2.40562 0,-3.4275 0.12773,-0.25547 0.72914,0.25547 0.85687,0 0.25547,-0.51094 -0.18064,-1.17181 0,-1.71375 0.12774,-0.3832 0.67623,-0.49558 0.85688,-0.85687 0.12773,-0.25547 -0.0903,-0.58591 0,-0.85688 0.20196,-0.6059 0.6549,-1.10784 0.85687,-1.71374 0.0903,-0.27097 -0.0903,-0.58591 0,-0.85688 0.40393,-1.2118 1.30981,-2.21569 1.71374,-3.42749 0.85026,-2.55077 -2.02896,1.75814 0.85688,-2.57062 0.22406,-0.33609 0.63281,-0.52078 0.85687,-0.85687 1.31347,-1.97021 0.40027,-2.31416 1.71375,-4.28437 0.44812,-0.67219 1.45828,-0.94733 1.71375,-1.71375 0.18064,-0.54193 -0.25548,-1.2028 0,-1.71374 0.54193,-1.08387 2.02868,-1.48675 2.57061,-2.57062 0.45864,-0.91728 -0.74198,-1.82864 0.85688,-3.4275 0.45161,-0.45161 1.26213,-0.40526 1.71375,-0.85687 0.23487,-0.23488 -0.20084,-3.68185 0,-4.28437 2.06889,-6.20669 -0.24704,1.35096 1.71374,-2.57062 0.12774,-0.25547 -0.0903,-0.5859 0,-0.85687 0.20197,-0.6059 0.65491,-1.10784 0.85688,-1.71375 0.0903,-0.27096 -0.12774,-0.6014 0,-0.85687 0.18064,-0.36129 0.57124,-0.57125 0.85687,-0.85687 0.28562,-0.28563 0.49558,-0.67623 0.85687,-0.85688 0.25547,-0.12773 0.6014,0.12774 0.85687,0 0.36129,-0.18064 0.49559,-0.67622 0.85688,-0.85687 0.43958,-0.21979 3.58288,0.1403 4.28436,0 0.88569,-0.17714 1.69437,-0.63781 2.57062,-0.85687 0.5542,-0.13855 1.1425,0 1.71375,0 1.1425,0 2.285,0 3.42749,0 0.28563,0 0.57125,0 0.85688,0 0.28562,0 0.6549,-0.20197 0.85687,0 0.0883,0.0883 -0.0712,4.07075 0,4.28436 0.12773,0.38321 0.67623,0.49559 0.85687,0.85688 0.12774,0.25547 -0.0903,0.5859 0,0.85687 0.20197,0.6059 0.65491,1.10785 0.85688,1.71375 0.25706,0.77118 -0.25707,1.79943 0,2.57062 0.20196,0.6059 0.57125,1.1425 0.85687,1.71374 0.28562,0.57125 0.47367,1.20281 0.85687,1.71375 -0.73322,3.97538 1.84242,0.98555 2.57062,1.71375 0.45161,0.45161 0.47367,1.2028 0.85688,1.71374 0.48472,0.6463 1.35245,0.99117 1.71374,1.71375 0.25547,0.51094 -0.25547,1.20281 0,1.71375 0.30711,0.61421 2.70202,2.70202 3.4275,3.42749 0.28562,0.28563 0.52078,0.63281 0.85687,0.85687 0.53141,0.35428 1.26213,0.40527 1.71375,0.85688 0.20196,0.20196 -0.20197,0.6549 0,0.85687 1.14249,1.1425 0.82222,-1.8177 1.71374,0.85687 0.18065,0.54194 0,1.1425 0,1.71375 0,0.99185 -0.19125,3.51937 0,4.28437 0.1549,0.6196 0.70197,1.09414 0.85688,1.71374 0.13854,0.5542 0,1.1425 0,1.71375 0,1.71375 0,3.42749 0,5.14124 0,0.28563 0,0.57125 0,0.85687 0,0.28563 0.20196,0.65491 0,0.85689 -0.20197,0.20196 -0.65491,-0.20198 -0.85688,0 -0.20196,0.20196 0.12774,0.6014 0,0.85687 -0.37974,0.75948 -2.0506,1.7906 -2.57062,2.57062 -0.35427,0.53141 -0.40526,1.26214 -0.85687,1.71375 -0.20197,0.20196 -0.65491,-0.20197 -0.85687,0 -0.20197,0.20196 0.20196,0.6549 0,0.85687 -0.20197,0.20197 -0.60141,-0.12773 -0.85688,0 -1.02825,0.51412 -1.54237,2.0565 -2.57062,2.57062 -0.25547,0.12774 -0.6014,-0.12773 -0.85687,0 -0.36129,0.18065 -0.49558,0.67623 -0.85687,0.85687 -0.25547,0.12774 -0.60141,-0.12773 -0.85688,0 -1.95036,1.95037 0.17747,0.22647 -1.71374,0.85688 -0.6059,0.20196 -1.18234,0.5026 -1.71375,0.85687 -0.33609,0.22406 -0.465,0.75891 -0.85687,0.85687 -0.83129,0.20783 -1.73039,-0.16804 -2.57062,0 -1.55089,-0.51646 -1.59364,1.38809 -2.57062,1.71375 -0.54194,0.18065 -1.1425,0 -1.71375,0 -1.42812,0 -2.85624,0 -4.28437,0 -0.85687,0 -1.73933,-0.20782 -2.57062,0 -2.3774,0.59435 0.0755,0.78138 -0.85687,1.71375 -0.40393,0.40393 -1.30981,-0.40394 -1.71375,0 -0.20196,0.20196 0.20197,0.6549 0,0.85687 -0.20196,0.20197 -0.5859,-0.0903 -0.85687,0 -0.6059,0.20197 -1.10784,0.65491 -1.71374,0.85687 -0.33343,0.11115 -2.43765,-0.13297 -2.57062,0 -0.20197,0.20197 0.20196,0.65491 0,0.85688 -0.20197,0.20196 -0.60141,-0.12774 -0.85688,0 -0.36129,0.18064 -0.49558,0.67623 -0.85687,0.85687 -0.33974,0.16987 -2.39545,-0.17518 -2.57062,0 -0.20197,0.20197 0.20196,0.65491 0,0.85687 -0.20197,0.20197 -0.6014,-0.12773 -0.85687,0 -0.3613,0.18065 -0.49559,0.67623 -0.85688,0.85688 -0.26077,0.13039 -2.18472,0 -2.57062,0 -1.63516,0 -0.12548,-0.20197 -1.71375,0.85687 -0.78274,0.52183 -2.07945,0.73141 -2.57061,1.71375 -0.12774,0.25547 0.20196,0.6549 0,0.85687 -0.20197,0.20197 -0.57125,0 -0.85688,0 -0.3859,0 -2.30984,0.13039 -2.57062,0 -1.89459,-0.9473 -0.2659,-0.53181 -0.85687,-1.71375 -0.54718,-1.09436 -1.16657,-0.61938 -1.71375,-1.71374 -0.25278,-0.50558 0.19646,-1.98124 0,-2.57062 -0.28562,-0.57125 -0.57125,-1.1425 -0.85687,-1.71375 -0.28563,0 -0.65491,0.20197 -0.85687,0 -0.20197,-0.20197 0,-0.57125 0,-0.85687 0,-0.28563 0,-0.57125 0,-0.85688 0,-0.44807 -0.11266,-3.20218 0,-3.42749 0.74481,-1.48963 1.71374,-2.85624 2.57062,-4.28437 z"
             id="path5631-0-46"
             inkscape:connector-curvature="0" />
        </g>
      </g>
      <g
         id="g4641" />
    </g>
    <path
       style="fill:none;stroke:#ffffff;stroke-width:8;stroke-linecap:butt;stroke-linejoin:miter;stroke-opacity:1;stroke-miterlimit:4;stroke-dasharray:none;opacity:0.25663717"
       d="m 80.584825,311.53846 0,-234.483662 239.330875,-0.605901"
       id="path5763"
       inkscape:connector-curvature="0"
       transform="translate(0,65)" />
    <path
       style="fill:none;stroke:#000000;stroke-width:8;stroke-linecap:butt;stroke-linejoin:miter;stroke-opacity:1;stroke-miterlimit:4;stroke-dasharray:none;opacity:0.34955752"
       d="m 318.7039,78.2666 2.4236,232.66596 -236.907269,1.2118"
       id="path5765"
       inkscape:connector-curvature="0"
       transform="translate(0,65)" />
    <path
       style="fill:none;stroke:#000000;stroke-width:8;stroke-linecap:butt;stroke-linejoin:miter;stroke-opacity:1;stroke-miterlimit:4;stroke-dasharray:none;opacity:0.47345133"
       d="m 206.61222,84.93151 0,222.97155"
       id="path5767"
       inkscape:connector-curvature="0"
       transform="translate(0,65)" />
    <path
       style="fill:none;stroke:#ffffff;stroke-width:8;stroke-linecap:butt;stroke-linejoin:miter;stroke-opacity:1;stroke-miterlimit:4;stroke-dasharray:none;opacity:0.25663717"
       d="M 191.4647,87.355114 192.37355,303.3588"
       id="path5769"
       inkscape:connector-curvature="0"
       transform="translate(0,65)" />
  </g>
</svg>
