<?xml version="1.0" encoding="UTF-8" standalone="no"?>
<!-- Created with Inkscape (http://www.inkscape.org/) -->

<svg
   xmlns:dc="http://purl.org/dc/elements/1.1/"
   xmlns:cc="http://creativecommons.org/ns#"
   xmlns:rdf="http://www.w3.org/1999/02/22-rdf-syntax-ns#"
   xmlns:svg="http://www.w3.org/2000/svg"
   xmlns="http://www.w3.org/2000/svg"
   xmlns:sodipodi="http://sodipodi.sourceforge.net/DTD/sodipodi-0.dtd"
   xmlns:inkscape="http://www.inkscape.org/namespaces/inkscape"
   width="400"
   height="400"
   id="svg2"
   version="1.1"
   inkscape:version="0.48.4 r9939"
   sodipodi:docname="hind0.svg"
   style="display:inline">
  <defs
     id="defs4" />
  <sodipodi:namedview
     id="base"
     pagecolor="#ffffff"
     bordercolor="#666666"
     borderopacity="1.0"
     inkscape:pageopacity="0.0"
     inkscape:pageshadow="2"
     inkscape:zoom="1.6504348"
     inkscape:cx="153.59589"
     inkscape:cy="148.48788"
     inkscape:document-units="px"
     inkscape:current-layer="g4241"
     showgrid="false"
     inkscape:window-width="1600"
     inkscape:window-height="878"
     inkscape:window-x="-8"
     inkscape:window-y="116"
     inkscape:window-maximized="1">
    <sodipodi:guide
       position="0,0"
       orientation="0,575"
       id="guide3710" />
    <sodipodi:guide
       position="566.51738,256.902"
       orientation="-320,0"
       id="guide3712" />
    <sodipodi:guide
       position="427.76607,199.94731"
       orientation="0,-575"
       id="guide3714" />
    <sodipodi:guide
       position="200.55321,401.10642"
       orientation="320,0"
       id="guide3716" />
  </sodipodi:namedview>
  <metadata
     id="metadata7">
    <rdf:RDF>
      <cc:Work
         rdf:about="">
        <dc:format>image/svg+xml</dc:format>
        <dc:type
           rdf:resource="http://purl.org/dc/dcmitype/StillImage" />
        <dc:title />
      </cc:Work>
    </rdf:RDF>
  </metadata>
  <g
     inkscape:groupmode="layer"
     id="layer2"
     inkscape:label="Warstwa"
     style="display:inline"
     transform="translate(0,-65)">
    <g
       id="g4710"
       transform="translate(-1.7101537,63.408902)">
      <g
         id="g4241"
         transform="translate(58.772396,42.413066)">
        <g
           id="g3983"
           transform="translate(-1.8177028,27.265542)">
          <path
             sodipodi:nodetypes="ccccccc"
             inkscape:connector-curvature="0"
             id="path2997"
             d="m 145.70075,25.30366 c -2.94337,0.02058 -6.86815,1.211421 -8.61256,4.484193 -4.10634,7.184425 -8.34363,31.44986 -9.12854,61.817804 l 1.12105,44.201333 c 0.10655,13.36113 1.86944,26.24901 4.96464,38.75624 3.51425,11.20919 5.56088,22.20872 6.08569,32.99085 l 5.60524,106.49958"
             style="fill:none;stroke:#000000;stroke-width:1px;stroke-linecap:butt;stroke-linejoin:miter;stroke-opacity:1" />
          <path
             sodipodi:nodetypes="cccccccc"
             inkscape:connector-curvature="0"
             id="path3003"
             d="m 142.57291,261.45191 -24.80022,1.47216 0,5.43567 25.70616,5.32242 4.44728,0 27.06507,-4.98269 -0.22648,-4.19 -26.04589,-2.94431"
             style="fill:none;stroke:#000000;stroke-width:1px;stroke-linecap:butt;stroke-linejoin:miter;stroke-opacity:1" />
          <path
             inkscape:connector-curvature="0"
             id="path3005"
             d="m 120.9435,263.03732 0,5.88863"
             style="fill:none;stroke:#000000;stroke-width:1px;stroke-linecap:butt;stroke-linejoin:miter;stroke-opacity:1" />
          <path
             inkscape:connector-curvature="0"
             id="path3007"
             d="m 121.39647,265.30218 21.74265,1.01918"
             style="fill:none;stroke:#000000;stroke-width:1px;stroke-linecap:butt;stroke-linejoin:miter;stroke-opacity:1" />
          <path
             inkscape:connector-curvature="0"
             id="path3009"
             d="m 147.76599,266.54785 24.80022,-0.33973"
             style="fill:none;stroke:#000000;stroke-width:1px;stroke-linecap:butt;stroke-linejoin:miter;stroke-opacity:1" />
          <path
             inkscape:connector-curvature="0"
             id="path3011"
             d="m 172.56621,268.92595 0,-4.30323"
             style="fill:none;stroke:#000000;stroke-width:1px;stroke-linecap:butt;stroke-linejoin:miter;stroke-opacity:1" />
          <g
             id="g3055">
            <path
               style="fill:none;stroke:#000000;stroke-width:1px;stroke-linecap:butt;stroke-linejoin:miter;stroke-opacity:1"
               d="m 130.0416,157.58735 c -4.19609,-0.33491 -8.1722,-0.7187 -11.97625,-1.14073 m -5.62735,-0.66597 c -2.23246,-0.28061 -4.40935,-0.57356 -6.54172,-0.87641 m -5.79849,-0.86181 c -3.945225,-0.61112 -7.764385,-1.25025 -11.534978,-1.90017 l -0.560524,0 m -2.101965,0 -6.546122,0"
               id="path3013"
               inkscape:connector-curvature="0"
               sodipodi:nodetypes="ccccccccc" />
            <path
               style="fill:none;stroke:#000000;stroke-width:1px;stroke-linecap:butt;stroke-linejoin:miter;stroke-opacity:1"
               d="m 79.194052,143.01373 6.780611,-0.25348 m 2.636185,-0.20223 11.587062,-1.84852 m 5.1104,-0.81528 7.4471,-1.18806 m 4.33737,-0.69195 11.82777,-1.88692"
               id="path3015"
               inkscape:connector-curvature="0"
               sodipodi:nodetypes="cccccccc" />
            <g
               id="g3025">
              <path
                 sodipodi:nodetypes="ccccccccc"
                 inkscape:connector-curvature="0"
                 id="path3017"
                 d="m 100.10679,158.74054 c 0.0217,8.04173 5.83651,8.26929 5.77539,0 l 0,-17.09969 -2.2184,-8.27919 0,-6.10267 -1.63186,0 0,6.00188 -2.150128,8.02439 z"
                 style="fill:none;stroke:#000000;stroke-width:1px;stroke-linecap:butt;stroke-linejoin:miter;stroke-opacity:1" />
              <path
                 inkscape:connector-curvature="0"
                 id="path3019"
                 d="m 100.10679,158.85378 5.66215,0"
                 style="fill:none;stroke:#000000;stroke-width:1px;stroke-linecap:butt;stroke-linejoin:miter;stroke-opacity:1" />
              <path
                 inkscape:connector-curvature="0"
                 id="path3021"
                 d="m 100.10679,141.98058 5.32242,0"
                 style="fill:none;stroke:#000000;stroke-width:1px;stroke-linecap:butt;stroke-linejoin:miter;stroke-opacity:1" />
              <path
                 inkscape:connector-curvature="0"
                 id="path3023"
                 d="m 102.14516,133.37411 1.13243,0"
                 style="fill:none;stroke:#000000;stroke-width:1px;stroke-linecap:butt;stroke-linejoin:miter;stroke-opacity:1" />
            </g>
            <g
               id="g3031"
               transform="translate(12.116998,0)">
              <path
                 style="fill:none;stroke:#000000;stroke-width:1px;stroke-linecap:butt;stroke-linejoin:miter;stroke-opacity:1"
                 d="m 100.10679,158.74054 c 0.0217,8.04173 5.83651,8.26929 5.77539,0 l 0,-17.09969 -2.2184,-8.27919 0,-6.10267 -1.63186,0 0,6.00188 -2.150128,8.02439 z"
                 id="path3033"
                 inkscape:connector-curvature="0"
                 sodipodi:nodetypes="ccccccccc" />
              <path
                 style="fill:none;stroke:#000000;stroke-width:1px;stroke-linecap:butt;stroke-linejoin:miter;stroke-opacity:1"
                 d="m 100.10679,158.85378 5.66215,0"
                 id="path3035"
                 inkscape:connector-curvature="0" />
              <path
                 style="fill:none;stroke:#000000;stroke-width:1px;stroke-linecap:butt;stroke-linejoin:miter;stroke-opacity:1"
                 d="m 100.10679,141.98058 5.32242,0"
                 id="path3037"
                 inkscape:connector-curvature="0" />
              <path
                 style="fill:none;stroke:#000000;stroke-width:1px;stroke-linecap:butt;stroke-linejoin:miter;stroke-opacity:1"
                 d="m 102.14516,133.37411 1.13243,0"
                 id="path3039"
                 inkscape:connector-curvature="0" />
            </g>
            <g
               id="g3045">
              <rect
                 y="137.40849"
                 x="85.840263"
                 height="25.704035"
                 width="2.6424708"
                 id="rect3041"
                 style="fill:none;stroke:#000000;stroke-width:1;stroke-linecap:round;stroke-linejoin:round;stroke-miterlimit:4;stroke-opacity:1;stroke-dasharray:none;stroke-dashoffset:0" />
              <path
                 inkscape:connector-curvature="0"
                 id="path3043"
                 d="m 87.161499,137.40849 0,-13.53266"
                 style="fill:none;stroke:#000000;stroke-width:1px;stroke-linecap:butt;stroke-linejoin:miter;stroke-opacity:1" />
            </g>
            <g
               id="g3049"
               transform="translate(-8.968386,0)">
              <rect
                 style="fill:none;stroke:#000000;stroke-width:1;stroke-linecap:round;stroke-linejoin:round;stroke-miterlimit:4;stroke-opacity:1;stroke-dasharray:none;stroke-dashoffset:0"
                 id="rect3051"
                 width="2.6424708"
                 height="25.704035"
                 x="85.840263"
                 y="137.40849" />
              <path
                 style="fill:none;stroke:#000000;stroke-width:1px;stroke-linecap:butt;stroke-linejoin:miter;stroke-opacity:1"
                 d="m 87.161499,137.40849 0,-13.53266"
                 id="path3053"
                 inkscape:connector-curvature="0" />
            </g>
          </g>
          <g
             transform="matrix(-1,0,0,1,290.26031,0)"
             id="g3075">
            <path
               sodipodi:nodetypes="ccccccccc"
               inkscape:connector-curvature="0"
               id="path3077"
               d="m 130.0416,157.58735 c -4.19609,-0.33491 -8.1722,-0.7187 -11.97625,-1.14073 m -5.62735,-0.66597 c -2.23246,-0.28061 -4.40935,-0.57356 -6.54172,-0.87641 m -5.79849,-0.86181 c -3.945225,-0.61112 -7.764385,-1.25025 -11.534978,-1.90017 l -0.560524,0 m -2.101965,0 -6.546122,0"
               style="fill:none;stroke:#000000;stroke-width:1px;stroke-linecap:butt;stroke-linejoin:miter;stroke-opacity:1" />
            <path
               sodipodi:nodetypes="cccccccc"
               inkscape:connector-curvature="0"
               id="path3079"
               d="m 79.194052,143.01373 6.780611,-0.25348 m 2.636185,-0.20223 11.587062,-1.84852 m 5.1104,-0.81528 7.4471,-1.18806 m 4.33737,-0.69195 11.82777,-1.88692"
               style="fill:none;stroke:#000000;stroke-width:1px;stroke-linecap:butt;stroke-linejoin:miter;stroke-opacity:1" />
            <g
               id="g3081">
              <path
                 style="fill:none;stroke:#000000;stroke-width:1px;stroke-linecap:butt;stroke-linejoin:miter;stroke-opacity:1"
                 d="m 100.10679,158.74054 c 0.0217,8.04173 5.83651,8.26929 5.77539,0 l 0,-17.09969 -2.2184,-8.27919 0,-6.10267 -1.63186,0 0,6.00188 -2.150128,8.02439 z"
                 id="path3083"
                 inkscape:connector-curvature="0"
                 sodipodi:nodetypes="ccccccccc" />
              <path
                 style="fill:none;stroke:#000000;stroke-width:1px;stroke-linecap:butt;stroke-linejoin:miter;stroke-opacity:1"
                 d="m 100.10679,158.85378 5.66215,0"
                 id="path3085"
                 inkscape:connector-curvature="0" />
              <path
                 style="fill:none;stroke:#000000;stroke-width:1px;stroke-linecap:butt;stroke-linejoin:miter;stroke-opacity:1"
                 d="m 100.10679,141.98058 5.32242,0"
                 id="path3087"
                 inkscape:connector-curvature="0" />
              <path
                 style="fill:none;stroke:#000000;stroke-width:1px;stroke-linecap:butt;stroke-linejoin:miter;stroke-opacity:1"
                 d="m 102.14516,133.37411 1.13243,0"
                 id="path3089"
                 inkscape:connector-curvature="0" />
            </g>
            <g
               transform="translate(12.116998,0)"
               id="g3091">
              <path
                 sodipodi:nodetypes="ccccccccc"
                 inkscape:connector-curvature="0"
                 id="path3093"
                 d="m 100.10679,158.74054 c 0.0217,8.04173 5.83651,8.26929 5.77539,0 l 0,-17.09969 -2.2184,-8.27919 0,-6.10267 -1.63186,0 0,6.00188 -2.150128,8.02439 z"
                 style="fill:none;stroke:#000000;stroke-width:1px;stroke-linecap:butt;stroke-linejoin:miter;stroke-opacity:1" />
              <path
                 inkscape:connector-curvature="0"
                 id="path3095"
                 d="m 100.10679,158.85378 5.66215,0"
                 style="fill:none;stroke:#000000;stroke-width:1px;stroke-linecap:butt;stroke-linejoin:miter;stroke-opacity:1" />
              <path
                 inkscape:connector-curvature="0"
                 id="path3097"
                 d="m 100.10679,141.98058 5.32242,0"
                 style="fill:none;stroke:#000000;stroke-width:1px;stroke-linecap:butt;stroke-linejoin:miter;stroke-opacity:1" />
              <path
                 inkscape:connector-curvature="0"
                 id="path3099"
                 d="m 102.14516,133.37411 1.13243,0"
                 style="fill:none;stroke:#000000;stroke-width:1px;stroke-linecap:butt;stroke-linejoin:miter;stroke-opacity:1" />
            </g>
            <g
               id="g3101">
              <rect
                 style="fill:none;stroke:#000000;stroke-width:1;stroke-linecap:round;stroke-linejoin:round;stroke-miterlimit:4;stroke-opacity:1;stroke-dasharray:none;stroke-dashoffset:0"
                 id="rect3103"
                 width="2.6424708"
                 height="25.704035"
                 x="85.840263"
                 y="137.40849" />
              <path
                 style="fill:none;stroke:#000000;stroke-width:1px;stroke-linecap:butt;stroke-linejoin:miter;stroke-opacity:1"
                 d="m 87.161499,137.40849 0,-13.53266"
                 id="path3105"
                 inkscape:connector-curvature="0" />
            </g>
            <g
               transform="translate(-8.968386,0)"
               id="g3107">
              <rect
                 y="137.40849"
                 x="85.840263"
                 height="25.704035"
                 width="2.6424708"
                 id="rect3109"
                 style="fill:none;stroke:#000000;stroke-width:1;stroke-linecap:round;stroke-linejoin:round;stroke-miterlimit:4;stroke-opacity:1;stroke-dasharray:none;stroke-dashoffset:0" />
              <path
                 inkscape:connector-curvature="0"
                 id="path3111"
                 d="m 87.161499,137.40849 0,-13.53266"
                 style="fill:none;stroke:#000000;stroke-width:1px;stroke-linecap:butt;stroke-linejoin:miter;stroke-opacity:1" />
            </g>
          </g>
          <path
             style="fill:none;stroke:#000000;stroke-width:1px;stroke-linecap:butt;stroke-linejoin:miter;stroke-opacity:1"
             d="m 145.62054,25.30366 c 2.91506,-0.03604 6.92477,1.211421 8.66918,4.484193 4.10634,7.184425 8.34363,31.44986 9.12854,61.817804 l -1.12105,44.201333 c -0.10655,13.36113 -1.86944,26.24901 -4.96464,38.75624 -3.51425,11.20919 -5.56088,22.20872 -6.08569,32.99085 l -5.60524,106.49958"
             id="path3113"
             inkscape:connector-curvature="0"
             sodipodi:nodetypes="ccccccc" />
          <path
             inkscape:connector-curvature="0"
             id="path3115"
             d="m 130.34266,60.558878 30.80209,0"
             style="fill:none;stroke:#000000;stroke-width:1px;stroke-linecap:butt;stroke-linejoin:miter;stroke-opacity:1" />
          <path
             inkscape:connector-curvature="0"
             id="path3117"
             d="m 128.98375,71.430203 33.06695,0"
             style="fill:none;stroke:#000000;stroke-width:1px;stroke-linecap:butt;stroke-linejoin:miter;stroke-opacity:1" />
          <path
             sodipodi:nodetypes="ccccccccc"
             inkscape:connector-curvature="0"
             id="path3119"
             d="m 158.20044,90.568266 -25.47967,0 0,-12.230241 5.43566,0 2.49134,-2.491346 8.83296,0 2.19197,2.664186 6.52773,0 z"
             style="fill:none;stroke:#000000;stroke-width:1px;stroke-linecap:butt;stroke-linejoin:miter;stroke-opacity:1" />
          <path
             inkscape:connector-curvature="0"
             id="path3121"
             d="m 137.24834,78.473377 0,11.851082"
             style="fill:none;stroke:#000000;stroke-width:1px;stroke-linecap:butt;stroke-linejoin:miter;stroke-opacity:1" />
          <path
             inkscape:connector-curvature="0"
             id="path3123"
             d="m 153.82384,78.633527 0,11.771007"
             style="fill:none;stroke:#000000;stroke-width:1px;stroke-linecap:butt;stroke-linejoin:miter;stroke-opacity:1" />
          <path
             d="m 147.81823,81.676369 c 0,3.139913 -1.29063,5.685316 -2.8827,5.685316 -1.59207,0 -2.88269,-2.545403 -2.88269,-5.685316 0,-3.139914 1.29062,-5.685316 2.88269,-5.685316 1.59207,0 2.8827,2.545402 2.8827,5.685316 z"
             sodipodi:ry="5.6853161"
             sodipodi:rx="2.8826954"
             sodipodi:cy="81.676369"
             sodipodi:cx="144.93553"
             id="path3125"
             style="fill:none;stroke:#000000;stroke-width:1;stroke-linecap:round;stroke-linejoin:round;stroke-miterlimit:4;stroke-opacity:1;stroke-dasharray:none;stroke-dashoffset:0"
             sodipodi:type="arc" />
          <path
             inkscape:connector-curvature="0"
             id="path3127"
             d="m 128.36003,95.529326 34.99272,0"
             style="fill:none;stroke:#000000;stroke-width:1px;stroke-linecap:butt;stroke-linejoin:miter;stroke-opacity:1" />
          <path
             transform="translate(0.16014975,0.80074875)"
             d="m 140.69155,47.884773 c 0,6.368275 -1.29063,11.530782 -2.8827,11.530782 -1.59207,0 -2.88269,-5.162507 -2.88269,-11.530782 0,-6.368275 1.29062,-11.530781 2.88269,-11.530781 1.59207,0 2.8827,5.162506 2.8827,11.530781 z"
             sodipodi:ry="11.530782"
             sodipodi:rx="2.8826954"
             sodipodi:cy="47.884773"
             sodipodi:cx="137.80885"
             id="path3129"
             style="fill:none;stroke:#000000;stroke-width:1;stroke-linecap:round;stroke-linejoin:round;stroke-miterlimit:4;stroke-opacity:1;stroke-dasharray:none;stroke-dashoffset:0"
             sodipodi:type="arc" />
          <path
             inkscape:connector-curvature="0"
             id="path3131"
             d="m 135.88706,55.411813 4.1639,0"
             style="fill:none;stroke:#000000;stroke-width:1px;stroke-linecap:butt;stroke-linejoin:miter;stroke-opacity:1" />
          <path
             inkscape:connector-curvature="0"
             id="path3133"
             d="m 135.32654,49.566347 5.44509,0"
             style="fill:none;stroke:#000000;stroke-width:1px;stroke-linecap:butt;stroke-linejoin:miter;stroke-opacity:1" />
          <path
             inkscape:connector-curvature="0"
             id="path3135"
             d="m 135.80699,42.359608 4.40412,0"
             style="fill:none;stroke:#000000;stroke-width:1px;stroke-linecap:butt;stroke-linejoin:miter;stroke-opacity:1" />
          <path
             transform="translate(0.3202995,0)"
             d="m 151.42158,31.389351 c 0,2.963017 -2.86805,5.365016 -6.40599,5.365016 -3.53793,0 -6.40599,-2.401999 -6.40599,-5.365016 0,-2.963017 2.86806,-5.365017 6.40599,-5.365017 3.53794,0 6.40599,2.402 6.40599,5.365017 z"
             sodipodi:ry="5.3650165"
             sodipodi:rx="6.4059901"
             sodipodi:cy="31.389351"
             sodipodi:cx="145.01559"
             id="path3137"
             style="fill:none;stroke:#000000;stroke-width:1;stroke-linecap:round;stroke-linejoin:round;stroke-miterlimit:4;stroke-opacity:1;stroke-dasharray:none;stroke-dashoffset:0"
             sodipodi:type="arc" />
          <path
             transform="matrix(0.99197885,0.12640393,-0.12640393,0.99197885,7.6770709,-18.844793)"
             d="m 150.54076,50.046795 c 0,2.963017 -0.93212,5.365016 -2.08194,5.365016 -1.14983,0 -2.08195,-2.401999 -2.08195,-5.365016 0,-2.963017 0.93212,-5.365017 2.08195,-5.365017 1.14982,0 2.08194,2.402 2.08194,5.365017 z"
             sodipodi:ry="5.3650165"
             sodipodi:rx="2.0819468"
             sodipodi:cy="50.046795"
             sodipodi:cx="148.45882"
             id="path3139"
             style="fill:none;stroke:#000000;stroke-width:1;stroke-linecap:round;stroke-linejoin:round;stroke-miterlimit:4;stroke-opacity:1;stroke-dasharray:none;stroke-dashoffset:0"
             sodipodi:type="arc" />
          <path
             inkscape:connector-curvature="0"
             id="path3141"
             d="m 149.09942,36.193843 0,7.527038"
             style="fill:none;stroke:#000000;stroke-width:1px;stroke-linecap:butt;stroke-linejoin:miter;stroke-opacity:1" />
          <path
             sodipodi:nodetypes="csc"
             inkscape:connector-curvature="0"
             id="path3143"
             d="m 149.90017,53.409941 c 1.0776,8.956074 4.16456,9.964203 4.71354,-4.560641 0.1515,-4.00845 -0.82401,-9.900521 -3.19212,-15.217853"
             style="fill:none;stroke:#000000;stroke-width:1px;stroke-linecap:butt;stroke-linejoin:miter;stroke-opacity:1" />
          <path
             sodipodi:nodetypes="ccc"
             inkscape:connector-curvature="0"
             id="path3145"
             d="m 142.91263,163.60998 0,-28.08425 c -1.21088,-2.07612 -2.60241,-4.15225 0,-6.22837"
             style="fill:none;stroke:#000000;stroke-width:1px;stroke-linecap:butt;stroke-linejoin:miter;stroke-opacity:1" />
          <path
             style="fill:none;stroke:#000000;stroke-width:1px;stroke-linecap:butt;stroke-linejoin:miter;stroke-opacity:1"
             d="m 148.34563,163.60998 0,-28.08425 c 1.21088,-2.07612 2.60241,-4.15225 0,-6.22837"
             id="path3147"
             inkscape:connector-curvature="0"
             sodipodi:nodetypes="ccc" />
          <path
             sodipodi:nodetypes="cc"
             inkscape:connector-curvature="0"
             id="path3149"
             d="m 129.54996,142.09382 c 3.81768,3.3196 8.33781,5.0587 13.36267,5.66215"
             style="fill:none;stroke:#000000;stroke-width:1px;stroke-linecap:butt;stroke-linejoin:miter;stroke-opacity:1" />
          <path
             style="fill:none;stroke:#000000;stroke-width:1px;stroke-linecap:butt;stroke-linejoin:miter;stroke-opacity:1"
             d="m 161.93745,142.09382 c -3.81768,3.3196 -8.33781,5.0587 -13.36267,5.66215"
             id="path3151"
             inkscape:connector-curvature="0"
             sodipodi:nodetypes="cc" />
          <path
             inkscape:connector-curvature="0"
             id="path3153"
             d="m 129.09699,135.29924 33.29344,0"
             style="fill:none;stroke:#000000;stroke-width:1px;stroke-linecap:butt;stroke-linejoin:miter;stroke-opacity:1" />
          <path
             sodipodi:nodetypes="cc"
             inkscape:connector-curvature="0"
             id="path3155"
             d="m 131.13536,158.28756 c 8.9305,6.91017 18.58915,7.87383 29.32994,0"
             style="fill:none;stroke:#000000;stroke-width:1px;stroke-linecap:butt;stroke-linejoin:miter;stroke-opacity:1" />
          <g
             id="g3161">
            <path
               style="fill:none;stroke:#000000;stroke-width:1px;stroke-linecap:butt;stroke-linejoin:miter;stroke-opacity:1"
               d="m 129.88969,151.83272 c 4.50544,-6.0999 12.74419,1.92636 12.85308,3.87856"
               id="path3157"
               inkscape:connector-curvature="0"
               sodipodi:nodetypes="cc" />
            <path
               style="fill:none;stroke:#000000;stroke-width:1px;stroke-linecap:butt;stroke-linejoin:miter;stroke-opacity:1"
               d="m 142.65784,156.02271 c -3.85479,2.73284 -11.76124,1.69179 -12.62861,-4.10992"
               id="path3159"
               inkscape:connector-curvature="0"
               sodipodi:nodetypes="cc" />
          </g>
          <g
             transform="matrix(-1,0,0,1,291.12976,0)"
             id="g3165">
            <path
               sodipodi:nodetypes="cc"
               inkscape:connector-curvature="0"
               id="path3167"
               d="m 129.88969,151.83272 c 4.50544,-6.0999 12.74419,1.92636 12.85308,3.87856"
               style="fill:none;stroke:#000000;stroke-width:1px;stroke-linecap:butt;stroke-linejoin:miter;stroke-opacity:1" />
            <path
               sodipodi:nodetypes="cc"
               inkscape:connector-curvature="0"
               id="path3169"
               d="m 142.65784,156.02271 c -3.85479,2.73284 -11.76124,1.69179 -12.62861,-4.10992"
               style="fill:none;stroke:#000000;stroke-width:1px;stroke-linecap:butt;stroke-linejoin:miter;stroke-opacity:1" />
          </g>
          <path
             inkscape:connector-curvature="0"
             id="path3171"
             d="m 138.09981,188.63668 15.17456,0"
             style="fill:none;stroke:#000000;stroke-width:1px;stroke-linecap:butt;stroke-linejoin:miter;stroke-opacity:1" />
          <path
             sodipodi:nodetypes="cc"
             inkscape:connector-curvature="0"
             id="path3173"
             d="m 135.15549,177.70873 c 7.24184,5.18481 14.53851,5.32714 21.17644,-0.0566"
             style="fill:none;stroke:#000000;stroke-width:1px;stroke-linecap:butt;stroke-linejoin:miter;stroke-opacity:1" />
          <path
             inkscape:connector-curvature="0"
             id="path3175"
             d="m 137.92994,179.29414 0,-14.15538 15.0047,0 0,14.49511"
             style="fill:none;stroke:#000000;stroke-width:1px;stroke-linecap:butt;stroke-linejoin:miter;stroke-opacity:1" />
          <path
             sodipodi:nodetypes="ccc"
             inkscape:connector-curvature="0"
             id="path3177"
             d="m 146.21672,308.72868 c 2.15592,-3.80409 6.37883,-7.49505 5.76539,-11.45071 0.0865,-2.18657 -0.92965,-3.68071 -5.40505,-3.0028"
             style="fill:none;stroke:#000000;stroke-width:1px;stroke-linecap:butt;stroke-linejoin:miter;stroke-opacity:1" />
          <path
             inkscape:connector-curvature="0"
             id="path3179"
             d="m 152.14226,296.43719 3.44322,0"
             style="fill:none;stroke:#000000;stroke-width:1px;stroke-linecap:butt;stroke-linejoin:miter;stroke-opacity:1" />
          <path
             inkscape:connector-curvature="0"
             id="path3181"
             d="m 155.10503,313.09276 0,-35.87354"
             style="fill:none;stroke:#000000;stroke-width:1px;stroke-linecap:butt;stroke-linejoin:miter;stroke-opacity:1" />
          <path
             inkscape:connector-curvature="0"
             id="path3183"
             d="m 146.08344,215.19216 0,4.69958"
             style="fill:none;stroke:#000000;stroke-width:1px;stroke-linecap:butt;stroke-linejoin:miter;stroke-opacity:1" />
          <path
             inkscape:connector-curvature="0"
             id="path3185"
             d="m 146.14006,222.32647 0,1.5854"
             style="fill:none;stroke:#000000;stroke-width:1px;stroke-linecap:butt;stroke-linejoin:miter;stroke-opacity:1" />
          <path
             sodipodi:nodetypes="ccccc"
             inkscape:connector-curvature="0"
             id="path3187"
             d="m 143.81448,28.346505 0,-15.694675 c 0.80075,-1.661232 1.60149,-1.088936 2.40224,0 l 0,15.77475 c -1.4192,1.519439 -1.78544,0.406487 -2.40224,-0.08008 z"
             style="fill:#000000;stroke:#000000;stroke-width:1px;stroke-linecap:butt;stroke-linejoin:miter;stroke-opacity:1" />
          <path
             inkscape:connector-curvature="0"
             id="path3189"
             d="m 138.92991,28.74688 0,-17.616473"
             style="fill:none;stroke:#000000;stroke-width:1px;stroke-linecap:butt;stroke-linejoin:miter;stroke-opacity:1" />
          <path
             inkscape:connector-curvature="0"
             id="path3191"
             d="M 128.7604,78.313228 C 127.63935,73.348585 96.5703,9.1285354 96.5703,9.1285354 L 90.484609,12.171381 127.4792,91.765807"
             style="fill:none;stroke:#000000;stroke-width:1px;stroke-linecap:butt;stroke-linejoin:round;stroke-opacity:1" />
          <path
             sodipodi:nodetypes="cccc"
             inkscape:connector-curvature="0"
             id="path3193"
             d="m 105.03478,26.137577 1.94525,-1.074142 4.64435,9.448836 -1.9218,1.121048"
             style="fill:none;stroke:#000000;stroke-width:1px;stroke-linecap:butt;stroke-linejoin:round;stroke-opacity:1" />
          <path
             inkscape:connector-curvature="0"
             id="path3963"
             d="m 163.06988,109.70633 75.23295,-66.946347 4.16389,4.964642 -79.75457,71.586935"
             style="fill:none;stroke:#000000;stroke-width:1px;stroke-linecap:butt;stroke-linejoin:miter;stroke-opacity:1" />
          <path
             inkscape:connector-curvature="0"
             id="path3965"
             d="m 224.5042,64.352517 1.69864,1.755266 7.53066,-7.474036 -1.41554,-1.868509"
             style="fill:none;stroke:#000000;stroke-width:1px;stroke-linecap:butt;stroke-linejoin:round;stroke-opacity:1" />
          <path
             sodipodi:nodetypes="cc"
             inkscape:connector-curvature="0"
             id="path3967"
             d="m 130.12167,102.81614 c -4.27486,1.56345 -5.63391,4.78727 -5.44509,8.00749"
             style="fill:none;stroke:#000000;stroke-width:1px;stroke-linecap:round;stroke-linejoin:miter;stroke-opacity:1" />
          <path
             style="fill:none;stroke:#000000;stroke-width:1px;stroke-linecap:round;stroke-linejoin:miter;stroke-opacity:1"
             d="m 160.69329,102.81614 c 4.27486,1.56345 5.63391,4.78727 5.44509,8.00749"
             id="path3969"
             inkscape:connector-curvature="0"
             sodipodi:nodetypes="cc" />
          <path
             sodipodi:nodetypes="cccccccc"
             inkscape:connector-curvature="0"
             id="path3971"
             d="m 128.53078,124.3996 -110.525147,9.08775 0.452972,6.45485 83.331885,-7.19412 m 1.9865,-0.1715 10.26001,-0.88575 m 1.86439,-0.16096 12.74263,-1.10008"
             style="fill:none;stroke:#000000;stroke-width:1px;stroke-linecap:butt;stroke-linejoin:round;stroke-opacity:1" />
          <path
             inkscape:connector-curvature="0"
             id="path3973"
             d="m 39.837251,131.36283 -0.04004,-2.24209 c 0,0 12.852018,-1.24116 12.892055,-1.00094 0.04004,0.24022 0.200187,2.44228 0.200187,2.44228"
             style="fill:none;stroke:#000000;stroke-width:1px;stroke-linecap:butt;stroke-linejoin:round;stroke-opacity:1" />
          <path
             sodipodi:nodetypes="cccccc"
             inkscape:connector-curvature="0"
             id="path3975"
             d="m 192.85279,153.75785 8.87163,5.19479 m 2.77994,1.63614 51.65125,30.426 -3.05756,5.20918 -62.73661,-38.16288"
             style="fill:none;stroke:#000000;stroke-width:1px;stroke-linecap:round;stroke-linejoin:round;stroke-opacity:1" />
          <path
             inkscape:connector-curvature="0"
             id="path3977"
             d="m 228.41108,181.61562 -1.13243,2.03837 10.07862,5.88864 1.47216,-1.69865"
             style="fill:none;stroke:#000000;stroke-width:1px;stroke-linecap:butt;stroke-linejoin:round;stroke-opacity:1" />
          <path
             inkscape:connector-curvature="0"
             id="path3979"
             d="m 134.20549,175.20383 -18.89767,73.82903 6.72629,1.9218 14.89393,-64.0599"
             style="fill:none;stroke:#000000;stroke-width:1px;stroke-linecap:butt;stroke-linejoin:round;stroke-opacity:1" />
          <path
             inkscape:connector-curvature="0"
             id="path3981"
             d="m 119.59183,231.77673 -2.16203,-0.88083 3.44322,-10.68999 1.44135,0.44041"
             style="fill:none;stroke:#000000;stroke-width:1px;stroke-linecap:butt;stroke-linejoin:round;stroke-opacity:1" />
          <path
             style="fill:none;stroke:#000000;stroke-width:1px;stroke-linecap:butt;stroke-linejoin:miter;stroke-opacity:1"
             d="m 268.57113,278.41033 0.92086,-1.59149"
             id="path4226"
             inkscape:connector-curvature="0"
             sodipodi:nodetypes="cc" />
        </g>
      </g>
      <g
         id="g4641" />
    </g>
  </g>
</svg>
