# 3ds Max Wavefront OBJ Exporter v0.97b - (c)2007 guruware
# File Created: 05.07.2013 00:10:07

mtllib sack of gold2.mtl

#
# object Sphere003
#

v  -9.2697 58.9283 0.0960
v  -15.3903 62.1225 -23.2766
v  -26.3509 61.3049 -8.8586
v  -26.3578 58.6641 9.1012
v  -15.4021 56.4282 23.8126
v  0.9586 57.2062 29.4882
v  16.7914 60.3485 23.8127
v  3.5134 62.7261 11.3966
v  26.8950 64.3316 9.1015
v  13.3506 66.0193 6.1324
v  -2.7391 61.4989 -3.9876
v  0.9639 63.3205 -28.7703
v  0.7054 56.7184 -42.2658
v  -24.0016 56.9973 -34.1962
v  -22.0620 62.4284 -32.1423
v  0.9448 62.6037 -39.7266
v  -41.1912 58.1237 -13.0481
v  -38.2950 63.4601 -12.2600
v  -41.2736 54.7246 13.3194
v  -38.3127 59.9341 12.5465
v  -24.1365 51.6851 35.0456
v  -22.0912 56.3994 32.9859
v  0.6617 52.8029 43.4777
v  0.9348 57.5786 40.9156
v  24.5780 55.3711 35.0456
v  22.9742 61.3623 32.9859
v  40.3022 59.0798 13.3213
v  37.6027 66.2185 12.5469
v  40.3021 62.6286 -13.0354
v  37.6027 69.7768 -12.2572
v  24.5799 60.9249 -34.1788
v  22.9747 67.4433 -32.1386
v  0.5212 52.4030 -36.3796
v  0.1395 34.9388 -43.0538
v  -25.5119 35.4102 -34.8390
v  -20.7368 52.1314 -29.4372
v  -42.7273 36.2695 -13.2994
v  -34.9712 52.0322 -11.2265
v  -43.1545 34.8771 13.3970
v  -35.0761 49.3649 11.4420
v  -26.2121 33.8121 35.2023
v  -20.9112 47.2263 30.0356
v  -0.0891 34.0641 43.6089
v  0.4558 47.8132 37.2219
v  25.5090 33.5021 35.2024
v  21.2742 49.5529 30.0357
v  41.6767 33.6819 13.4071
v  34.5749 52.3209 11.4454
v  41.6767 35.8504 -13.2335
v  34.5750 55.1787 -11.2094
v  25.5194 36.3531 -34.7488
v  21.2795 54.7649 -29.4151
v  -13.8197 0.1781 -19.0211
v  -22.5706 7.9570 -30.3766
v  -0.0972 7.6680 -37.5375
v  0.0000 0.1781 -23.5114
v  -22.3607 0.1781 -7.2654
v  -37.0589 8.7125 -11.6074
v  -22.3607 0.1781 7.2654
v  -37.3586 9.1294 11.5512
v  -13.8197 0.1781 19.0211
v  -23.0680 9.0970 30.2774
v  0.0000 0.1781 23.5114
v  -0.2821 8.7882 37.4330
v  13.8197 0.1781 19.0211
v  22.2802 7.9352 30.2778
v  22.3607 0.1781 7.2654
v  36.2751 7.1050 11.5608
v  22.3607 0.1781 -7.2654
v  36.2752 7.2322 -11.5586
v  13.8196 0.1781 -19.0211
v  22.2949 7.6719 -30.3131
v  -0.0009 0.1972 -0.0001
v  -26.6822 21.3944 -36.0002
v  -0.0145 20.8929 -44.4874
v  -44.5577 22.6775 -13.7465
v  -45.1584 22.6041 13.7345
v  -27.6654 22.2371 36.0510
v  -0.3286 22.0735 44.6153
v  26.5272 20.6250 36.0511
v  43.3422 19.4752 13.7481
v  43.3422 20.6398 -13.6544
v  26.5401 21.5448 -35.8732
v  -18.4876 64.9631 -27.7503
v  1.0992 65.8925 -34.2976
v  -32.1357 65.0870 -10.5748
v  -32.1375 61.9241 10.8439
v  -18.4907 58.7832 28.4442
v  1.0980 59.8565 35.2542
v  19.8411 63.9821 28.4442
v  32.1201 69.0348 10.8439
v  32.1201 72.2010 -10.5745
v  19.8412 70.1673 -27.7500
v  26.8951 66.9848 -8.8574
v  16.7922 66.0627 -23.2752
# 95 vertices

vn -0.1305 0.9855 0.1087
vn 0.1453 0.9459 0.2900
vn 0.3207 0.9268 0.1954
vn 0.3152 0.9486 0.0286
vn 0.1470 0.9800 -0.1340
vn -0.1325 0.9757 -0.1745
vn -0.3247 0.9431 -0.0715
vn -0.2863 0.9381 0.1950
vn -0.3841 0.9214 0.0597
vn -0.1068 0.9832 0.1478
vn -0.3072 0.9514 0.0223
vn -0.1326 0.9480 0.2894
vn -0.0487 0.4005 -0.9150
vn -0.4985 0.4562 -0.7371
vn -0.3952 0.6965 -0.5989
vn -0.0523 0.6183 -0.7842
vn -0.8323 0.4926 -0.2543
vn -0.6176 0.7643 -0.1855
vn -0.7858 0.5055 0.3564
vn -0.5993 0.7386 0.3087
vn -0.4859 0.5164 0.7051
vn -0.3737 0.7206 0.5841
vn -0.0561 0.4684 0.8817
vn -0.0594 0.7005 0.7112
vn 0.4914 0.3930 0.7772
vn 0.3647 0.6569 0.6599
vn 0.8612 0.3632 0.3557
vn 0.6944 0.6435 0.3220
vn 0.8891 0.3674 -0.2731
vn 0.7038 0.6766 -0.2167
vn 0.4928 0.3711 -0.7871
vn 0.3786 0.6465 -0.6624
vn 0.0065 0.3578 -0.9338
vn -0.0008 0.2230 -0.9748
vn -0.5494 0.2508 -0.7970
vn -0.5224 0.3935 -0.7565
vn -0.9013 0.2981 -0.3144
vn -0.8451 0.4461 -0.2947
vn -0.8942 0.3217 0.3113
vn -0.8206 0.4844 0.3033
vn -0.5462 0.2947 0.7841
vn -0.4975 0.4716 0.7281
vn 0.0020 0.2480 0.9688
vn 0.0050 0.4260 0.9047
vn 0.5660 0.2321 0.7911
vn 0.5365 0.3894 0.7487
vn 0.9195 0.2335 0.3162
vn 0.8773 0.3730 0.3020
vn 0.9256 0.2335 -0.2978
vn 0.8869 0.3606 -0.2886
vn 0.5633 0.2249 -0.7951
vn 0.5441 0.3467 -0.7641
vn -0.2794 -0.8799 -0.3844
vn -0.4318 -0.6748 -0.5985
vn -0.0031 -0.6769 -0.7361
vn 0.0004 -0.8822 -0.4708
vn -0.4605 -0.8753 -0.1473
vn -0.6942 -0.6812 -0.2322
vn -0.4696 -0.8682 0.1603
vn -0.6882 -0.6862 0.2356
vn -0.2970 -0.8537 0.4278
vn -0.4284 -0.6690 0.6074
vn 0.0002 -0.8497 0.5273
vn -0.0129 -0.6645 0.7472
vn 0.2757 -0.8710 0.4065
vn 0.4029 -0.6881 0.6035
vn 0.4123 -0.8983 0.1519
vn 0.6651 -0.7111 0.2281
vn 0.4125 -0.9005 -0.1377
vn 0.6809 -0.6931 -0.2364
vn 0.2639 -0.8860 -0.3813
vn 0.4280 -0.6714 -0.6050
vn 0.0000 -1.0000 0.0000
vn 0.0005 -1.0000 0.0007
vn -0.0000 -1.0000 0.0008
vn 0.0008 -1.0000 0.0003
vn 0.0008 -1.0000 -0.0003
vn 0.0005 -1.0000 -0.0007
vn -0.0000 -1.0000 -0.0008
vn -0.0005 -1.0000 -0.0007
vn -0.0008 -1.0000 -0.0003
vn -0.0008 -1.0000 0.0003
vn -0.0005 -1.0000 0.0007
vn -0.5638 -0.1738 -0.8074
vn 0.0004 -0.1818 -0.9833
vn -0.9302 -0.1666 -0.3271
vn -0.9357 -0.1726 0.3078
vn -0.5694 -0.1812 0.8019
vn -0.0038 -0.1903 0.9817
vn 0.5648 -0.1944 0.8020
vn 0.9292 -0.2039 0.3082
vn 0.9315 -0.1846 -0.3135
vn 0.5741 -0.1698 -0.8010
vn 0.0323 -0.8034 -0.5945
vn -0.3777 -0.7605 -0.5282
vn -0.3764 -0.7681 -0.5181
vn 0.0607 -0.7963 -0.6019
vn -0.6301 -0.7275 -0.2716
vn -0.6288 -0.7307 -0.2660
vn -0.6237 -0.7699 0.1350
vn -0.6339 -0.7661 0.1062
vn -0.3716 -0.7975 0.4753
vn -0.3669 -0.7990 0.4765
vn 0.0447 -0.7779 0.6267
vn 0.0675 -0.7832 0.6181
vn 0.4756 -0.7119 0.5168
vn 0.4849 -0.7166 0.5014
vn 0.7319 -0.6624 0.1596
vn 0.7374 -0.6633 0.1277
vn 0.7299 -0.6325 -0.2591
vn 0.7301 -0.6289 -0.2672
vn 0.4761 -0.6916 -0.5432
vn 0.4973 -0.6759 -0.5439
vn -0.2346 0.9080 -0.3471
vn -0.1040 0.8514 -0.5141
vn -0.2530 0.9663 -0.0474
vn -0.2411 0.9422 0.2326
vn -0.1882 0.9230 0.3357
vn -0.1186 0.9228 0.3667
vn 0.1073 0.8967 0.4295
vn 0.3635 0.8909 0.2724
vn 0.3751 0.9214 -0.1014
vn 0.1612 0.8866 -0.4335
vn -0.1383 0.8963 0.4212
vn 0.2466 0.8809 0.4039
vn 0.4817 0.8440 0.2358
vn 0.4847 0.8745 -0.0187
vn 0.2635 0.9188 -0.2940
vn -0.1261 0.8998 -0.4178
vn -0.4876 0.8127 -0.3189
vn -0.6613 0.7491 -0.0390
vn -0.6404 0.7310 0.2356
vn -0.4221 0.8911 0.1664
vn -0.4542 0.7958 0.4005
vn -0.3488 0.8986 0.2663
# 135 vertex normals

vt 0.8468 0.9050 0.0000
vt 0.9667 0.9102 0.0000
vt 0.9080 0.9753 0.0000
vt 0.8215 0.9942 0.0000
vt 0.7402 0.9595 0.0000
vt 0.6952 0.8847 0.0000
vt 0.7036 0.7981 0.0000
vt 0.7782 0.8541 0.0000
vt 0.7623 0.7330 0.0000
vt 0.7918 0.7974 0.0000
vt 0.8593 0.8690 0.0000
vt 0.9752 0.8236 0.0000
vt 0.0058 0.5690 0.0000
vt 0.1045 0.5690 0.0000
vt 0.1045 0.6022 0.0000
vt 0.0058 0.6022 0.0000
vt 0.2032 0.5690 0.0000
vt 0.2032 0.6022 0.0000
vt 0.3019 0.5690 0.0000
vt 0.3019 0.6022 0.0000
vt 0.4006 0.5690 0.0000
vt 0.4006 0.6022 0.0000
vt 0.4993 0.5690 0.0000
vt 0.4993 0.6022 0.0000
vt 0.5980 0.5690 0.0000
vt 0.5980 0.6022 0.0000
vt 0.6967 0.5690 0.0000
vt 0.6967 0.6022 0.0000
vt 0.7954 0.5690 0.0000
vt 0.7954 0.6022 0.0000
vt 0.8941 0.5690 0.0000
vt 0.8941 0.6022 0.0000
vt 0.9927 0.5690 0.0000
vt 0.9927 0.6022 0.0000
vt 0.0058 0.5132 0.0000
vt 0.0058 0.4318 0.0000
vt 0.1045 0.4318 0.0000
vt 0.1045 0.5132 0.0000
vt 0.2032 0.4318 0.0000
vt 0.2032 0.5132 0.0000
vt 0.3019 0.4318 0.0000
vt 0.3019 0.5132 0.0000
vt 0.4006 0.4318 0.0000
vt 0.4006 0.5132 0.0000
vt 0.4993 0.4318 0.0000
vt 0.4993 0.5132 0.0000
vt 0.5980 0.4318 0.0000
vt 0.5980 0.5132 0.0000
vt 0.6967 0.4318 0.0000
vt 0.6967 0.5132 0.0000
vt 0.7954 0.4318 0.0000
vt 0.7954 0.5132 0.0000
vt 0.8941 0.4318 0.0000
vt 0.8941 0.5132 0.0000
vt 0.9927 0.4318 0.0000
vt 0.9927 0.5132 0.0000
vt 0.1045 0.1633 0.0000
vt 0.1045 0.2768 0.0000
vt 0.0058 0.2768 0.0000
vt 0.0058 0.1633 0.0000
vt 0.2032 0.1633 0.0000
vt 0.2032 0.2768 0.0000
vt 0.3019 0.1633 0.0000
vt 0.3019 0.2768 0.0000
vt 0.4006 0.1633 0.0000
vt 0.4006 0.2768 0.0000
vt 0.4993 0.1633 0.0000
vt 0.4993 0.2768 0.0000
vt 0.5980 0.1633 0.0000
vt 0.5980 0.2768 0.0000
vt 0.6967 0.1633 0.0000
vt 0.6967 0.2768 0.0000
vt 0.7954 0.1633 0.0000
vt 0.7954 0.2768 0.0000
vt 0.8941 0.1633 0.0000
vt 0.8941 0.2768 0.0000
vt 0.9927 0.1633 0.0000
vt 0.9927 0.2768 0.0000
vt 0.5332 0.0197 0.0000
vt 0.1045 0.3602 0.0000
vt 0.0058 0.3602 0.0000
vt 0.2032 0.3602 0.0000
vt 0.3019 0.3602 0.0000
vt 0.4006 0.3602 0.0000
vt 0.4993 0.3602 0.0000
vt 0.5980 0.3602 0.0000
vt 0.6967 0.3602 0.0000
vt 0.7954 0.3602 0.0000
vt 0.8941 0.3602 0.0000
vt 0.9927 0.3602 0.0000
vt 0.1045 0.6279 0.0000
vt 0.0058 0.6279 0.0000
vt 0.2032 0.6279 0.0000
vt 0.3019 0.6279 0.0000
vt 0.4006 0.6279 0.0000
vt 0.4993 0.6279 0.0000
vt 0.5980 0.6279 0.0000
vt 0.6967 0.6279 0.0000
vt 0.7954 0.6279 0.0000
vt 0.8941 0.6279 0.0000
vt 0.9927 0.6279 0.0000
vt 0.1045 0.7094 0.0000
vt 0.0058 0.7094 0.0000
vt 0.2032 0.7094 0.0000
vt 0.3019 0.7094 0.0000
vt 0.4006 0.7094 0.0000
vt 0.4993 0.7094 0.0000
vt 0.5980 0.7094 0.0000
vt 0.6967 0.7094 0.0000
vt 0.7954 0.7094 0.0000
vt 0.8941 0.7094 0.0000
vt 0.9927 0.7094 0.0000
vt 0.8489 0.7141 0.0000
vt 0.9302 0.7488 0.0000
# 114 texture coords

g Sphere003
usemtl 01___Default
s 1
f 1/1/1 2/2/2 3/3/3 
f 1/1/1 3/3/3 4/4/4 
f 1/1/1 4/4/4 5/5/5 
f 1/1/1 5/5/5 6/6/6 
f 6/6/6 7/7/7 8/8/8 1/1/1 
f 7/7/7 9/9/9 10/10/10 8/8/8 
f 1/1/1 11/11/11 12/12/12 2/2/2 
s 2
f 13/13/13 14/14/14 15/15/15 16/16/16 
f 14/14/14 17/17/17 18/18/18 15/15/15 
f 17/17/17 19/19/19 20/20/20 18/18/18 
f 19/19/19 21/21/21 22/22/22 20/20/20 
f 21/21/21 23/23/23 24/24/24 22/22/22 
f 23/23/23 25/25/25 26/26/26 24/24/24 
f 25/25/25 27/27/27 28/28/28 26/26/26 
f 27/27/27 29/29/29 30/30/30 28/28/28 
f 29/29/29 31/31/31 32/32/32 30/30/30 
f 31/31/31 13/33/13 16/34/16 32/32/32 
s 1
f 33/35/33 34/36/34 35/37/35 36/38/36 
f 35/37/35 37/39/37 38/40/38 36/38/36 
f 37/39/37 39/41/39 40/42/40 38/40/38 
f 39/41/39 41/43/41 42/44/42 40/42/40 
f 41/43/41 43/45/43 44/46/44 42/44/42 
f 43/45/43 45/47/45 46/48/46 44/46/44 
f 45/47/45 47/49/47 48/50/48 46/48/46 
f 47/49/47 49/51/49 50/52/50 48/50/48 
f 49/51/49 51/53/51 52/54/52 50/52/50 
f 51/53/51 34/55/34 33/56/33 52/54/52 
f 53/57/53 54/58/54 55/59/55 56/60/56 
f 57/61/57 58/62/58 54/58/54 53/57/53 
f 59/63/59 60/64/60 58/62/58 57/61/57 
f 61/65/61 62/66/62 60/64/60 59/63/59 
f 63/67/63 64/68/64 62/66/62 61/65/61 
f 65/69/65 66/70/66 64/68/64 63/67/63 
f 67/71/67 68/72/68 66/70/66 65/69/65 
f 69/73/69 70/74/70 68/72/68 67/71/67 
f 71/75/71 72/76/72 70/74/70 69/73/69 
f 56/77/56 55/78/55 72/76/72 71/75/71 
s 2
f 73/79/73 53/57/74 56/60/75 
f 73/79/73 57/61/76 53/57/74 
f 73/79/73 59/63/77 57/61/76 
f 73/79/73 61/65/78 59/63/77 
f 73/79/73 63/67/79 61/65/78 
f 73/79/73 65/69/80 63/67/79 
f 73/79/73 67/71/81 65/69/80 
f 73/79/73 69/73/82 67/71/81 
f 73/79/73 71/75/83 69/73/82 
f 73/79/73 56/77/75 71/75/83 
s 1
f 55/59/55 54/58/54 74/80/84 75/81/85 
f 54/58/54 58/62/58 76/82/86 74/80/84 
f 58/62/58 60/64/60 77/83/87 76/82/86 
f 60/64/60 62/66/62 78/84/88 77/83/87 
f 62/66/62 64/68/64 79/85/89 78/84/88 
f 64/68/64 66/70/66 80/86/90 79/85/89 
f 66/70/66 68/72/68 81/87/91 80/86/90 
f 68/72/68 70/74/70 82/88/92 81/87/91 
f 70/74/70 72/76/72 83/89/93 82/88/92 
f 72/76/72 55/78/55 75/90/85 83/89/93 
f 75/81/85 74/80/84 35/37/35 34/36/34 
f 74/80/84 76/82/86 37/39/37 35/37/35 
f 76/82/86 77/83/87 39/41/39 37/39/37 
f 77/83/87 78/84/88 41/43/41 39/41/39 
f 78/84/88 79/85/89 43/45/43 41/43/41 
f 79/85/89 80/86/90 45/47/45 43/45/43 
f 80/86/90 81/87/91 47/49/47 45/47/45 
f 81/87/91 82/88/92 49/51/49 47/49/47 
f 82/88/92 83/89/93 51/53/51 49/51/49 
f 83/89/93 75/90/85 34/55/34 51/53/51 
s 4
f 33/35/94 36/38/95 14/14/96 13/13/97 
f 36/38/95 38/40/98 17/17/99 14/14/96 
f 38/40/98 40/42/100 19/19/101 17/17/99 
f 40/42/100 42/44/102 21/21/103 19/19/101 
f 42/44/102 44/46/104 23/23/105 21/21/103 
f 44/46/104 46/48/106 25/25/107 23/23/105 
f 46/48/106 48/50/108 27/27/109 25/25/107 
f 48/50/108 50/52/110 29/29/111 27/27/109 
f 50/52/110 52/54/112 31/31/113 29/29/111 
f 52/54/112 33/56/94 13/33/97 31/31/113 
s 2
f 16/16/16 15/15/15 84/91/114 85/92/115 
f 15/15/15 18/18/18 86/93/116 84/91/114 
f 18/18/18 20/20/20 87/94/117 86/93/116 
f 20/20/20 22/22/22 88/95/118 87/94/117 
f 22/22/22 24/24/24 89/96/119 88/95/118 
f 24/24/24 26/26/26 90/97/120 89/96/119 
f 26/26/26 28/28/28 91/98/121 90/97/120 
f 28/28/28 30/30/30 92/99/122 91/98/121 
f 30/30/30 32/32/32 93/100/123 92/99/122 
f 32/32/32 16/34/16 85/101/115 93/100/123 
s 1
f 85/92/124 84/91/125 2/102/2 12/103/12 
f 84/91/125 86/93/126 3/104/3 2/102/2 
f 86/93/126 87/94/127 4/105/4 3/104/3 
f 87/94/127 88/95/128 5/106/5 4/105/4 
f 88/95/128 89/96/129 6/107/6 5/106/5 
f 89/96/129 90/97/130 7/108/7 6/107/6 
f 90/97/130 91/98/131 9/109/9 7/108/7 
f 91/98/131 92/99/132 94/110/133 9/109/9 
f 92/99/132 93/100/134 95/111/135 94/110/133 
f 93/100/134 85/101/124 12/112/12 95/111/135 
f 10/10/10 9/9/9 94/113/133 95/114/135 
f 95/114/135 12/12/12 11/11/11 10/10/10 
f 11/11/11 1/1/1 8/8/8 10/10/10 
# 86 polygons - 14 triangles

