<?xml version="1.0" encoding="utf-8"?>
<!-- Generator: Adobe Illustrator 14.0.0, SVG Export Plug-In . SVG Version: 6.00 Build 43363)  -->
<!DOCTYPE svg PUBLIC "-//W3C//DTD SVG 1.1//EN" "http://www.w3.org/Graphics/SVG/1.1/DTD/svg11.dtd" [
	<!ENTITY ns_flows "http://ns.adobe.com/Flows/1.0/">
	<!ENTITY ns_extend "http://ns.adobe.com/Extensibility/1.0/">
	<!ENTITY ns_ai "http://ns.adobe.com/AdobeIllustrator/10.0/">
	<!ENTITY ns_graphs "http://ns.adobe.com/Graphs/1.0/">
]>
<svg version="1.1" id="Ebene_1" xmlns:x="&ns_extend;" xmlns:i="&ns_ai;" xmlns:graph="&ns_graphs;"
	 xmlns="http://www.w3.org/2000/svg" xmlns:xlink="http://www.w3.org/1999/xlink" xmlns:a="http://ns.adobe.com/AdobeSVGViewerExtensions/3.0/"
	 x="0px" y="0px" width="566.93px" height="566.93px" viewBox="0 0 566.93 566.93" enable-background="new 0 0 566.93 566.93"
	 xml:space="preserve">
<rect x="279" y="278.93" width="279" height="279"/>
<rect y="-0.07" width="279" height="279"/>
<path id="_x34_" fill="#FFFFFF" d="M423.715,341.512c-31.461,0-57.057,25.596-57.057,57.057c0,15.806,6.463,30.127,16.881,40.47
	c0.029-0.208,0.059-0.419,0.088-0.625c0.102-0.689,0.195-1.358,0.275-2.017c-2.871-3.021-5.424-6.351-7.557-9.963
	c1.367-1.202,4.416-3.55,9.605-5.912c0.002-0.099,0.006-0.205,0.021-0.324v-0.227c0,0,0.176-0.46,0.203-0.524
	c0.041-0.118,0.199-0.521,0.557-0.929c0.045-0.05,0.09-0.099,0.135-0.145c-0.025-0.203-0.021-0.393-0.02-0.582
	c-6.109,2.537-9.762,5.229-11.559,6.789c-4.023-7.463-6.361-15.957-6.529-24.975h18.918c0.039,3.878,0.303,7.49,0.748,10.862
	c0.254-1.018,0.512-1.969,0.785-2.886c0.119-0.367,0.197-0.739,0.281-1.134c0.111-0.524,0.25-1.116,0.455-1.73
	c-0.107-1.651-0.178-3.351-0.197-5.112h13.379c0.869-0.187,1.688-0.399,2.406-0.717l0.574-0.235c0.627-0.253,1.221-0.493,1.563-0.77
	c0.082-0.09,0.16-0.184,0.24-0.277c0.02-0.023,0.045-0.052,0.066-0.076h-18.227c0.064-6.167,0.705-11.629,1.75-16.458
	c4.791,1.576,10.711,2.947,17.914,3.758c-0.406,3.765-0.656,7.748-0.715,11.927c0.244-0.233,0.518-0.469,0.842-0.683
	c0.41-0.284,0.834-0.547,1.264-0.797c0.092-3.564,0.32-6.983,0.672-10.231c2.236,0.21,4.604,0.356,7.08,0.446
	c-0.449-0.638-0.754-1.349-0.904-2.113c-2.064-0.092-4.049-0.226-5.938-0.406c0.705-5.625,1.74-10.729,2.924-15.267
	c-0.426-0.802-0.66-1.69-0.66-2.667c0-1.565,0.51-3.858,2.943-5.897c0.137-0.112,0.283-0.213,0.428-0.317
	c1.949-5.544,3.93-9.729,5.324-12.375v10.495c0.471-0.043,0.949-0.073,1.451-0.073c0.213,0,0.418,0.013,0.625,0.021v-10.448
	c1.334,2.523,3.201,6.463,5.064,11.64c0.641,0.326,1.23,0.711,1.754,1.169c0.496,0.424,0.93,0.882,1.303,1.367
	c-2.559-7.858-5.332-13.438-6.936-16.34c3.652,1.26,10.836,4.459,17.449,11.609c-2.738,1.955-6.178,3.885-10.217,5.155
	c0.404,0.599,0.723,1.234,0.943,1.904c4.252-1.364,7.846-3.398,10.689-5.457c4.338,5.146,8.287,12.109,10.639,21.485
	c-4.699,1.573-10.535,2.959-17.668,3.776c-0.783-6.251-1.969-11.871-3.313-16.808c-0.096,1.322-0.488,2.564-1.178,3.717
	c0.977,4.035,1.826,8.478,2.43,13.311c-2.059,0.197-4.236,0.337-6.508,0.429c-0.156,0.762-0.473,1.473-0.934,2.114
	c2.699-0.086,5.264-0.243,7.68-0.47c0.354,3.261,0.582,6.694,0.672,10.277c0.131,0.095,0.26,0.193,0.391,0.288
	c0.553,0.394,1.143,0.827,1.719,1.334c-0.053-4.248-0.307-8.294-0.721-12.115c7.205-0.811,13.127-2.184,17.918-3.76
	c1.053,4.852,1.684,10.315,1.748,16.46h-18.33c0.199,0.206,0.396,0.417,0.584,0.651c0.605,0.626,1.465,1.073,2.402,1.424h15.344
	c-0.014,1.32-0.059,2.603-0.125,3.859c0.881,0.834,1.529,1.908,1.877,3.091c0.188-2.218,0.297-4.533,0.322-6.95h18.918
	c-0.168,9.018-2.506,17.512-6.531,24.975c-1.623-1.41-4.771-3.747-9.875-6.058l0.848,0.88l-0.906,1.459
	c4.746,2.245,7.576,4.428,8.879,5.572c-2.15,3.642-4.725,6.996-7.627,10.037c0.094,0.923,0.18,1.836,0.244,2.746
	c10.527-10.356,17.07-24.75,17.07-40.648C480.771,367.107,455.176,341.512,423.715,341.512z M416.65,344.055
	c-4.045,1.934-9.322,5.21-14.264,10.588c-2.195-1.739-3.807-3.378-4.777-4.453C403.408,347.049,409.838,344.934,416.65,344.055z
	 M387.678,397.53H368.76c0.168-9.017,2.506-17.511,6.529-24.974c2.045,1.774,6.492,5.018,14.234,7.83
	C388.408,385.436,387.742,391.128,387.678,397.53z M390.02,378.287c-7.719-2.854-11.982-6.096-13.674-7.586
	c4.729-8.004,11.42-14.71,19.414-19.451c0.975,1.127,2.727,2.992,5.223,4.991C396.512,361.559,392.451,368.709,390.02,378.287z
	 M409.654,382.753c-7.129-0.817-12.965-2.202-17.664-3.774c2.404-9.612,6.434-16.57,10.58-21.527
	c2.957,2.148,6.723,4.28,11.207,5.65C412.102,368.68,410.592,375.271,409.654,382.753z M414.4,361.092
	c-4.131-1.279-7.639-3.253-10.422-5.248c0.955-1.037,1.908-1.977,2.84-2.819c5.738-5.19,11.525-7.682,14.678-8.755
	C419.861,347.229,417.004,352.973,414.4,361.092z M430.779,344.055c6.811,0.879,13.242,2.994,19.041,6.135
	c-0.973,1.075-2.584,2.714-4.777,4.453C440.1,349.265,434.824,345.988,430.779,344.055z M457.408,378.287
	c-2.43-9.578-6.49-16.729-10.961-22.046c2.494-1.999,4.248-3.864,5.223-4.991c7.994,4.741,14.686,11.447,19.414,19.451
	C469.391,372.191,465.129,375.434,457.408,378.287z M459.752,397.53c-0.064-6.402-0.732-12.095-1.846-17.144
	c7.742-2.813,12.188-6.056,14.232-7.83c4.025,7.463,6.363,15.957,6.531,24.974H459.752z M423.463,312.426
	c-48.795,0-88.35,39.555-88.35,88.35c0,48.794,39.555,88.35,88.35,88.35c48.793,0,88.35-39.556,88.35-88.35
	C511.813,351.98,472.256,312.426,423.463,312.426z M448.928,481.445c-0.268-3.729-0.521-7.449-0.768-11.168
	c4.873,1.793,10.207,2.268,15.402,0.32c3.854-1.367,7.576-3.836,10.303-7.238c-5.301,3.779-13.311,4.432-19.504,2.141l-6.662-2.688
	c-0.023-0.016-0.047-0.049-0.072-0.049c-0.008-0.121-0.016-0.226-0.023-0.33c-0.145-0.707,0.033-1.432-0.227-2.114
	c0.123-0.073,0.25-0.146,0.381-0.226c8.139,1.811,16.615,4.793,25.029,1.607c5.607-1.969,11.768-6.675,14.229-12.289
	c-6.627,8.061-17.455,6.531-26.895,8.019c-2.543,0.259-4.877,1.159-7.441,1.103c1.801-0.854,3.996-1.037,5.727-2.18
	c7.045-3.522,7.504-11.316,11.768-16.794c-3.242,2.212-6.131,4.81-8.951,7.544v-3.499c-0.195-0.659-0.059-1.335-0.195-2.011
	c-0.143-2.139-0.273-4.287-0.555-6.41c-0.547-2.791-0.459-5.67-0.98-8.47c-0.162-0.981-0.717-1.825-1.006-2.767
	c0.322-0.129,0.652-0.281,0.982-0.402c-0.098-0.24-0.146-0.522-0.33-0.725c-0.033-0.039-0.096-0.096-0.123-0.128
	c-0.311-0.282-0.689-0.595-0.609-1.054c0.145-0.723,0.756-1.246,1.135-1.857c-0.402-0.418-0.959-0.596-1.48-0.805
	c0.008-0.684,0.039-1.399-0.08-2.059c-0.338-2.889-0.846-5.76-1.102-8.656c-0.066-1.527-1.078-3.063-2.615-3.562
	c-3.459-0.12-6.877-0.821-10.232-1.634c-2.258-0.563-4.656-1.294-6.256-3.039c-0.916-1.199-2.268-1.947-3.441-2.872
	c-1.313-0.933-2.574-2.083-4.225-2.413c0.514,1.102,1.834,1.617,2.285,2.743c0.121,0.644-0.363,1.246-0.225,1.906
	c-0.082,0.804,1.012,0.948,1.158,1.665c0.457,1.456,0.199,3.016,0.273,4.52c-0.234,4.15-0.854,8.277-1.908,12.314
	c-0.699,2.405-1.488,4.826-2.838,6.966c-0.443,0.724-1.037,1.384-1.713,1.905c-0.008-1.873,0.031-3.787,0-5.678
	c-0.234-1.367,0.016-2.767-0.227-4.119c0.008-1.961-0.434-3.876-0.756-5.807c-0.242-1.447-0.66-2.87-0.982-4.294
	c-0.199-0.798-0.441-1.602-0.473-2.413c0.016-0.468,0.508-0.725,0.828-0.982c1.094,1.021,1.721,2.414,2.688,3.539
	c-0.322-1.295-0.926-2.518-1.48-3.739c-0.66-1.407-1.617-2.647-2.566-3.877c0.941-0.257,1.811-0.685,2.695-1.078
	c1.256-0.7,2.693-1.239,3.619-2.389c-0.234-0.41-0.371-0.941-0.828-1.158c0.127,0.394,0.281,0.78,0.449,1.158
	c-0.289,0.12-0.611,0.41-0.934,0.226c-1.439-0.756-2.975-1.609-4.672-1.48c-0.635,0.032-1.279-0.008-1.916,0
	c-0.521,0.008-1.045,0.057-1.551,0.225c-1.182,0.322-2.268,0.894-3.346,1.457c-0.178-0.242-0.387-0.475-0.557-0.725
	c0.146-0.145,0.299-0.273,0.461-0.402c-0.314-0.031-0.693-0.023-0.936,0.121c-0.031,0.032-0.078,0.088-0.104,0.129
	c-0.016,0.016-0.023,0.056-0.023,0.072c-0.016,0.023-0.041,0.072-0.049,0.104c-0.008,0.08-0.033,0.161,0,0.273
	c1.135,1.077,2.703,1.688,4.119,2.341c0.82,0.386,1.656,0.707,2.445,1.15c-1.199,0.796-1.602,2.195-2.27,3.369
	c-0.506,1.256-1.287,2.396-1.633,3.725c0.805-0.692,1.279-1.648,1.963-2.438c0.24-0.395,0.643-0.651,1.053-0.828
	c0.348,0.33,0.668,0.668,0.982,1.054c-0.242,2.622-1.432,5.042-1.834,7.641c-0.154,1.826-0.178,3.652-0.273,5.478
	c-0.201,1.158,0.023,2.365-0.201,3.523c-0.057,2.066-0.01,4.149-0.025,6.225c0.041,0.073,0.154,0.227,0.193,0.307
	c-0.047,0.016-0.152,0.089-0.193,0.097c-1.584-1.851-2.789-3.949-3.973-6.058c-1.818-3.032-2.951-6.442-3.521-9.901
	c-0.105-1.255-0.34-2.525-0.123-3.796c0.082-1.496,0.219-3.057,0.781-4.473c0.338-0.939,0.828-1.873,0.973-2.862
	c-0.441-0.724-0.57-1.608-0.297-2.413c0.242-0.725,0.547-1.432,0.781-2.164c-1.408,0.908-2.953,1.585-4.328,2.541
	c-0.588,0.387-0.98,0.982-1.455,1.48c-0.838,0.765-1.932,1.127-2.969,1.561c-1.77,0.781-3.74,1.03-5.631,1.432
	c-2.219,0.443-4.496,0.627-6.707,1.182c-0.717,0.194-1.416,0.652-1.658,1.353c-0.354,0.948-0.441,1.979-0.756,2.944
	c-0.732,2.452-1.287,4.938-1.785,7.439c-0.152,0.756-0.58,1.496-0.449,2.292c0.111,0.337,0.369,0.62,0.602,0.901
	c-0.064,0.192-0.129,0.386-0.176,0.579c-0.41,0.272-0.934,0.419-1.254,0.78c-0.035,0.039-0.043,0.08-0.059,0.12
	c0,0.024-0.023,0.04-0.023,0.056v0.097c0,0.009,0,0.024,0,0.024c0,0.009,0.023,0.017,0.023,0.024c0,0.016,0.023,0.04,0.023,0.056
	c0.115,0.282,0.492,0.467,0.758,0.58c-0.018,0.611-0.627,1.029-0.676,1.656c-0.232,1.77-0.668,3.499-1.029,5.252
	c-0.402,2.164-0.771,4.32-0.982,6.508c-0.16,2.855-0.844,5.654-0.955,8.525c-0.01,0.9-0.242,1.818-0.051,2.711
	c0.154,0.973,0.732,1.817,1.232,2.637c0.152,0.234,0.289,0.452,0.451,0.686c-3.41-3.291-6.799-6.468-10.602-9.001
	c4.303,5.815,5.484,14.47,13.439,17.269c1.326,0.691,3.016,0.611,4.223,1.385c-1.52,0.232-2.838-0.363-4.27-0.557
	c-10.152-2.275-22.619,0.611-30.234-8.066c2.885,5.67,8.83,10.223,14.574,12.041c7.672,2.605,15.65,0.426,23.074-1.537
	c-0.137,1.063-0.289,2.131-0.426,3.193c-1.311,0.578-2.613,1.183-3.893,1.729c-6.25,2.46-14.422,2.06-19.916-1.729
	c2.719,3.41,6.355,5.51,10.111,6.934c4.053,1.625,8.551,1.648,12.74,0.603c-0.389,2.979-0.789,5.958-1.166,8.932
	c-32.828-11.623-56.352-42.925-56.352-79.735c0-46.713,37.867-84.58,84.58-84.58c46.711,0,84.578,37.867,84.578,84.58
	C508.041,438.611,483.193,470.639,448.928,481.445z M449.121,510.953l-5.16-11.924l-2.883,15.014h1.621l1.826-9.607h0.039
	l4.557,10.191l4.58-10.191h0.037l1.826,9.607h1.619l-2.879-15.014L449.121,510.953z M426.248,506.169l-3.617-6.329h-1.828l4.654,8.1
	v6.104h1.584v-6.104l4.65-8.1h-1.826L426.248,506.169z M494.906,393.062c0,0.016-0.023,0.032-0.023,0.048
	c-0.01,0.008,0,0.041,0,0.049c-0.01,0.016-0.041,0.04-0.049,0.057c-0.016,0.008-0.041,0.016-0.057,0.023
	c-0.031,0.016-0.063,0.023-0.096,0.023c-0.547-1.777-0.5-3.828-1.383-5.477c-2.148-6.539-10.047-9.604-13.25-15.539
	c0.453,2.59,1.266,5.035,2.213,7.416c3.002,7.278,10.281,12.771,12.291,20.485c0.232,0.716,0.297,1.575,0.555,2.212
	c0.539-3.699,1.488-7.264,2.863-10.609c3.691-7.883,2.607-18.838-2.461-25.714c-0.895-1.103-1.48-2.542-2.768-3.29
	c2.004,2.791,2.365,6.274,2.414,9.877C494.246,379.275,493.957,386.329,494.906,393.062z M408.686,510.841l-11.076-11.604v14.807
	h1.582v-10.945l11.076,11.586V499.84h-1.582V510.841z M501.465,508.298c0,1.111,0.057,2.354-0.697,3.259
	c-0.66,0.791-1.771,1.262-2.787,1.262c-1.037,0-2.244-0.489-2.863-1.355c-0.66-0.904-0.623-2.111-0.623-3.165v-8.458h-1.582v8.891
	c0,1.62,0.15,2.92,1.395,4.107c0.959,0.941,2.336,1.45,3.674,1.45c1.432,0,2.844-0.565,3.822-1.62
	c1.131-1.168,1.246-2.393,1.246-3.938v-8.891h-1.584V508.298z M359.018,510.841l-11.076-11.604v14.807h1.582v-10.945l11.078,11.586
	V499.84h-1.584V510.841z M324.502,514.043h1.732l1.715-4.031h6.066l1.676,4.031h1.752l-6.385-14.883L324.502,514.043z
	 M328.59,508.542l2.43-5.688l2.373,5.688H328.59z M492.742,437.026c-6.635,4.97-14.646,6.708-20.783,12.837
	c-0.66,0.434-1.32,1.094-2.061,1.133c2.295-2.002,4.377-4.495,5.832-7.037c3.773-6.41,2.342-14.984,5.631-21.588
	c-2.012,2.195-3.436,4.617-5.154,6.934c-5.406,8.195-4.939,18.981-13.047,25.938c4.785-1.632,10.055-2.042,14.984-3.37
	c9.521-3.031,19.633-12.586,20.881-22.77C497.865,432.111,495.406,434.902,492.742,437.026z M485.053,366.188l-0.699-1.608
	c-1.23-5.043-3.119-9.909-7.32-13.674c-3.57-3.209-8.066-4.254-12.242-6.032l4.754,4.802
	C473.43,355.901,478.965,361.805,485.053,366.188z M379.105,499.594c-4.051,0-7.404,3.297-7.404,7.367
	c0,4.087,3.354,7.327,7.404,7.327c4.049,0,7.402-3.24,7.402-7.327C386.508,502.891,383.154,499.594,379.105,499.594z
	 M379.105,512.818c-3.223,0-5.822-2.675-5.822-5.877c0-3.223,2.563-5.878,5.822-5.878s5.82,2.655,5.82,5.878
	C384.926,510.144,382.326,512.818,379.105,512.818z M519.516,505.904l-0.941-0.414c-0.961-0.433-2.223-0.998-2.223-2.223
	c0-1.3,1.092-2.204,2.355-2.204c1.205,0,1.883,0.564,2.447,1.544l1.264-0.81c-0.754-1.394-2.092-2.204-3.674-2.204
	c-2.111,0-3.975,1.413-3.975,3.617c0,2.034,1.432,2.883,3.088,3.636l0.867,0.377c1.318,0.603,2.619,1.169,2.619,2.825
	c0,1.602-1.395,2.77-2.92,2.77s-2.637-1.187-2.846-2.637l-1.543,0.434c0.451,2.203,2.146,3.673,4.426,3.673
	c2.469,0,4.465-1.901,4.465-4.39C522.926,507.639,521.361,506.715,519.516,505.904z M474.539,499.594
	c-4.049,0-7.402,3.297-7.402,7.367c0,4.087,3.354,7.327,7.402,7.327c4.051,0,7.406-3.24,7.406-7.327
	C481.945,502.891,478.59,499.594,474.539,499.594z M474.539,512.818c-3.221,0-5.82-2.675-5.82-5.877c0-3.223,2.561-5.878,5.82-5.878
	s5.822,2.655,5.822,5.878C480.361,510.144,477.762,512.818,474.539,512.818z M425.83,392.41h-3.918
	c-1.221,0.266-2.242,1.005-3.24,1.705c0.08,0.04,0.186,0.088,0.273,0.129c2.012-1.021,4.383-1.561,6.637-1.11
	c1.334,0.281,2.551,0.909,3.844,1.312c-0.096-0.129-0.199-0.234-0.297-0.354C428.18,393.295,427.012,392.779,425.83,392.41z
	 M430.656,368.553c0.66-0.965,1.006-2.018,1.014-3.168c0-1.568-0.676-2.896-1.963-3.998c-1.271-1.109-3.137-1.681-5.58-1.681
	c-2.311,0-4.096,0.547-5.383,1.608c-1.287,1.078-1.93,2.301-1.93,3.725c0,0.764,0.225,1.423,0.699,1.906
	c0.482,0.458,1.078,0.676,1.785,0.676c0.637,0,1.158-0.178,1.586-0.572c0.418-0.393,0.627-0.9,0.627-1.487
	c0-0.651-0.266-1.439-0.805-2.364c-0.242-0.402-0.354-0.684-0.354-0.877c0-0.289,0.178-0.579,0.531-0.854
	c0.457-0.346,1.02-0.506,1.703-0.506c0.902,0,1.689,0.378,2.342,1.134c0.652,0.757,0.98,1.923,0.98,3.515
	c0,1.037-0.111,1.914-0.328,2.615c-0.201,0.707-0.643,1.624-1.305,2.791c-0.65,1.149-1.061,2.051-1.229,2.718
	c-0.154,0.651-0.211,1.649-0.178,2.992h0.779c0.088-1.279,0.307-2.235,0.701-2.839c0.408-0.636,1.246-1.319,2.518-2.115
	C428.742,370.597,430.006,369.519,430.656,368.553z M426.49,382.227c0-0.804-0.314-1.471-0.908-2.035
	c-0.588-0.563-1.313-0.852-2.164-0.852c-0.83,0-1.561,0.289-2.156,0.852c-0.594,0.564-0.885,1.231-0.885,2.035
	c0,0.805,0.291,1.512,0.885,2.084c0.588,0.563,1.326,0.836,2.156,0.836c0.844-0.008,1.576-0.273,2.164-0.836
	C426.176,383.738,426.49,383.031,426.49,382.227z M493.369,423.723c-3.209,3.441-5.348,7.303-8.09,10.914h-0.354
	c2.033-3.098,3.305-6.531,3.496-10.408c0.195-6.419-2.572-11.855-1.865-18.25l-1.277,3.442c-3.451,10.272-0.709,23.101-6.307,32.431
	v0.321c3.658-2.839,7.504-5.146,11.309-7.641c9.234-6.306,15.492-16.079,13.801-27.218
	C503.426,413.99,498.357,418.912,493.369,423.723z M361.115,367.122c3.168-2.984,6.725-5.253,9.521-8.728
	c3.123-4.343,6.051-9.049,10.256-12.74c-5.727,2.236-12.137,4.367-15.58,10.408C362.885,359.328,362.828,363.566,361.115,367.122z
	 M485.182,358.725c1.697,5.566,2.533,11.445,4.971,16.666l-0.145,0.152c-0.918-1.455-1.398-3.241-2.814-4.527
	c-4.248-5.574-11.615-7.039-14.359-13.65c0.693,3.949,1.885,7.674,4.65,10.738c4.785,5.155,11.736,8.204,15.01,14.654l0.049-0.057
	c-1.225-6.08,0.73-11.943-0.605-17.969c-1.156-5.324-5.99-11.147-11.559-12.289C482.646,353.963,484.33,356.313,485.182,358.725z
	 M497.367,402.287c-1.777,4.037-2.373,8.606-3.516,12.941l-0.33,0.378l-0.152-0.128c0.402-1.883,1.063-3.717,0.885-5.856
	c0.484-8.831-7.229-14.244-8.975-22.118l-0.098,2.943c0.652,7.713,2.703,14.863,5.027,21.894c1.336,3.258,0.934,7.489,0.627,10.931
	c2.775-4.352,6.404-8.332,9.395-12.619c4.215-7.73,5.391-18.789,1.537-27.066C503.055,390.607,499.9,396.472,497.367,402.287z
	 M363.496,382.203c1.285-2.863,2.26-5.977,2.646-9.072c-0.523,1.318-1.408,2.444-2.414,3.57
	c-4.713,4.287-10.109,8.703-11.139,14.928c-0.17,0.885-0.219,1.803-0.477,2.663c-0.008,0-0.023,0-0.023,0
	c-0.008,0-0.023,0.024-0.023,0.024c-0.01,0-0.025,0-0.025,0h-0.055l-0.025-0.024c-0.031-0.032-0.08-0.081-0.096-0.129
	c-0.008-0.008-0.023-0.04-0.031-0.048c0,0-0.018-0.024-0.025-0.024l0.578-7.688c0.203-7.537-3.393-15.879,0.959-22.498
	c-0.041-0.008-0.072-0.008-0.098,0h-0.031c-0.018,0.008-0.057,0.041-0.074,0.049c-0.039,0.031-0.08,0.057-0.127,0.072
	c-3.949,5.051-6.781,10.576-6.604,17.35c-0.547,8.332,4.801,14.22,5.396,22.063C353.047,395.249,359.844,389.361,363.496,382.203z
	 M354.174,383.73c1.383-2.83,3.82-5.348,6.338-7.561c6.096-4.303,12.451-10.326,12.539-17.968
	c-1.971,5.493-7.914,7.81-11.936,11.534c-2.074,2.035-3.732,4.399-4.682,6.885l-0.145-0.129c0.49-2.188,1.488-4.182,2.059-6.33
	c1.795-5.815,1.416-12.789,7.086-16.689c-2.92,0.748-5.518,2.501-7.568,5.051c-4.705,4.955-4.207,12.596-3.539,19.279
	C354.463,379.871,354.037,381.809,354.174,383.73z M368.201,442.93c-0.805-2.027-2.035-3.934-2.639-6.057
	c-2.324-9.709-1.078-20.881-5.229-29.84c0.773,5.099-1.23,9.586-1.689,14.43c-0.395,3.98,0.211,7.914,1.867,11.212
	c0.346,1.036,1.271,1.882,1.504,2.887c-1.488-1.343-2.453-3.112-3.572-4.721c-4.721-7.858-14.92-12.862-15.604-22.345
	c-0.346,4.215-0.16,8.768,1.432,12.443C348.053,431.581,359.674,437.115,368.201,442.93z M365.563,423.271
	c3.498,6.998,1.834,16.119,6.506,22.627c1.287,2.146,3.42,4.021,5.254,5.678l-0.096,0.096c-1.658-0.771-3.186-1.882-4.65-3.192
	c-7.986-6.548-19.883-7.448-24.637-18.218c1.287,7.906,7.439,15.113,14.324,19.352c6.314,4.408,14.697,3.756,21.846,6.105
	c-6.604-5.326-7.697-13.305-10.561-20.357C371.643,431.041,368.74,427.084,365.563,423.271z M355.758,423.875l0.426,0.354
	c-0.451-3.129-0.707-6.516,0.178-9.499c1.344-4.785,2.895-9.45,3.916-14.381c0.547-3.868,1.514-8.155,1.063-11.888
	c-0.516,2.011-1.125,3.934-2.164,5.678c-4.254,6.451-8.492,14.133-5.557,22.377c-0.016,0.008-0.023,0.049-0.049,0.072
	c-0.01,0.008-0.018,0.016-0.025,0.023c-0.016,0.016-0.031,0.016-0.047,0.023c-0.025,0.018-0.057,0.025-0.08,0.025h-0.072
	c-1.184-2.719-1.385-5.848-2.213-8.744c-1.971-7.744-7.971-14.203-6.258-23.123c-0.908,1.93-1.279,4.102-1.762,6.209
	c-1.029,5.47-0.016,11.285,1.48,16.313C346.436,413.611,352.637,418.108,355.758,423.875z"/>
<path id="_x33_" d="M139.589,341.512c-31.461,0-57.057,25.596-57.057,57.057c0,15.806,6.464,30.127,16.882,40.47
	c0.029-0.208,0.059-0.419,0.088-0.625c0.101-0.689,0.195-1.358,0.275-2.017c-2.872-3.021-5.424-6.351-7.557-9.963
	c1.367-1.202,4.415-3.55,9.605-5.912c0.002-0.099,0.006-0.205,0.021-0.324v-0.227c0,0,0.176-0.46,0.203-0.524
	c0.041-0.118,0.199-0.521,0.556-0.929c0.045-0.05,0.09-0.099,0.135-0.145c-0.024-0.203-0.021-0.393-0.02-0.582
	c-6.109,2.537-9.761,5.229-11.558,6.789c-4.024-7.463-6.362-15.957-6.53-24.975h18.918c0.039,3.878,0.303,7.49,0.749,10.862
	c0.253-1.018,0.512-1.969,0.785-2.886c0.118-0.367,0.197-0.739,0.281-1.134c0.11-0.524,0.249-1.116,0.455-1.73
	c-0.108-1.651-0.179-3.351-0.197-5.112h13.378c0.869-0.187,1.688-0.399,2.407-0.717l0.574-0.235c0.627-0.253,1.221-0.493,1.563-0.77
	c0.082-0.09,0.16-0.184,0.239-0.277c0.021-0.023,0.045-0.052,0.066-0.076h-18.227c0.065-6.167,0.706-11.629,1.751-16.458
	c4.791,1.576,10.711,2.947,17.914,3.758c-0.407,3.765-0.656,7.748-0.715,11.927c0.244-0.233,0.518-0.469,0.842-0.683
	c0.409-0.284,0.834-0.547,1.264-0.797c0.092-3.564,0.32-6.983,0.672-10.231c2.235,0.21,4.604,0.356,7.08,0.446
	c-0.449-0.638-0.754-1.349-0.904-2.113c-2.064-0.092-4.05-0.226-5.938-0.406c0.705-5.625,1.74-10.729,2.923-15.267
	c-0.425-0.802-0.66-1.69-0.66-2.667c0-1.565,0.511-3.858,2.944-5.897c0.137-0.112,0.283-0.213,0.427-0.317
	c1.95-5.544,3.931-9.729,5.325-12.375v10.495c0.47-0.043,0.949-0.073,1.45-0.073c0.214,0,0.418,0.013,0.626,0.021v-10.448
	c1.333,2.523,3.201,6.463,5.064,11.64c0.64,0.326,1.229,0.711,1.754,1.169c0.496,0.424,0.929,0.882,1.302,1.367
	c-2.558-7.858-5.331-13.438-6.936-16.34c3.652,1.26,10.836,4.459,17.45,11.609c-2.738,1.955-6.178,3.885-10.217,5.155
	c0.403,0.599,0.722,1.234,0.943,1.904c4.252-1.364,7.846-3.398,10.689-5.457c4.337,5.146,8.287,12.109,10.639,21.485
	c-4.699,1.573-10.535,2.959-17.668,3.776c-0.783-6.251-1.969-11.871-3.313-16.808c-0.095,1.322-0.488,2.564-1.177,3.717
	c0.976,4.035,1.825,8.478,2.43,13.311c-2.059,0.197-4.237,0.337-6.508,0.429c-0.157,0.762-0.473,1.473-0.934,2.114
	c2.698-0.086,5.264-0.243,7.679-0.47c0.354,3.261,0.582,6.694,0.673,10.277c0.131,0.095,0.259,0.193,0.391,0.288
	c0.552,0.394,1.143,0.827,1.718,1.334c-0.053-4.248-0.306-8.294-0.72-12.115c7.205-0.811,13.126-2.184,17.917-3.76
	c1.054,4.852,1.685,10.315,1.749,16.46h-18.33c0.199,0.206,0.396,0.417,0.583,0.651c0.605,0.626,1.465,1.073,2.402,1.424h15.344
	c-0.014,1.32-0.059,2.603-0.124,3.859c0.88,0.834,1.529,1.908,1.876,3.091c0.188-2.218,0.298-4.533,0.322-6.95h18.918
	c-0.168,9.018-2.505,17.512-6.53,24.975c-1.624-1.41-4.771-3.747-9.876-6.058l0.848,0.88l-0.905,1.459
	c4.746,2.245,7.576,4.428,8.878,5.572c-2.15,3.642-4.725,6.996-7.626,10.037c0.094,0.923,0.179,1.836,0.244,2.746
	c10.526-10.356,17.069-24.75,17.069-40.648C196.646,367.107,171.05,341.512,139.589,341.512z M132.524,344.055
	c-4.045,1.934-9.321,5.21-14.264,10.588c-2.194-1.739-3.806-3.378-4.777-4.453C119.282,347.049,125.713,344.934,132.524,344.055z
	 M103.552,397.53H84.634c0.168-9.017,2.506-17.511,6.53-24.974c2.045,1.774,6.491,5.018,14.233,7.83
	C104.283,385.436,103.616,391.128,103.552,397.53z M105.895,378.287c-7.72-2.854-11.982-6.096-13.674-7.586
	c4.728-8.004,11.419-14.71,19.413-19.451c0.976,1.127,2.728,2.992,5.223,4.991C112.387,361.559,108.325,368.709,105.895,378.287z
	 M125.529,382.753c-7.13-0.817-12.966-2.202-17.664-3.774c2.404-9.612,6.433-16.57,10.58-21.527c2.957,2.148,6.722,4.28,11.207,5.65
	C127.977,368.68,126.467,375.271,125.529,382.753z M130.275,361.092c-4.132-1.279-7.64-3.253-10.422-5.248
	c0.955-1.037,1.908-1.977,2.839-2.819c5.738-5.19,11.525-7.682,14.679-8.755C135.735,347.229,132.878,352.973,130.275,361.092z
	 M146.653,344.055c6.812,0.879,13.242,2.994,19.042,6.135c-0.973,1.075-2.584,2.714-4.778,4.453
	C155.975,349.265,150.698,345.988,146.653,344.055z M173.283,378.287c-2.431-9.578-6.491-16.729-10.962-22.046
	c2.495-1.999,4.248-3.864,5.223-4.991c7.994,4.741,14.687,11.447,19.414,19.451C185.266,372.191,181.003,375.434,173.283,378.287z
	 M175.626,397.53c-0.064-6.402-0.731-12.095-1.846-17.144c7.742-2.813,12.188-6.056,14.233-7.83
	c4.025,7.463,6.362,15.957,6.53,24.974H175.626z M139.337,312.426c-48.794,0-88.35,39.555-88.35,88.35
	c0,48.794,39.556,88.35,88.35,88.35s88.35-39.556,88.35-88.35C227.687,351.98,188.131,312.426,139.337,312.426z M164.803,481.445
	c-0.268-3.729-0.522-7.449-0.769-11.168c4.874,1.793,10.207,2.268,15.402,0.32c3.854-1.367,7.576-3.836,10.304-7.238
	c-5.302,3.779-13.312,4.432-19.505,2.141l-6.661-2.688c-0.023-0.016-0.047-0.049-0.072-0.049c-0.008-0.121-0.016-0.226-0.023-0.33
	c-0.146-0.707,0.033-1.432-0.227-2.114c0.122-0.073,0.25-0.146,0.38-0.226c8.139,1.811,16.616,4.793,25.03,1.607
	c5.606-1.969,11.767-6.675,14.229-12.289c-6.627,8.061-17.455,6.531-26.896,8.019c-2.543,0.259-4.876,1.159-7.44,1.103
	c1.801-0.854,3.996-1.037,5.726-2.18c7.046-3.522,7.505-11.316,11.769-16.794c-3.242,2.212-6.131,4.81-8.952,7.544v-3.499
	c-0.194-0.659-0.058-1.335-0.194-2.011c-0.144-2.139-0.273-4.287-0.555-6.41c-0.548-2.791-0.459-5.67-0.981-8.47
	c-0.161-0.981-0.717-1.825-1.005-2.767c0.321-0.129,0.651-0.281,0.981-0.402c-0.097-0.24-0.146-0.522-0.33-0.725
	c-0.033-0.039-0.096-0.096-0.122-0.128c-0.312-0.282-0.69-0.595-0.61-1.054c0.146-0.723,0.756-1.246,1.135-1.857
	c-0.402-0.418-0.958-0.596-1.48-0.805c0.008-0.684,0.039-1.399-0.08-2.059c-0.338-2.889-0.845-5.76-1.102-8.656
	c-0.065-1.527-1.078-3.063-2.614-3.562c-3.46-0.12-6.877-0.821-10.232-1.634c-2.258-0.563-4.656-1.294-6.256-3.039
	c-0.917-1.199-2.269-1.947-3.442-2.872c-1.313-0.933-2.574-2.083-4.225-2.413c0.515,1.102,1.835,1.617,2.286,2.743
	c0.12,0.644-0.363,1.246-0.226,1.906c-0.081,0.804,1.013,0.948,1.158,1.665c0.458,1.456,0.2,3.016,0.273,4.52
	c-0.234,4.15-0.853,8.277-1.907,12.314c-0.699,2.405-1.488,4.826-2.839,6.966c-0.442,0.724-1.037,1.384-1.713,1.905
	c-0.008-1.873,0.031-3.787,0-5.678c-0.233-1.367,0.016-2.767-0.226-4.119c0.008-1.961-0.434-3.876-0.756-5.807
	c-0.242-1.447-0.66-2.87-0.982-4.294c-0.2-0.798-0.441-1.602-0.474-2.413c0.017-0.468,0.508-0.725,0.829-0.982
	c1.094,1.021,1.721,2.414,2.687,3.539c-0.322-1.295-0.925-2.518-1.48-3.739c-0.66-1.407-1.616-2.647-2.566-3.877
	c0.942-0.257,1.811-0.685,2.696-1.078c1.255-0.7,2.693-1.239,3.619-2.389c-0.234-0.41-0.371-0.941-0.829-1.158
	c0.128,0.394,0.281,0.78,0.449,1.158c-0.288,0.12-0.61,0.41-0.933,0.226c-1.439-0.756-2.975-1.609-4.673-1.48
	c-0.635,0.032-1.278-0.008-1.915,0c-0.522,0.008-1.045,0.057-1.551,0.225c-1.183,0.322-2.269,0.894-3.347,1.457
	c-0.177-0.242-0.387-0.475-0.556-0.725c0.146-0.145,0.299-0.273,0.46-0.402c-0.314-0.031-0.692-0.023-0.935,0.121
	c-0.032,0.032-0.079,0.088-0.104,0.129c-0.016,0.016-0.023,0.056-0.023,0.072c-0.016,0.023-0.04,0.072-0.048,0.104
	c-0.009,0.08-0.033,0.161,0,0.273c1.134,1.077,2.702,1.688,4.118,2.341c0.82,0.386,1.656,0.707,2.445,1.15
	c-1.199,0.796-1.601,2.195-2.269,3.369c-0.507,1.256-1.287,2.396-1.634,3.725c0.806-0.692,1.279-1.648,1.964-2.438
	c0.24-0.395,0.643-0.651,1.053-0.828c0.347,0.33,0.667,0.668,0.981,1.054c-0.241,2.622-1.432,5.042-1.834,7.641
	c-0.153,1.826-0.177,3.652-0.272,5.478c-0.202,1.158,0.023,2.365-0.202,3.523c-0.056,2.066-0.009,4.149-0.024,6.225
	c0.041,0.073,0.153,0.227,0.193,0.307c-0.048,0.016-0.152,0.089-0.193,0.097c-1.584-1.851-2.79-3.949-3.973-6.058
	c-1.818-3.032-2.952-6.442-3.522-9.901c-0.104-1.255-0.339-2.525-0.122-3.796c0.081-1.496,0.219-3.057,0.781-4.473
	c0.338-0.939,0.828-1.873,0.973-2.862c-0.441-0.724-0.571-1.608-0.298-2.413c0.242-0.725,0.547-1.432,0.781-2.164
	c-1.408,0.908-2.952,1.585-4.328,2.541c-0.587,0.387-0.98,0.982-1.455,1.48c-0.837,0.765-1.931,1.127-2.968,1.561
	c-1.771,0.781-3.74,1.03-5.631,1.432c-2.22,0.443-4.496,0.627-6.708,1.182c-0.716,0.194-1.416,0.652-1.657,1.353
	c-0.354,0.948-0.442,1.979-0.757,2.944c-0.731,2.452-1.286,4.938-1.784,7.439c-0.153,0.756-0.58,1.496-0.45,2.292
	c0.112,0.337,0.369,0.62,0.603,0.901c-0.064,0.192-0.129,0.386-0.176,0.579c-0.411,0.272-0.935,0.419-1.255,0.78
	c-0.034,0.039-0.042,0.08-0.058,0.12c0,0.024-0.023,0.04-0.023,0.056v0.097c0,0.009,0,0.024,0,0.024
	c0,0.009,0.023,0.017,0.023,0.024c0,0.016,0.023,0.04,0.023,0.056c0.114,0.282,0.491,0.467,0.758,0.58
	c-0.018,0.611-0.628,1.029-0.677,1.656c-0.232,1.77-0.668,3.499-1.029,5.252c-0.402,2.164-0.771,4.32-0.981,6.508
	c-0.16,2.855-0.845,5.654-0.956,8.525c-0.009,0.9-0.242,1.818-0.05,2.711c0.153,0.973,0.732,1.817,1.231,2.637
	c0.153,0.234,0.29,0.452,0.451,0.686c-3.41-3.291-6.798-6.468-10.602-9.001c4.303,5.815,5.484,14.47,13.439,17.269
	c1.327,0.691,3.017,0.611,4.224,1.385c-1.521,0.232-2.839-0.363-4.271-0.557c-10.151-2.275-22.618,0.611-30.234-8.066
	c2.886,5.67,8.83,10.223,14.574,12.041c7.672,2.605,15.651,0.426,23.075-1.537c-0.137,1.063-0.289,2.131-0.427,3.193
	c-1.311,0.578-2.613,1.183-3.892,1.729c-6.25,2.46-14.422,2.06-19.916-1.729c2.719,3.41,6.354,5.51,10.11,6.934
	c4.054,1.625,8.551,1.648,12.741,0.603c-0.389,2.979-0.789,5.958-1.166,8.932c-32.829-11.623-56.352-42.925-56.352-79.735
	c0-46.713,37.867-84.58,84.579-84.58s84.579,37.867,84.579,84.58C223.916,438.611,199.068,470.639,164.803,481.445z
	 M164.996,510.953l-5.16-11.924l-2.883,15.014h1.62l1.826-9.607h0.039l4.558,10.191l4.579-10.191h0.037l1.826,9.607h1.62
	l-2.88-15.014L164.996,510.953z M142.123,506.169l-3.618-6.329h-1.827l4.654,8.1v6.104h1.583v-6.104l4.651-8.1h-1.826
	L142.123,506.169z M210.781,393.062c0,0.016-0.023,0.032-0.023,0.048c-0.01,0.008,0,0.041,0,0.049
	c-0.01,0.016-0.041,0.04-0.05,0.057c-0.016,0.008-0.041,0.016-0.057,0.023c-0.031,0.016-0.063,0.023-0.096,0.023
	c-0.546-1.777-0.499-3.828-1.383-5.477c-2.148-6.539-10.046-9.604-13.249-15.539c0.452,2.59,1.265,5.035,2.213,7.416
	c3.001,7.278,10.28,12.771,12.291,20.485c0.231,0.716,0.297,1.575,0.554,2.212c0.54-3.699,1.488-7.264,2.863-10.609
	c3.691-7.883,2.607-18.838-2.461-25.714c-0.894-1.103-1.48-2.542-2.767-3.29c2.003,2.791,2.364,6.274,2.413,9.877
	C210.121,379.275,209.831,386.329,210.781,393.062z M124.561,510.841l-11.077-11.604v14.807h1.582v-10.945l11.077,11.586V499.84
	h-1.582V510.841z M217.34,508.298c0,1.111,0.057,2.354-0.697,3.259c-0.66,0.791-1.771,1.262-2.788,1.262
	c-1.037,0-2.243-0.489-2.863-1.355c-0.66-0.904-0.622-2.111-0.622-3.165v-8.458h-1.583v8.891c0,1.62,0.151,2.92,1.395,4.107
	c0.96,0.941,2.336,1.45,3.674,1.45c1.432,0,2.845-0.565,3.823-1.62c1.131-1.168,1.245-2.393,1.245-3.938v-8.891h-1.583V508.298z
	 M74.893,510.841l-11.076-11.604v14.807h1.582v-10.945l11.077,11.586V499.84h-1.583V510.841z M40.376,514.043h1.733l1.715-4.031
	h6.065l1.677,4.031h1.752l-6.386-14.883L40.376,514.043z M44.464,508.542l2.431-5.688l2.373,5.688H44.464z M208.617,437.026
	c-6.636,4.97-14.647,6.708-20.783,12.837c-0.66,0.434-1.32,1.094-2.061,1.133c2.294-2.002,4.377-4.495,5.832-7.037
	c3.772-6.41,2.341-14.984,5.63-21.588c-2.011,2.195-3.435,4.617-5.154,6.934c-5.406,8.195-4.938,18.981-13.047,25.938
	c4.786-1.632,10.055-2.042,14.985-3.37c9.521-3.031,19.633-12.586,20.88-22.77C213.74,432.111,211.28,434.902,208.617,437.026z
	 M200.928,366.188l-0.699-1.608c-1.231-5.043-3.12-9.909-7.32-13.674c-3.57-3.209-8.067-4.254-12.242-6.032l4.754,4.802
	C189.305,355.901,194.84,361.805,200.928,366.188z M94.979,499.594c-4.051,0-7.404,3.297-7.404,7.367
	c0,4.087,3.354,7.327,7.404,7.327c4.05,0,7.403-3.24,7.403-7.327C102.383,502.891,99.029,499.594,94.979,499.594z M94.979,512.818
	c-3.223,0-5.821-2.675-5.821-5.877c0-3.223,2.562-5.878,5.821-5.878s5.82,2.655,5.82,5.878
	C100.8,510.144,98.201,512.818,94.979,512.818z M235.39,505.904l-0.94-0.414c-0.962-0.433-2.223-0.998-2.223-2.223
	c0-1.3,1.092-2.204,2.354-2.204c1.205,0,1.883,0.564,2.448,1.544l1.263-0.81c-0.754-1.394-2.091-2.204-3.674-2.204
	c-2.111,0-3.975,1.413-3.975,3.617c0,2.034,1.432,2.883,3.089,3.636l0.866,0.377c1.319,0.603,2.619,1.169,2.619,2.825
	c0,1.602-1.394,2.77-2.92,2.77c-1.525,0-2.637-1.187-2.845-2.637l-1.544,0.434c0.452,2.203,2.146,3.673,4.426,3.673
	c2.469,0,4.466-1.901,4.466-4.39C238.801,507.639,237.235,506.715,235.39,505.904z M190.414,499.594
	c-4.049,0-7.403,3.297-7.403,7.367c0,4.087,3.354,7.327,7.403,7.327c4.051,0,7.405-3.24,7.405-7.327
	C197.819,502.891,194.465,499.594,190.414,499.594z M190.414,512.818c-3.221,0-5.82-2.675-5.82-5.877
	c0-3.223,2.561-5.878,5.82-5.878s5.822,2.655,5.822,5.878C196.236,510.144,193.637,512.818,190.414,512.818z M141.705,392.41h-3.918
	c-1.221,0.266-2.243,1.005-3.24,1.705c0.08,0.04,0.186,0.088,0.273,0.129c2.011-1.021,4.383-1.561,6.636-1.11
	c1.335,0.281,2.551,0.909,3.845,1.312c-0.097-0.129-0.2-0.234-0.297-0.354C144.054,393.295,142.887,392.779,141.705,392.41z
	 M146.531,368.553c0.66-0.965,1.006-2.018,1.014-3.168c0-1.568-0.676-2.896-1.964-3.998c-1.271-1.109-3.136-1.681-5.58-1.681
	c-2.31,0-4.095,0.547-5.382,1.608c-1.287,1.078-1.931,2.301-1.931,3.725c0,0.764,0.226,1.423,0.7,1.906
	c0.482,0.458,1.078,0.676,1.785,0.676c0.637,0,1.158-0.178,1.585-0.572c0.418-0.393,0.627-0.9,0.627-1.487
	c0-0.651-0.266-1.439-0.804-2.364c-0.242-0.402-0.354-0.684-0.354-0.877c0-0.289,0.177-0.579,0.53-0.854
	c0.458-0.346,1.021-0.506,1.704-0.506c0.901,0,1.689,0.378,2.341,1.134c0.652,0.757,0.981,1.923,0.981,3.515
	c0,1.037-0.111,1.914-0.329,2.615c-0.201,0.707-0.643,1.624-1.304,2.791c-0.65,1.149-1.061,2.051-1.229,2.718
	c-0.153,0.651-0.211,1.649-0.177,2.992h0.779c0.088-1.279,0.307-2.235,0.7-2.839c0.409-0.636,1.246-1.319,2.519-2.115
	C144.617,370.597,145.88,369.519,146.531,368.553z M142.365,382.227c0-0.804-0.314-1.471-0.909-2.035
	c-0.588-0.563-1.312-0.852-2.164-0.852c-0.829,0-1.561,0.289-2.155,0.852c-0.595,0.564-0.885,1.231-0.885,2.035
	c0,0.805,0.29,1.512,0.885,2.084c0.587,0.563,1.326,0.836,2.155,0.836c0.844-0.008,1.576-0.273,2.164-0.836
	C142.051,383.738,142.365,383.031,142.365,382.227z M209.243,423.723c-3.208,3.441-5.347,7.303-8.09,10.914H200.8
	c2.034-3.098,3.305-6.531,3.497-10.408c0.194-6.419-2.572-11.855-1.865-18.25l-1.278,3.442c-3.45,10.272-0.709,23.101-6.306,32.431
	v0.321c3.658-2.839,7.504-5.146,11.309-7.641c9.233-6.306,15.492-16.079,13.801-27.218
	C219.3,413.99,214.231,418.912,209.243,423.723z M76.989,367.122c3.168-2.984,6.725-5.253,9.522-8.728
	c3.122-4.343,6.05-9.049,10.256-12.74c-5.728,2.236-12.137,4.367-15.58,10.408C78.759,359.328,78.702,363.566,76.989,367.122z
	 M201.057,358.725c1.697,5.566,2.533,11.445,4.971,16.666l-0.146,0.152c-0.917-1.455-1.398-3.241-2.814-4.527
	c-4.247-5.574-11.614-7.039-14.358-13.65c0.693,3.949,1.884,7.674,4.65,10.738c4.785,5.155,11.735,8.204,15.009,14.654l0.049-0.057
	c-1.224-6.08,0.73-11.943-0.604-17.969c-1.157-5.324-5.991-11.147-11.559-12.289C198.521,353.963,200.205,356.313,201.057,358.725z
	 M213.241,402.287c-1.776,4.037-2.372,8.606-3.515,12.941l-0.33,0.378l-0.153-0.128c0.403-1.883,1.063-3.717,0.886-5.856
	c0.483-8.831-7.229-14.244-8.976-22.118l-0.097,2.943c0.652,7.713,2.702,14.863,5.027,21.894c1.335,3.258,0.933,7.489,0.626,10.931
	c2.775-4.352,6.404-8.332,9.395-12.619c4.216-7.73,5.391-18.789,1.538-27.066C218.929,390.607,215.774,396.472,213.241,402.287z
	 M79.37,382.203c1.286-2.863,2.261-5.977,2.646-9.072c-0.523,1.318-1.407,2.444-2.413,3.57c-4.714,4.287-10.11,8.703-11.14,14.928
	c-0.169,0.885-0.218,1.803-0.476,2.663c-0.008,0-0.023,0-0.023,0c-0.008,0-0.024,0.024-0.024,0.024c-0.009,0-0.024,0-0.024,0H67.86
	l-0.024-0.024c-0.032-0.032-0.081-0.081-0.097-0.129c-0.008-0.008-0.023-0.04-0.031-0.048c0,0-0.017-0.024-0.024-0.024l0.578-7.688
	c0.202-7.537-3.394-15.879,0.958-22.498c-0.041-0.008-0.072-0.008-0.097,0h-0.032c-0.017,0.008-0.057,0.041-0.073,0.049
	c-0.039,0.031-0.08,0.057-0.128,0.072c-3.948,5.051-6.78,10.576-6.604,17.35c-0.547,8.332,4.802,14.22,5.397,22.063
	C68.922,395.249,75.718,389.361,79.37,382.203z M70.048,383.73c1.383-2.83,3.82-5.348,6.338-7.561
	c6.097-4.303,12.451-10.326,12.54-17.968c-1.971,5.493-7.915,7.81-11.937,11.534c-2.074,2.035-3.732,4.399-4.682,6.885l-0.145-0.129
	c0.491-2.188,1.488-4.182,2.06-6.33c1.794-5.815,1.415-12.789,7.086-16.689c-2.92,0.748-5.519,2.501-7.568,5.051
	c-4.706,4.955-4.207,12.596-3.539,19.279C70.337,379.871,69.911,381.809,70.048,383.73z M84.075,442.93
	c-0.804-2.027-2.034-3.934-2.639-6.057c-2.323-9.709-1.077-20.881-5.228-29.84c0.772,5.099-1.23,9.586-1.689,14.43
	c-0.395,3.98,0.21,7.914,1.866,11.212c0.347,1.036,1.271,1.882,1.504,2.887c-1.487-1.343-2.453-3.112-3.571-4.721
	c-4.722-7.858-14.92-12.862-15.604-22.345c-0.345,4.215-0.159,8.768,1.433,12.443C63.927,431.581,75.549,437.115,84.075,442.93z
	 M81.437,423.271c3.499,6.998,1.835,16.119,6.507,22.627c1.287,2.146,3.419,4.021,5.253,5.678l-0.096,0.096
	c-1.658-0.771-3.186-1.882-4.65-3.192c-7.986-6.548-19.882-7.448-24.636-18.218c1.287,7.906,7.439,15.113,14.324,19.352
	c6.314,4.408,14.696,3.756,21.846,6.105c-6.604-5.326-7.697-13.305-10.561-20.357C87.518,431.041,84.614,427.084,81.437,423.271z
	 M71.633,423.875l0.426,0.354c-0.451-3.129-0.708-6.516,0.178-9.499c1.343-4.785,2.895-9.45,3.916-14.381
	c0.547-3.868,1.513-8.155,1.062-11.888c-0.515,2.011-1.125,3.934-2.164,5.678c-4.254,6.451-8.492,14.133-5.557,22.377
	c-0.016,0.008-0.023,0.049-0.049,0.072c-0.009,0.008-0.017,0.016-0.024,0.023c-0.016,0.016-0.031,0.016-0.048,0.023
	c-0.024,0.018-0.056,0.025-0.08,0.025H69.22c-1.183-2.719-1.384-5.848-2.213-8.744c-1.97-7.744-7.971-14.203-6.257-23.123
	c-0.908,1.93-1.279,4.102-1.762,6.209c-1.03,5.47-0.016,11.285,1.479,16.313C62.31,413.611,68.511,418.108,71.633,423.875z"/>
<g id="_x32_">
	<path id="Kreis" fill="#FFFFFF" d="M511.938,120.917c0,48.48-39.34,87.82-87.811,87.82c-48.479,0-87.818-39.34-87.818-87.82
		c0-48.471,39.339-87.812,87.818-87.812C472.598,33.105,511.938,72.446,511.938,120.917L511.938,120.917z"/>
	<linearGradient id="SVGID_1_" gradientUnits="userSpaceOnUse" x1="367.4473" y1="118.9004" x2="481.5605" y2="118.9004">
		<stop  offset="0" style="stop-color:#C6C7C8"/>
		<stop  offset="0.5" style="stop-color:#ECEDED"/>
		<stop  offset="1" style="stop-color:#C6C7C8"/>
		<a:midPointStop  offset="0" style="stop-color:#C6C7C8"/>
		<a:midPointStop  offset="0.5" style="stop-color:#C6C7C8"/>
		<a:midPointStop  offset="0.5" style="stop-color:#ECEDED"/>
		<a:midPointStop  offset="0.5" style="stop-color:#ECEDED"/>
		<a:midPointStop  offset="1" style="stop-color:#C6C7C8"/>
	</linearGradient>
	<path fill="url(#SVGID_1_)" d="M424.504,61.844c-31.461,0-57.057,25.596-57.057,57.057s25.596,57.056,57.057,57.056
		s57.057-25.595,57.057-57.056S455.965,61.844,424.504,61.844z M479.459,117.863h-18.918c-0.064-6.402-0.732-12.094-1.846-17.144
		c7.742-2.813,12.188-6.056,14.232-7.831C476.953,100.352,479.291,108.846,479.459,117.863z M471.873,91.034
		c-1.693,1.49-5.955,4.732-13.676,7.585c-2.43-9.578-6.49-16.728-10.961-22.045c2.494-1.999,4.248-3.864,5.223-4.991
		C460.453,76.324,467.145,83.03,471.873,91.034z M456.229,138.489c-2.406,9.612-6.434,16.571-10.582,21.528
		c-2.957-2.147-6.721-4.281-11.207-5.649c1.676-5.579,3.186-12.171,4.123-19.651C445.693,135.532,451.529,136.917,456.229,138.489z
		 M434.439,83.434c4.459-1.36,8.205-3.476,11.152-5.61c4.338,5.146,8.287,12.109,10.639,21.486
		c-4.699,1.573-10.535,2.959-17.668,3.776C437.625,95.604,436.115,89.013,434.439,83.434z M438.801,132.638
		c0.434-3.998,0.697-8.236,0.732-12.701h18.934c-0.064,6.167-0.705,11.628-1.752,16.459
		C451.924,134.82,446.004,133.448,438.801,132.638z M439.533,117.863c-0.035-4.465-0.299-8.703-0.732-12.701
		c7.205-0.81,13.127-2.183,17.918-3.759c1.053,4.851,1.684,10.315,1.748,16.459H439.533z M450.609,70.522
		c-0.973,1.075-2.584,2.713-4.777,4.453c-4.943-5.378-10.219-8.654-14.264-10.587C438.379,65.266,444.811,67.381,450.609,70.522z
		 M444.176,76.221c-2.771,1.979-6.258,3.934-10.359,5.204c-2.6-8.111-5.453-13.852-7.09-16.813
		C430.379,65.872,437.563,69.071,444.176,76.221z M425.541,66.775c1.625,3.076,4.045,8.228,6.285,15.202
		c-1.969,0.475-4.07,0.773-6.285,0.848V66.775z M425.541,84.901c2.445-0.074,4.754-0.401,6.908-0.919
		c1.645,5.474,3.131,11.954,4.053,19.324c-3.371,0.322-7.025,0.511-10.961,0.541V84.901z M409.475,119.938
		c0.035,4.465,0.299,8.703,0.73,12.701c-7.205,0.81-13.125,2.183-17.916,3.759c-1.055-4.851-1.684-10.315-1.75-16.46H409.475z
		 M390.541,117.863c0.064-6.167,0.705-11.629,1.75-16.458c4.791,1.576,10.711,2.948,17.914,3.758
		c-0.432,3.998-0.695,8.236-0.73,12.701H390.541z M410.443,134.716c0.938,7.48,2.447,14.072,4.123,19.651
		c-4.457,1.361-8.203,3.475-11.152,5.609c-4.336-5.147-8.285-12.109-10.637-21.487C397.475,136.918,403.313,135.532,410.443,134.716
		z M392.779,99.312c2.404-9.613,6.434-16.571,10.58-21.528c2.957,2.148,6.723,4.281,11.207,5.65
		c-1.676,5.579-3.186,12.171-4.123,19.652C403.314,102.269,397.479,100.883,392.779,99.312z M416.564,83.983
		c2.152,0.518,4.459,0.844,6.9,0.918v18.945c-3.934-0.029-7.586-0.218-10.959-0.54C413.43,95.938,414.918,89.458,416.564,83.983z
		 M417.188,81.979c2.238-6.968,4.654-12.119,6.277-15.198v16.044C421.254,82.751,419.156,82.453,417.188,81.979z M415.189,81.424
		c-4.131-1.279-7.639-3.253-10.422-5.248c0.955-1.038,1.908-1.978,2.84-2.82c5.738-5.19,11.525-7.682,14.678-8.754
		C420.65,67.561,417.793,73.305,415.189,81.424z M417.439,64.388c-4.045,1.934-9.322,5.209-14.264,10.587
		c-2.195-1.739-3.807-3.378-4.777-4.453C404.197,67.381,410.627,65.266,417.439,64.388z M396.549,71.583
		c0.975,1.127,2.727,2.992,5.223,4.991c-4.471,5.318-8.531,12.468-10.963,22.045c-7.719-2.853-11.982-6.096-13.674-7.585
		C381.863,83.03,388.555,76.324,396.549,71.583z M376.078,92.889c2.045,1.775,6.492,5.018,14.234,7.831
		c-1.115,5.049-1.781,10.741-1.846,17.144h-18.918C369.717,108.846,372.055,100.352,376.078,92.889z M369.549,119.938h18.918
		c0.064,6.403,0.73,12.094,1.846,17.145c-7.742,2.812-12.189,6.055-14.234,7.83C372.055,137.45,369.717,128.955,369.549,119.938z
		 M377.135,146.767c1.691-1.489,5.955-4.731,13.674-7.584c2.432,9.577,6.492,16.727,10.963,22.044
		c-2.496,1.999-4.248,3.865-5.223,4.992C388.555,161.477,381.863,154.771,377.135,146.767z M398.398,167.277
		c0.971-1.073,2.582-2.713,4.777-4.452c4.941,5.377,10.219,8.653,14.264,10.587C410.627,172.534,404.197,170.42,398.398,167.277z
		 M404.83,161.579c2.771-1.979,6.258-3.933,10.359-5.203c2.602,8.111,5.455,13.852,7.092,16.813
		C418.629,171.927,411.445,168.729,404.83,161.579z M423.465,171.025c-1.625-3.077-4.043-8.227-6.283-15.202
		c1.969-0.474,4.07-0.775,6.283-0.848V171.025z M423.465,152.9c-2.445,0.073-4.752,0.399-6.908,0.919
		c-1.238-4.125-2.387-8.822-3.273-14.041c-0.398-0.691-0.742-1.416-1.01-2.172c-1.084-3.072-0.975-6.098-0.35-8.977
		c-0.215-2.792-0.35-5.684-0.375-8.692h3.379c0.285-0.716,0.547-1.407,0.781-2.075h-4.16c0.035-4.39,0.293-8.556,0.719-12.484
		c3.445,0.323,7.176,0.514,11.197,0.542v6.956h2.076v-6.956c4.021-0.029,7.754-0.22,11.199-0.542
		c0.426,3.927,0.682,8.093,0.717,12.484h-3.092c0.27,0.588,0.564,1.281,0.865,2.075h2.227c-0.021,2.646-0.131,5.201-0.303,7.681
		c0.158,1.24,0.26,2.538,0.26,3.897c0,1.893-0.496,3.797-1.275,5.626c-0.926,6.28-2.25,11.867-3.695,16.676
		c-2.152-0.519-4.459-0.845-6.902-0.918v-3.149c-0.455-0.205-1.184-0.546-2.076-1.023V152.9z M425.541,154.976
		c2.213,0.073,4.311,0.373,6.279,0.847c-2.238,6.967-4.656,12.118-6.279,15.197V154.976z M433.816,156.376
		c4.133,1.279,7.641,3.254,10.424,5.248c-0.957,1.038-1.91,1.977-2.84,2.82c-5.738,5.19-11.525,7.682-14.68,8.754
		C428.357,170.239,431.215,164.496,433.816,156.376z M431.568,173.413c4.045-1.934,9.32-5.209,14.264-10.587
		c2.193,1.739,3.805,3.378,4.777,4.452C444.811,170.42,438.379,172.534,431.568,173.413z M452.459,166.218
		c-0.975-1.127-2.729-2.993-5.223-4.992c4.471-5.317,8.531-12.467,10.961-22.044c7.721,2.853,11.982,6.095,13.676,7.584
		C467.145,154.771,460.453,161.477,452.459,166.218z M472.928,144.912c-2.045-1.775-6.49-5.018-14.232-7.83
		c1.113-5.051,1.781-10.741,1.846-17.145h18.918C479.291,128.955,476.953,137.45,472.928,144.912z"/>
	<path d="M369.201,163.262c-0.805-2.027-2.035-3.934-2.639-6.056c-2.324-9.708-1.078-20.881-5.229-29.84
		c0.773,5.099-1.23,9.586-1.689,14.429c-0.395,3.981,0.211,7.915,1.867,11.212c0.346,1.037,1.271,1.881,1.504,2.887
		c-1.488-1.343-2.453-3.113-3.572-4.721c-4.721-7.859-14.92-12.862-15.604-22.345c-0.346,4.215-0.16,8.768,1.432,12.444
		C349.053,151.914,360.674,157.447,369.201,163.262z M366.313,76.395c-2.428,3.266-2.484,7.504-4.197,11.06
		c3.168-2.984,6.725-5.252,9.521-8.727c3.123-4.343,6.051-9.049,10.256-12.74C376.166,68.223,369.756,70.354,366.313,76.395z
		 M426.83,112.742h-3.918c-1.221,0.266-2.242,1.005-3.24,1.706c0.08,0.04,0.186,0.088,0.273,0.128
		c2.012-1.021,4.383-1.56,6.637-1.11c1.334,0.281,2.551,0.909,3.844,1.311c-0.096-0.129-0.199-0.233-0.297-0.354
		C429.18,113.627,428.012,113.112,426.83,112.742z M356.758,144.208l0.426,0.354c-0.451-3.129-0.707-6.516,0.178-9.5
		c1.344-4.785,2.895-9.45,3.916-14.381c0.547-3.869,1.514-8.156,1.063-11.888c-0.516,2.011-1.125,3.934-2.164,5.679
		c-4.254,6.451-8.492,14.132-5.557,22.376c-0.016,0.008-0.023,0.048-0.049,0.073c-0.01,0.008-0.018,0.016-0.025,0.023
		c-0.016,0.016-0.031,0.016-0.047,0.023c-0.025,0.017-0.057,0.025-0.08,0.025h-0.072c-1.184-2.719-1.385-5.847-2.213-8.744
		c-1.971-7.745-7.971-14.204-6.258-23.124c-0.908,1.93-1.279,4.102-1.762,6.209c-1.029,5.47-0.016,11.285,1.48,16.312
		C347.436,133.944,353.637,138.441,356.758,144.208z M355.174,104.063c1.383-2.831,3.82-5.348,6.338-7.561
		c6.096-4.303,12.451-10.327,12.539-17.968c-1.971,5.493-7.914,7.81-11.936,11.534c-2.074,2.035-3.732,4.4-4.682,6.885l-0.145-0.128
		c0.49-2.188,1.488-4.182,2.059-6.33c1.795-5.815,1.416-12.789,7.086-16.689c-2.92,0.748-5.518,2.501-7.568,5.051
		c-4.705,4.955-4.207,12.596-3.539,19.28C355.463,100.203,355.037,102.141,355.174,104.063z M364.496,102.536
		c1.285-2.864,2.26-5.976,2.646-9.073c-0.523,1.319-1.408,2.445-2.414,3.571c-4.713,4.287-10.109,8.703-11.139,14.928
		c-0.17,0.885-0.219,1.802-0.477,2.663c-0.008,0-0.023,0-0.023,0c-0.008,0-0.023,0.024-0.023,0.024c-0.01,0-0.025,0-0.025,0h-0.055
		l-0.025-0.024c-0.031-0.032-0.08-0.081-0.096-0.129c-0.008-0.008-0.023-0.04-0.031-0.048c0,0-0.018-0.024-0.025-0.024l0.578-7.689
		c0.203-7.537-3.393-15.878,0.959-22.498c-0.041-0.008-0.072-0.008-0.098,0h-0.031c-0.018,0.008-0.057,0.041-0.074,0.049
		c-0.039,0.032-0.08,0.056-0.127,0.072c-3.949,5.051-6.781,10.577-6.604,17.349c-0.547,8.333,4.801,14.22,5.396,22.063
		C354.047,115.582,360.844,109.694,364.496,102.536z M366.563,143.604c3.498,6.998,1.834,16.119,6.506,22.626
		c1.287,2.146,3.42,4.022,5.254,5.678l-0.096,0.096c-1.658-0.772-3.186-1.882-4.65-3.193c-7.986-6.548-19.883-7.448-24.637-18.218
		c1.287,7.907,7.439,15.114,14.324,19.352c6.314,4.408,14.697,3.756,21.846,6.105c-6.604-5.325-7.697-13.304-10.561-20.357
		C372.643,151.374,369.74,147.417,366.563,143.604z M495.906,113.394c0,0.016-0.023,0.032-0.023,0.048c-0.01,0.008,0,0.04,0,0.048
		c-0.01,0.016-0.041,0.041-0.049,0.057c-0.016,0.008-0.041,0.016-0.057,0.024c-0.031,0.016-0.063,0.024-0.096,0.024
		c-0.547-1.777-0.5-3.829-1.383-5.477c-2.148-6.54-10.047-9.604-13.25-15.54c0.453,2.59,1.266,5.035,2.213,7.416
		c3.002,7.279,10.281,12.772,12.291,20.486c0.232,0.716,0.297,1.576,0.555,2.212c0.539-3.7,1.488-7.263,2.863-10.609
		c3.691-7.883,2.607-18.838-2.461-25.714c-0.895-1.102-1.48-2.542-2.768-3.29c2.004,2.791,2.365,6.274,2.414,9.877
		C495.246,99.607,494.957,106.662,495.906,113.394z M498.367,122.62c-1.777,4.037-2.373,8.606-3.516,12.941l-0.33,0.378
		l-0.152-0.128c0.402-1.882,1.063-3.716,0.885-5.856c0.484-8.831-7.229-14.244-8.975-22.119l-0.098,2.944
		c0.652,7.713,2.703,14.864,5.027,21.894c1.336,3.258,0.934,7.489,0.627,10.931c2.775-4.351,6.404-8.333,9.395-12.619
		c4.215-7.73,5.391-18.79,1.537-27.066C504.055,110.94,500.9,116.804,498.367,122.62z M486.182,79.057
		c1.697,5.566,2.533,11.445,4.971,16.666l-0.145,0.152c-0.918-1.456-1.398-3.241-2.814-4.528
		c-4.248-5.574-11.615-7.038-14.359-13.65c0.693,3.95,1.885,7.673,4.65,10.738c4.785,5.156,11.736,8.205,15.01,14.655l0.049-0.057
		c-1.225-6.081,0.73-11.944-0.605-17.969c-1.156-5.325-5.99-11.148-11.559-12.29C483.646,74.295,485.33,76.645,486.182,79.057z
		 M424.463,32.758c-48.795,0-88.35,39.555-88.35,88.35s39.555,88.35,88.35,88.35c48.793,0,88.35-39.555,88.35-88.35
		S473.256,32.758,424.463,32.758z M449.928,201.778c-0.268-3.728-0.521-7.449-0.768-11.168c4.873,1.793,10.207,2.268,15.402,0.321
		c3.854-1.368,7.576-3.836,10.303-7.239c-5.301,3.78-13.311,4.432-19.504,2.141l-6.662-2.688c-0.023-0.016-0.047-0.048-0.072-0.048
		c-0.008-0.121-0.016-0.226-0.023-0.33c-0.145-0.708,0.033-1.432-0.227-2.115c0.123-0.073,0.25-0.146,0.381-0.226
		c8.139,1.811,16.615,4.793,25.029,1.608c5.607-1.97,11.768-6.675,14.229-12.29c-6.627,8.06-17.455,6.531-26.895,8.019
		c-2.543,0.258-4.877,1.159-7.441,1.103c1.801-0.853,3.996-1.038,5.727-2.18c7.045-3.522,7.504-11.316,11.768-16.794
		c-3.242,2.212-6.131,4.81-8.951,7.544v-3.5c-0.195-0.659-0.059-1.335-0.195-2.011c-0.143-2.139-0.273-4.287-0.555-6.41
		c-0.547-2.791-0.459-5.671-0.98-8.47c-0.162-0.981-0.717-1.825-1.006-2.767c0.322-0.129,0.652-0.282,0.982-0.402
		c-0.098-0.241-0.146-0.523-0.33-0.725c-0.033-0.039-0.096-0.096-0.123-0.128c-0.311-0.282-0.689-0.595-0.609-1.054
		c0.145-0.723,0.756-1.247,1.135-1.857c-0.402-0.418-0.959-0.595-1.48-0.805c0.008-0.683,0.039-1.399-0.08-2.058
		c-0.338-2.889-0.846-5.76-1.102-8.656c-0.066-1.527-1.078-3.063-2.615-3.562c-3.459-0.121-6.877-0.821-10.232-1.634
		c-2.258-0.563-4.656-1.294-6.256-3.04c-0.916-1.198-2.268-1.947-3.441-2.872c-1.313-0.933-2.574-2.083-4.225-2.413
		c0.514,1.102,1.834,1.616,2.285,2.743c0.121,0.644-0.363,1.246-0.225,1.906c-0.082,0.804,1.012,0.949,1.158,1.665
		c0.457,1.457,0.199,3.016,0.273,4.52c-0.234,4.151-0.854,8.277-1.908,12.314c-0.699,2.406-1.488,4.827-2.838,6.966
		c-0.443,0.724-1.037,1.383-1.713,1.906c-0.008-1.874,0.031-3.788,0-5.678c-0.234-1.368,0.016-2.767-0.227-4.119
		c0.008-1.962-0.434-3.876-0.756-5.807c-0.242-1.447-0.66-2.871-0.982-4.294c-0.199-0.797-0.441-1.602-0.473-2.414
		c0.016-0.467,0.508-0.725,0.828-0.981c1.094,1.021,1.721,2.413,2.688,3.539c-0.322-1.295-0.926-2.518-1.48-3.74
		c-0.66-1.408-1.617-2.647-2.566-3.877c0.941-0.257,1.811-0.684,2.695-1.078c1.256-0.7,2.693-1.239,3.619-2.389
		c-0.234-0.41-0.371-0.941-0.828-1.158c0.127,0.394,0.281,0.78,0.449,1.158c-0.289,0.121-0.611,0.41-0.934,0.225
		c-1.439-0.756-2.975-1.609-4.672-1.48c-0.635,0.032-1.279-0.008-1.916,0c-0.521,0.008-1.045,0.056-1.551,0.225
		c-1.182,0.322-2.268,0.893-3.346,1.456c-0.178-0.241-0.387-0.475-0.557-0.724c0.146-0.145,0.299-0.273,0.461-0.402
		c-0.314-0.032-0.693-0.024-0.936,0.121c-0.031,0.032-0.078,0.088-0.104,0.129c-0.016,0.016-0.023,0.056-0.023,0.072
		c-0.016,0.024-0.041,0.073-0.049,0.105c-0.008,0.08-0.033,0.161,0,0.273c1.135,1.078,2.703,1.689,4.119,2.34
		c0.82,0.386,1.656,0.708,2.445,1.15c-1.199,0.796-1.602,2.196-2.27,3.37c-0.506,1.255-1.287,2.396-1.633,3.724
		c0.805-0.692,1.279-1.648,1.963-2.438c0.24-0.394,0.643-0.651,1.053-0.828c0.348,0.33,0.668,0.667,0.982,1.054
		c-0.242,2.622-1.432,5.042-1.834,7.641c-0.154,1.826-0.178,3.652-0.273,5.478c-0.201,1.159,0.023,2.365-0.201,3.524
		c-0.057,2.066-0.01,4.149-0.025,6.225c0.041,0.073,0.154,0.226,0.193,0.307c-0.047,0.016-0.152,0.088-0.193,0.096
		c-1.584-1.85-2.789-3.949-3.973-6.057c-1.818-3.033-2.951-6.443-3.521-9.902c-0.105-1.255-0.34-2.525-0.123-3.796
		c0.082-1.496,0.219-3.056,0.781-4.472c0.338-0.94,0.828-1.874,0.973-2.863c-0.441-0.724-0.57-1.609-0.297-2.414
		c0.242-0.724,0.547-1.432,0.781-2.164c-1.408,0.909-2.953,1.585-4.328,2.542c-0.588,0.387-0.98,0.981-1.455,1.48
		c-0.838,0.764-1.932,1.126-2.969,1.561c-1.77,0.78-3.74,1.03-5.631,1.431c-2.219,0.443-4.496,0.627-6.707,1.182
		c-0.717,0.194-1.416,0.652-1.658,1.352c-0.354,0.949-0.441,1.979-0.756,2.944c-0.732,2.453-1.287,4.938-1.785,7.44
		c-0.152,0.756-0.58,1.495-0.449,2.292c0.111,0.337,0.369,0.62,0.602,0.901c-0.064,0.192-0.129,0.386-0.176,0.579
		c-0.41,0.273-0.934,0.418-1.254,0.78c-0.035,0.04-0.043,0.08-0.059,0.121c0,0.024-0.023,0.04-0.023,0.056v0.096
		c0,0.009,0,0.024,0,0.024c0,0.009,0.023,0.017,0.023,0.024c0,0.016,0.023,0.041,0.023,0.056c0.115,0.282,0.492,0.466,0.758,0.579
		c-0.018,0.612-0.627,1.03-0.676,1.656c-0.232,1.771-0.668,3.5-1.029,5.253c-0.402,2.164-0.771,4.319-0.982,6.508
		c-0.16,2.855-0.844,5.653-0.955,8.525c-0.01,0.9-0.242,1.817-0.051,2.71c0.154,0.973,0.732,1.817,1.232,2.637
		c0.152,0.234,0.289,0.452,0.451,0.685c-3.41-3.29-6.799-6.467-10.602-9c4.303,5.815,5.484,14.47,13.439,17.269
		c1.326,0.692,3.016,0.612,4.223,1.384c-1.52,0.233-2.838-0.363-4.27-0.556c-10.152-2.276-22.619,0.611-30.234-8.067
		c2.885,5.67,8.83,10.223,14.574,12.041c7.672,2.605,15.65,0.426,23.074-1.537c-0.137,1.062-0.289,2.131-0.426,3.193
		c-1.311,0.579-2.613,1.183-3.893,1.73c-6.25,2.46-14.422,2.059-19.916-1.73c2.719,3.411,6.355,5.51,10.111,6.934
		c4.053,1.625,8.551,1.649,12.74,0.603c-0.389,2.98-0.789,5.958-1.166,8.932c-32.828-11.623-56.352-42.925-56.352-79.736
		c0-46.712,37.867-84.579,84.58-84.579c46.711,0,84.578,37.867,84.578,84.579C509.041,158.943,484.193,190.971,449.928,201.778z
		 M494.369,144.055c-3.209,3.442-5.348,7.303-8.09,10.914h-0.354c2.033-3.097,3.305-6.531,3.496-10.407
		c0.195-6.419-2.572-11.855-1.865-18.25l-1.277,3.442c-3.451,10.272-0.709,23.101-6.307,32.43v0.322
		c3.658-2.839,7.504-5.146,11.309-7.641c9.234-6.305,15.492-16.079,13.801-27.218C504.426,134.323,499.357,139.245,494.369,144.055z
		 M426.582,104.643c0.594-0.572,0.908-1.279,0.908-2.083c0-0.804-0.314-1.472-0.908-2.035c-0.588-0.563-1.313-0.853-2.164-0.853
		c-0.83,0-1.561,0.29-2.156,0.853c-0.594,0.563-0.885,1.231-0.885,2.035c0,0.805,0.291,1.512,0.885,2.083
		c0.588,0.563,1.326,0.836,2.156,0.836C425.262,105.471,425.994,105.206,426.582,104.643z M430.707,81.72
		c-1.271-1.11-3.137-1.681-5.58-1.681c-2.311,0-4.096,0.547-5.383,1.609c-1.287,1.078-1.93,2.3-1.93,3.724
		c0,0.764,0.225,1.423,0.699,1.906c0.482,0.458,1.078,0.676,1.785,0.676c0.637,0,1.158-0.177,1.586-0.571
		c0.418-0.394,0.627-0.901,0.627-1.488c0-0.652-0.266-1.439-0.805-2.365c-0.242-0.402-0.354-0.684-0.354-0.876
		c0-0.29,0.178-0.579,0.531-0.853c0.457-0.346,1.02-0.506,1.703-0.506c0.902,0,1.689,0.378,2.342,1.134
		c0.652,0.756,0.98,1.923,0.98,3.515c0,1.037-0.111,1.914-0.328,2.614c-0.201,0.708-0.643,1.625-1.305,2.791
		c-0.65,1.15-1.061,2.051-1.229,2.718c-0.154,0.652-0.211,1.649-0.178,2.992h0.779c0.088-1.279,0.307-2.236,0.701-2.839
		c0.408-0.635,1.246-1.319,2.518-2.115c1.873-1.174,3.137-2.252,3.787-3.218c0.66-0.965,1.006-2.019,1.014-3.168
		C432.67,84.148,431.994,82.822,430.707,81.72z M486.053,86.521l-0.699-1.608c-1.23-5.043-3.119-9.91-7.32-13.674
		c-3.57-3.209-8.066-4.254-12.242-6.032l4.754,4.802C474.43,76.234,479.965,82.138,486.053,86.521z M493.742,157.359
		c-6.635,4.97-14.646,6.708-20.783,12.836c-0.66,0.434-1.32,1.094-2.061,1.134c2.295-2.003,4.377-4.496,5.832-7.038
		c3.773-6.411,2.342-14.985,5.631-21.587c-2.012,2.195-3.436,4.616-5.154,6.933c-5.406,8.196-4.939,18.982-13.047,25.939
		c4.785-1.632,10.055-2.042,14.984-3.37c9.521-3.032,19.633-12.587,20.881-22.771C498.865,152.444,496.406,155.235,493.742,157.359z
		 M360.018,231.173l-11.076-11.604v14.807h1.582v-10.945l11.078,11.585v-14.844h-1.584V231.173z M380.105,219.926
		c-4.051,0-7.404,3.297-7.404,7.367c0,4.087,3.354,7.328,7.404,7.328c4.049,0,7.402-3.24,7.402-7.328
		C387.508,223.223,384.154,219.926,380.105,219.926z M380.105,233.151c-3.223,0-5.822-2.675-5.822-5.878
		c0-3.222,2.563-5.877,5.822-5.877s5.82,2.656,5.82,5.877C385.926,230.476,383.326,233.151,380.105,233.151z M520.516,226.237
		l-0.941-0.414c-0.961-0.433-2.223-0.999-2.223-2.223c0-1.3,1.092-2.204,2.355-2.204c1.205,0,1.883,0.564,2.447,1.544l1.264-0.81
		c-0.754-1.394-2.092-2.204-3.674-2.204c-2.111,0-3.975,1.413-3.975,3.617c0,2.034,1.432,2.882,3.088,3.636l0.867,0.377
		c1.318,0.603,2.619,1.168,2.619,2.826c0,1.602-1.395,2.77-2.92,2.77s-2.637-1.187-2.846-2.637l-1.543,0.433
		c0.451,2.204,2.146,3.673,4.426,3.673c2.469,0,4.465-1.902,4.465-4.389C523.926,227.971,522.361,227.047,520.516,226.237z
		 M325.502,234.376h1.732l1.715-4.031h6.066l1.676,4.031h1.752l-6.385-14.883L325.502,234.376z M329.59,228.875l2.43-5.688
		l2.373,5.688H329.59z M475.539,219.926c-4.049,0-7.402,3.297-7.402,7.367c0,4.087,3.354,7.328,7.402,7.328
		c4.051,0,7.406-3.24,7.406-7.328C482.945,223.223,479.59,219.926,475.539,219.926z M475.539,233.151
		c-3.221,0-5.82-2.675-5.82-5.878c0-3.222,2.561-5.877,5.82-5.877s5.822,2.656,5.822,5.877
		C481.361,230.476,478.762,233.151,475.539,233.151z M502.465,228.63c0,1.111,0.057,2.354-0.697,3.259
		c-0.66,0.791-1.771,1.262-2.787,1.262c-1.037,0-2.244-0.49-2.863-1.356c-0.66-0.904-0.623-2.11-0.623-3.165v-8.458h-1.582v8.892
		c0,1.62,0.15,2.92,1.395,4.107c0.959,0.941,2.336,1.45,3.674,1.45c1.432,0,2.844-0.565,3.822-1.62
		c1.131-1.167,1.246-2.393,1.246-3.937v-8.892h-1.584V228.63z M450.121,231.286l-5.16-11.924l-2.883,15.014h1.621l1.826-9.608h0.039
		l4.557,10.192l4.58-10.192h0.037l1.826,9.608h1.619l-2.879-15.014L450.121,231.286z M409.686,231.173l-11.076-11.604v14.807h1.582
		v-10.945l11.076,11.585v-14.844h-1.582V231.173z M427.248,226.501l-3.617-6.33h-1.828l4.654,8.1v6.104h1.584v-6.104l4.65-8.1
		h-1.826L427.248,226.501z"/>
</g>
<g id="_x31_">
	<linearGradient id="SVGID_2_" gradientUnits="userSpaceOnUse" x1="83.3223" y1="118.9004" x2="197.4355" y2="118.9004">
		<stop  offset="0" style="stop-color:#3E3D40"/>
		<stop  offset="0.5" style="stop-color:#282829"/>
		<stop  offset="1" style="stop-color:#3E3D40"/>
		<a:midPointStop  offset="0" style="stop-color:#3E3D40"/>
		<a:midPointStop  offset="0.5" style="stop-color:#3E3D40"/>
		<a:midPointStop  offset="0.5" style="stop-color:#282829"/>
		<a:midPointStop  offset="0.5" style="stop-color:#282829"/>
		<a:midPointStop  offset="1" style="stop-color:#3E3D40"/>
	</linearGradient>
	<path fill="url(#SVGID_2_)" d="M140.379,61.844c-31.461,0-57.057,25.596-57.057,57.057s25.596,57.056,57.057,57.056
		s57.057-25.595,57.057-57.056S171.84,61.844,140.379,61.844z M195.334,117.863h-18.918c-0.064-6.402-0.731-12.094-1.846-17.144
		c7.742-2.813,12.188-6.056,14.233-7.831C192.829,100.352,195.166,108.846,195.334,117.863z M187.748,91.034
		c-1.692,1.49-5.955,4.732-13.675,7.585c-2.431-9.578-6.491-16.728-10.962-22.045c2.495-1.999,4.248-3.864,5.223-4.991
		C176.328,76.324,183.021,83.03,187.748,91.034z M172.104,138.489c-2.405,9.612-6.434,16.571-10.581,21.528
		c-2.957-2.147-6.722-4.281-11.207-5.649c1.676-5.579,3.186-12.171,4.123-19.651C161.569,135.532,167.404,136.917,172.104,138.489z
		 M150.315,83.434c4.458-1.36,8.204-3.476,11.152-5.61c4.337,5.146,8.287,12.109,10.639,21.486
		c-4.699,1.573-10.535,2.959-17.668,3.776C153.501,95.604,151.991,89.013,150.315,83.434z M154.677,132.638
		c0.433-3.998,0.696-8.236,0.731-12.701h18.934c-0.064,6.167-0.704,11.628-1.751,16.459
		C167.8,134.82,161.88,133.448,154.677,132.638z M155.408,117.863c-0.035-4.465-0.299-8.703-0.731-12.701
		c7.205-0.81,13.126-2.183,17.917-3.759c1.054,4.851,1.685,10.315,1.749,16.459H155.408z M166.485,70.522
		c-0.973,1.075-2.584,2.713-4.778,4.453c-4.942-5.378-10.219-8.654-14.264-10.587C154.255,65.266,160.686,67.381,166.485,70.522z
		 M160.052,76.221c-2.771,1.979-6.258,3.934-10.359,5.204c-2.601-8.111-5.454-13.852-7.091-16.813
		C146.254,65.872,153.438,69.071,160.052,76.221z M141.417,66.775c1.625,3.076,4.045,8.228,6.284,15.202
		c-1.969,0.475-4.07,0.773-6.284,0.848V66.775z M141.417,84.901c2.445-0.074,4.753-0.401,6.908-0.919
		c1.645,5.474,3.131,11.954,4.053,19.324c-3.371,0.322-7.026,0.511-10.961,0.541V84.901z M125.35,119.938
		c0.036,4.465,0.299,8.703,0.731,12.701c-7.205,0.81-13.126,2.183-17.917,3.759c-1.054-4.851-1.684-10.315-1.749-16.46H125.35z
		 M106.416,117.863c0.065-6.167,0.706-11.629,1.751-16.458c4.791,1.576,10.711,2.948,17.914,3.758
		c-0.433,3.998-0.695,8.236-0.731,12.701H106.416z M126.319,134.716c0.938,7.48,2.447,14.072,4.123,19.651
		c-4.458,1.361-8.204,3.475-11.152,5.609c-4.337-5.147-8.286-12.109-10.638-21.487C113.351,136.918,119.188,135.532,126.319,134.716
		z M108.655,99.312c2.404-9.613,6.433-16.571,10.58-21.528c2.957,2.148,6.722,4.281,11.207,5.65
		c-1.676,5.579-3.186,12.171-4.123,19.652C119.189,102.269,113.354,100.883,108.655,99.312z M132.439,83.983
		c2.152,0.518,4.459,0.844,6.901,0.918v18.945c-3.934-0.029-7.587-0.218-10.959-0.54C129.305,95.938,130.793,89.458,132.439,83.983z
		 M133.063,81.979c2.239-6.968,4.655-12.119,6.278-15.198v16.044C137.129,82.751,135.031,82.453,133.063,81.979z M131.065,81.424
		c-4.132-1.279-7.64-3.253-10.422-5.248c0.955-1.038,1.908-1.978,2.839-2.82c5.738-5.19,11.525-7.682,14.679-8.754
		C136.525,67.561,133.668,73.305,131.065,81.424z M133.314,64.388c-4.045,1.934-9.321,5.209-14.264,10.587
		c-2.194-1.739-3.806-3.378-4.777-4.453C120.072,67.381,126.503,65.266,133.314,64.388z M112.424,71.583
		c0.976,1.127,2.728,2.992,5.223,4.991c-4.47,5.318-8.531,12.468-10.962,22.045c-7.72-2.853-11.982-6.096-13.674-7.585
		C97.738,83.03,104.43,76.324,112.424,71.583z M91.954,92.889c2.045,1.775,6.491,5.018,14.233,7.831
		c-1.114,5.049-1.781,10.741-1.846,17.144H85.424C85.592,108.846,87.93,100.352,91.954,92.889z M85.424,119.938h18.918
		c0.064,6.403,0.731,12.094,1.846,17.145c-7.742,2.812-12.188,6.055-14.233,7.83C87.93,137.45,85.592,128.955,85.424,119.938z
		 M93.011,146.767c1.691-1.489,5.954-4.731,13.674-7.584c2.431,9.577,6.492,16.727,10.962,22.044
		c-2.495,1.999-4.247,3.865-5.223,4.992C104.43,161.477,97.738,154.771,93.011,146.767z M114.274,167.277
		c0.971-1.073,2.582-2.713,4.776-4.452c4.942,5.377,10.219,8.653,14.264,10.587C126.503,172.534,120.072,170.42,114.274,167.277z
		 M120.706,161.579c2.771-1.979,6.258-3.933,10.359-5.203c2.601,8.111,5.454,13.852,7.091,16.813
		C134.504,171.927,127.32,168.729,120.706,161.579z M139.341,171.025c-1.625-3.077-4.044-8.227-6.284-15.202
		c1.97-0.474,4.07-0.775,6.284-0.848V171.025z M139.341,152.9c-2.445,0.073-4.753,0.399-6.908,0.919
		c-1.239-4.125-2.388-8.822-3.273-14.041c-0.399-0.691-0.742-1.416-1.01-2.172c-1.085-3.072-0.975-6.098-0.351-8.977
		c-0.215-2.792-0.35-5.684-0.374-8.692h3.379c0.285-0.716,0.547-1.407,0.78-2.075h-4.159c0.035-4.39,0.293-8.556,0.719-12.484
		c3.445,0.323,7.176,0.514,11.197,0.542v6.956h2.076v-6.956c4.021-0.029,7.754-0.22,11.198-0.542
		c0.426,3.927,0.683,8.093,0.718,12.484h-3.093c0.271,0.588,0.565,1.281,0.866,2.075h2.227c-0.021,2.646-0.132,5.201-0.303,7.681
		c0.158,1.24,0.26,2.538,0.26,3.897c0,1.893-0.496,3.797-1.275,5.626c-0.927,6.28-2.25,11.867-3.696,16.676
		c-2.152-0.519-4.458-0.845-6.901-0.918v-3.149c-0.456-0.205-1.184-0.546-2.076-1.023V152.9z M141.417,154.976
		c2.212,0.073,4.311,0.373,6.278,0.847c-2.238,6.967-4.655,12.118-6.278,15.197V154.976z M149.692,156.376
		c4.132,1.279,7.641,3.254,10.423,5.248c-0.956,1.038-1.909,1.977-2.84,2.82c-5.737,5.19-11.525,7.682-14.679,8.754
		C144.232,170.239,147.09,164.496,149.692,156.376z M147.443,173.413c4.045-1.934,9.321-5.209,14.264-10.587
		c2.194,1.739,3.806,3.378,4.777,4.452C160.686,170.42,154.255,172.534,147.443,173.413z M168.334,166.218
		c-0.975-1.127-2.728-2.993-5.223-4.992c4.471-5.317,8.531-12.467,10.962-22.044c7.72,2.853,11.982,6.095,13.675,7.584
		C183.021,154.771,176.328,161.477,168.334,166.218z M188.804,144.912c-2.045-1.775-6.491-5.018-14.233-7.83
		c1.114-5.051,1.781-10.741,1.846-17.145h18.918C195.166,128.955,192.829,137.45,188.804,144.912z"/>
	<path fill="#FFFFFF" d="M84.075,163.262c-0.804-2.027-2.034-3.934-2.639-6.056c-2.323-9.708-1.077-20.881-5.228-29.84
		c0.772,5.099-1.23,9.586-1.689,14.429c-0.395,3.981,0.21,7.915,1.866,11.212c0.347,1.037,1.271,1.881,1.504,2.887
		c-1.487-1.343-2.453-3.113-3.571-4.721c-4.722-7.859-14.92-12.862-15.604-22.345c-0.345,4.215-0.159,8.768,1.433,12.444
		C63.927,151.914,75.549,157.447,84.075,163.262z M81.188,76.395c-2.429,3.266-2.485,7.504-4.198,11.06
		c3.168-2.984,6.725-5.252,9.522-8.727c3.122-4.343,6.05-9.049,10.256-12.74C91.04,68.223,84.631,70.354,81.188,76.395z
		 M141.705,112.742h-3.918c-1.221,0.266-2.243,1.005-3.24,1.706c0.08,0.04,0.186,0.088,0.273,0.128
		c2.011-1.021,4.383-1.56,6.636-1.11c1.335,0.281,2.551,0.909,3.845,1.311c-0.097-0.129-0.2-0.233-0.297-0.354
		C144.054,113.627,142.887,113.112,141.705,112.742z M71.633,144.208l0.426,0.354c-0.451-3.129-0.708-6.516,0.178-9.5
		c1.343-4.785,2.895-9.45,3.916-14.381c0.547-3.869,1.513-8.156,1.062-11.888c-0.515,2.011-1.125,3.934-2.164,5.679
		c-4.254,6.451-8.492,14.132-5.557,22.376c-0.016,0.008-0.023,0.048-0.049,0.073c-0.009,0.008-0.017,0.016-0.024,0.023
		c-0.016,0.016-0.031,0.016-0.048,0.023c-0.024,0.017-0.056,0.025-0.08,0.025H69.22c-1.183-2.719-1.384-5.847-2.213-8.744
		c-1.97-7.745-7.971-14.204-6.257-23.124c-0.908,1.93-1.279,4.102-1.762,6.209c-1.03,5.47-0.016,11.285,1.479,16.312
		C62.31,133.944,68.511,138.441,71.633,144.208z M70.048,104.063c1.383-2.831,3.82-5.348,6.338-7.561
		c6.097-4.303,12.451-10.327,12.54-17.968c-1.971,5.493-7.915,7.81-11.937,11.534c-2.074,2.035-3.732,4.4-4.682,6.885l-0.145-0.128
		c0.491-2.188,1.488-4.182,2.06-6.33c1.794-5.815,1.415-12.789,7.086-16.689c-2.92,0.748-5.519,2.501-7.568,5.051
		c-4.706,4.955-4.207,12.596-3.539,19.28C70.337,100.203,69.911,102.141,70.048,104.063z M79.37,102.536
		c1.286-2.864,2.261-5.976,2.646-9.073c-0.523,1.319-1.407,2.445-2.413,3.571c-4.714,4.287-10.11,8.703-11.14,14.928
		c-0.169,0.885-0.218,1.802-0.476,2.663c-0.008,0-0.023,0-0.023,0c-0.008,0-0.024,0.024-0.024,0.024c-0.009,0-0.024,0-0.024,0H67.86
		l-0.024-0.024c-0.032-0.032-0.081-0.081-0.097-0.129c-0.008-0.008-0.023-0.04-0.031-0.048c0,0-0.017-0.024-0.024-0.024l0.578-7.689
		c0.202-7.537-3.394-15.878,0.958-22.498c-0.041-0.008-0.072-0.008-0.097,0h-0.032c-0.017,0.008-0.057,0.041-0.073,0.049
		c-0.039,0.032-0.08,0.056-0.128,0.072c-3.948,5.051-6.78,10.577-6.604,17.349c-0.547,8.333,4.802,14.22,5.397,22.063
		C68.922,115.582,75.718,109.694,79.37,102.536z M81.437,143.604c3.499,6.998,1.835,16.119,6.507,22.626
		c1.287,2.146,3.419,4.022,5.253,5.678l-0.096,0.096c-1.658-0.772-3.186-1.882-4.65-3.193c-7.986-6.548-19.882-7.448-24.636-18.218
		c1.287,7.907,7.439,15.114,14.324,19.352c6.314,4.408,14.696,3.756,21.846,6.105c-6.604-5.325-7.697-13.304-10.561-20.357
		C87.518,151.374,84.614,147.417,81.437,143.604z M210.781,113.394c0,0.016-0.023,0.032-0.023,0.048c-0.01,0.008,0,0.04,0,0.048
		c-0.01,0.016-0.041,0.041-0.05,0.057c-0.016,0.008-0.041,0.016-0.057,0.024c-0.031,0.016-0.063,0.024-0.096,0.024
		c-0.546-1.777-0.499-3.829-1.383-5.477c-2.148-6.54-10.046-9.604-13.249-15.54c0.452,2.59,1.265,5.035,2.213,7.416
		c3.001,7.279,10.28,12.772,12.291,20.486c0.231,0.716,0.297,1.576,0.554,2.212c0.54-3.7,1.488-7.263,2.863-10.609
		c3.691-7.883,2.607-18.838-2.461-25.714c-0.894-1.102-1.48-2.542-2.767-3.29c2.003,2.791,2.364,6.274,2.413,9.877
		C210.121,99.607,209.831,106.662,210.781,113.394z M213.241,122.62c-1.776,4.037-2.372,8.606-3.515,12.941l-0.33,0.378
		l-0.153-0.128c0.403-1.882,1.063-3.716,0.886-5.856c0.483-8.831-7.229-14.244-8.976-22.119l-0.097,2.944
		c0.652,7.713,2.702,14.864,5.027,21.894c1.335,3.258,0.933,7.489,0.626,10.931c2.775-4.351,6.404-8.333,9.395-12.619
		c4.216-7.73,5.391-18.79,1.538-27.066C218.929,110.94,215.774,116.804,213.241,122.62z M201.057,79.057
		c1.697,5.566,2.533,11.445,4.971,16.666l-0.146,0.152c-0.917-1.456-1.398-3.241-2.814-4.528
		c-4.247-5.574-11.614-7.038-14.358-13.65c0.693,3.95,1.884,7.673,4.65,10.738c4.785,5.156,11.735,8.205,15.009,14.655l0.049-0.057
		c-1.224-6.081,0.73-11.944-0.604-17.969c-1.157-5.325-5.991-11.148-11.559-12.29C198.521,74.295,200.205,76.645,201.057,79.057z
		 M139.337,32.758c-48.794,0-88.35,39.555-88.35,88.35s39.556,88.35,88.35,88.35s88.35-39.555,88.35-88.35
		S188.131,32.758,139.337,32.758z M164.803,201.778c-0.268-3.728-0.522-7.449-0.769-11.168c4.874,1.793,10.207,2.268,15.402,0.321
		c3.854-1.368,7.576-3.836,10.304-7.239c-5.302,3.78-13.312,4.432-19.505,2.141l-6.661-2.688c-0.023-0.016-0.047-0.048-0.072-0.048
		c-0.008-0.121-0.016-0.226-0.023-0.33c-0.146-0.708,0.033-1.432-0.227-2.115c0.122-0.073,0.25-0.146,0.38-0.226
		c8.139,1.811,16.616,4.793,25.03,1.608c5.606-1.97,11.767-6.675,14.229-12.29c-6.627,8.06-17.455,6.531-26.896,8.019
		c-2.543,0.258-4.876,1.159-7.44,1.103c1.801-0.853,3.996-1.038,5.726-2.18c7.046-3.522,7.505-11.316,11.769-16.794
		c-3.242,2.212-6.131,4.81-8.952,7.544v-3.5c-0.194-0.659-0.058-1.335-0.194-2.011c-0.144-2.139-0.273-4.287-0.555-6.41
		c-0.548-2.791-0.459-5.671-0.981-8.47c-0.161-0.981-0.717-1.825-1.005-2.767c0.321-0.129,0.651-0.282,0.981-0.402
		c-0.097-0.241-0.146-0.523-0.33-0.725c-0.033-0.039-0.096-0.096-0.122-0.128c-0.312-0.282-0.69-0.595-0.61-1.054
		c0.146-0.723,0.756-1.247,1.135-1.857c-0.402-0.418-0.958-0.595-1.48-0.805c0.008-0.683,0.039-1.399-0.08-2.058
		c-0.338-2.889-0.845-5.76-1.102-8.656c-0.065-1.527-1.078-3.063-2.614-3.562c-3.46-0.121-6.877-0.821-10.232-1.634
		c-2.258-0.563-4.656-1.294-6.256-3.04c-0.917-1.198-2.269-1.947-3.442-2.872c-1.313-0.933-2.574-2.083-4.225-2.413
		c0.515,1.102,1.835,1.616,2.286,2.743c0.12,0.644-0.363,1.246-0.226,1.906c-0.081,0.804,1.013,0.949,1.158,1.665
		c0.458,1.457,0.2,3.016,0.273,4.52c-0.234,4.151-0.853,8.277-1.907,12.314c-0.699,2.406-1.488,4.827-2.839,6.966
		c-0.442,0.724-1.037,1.383-1.713,1.906c-0.008-1.874,0.031-3.788,0-5.678c-0.233-1.368,0.016-2.767-0.226-4.119
		c0.008-1.962-0.434-3.876-0.756-5.807c-0.242-1.447-0.66-2.871-0.982-4.294c-0.2-0.797-0.441-1.602-0.474-2.414
		c0.017-0.467,0.508-0.725,0.829-0.981c1.094,1.021,1.721,2.413,2.687,3.539c-0.322-1.295-0.925-2.518-1.48-3.74
		c-0.66-1.408-1.616-2.647-2.566-3.877c0.942-0.257,1.811-0.684,2.696-1.078c1.255-0.7,2.693-1.239,3.619-2.389
		c-0.234-0.41-0.371-0.941-0.829-1.158c0.128,0.394,0.281,0.78,0.449,1.158c-0.288,0.121-0.61,0.41-0.933,0.225
		c-1.439-0.756-2.975-1.609-4.673-1.48c-0.635,0.032-1.278-0.008-1.915,0c-0.522,0.008-1.045,0.056-1.551,0.225
		c-1.183,0.322-2.269,0.893-3.347,1.456c-0.177-0.241-0.387-0.475-0.556-0.724c0.146-0.145,0.299-0.273,0.46-0.402
		c-0.314-0.032-0.692-0.024-0.935,0.121c-0.032,0.032-0.079,0.088-0.104,0.129c-0.016,0.016-0.023,0.056-0.023,0.072
		c-0.016,0.024-0.04,0.073-0.048,0.105c-0.009,0.08-0.033,0.161,0,0.273c1.134,1.078,2.702,1.689,4.118,2.34
		c0.82,0.386,1.656,0.708,2.445,1.15c-1.199,0.796-1.601,2.196-2.269,3.37c-0.507,1.255-1.287,2.396-1.634,3.724
		c0.806-0.692,1.279-1.648,1.964-2.438c0.24-0.394,0.643-0.651,1.053-0.828c0.347,0.33,0.667,0.667,0.981,1.054
		c-0.241,2.622-1.432,5.042-1.834,7.641c-0.153,1.826-0.177,3.652-0.272,5.478c-0.202,1.159,0.023,2.365-0.202,3.524
		c-0.056,2.066-0.009,4.149-0.024,6.225c0.041,0.073,0.153,0.226,0.193,0.307c-0.048,0.016-0.152,0.088-0.193,0.096
		c-1.584-1.85-2.79-3.949-3.973-6.057c-1.818-3.033-2.952-6.443-3.522-9.902c-0.104-1.255-0.339-2.525-0.122-3.796
		c0.081-1.496,0.219-3.056,0.781-4.472c0.338-0.94,0.828-1.874,0.973-2.863c-0.441-0.724-0.571-1.609-0.298-2.414
		c0.242-0.724,0.547-1.432,0.781-2.164c-1.408,0.909-2.952,1.585-4.328,2.542c-0.587,0.387-0.98,0.981-1.455,1.48
		c-0.837,0.764-1.931,1.126-2.968,1.561c-1.771,0.78-3.74,1.03-5.631,1.431c-2.22,0.443-4.496,0.627-6.708,1.182
		c-0.716,0.194-1.416,0.652-1.657,1.352c-0.354,0.949-0.442,1.979-0.757,2.944c-0.731,2.453-1.286,4.938-1.784,7.44
		c-0.153,0.756-0.58,1.495-0.45,2.292c0.112,0.337,0.369,0.62,0.603,0.901c-0.064,0.192-0.129,0.386-0.176,0.579
		c-0.411,0.273-0.935,0.418-1.255,0.78c-0.034,0.04-0.042,0.08-0.058,0.121c0,0.024-0.023,0.04-0.023,0.056v0.096
		c0,0.009,0,0.024,0,0.024c0,0.009,0.023,0.017,0.023,0.024c0,0.016,0.023,0.041,0.023,0.056c0.114,0.282,0.491,0.466,0.758,0.579
		c-0.018,0.612-0.628,1.03-0.677,1.656c-0.232,1.771-0.668,3.5-1.029,5.253c-0.402,2.164-0.771,4.319-0.981,6.508
		c-0.16,2.855-0.845,5.653-0.956,8.525c-0.009,0.9-0.242,1.817-0.05,2.71c0.153,0.973,0.732,1.817,1.231,2.637
		c0.153,0.234,0.29,0.452,0.451,0.685c-3.41-3.29-6.798-6.467-10.602-9c4.303,5.815,5.484,14.47,13.439,17.269
		c1.327,0.692,3.017,0.612,4.224,1.384c-1.521,0.233-2.839-0.363-4.271-0.556c-10.151-2.276-22.618,0.611-30.234-8.067
		c2.886,5.67,8.83,10.223,14.574,12.041c7.672,2.605,15.651,0.426,23.075-1.537c-0.137,1.062-0.289,2.131-0.427,3.193
		c-1.311,0.579-2.613,1.183-3.892,1.73c-6.25,2.46-14.422,2.059-19.916-1.73c2.719,3.411,6.354,5.51,10.11,6.934
		c4.054,1.625,8.551,1.649,12.741,0.603c-0.389,2.98-0.789,5.958-1.166,8.932c-32.829-11.623-56.352-42.925-56.352-79.736
		c0-46.712,37.867-84.579,84.579-84.579s84.579,37.867,84.579,84.579C223.916,158.943,199.068,190.971,164.803,201.778z
		 M209.243,144.055c-3.208,3.442-5.347,7.303-8.09,10.914H200.8c2.034-3.097,3.305-6.531,3.497-10.407
		c0.194-6.419-2.572-11.855-1.865-18.25l-1.278,3.442c-3.45,10.272-0.709,23.101-6.306,32.43v0.322
		c3.658-2.839,7.504-5.146,11.309-7.641c9.233-6.305,15.492-16.079,13.801-27.218C219.3,134.323,214.231,139.245,209.243,144.055z
		 M141.456,104.643c0.595-0.572,0.909-1.279,0.909-2.083c0-0.804-0.314-1.472-0.909-2.035c-0.588-0.563-1.312-0.853-2.164-0.853
		c-0.829,0-1.561,0.29-2.155,0.853c-0.595,0.563-0.885,1.231-0.885,2.035c0,0.805,0.29,1.512,0.885,2.083
		c0.587,0.563,1.326,0.836,2.155,0.836C140.136,105.471,140.868,105.206,141.456,104.643z M145.581,81.72
		c-1.271-1.11-3.136-1.681-5.58-1.681c-2.31,0-4.095,0.547-5.382,1.609c-1.287,1.078-1.931,2.3-1.931,3.724
		c0,0.764,0.226,1.423,0.7,1.906c0.482,0.458,1.078,0.676,1.785,0.676c0.637,0,1.158-0.177,1.585-0.571
		c0.418-0.394,0.627-0.901,0.627-1.488c0-0.652-0.266-1.439-0.804-2.365c-0.242-0.402-0.354-0.684-0.354-0.876
		c0-0.29,0.177-0.579,0.53-0.853c0.458-0.346,1.021-0.506,1.704-0.506c0.901,0,1.689,0.378,2.341,1.134
		c0.652,0.756,0.981,1.923,0.981,3.515c0,1.037-0.111,1.914-0.329,2.614c-0.201,0.708-0.643,1.625-1.304,2.791
		c-0.65,1.15-1.061,2.051-1.229,2.718c-0.153,0.652-0.211,1.649-0.177,2.992h0.779c0.088-1.279,0.307-2.236,0.7-2.839
		c0.409-0.635,1.246-1.319,2.519-2.115c1.873-1.174,3.136-2.252,3.787-3.218c0.66-0.965,1.006-2.019,1.014-3.168
		C147.545,84.148,146.869,82.822,145.581,81.72z M200.928,86.521l-0.699-1.608c-1.231-5.043-3.12-9.91-7.32-13.674
		c-3.57-3.209-8.067-4.254-12.242-6.032l4.754,4.802C189.305,76.234,194.84,82.138,200.928,86.521z M208.617,157.359
		c-6.636,4.97-14.647,6.708-20.783,12.836c-0.66,0.434-1.32,1.094-2.061,1.134c2.294-2.003,4.377-4.496,5.832-7.038
		c3.772-6.411,2.341-14.985,5.63-21.587c-2.011,2.195-3.435,4.616-5.154,6.933c-5.406,8.196-4.938,18.982-13.047,25.939
		c4.786-1.632,10.055-2.042,14.985-3.37c9.521-3.032,19.633-12.587,20.88-22.771C213.74,152.444,211.28,155.235,208.617,157.359z
		 M74.893,231.173l-11.076-11.604v14.807h1.582v-10.945l11.077,11.585v-14.844h-1.583V231.173z M94.979,219.926
		c-4.051,0-7.404,3.297-7.404,7.367c0,4.087,3.354,7.328,7.404,7.328c4.05,0,7.403-3.24,7.403-7.328
		C102.383,223.223,99.029,219.926,94.979,219.926z M94.979,233.151c-3.223,0-5.821-2.675-5.821-5.878
		c0-3.222,2.562-5.877,5.821-5.877s5.82,2.656,5.82,5.877C100.8,230.476,98.201,233.151,94.979,233.151z M235.39,226.237
		l-0.94-0.414c-0.962-0.433-2.223-0.999-2.223-2.223c0-1.3,1.092-2.204,2.354-2.204c1.205,0,1.883,0.564,2.448,1.544l1.263-0.81
		c-0.754-1.394-2.091-2.204-3.674-2.204c-2.111,0-3.975,1.413-3.975,3.617c0,2.034,1.432,2.882,3.089,3.636l0.866,0.377
		c1.319,0.603,2.619,1.168,2.619,2.826c0,1.602-1.394,2.77-2.92,2.77c-1.525,0-2.637-1.187-2.845-2.637l-1.544,0.433
		c0.452,2.204,2.146,3.673,4.426,3.673c2.469,0,4.466-1.902,4.466-4.389C238.801,227.971,237.235,227.047,235.39,226.237z
		 M40.376,234.376h1.733l1.715-4.031h6.065l1.677,4.031h1.752l-6.386-14.883L40.376,234.376z M44.464,228.875l2.431-5.688
		l2.373,5.688H44.464z M190.414,219.926c-4.049,0-7.403,3.297-7.403,7.367c0,4.087,3.354,7.328,7.403,7.328
		c4.051,0,7.405-3.24,7.405-7.328C197.819,223.223,194.465,219.926,190.414,219.926z M190.414,233.151
		c-3.221,0-5.82-2.675-5.82-5.878c0-3.222,2.561-5.877,5.82-5.877s5.822,2.656,5.822,5.877
		C196.236,230.476,193.637,233.151,190.414,233.151z M217.34,228.63c0,1.111,0.057,2.354-0.697,3.259
		c-0.66,0.791-1.771,1.262-2.788,1.262c-1.037,0-2.243-0.49-2.863-1.356c-0.66-0.904-0.622-2.11-0.622-3.165v-8.458h-1.583v8.892
		c0,1.62,0.151,2.92,1.395,4.107c0.96,0.941,2.336,1.45,3.674,1.45c1.432,0,2.845-0.565,3.823-1.62
		c1.131-1.167,1.245-2.393,1.245-3.937v-8.892h-1.583V228.63z M164.996,231.286l-5.16-11.924l-2.883,15.014h1.62l1.826-9.608h0.039
		l4.558,10.192l4.579-10.192h0.037l1.826,9.608h1.62l-2.88-15.014L164.996,231.286z M124.561,231.173l-11.077-11.604v14.807h1.582
		v-10.945l11.077,11.585v-14.844h-1.582V231.173z M142.123,226.501l-3.618-6.33h-1.827l4.654,8.1v6.104h1.583v-6.104l4.651-8.1
		h-1.826L142.123,226.501z"/>
</g>
</svg>
