<?xml version="1.0" encoding="UTF-8" standalone="no"?>
<!-- Generator: Adobe Illustrator 14.0.0, SVG Export Plug-In . SVG Version: 6.00 Build 43363)  -->

<svg
   xmlns:a="http://ns.adobe.com/AdobeSVGViewerExtensions/3.0/"
   xmlns:dc="http://purl.org/dc/elements/1.1/"
   xmlns:cc="http://creativecommons.org/ns#"
   xmlns:rdf="http://www.w3.org/1999/02/22-rdf-syntax-ns#"
   xmlns:svg="http://www.w3.org/2000/svg"
   xmlns="http://www.w3.org/2000/svg"
   xmlns:sodipodi="http://sodipodi.sourceforge.net/DTD/sodipodi-0.dtd"
   xmlns:inkscape="http://www.inkscape.org/namespaces/inkscape"
   version="1.1"
   id="Ebene_1"
   x="0px"
   y="0px"
   width="279"
   height="279"
   viewBox="0 0 279 279"
   enable-background="new 0 0 566.93 566.93"
   xml:space="preserve"
   inkscape:version="0.48.4 r9939"
   sodipodi:docname="Anonymous_LogosSingleWings.svg"><metadata
   id="metadata3118"><rdf:RDF><cc:Work
       rdf:about=""><dc:format>image/svg+xml</dc:format><dc:type
         rdf:resource="http://purl.org/dc/dcmitype/StillImage" /><dc:title /></cc:Work></rdf:RDF></metadata><defs
   id="defs3116" /><sodipodi:namedview
   pagecolor="#000000"
   bordercolor="#666666"
   borderopacity="1"
   objecttolerance="10"
   gridtolerance="10"
   guidetolerance="10"
   inkscape:pageopacity="0.74117647"
   inkscape:pageshadow="2"
   inkscape:window-width="1211"
   inkscape:window-height="1002"
   id="namedview3114"
   showgrid="false"
   showguides="true"
   inkscape:guide-bbox="true"
   fit-margin-top="0"
   fit-margin-left="0"
   fit-margin-right="0"
   fit-margin-bottom="0"
   inkscape:zoom="1.6651086"
   inkscape:cx="237.84893"
   inkscape:cy="183.44512"
   inkscape:window-x="1592"
   inkscape:window-y="-8"
   inkscape:window-maximized="1"
   inkscape:current-layer="Ebene_1" />





<g
   id="_x31_"
   transform="translate(0,0.07)">
	<linearGradient
   id="SVGID_2_"
   gradientUnits="userSpaceOnUse"
   x1="83.322304"
   y1="118.9004"
   x2="197.4355"
   y2="118.9004">
		<stop
   offset="0"
   style="stop-color:#3E3D40"
   id="stop3104" />
		<stop
   offset="0.5"
   style="stop-color:#282829"
   id="stop3106" />
		<stop
   offset="1"
   style="stop-color:#3E3D40"
   id="stop3108" />
		<a:midPointStop
   offset="0"
   style="stop-color:#3E3D40" />
		<a:midPointStop
   offset="0.5"
   style="stop-color:#3E3D40" />
		<a:midPointStop
   offset="0.5"
   style="stop-color:#282829" />
		<a:midPointStop
   offset="0.5"
   style="stop-color:#282829" />
		<a:midPointStop
   offset="1"
   style="stop-color:#3E3D40" />
	</linearGradient>
	
	<path
   d="m 84.075,163.262 c -0.804,-2.027 -2.034,-3.934 -2.639,-6.056 -2.323,-9.708 -1.077,-20.881 -5.228,-29.84 0.772,5.099 -1.23,9.586 -1.689,14.429 -0.395,3.981 0.21,7.915 1.866,11.212 0.347,1.037 1.271,1.881 1.504,2.887 -1.487,-1.343 -2.453,-3.113 -3.571,-4.721 -4.722,-7.859 -14.92,-12.862 -15.604,-22.345 -0.345,4.215 -0.159,8.768 1.433,12.444 3.78,10.642 15.402,16.175 23.928,21.99 z M 81.188,76.395 c -2.429,3.266 -2.485,7.504 -4.198,11.06 3.168,-2.984 6.725,-5.252 9.522,-8.727 3.122,-4.343 6.05,-9.049 10.256,-12.74 -5.728,2.235 -12.137,4.366 -15.58,10.407 z m -9.555,67.813 0.426,0.354 c -0.451,-3.129 -0.708,-6.516 0.178,-9.5 1.343,-4.785 2.895,-9.45 3.916,-14.381 0.547,-3.869 1.513,-8.156 1.062,-11.888 -0.515,2.011 -1.125,3.934 -2.164,5.679 -4.254,6.451 -8.492,14.132 -5.557,22.376 -0.016,0.008 -0.023,0.048 -0.049,0.073 -0.009,0.008 -0.017,0.016 -0.024,0.023 -0.016,0.016 -0.031,0.016 -0.048,0.023 -0.024,0.017 -0.056,0.025 -0.08,0.025 l -0.073,0 c -1.183,-2.719 -1.384,-5.847 -2.213,-8.744 -1.97,-7.745 -7.971,-14.204 -6.257,-23.124 -0.908,1.93 -1.279,4.102 -1.762,6.209 -1.03,5.47 -0.016,11.285 1.479,16.312 1.843,6.299 8.044,10.796 11.166,16.563 z m -1.585,-40.145 c 1.383,-2.831 3.82,-5.348 6.338,-7.561 6.097,-4.303 12.451,-10.327 12.54,-17.968 -1.971,5.493 -7.915,7.81 -11.937,11.534 -2.074,2.035 -3.732,4.4 -4.682,6.885 l -0.145,-0.128 c 0.491,-2.188 1.488,-4.182 2.06,-6.33 1.794,-5.815 1.415,-12.789 7.086,-16.689 -2.92,0.748 -5.519,2.501 -7.568,5.051 -4.706,4.955 -4.207,12.596 -3.539,19.28 0.136,2.066 -0.29,4.004 -0.153,5.926 z m 9.322,-1.527 c 1.286,-2.864 2.261,-5.976 2.646,-9.073 -0.523,1.319 -1.407,2.445 -2.413,3.571 -4.714,4.287 -10.11,8.703 -11.14,14.928 -0.169,0.885 -0.218,1.802 -0.476,2.663 -0.008,0 -0.023,0 -0.023,0 -0.008,0 -0.024,0.024 -0.024,0.024 -0.009,0 -0.024,0 -0.024,0 l -0.056,0 -0.024,-0.024 c -0.032,-0.032 -0.081,-0.081 -0.097,-0.129 -0.008,-0.008 -0.023,-0.04 -0.031,-0.048 0,0 -0.017,-0.024 -0.024,-0.024 l 0.578,-7.689 c 0.202,-7.537 -3.394,-15.878 0.958,-22.498 -0.041,-0.008 -0.072,-0.008 -0.097,0 l -0.032,0 c -0.017,0.008 -0.057,0.041 -0.073,0.049 -0.039,0.032 -0.08,0.056 -0.128,0.072 -3.948,5.051 -6.78,10.577 -6.604,17.349 -0.547,8.333 4.802,14.22 5.397,22.063 1.239,-8.188 8.035,-14.076 11.687,-21.234 z m 2.067,41.068 c 3.499,6.998 1.835,16.119 6.507,22.626 1.287,2.146 3.419,4.022 5.253,5.678 l -0.096,0.096 c -1.658,-0.772 -3.186,-1.882 -4.65,-3.193 -7.986,-6.548 -19.882,-7.448 -24.636,-18.218 1.287,7.907 7.439,15.114 14.324,19.352 6.314,4.408 14.696,3.756 21.846,6.105 -6.604,-5.325 -7.697,-13.304 -10.561,-20.357 -1.906,-4.319 -4.81,-8.276 -7.987,-12.089 z m 129.344,-30.21 c 0,0.016 -0.023,0.032 -0.023,0.048 -0.01,0.008 0,0.04 0,0.048 -0.01,0.016 -0.041,0.041 -0.05,0.057 -0.016,0.008 -0.041,0.016 -0.057,0.024 -0.031,0.016 -0.063,0.024 -0.096,0.024 -0.546,-1.777 -0.499,-3.829 -1.383,-5.477 -2.148,-6.54 -10.046,-9.604 -13.249,-15.54 0.452,2.59 1.265,5.035 2.213,7.416 3.001,7.279 10.28,12.772 12.291,20.486 0.231,0.716 0.297,1.576 0.554,2.212 0.54,-3.7 1.488,-7.263 2.863,-10.609 3.691,-7.883 2.607,-18.838 -2.461,-25.714 -0.894,-1.102 -1.48,-2.542 -2.767,-3.29 2.003,2.791 2.364,6.274 2.413,9.877 -0.908,6.651 -1.198,13.706 -0.248,20.438 z m 2.46,9.226 c -1.776,4.037 -2.372,8.606 -3.515,12.941 l -0.33,0.378 -0.153,-0.128 c 0.403,-1.882 1.063,-3.716 0.886,-5.856 0.483,-8.831 -7.229,-14.244 -8.976,-22.119 l -0.097,2.944 c 0.652,7.713 2.702,14.864 5.027,21.894 1.335,3.258 0.933,7.489 0.626,10.931 2.775,-4.351 6.404,-8.333 9.395,-12.619 4.216,-7.73 5.391,-18.79 1.538,-27.066 1.287,7.02 -1.868,12.884 -4.401,18.7 z M 201.057,79.057 c 1.697,5.566 2.533,11.445 4.971,16.666 l -0.146,0.152 c -0.917,-1.456 -1.398,-3.241 -2.814,-4.528 -4.247,-5.574 -11.614,-7.038 -14.358,-13.65 0.693,3.95 1.884,7.673 4.65,10.738 4.785,5.156 11.735,8.205 15.009,14.655 l 0.049,-0.057 c -1.224,-6.081 0.73,-11.944 -0.604,-17.969 -1.157,-5.325 -5.991,-11.148 -11.559,-12.29 2.266,1.521 3.95,3.871 4.802,6.283 z M 164.034,190.61 c 4.874,1.793 10.207,2.268 15.402,0.321 3.854,-1.368 7.576,-3.836 10.304,-7.239 -5.302,3.78 -13.312,4.432 -19.505,2.141 l -6.661,-2.688 c -0.023,-0.016 -0.047,-0.048 -0.072,-0.048 -0.008,-0.121 -0.016,-0.226 -0.023,-0.33 -0.146,-0.708 0.033,-1.432 -0.227,-2.115 0.122,-0.073 0.25,-0.146 0.38,-0.226 8.139,1.811 16.616,4.793 25.03,1.608 5.606,-1.97 11.767,-6.675 14.229,-12.29 -6.627,8.06 -17.455,6.531 -26.896,8.019 -2.543,0.258 -4.876,1.159 -7.44,1.103 1.801,-0.853 3.996,-1.038 5.726,-2.18 7.046,-3.522 7.505,-11.316 11.769,-16.794 -3.242,2.212 -6.131,4.81 -8.952,7.544 0,0 -74.596,0.702 -74.097,1.522 0.153,0.234 0.29,0.452 0.451,0.685 -3.41,-3.29 -6.798,-6.467 -10.602,-9 4.303,5.815 5.484,14.47 13.439,17.269 1.327,0.692 3.017,0.612 4.224,1.384 -1.521,0.233 -2.839,-0.363 -4.271,-0.556 -10.151,-2.276 -22.618,0.611 -30.234,-8.067 2.886,5.67 8.83,10.223 14.574,12.041 7.672,2.605 15.651,0.426 23.075,-1.537 -0.137,1.062 -0.289,2.131 -0.427,3.193 -1.311,0.579 -2.613,1.183 -3.892,1.73 -6.25,2.46 -14.422,2.059 -19.916,-1.73 2.719,3.411 6.354,5.51 10.11,6.934 4.054,1.625 8.551,1.649 12.741,0.603 m 96.97,-47.852 c -3.208,3.442 -5.347,7.303 -8.09,10.914 l -0.353,0 c 2.034,-3.097 3.305,-6.531 3.497,-10.407 0.194,-6.419 -2.572,-11.855 -1.865,-18.25 l -1.278,3.442 c -3.45,10.272 -0.709,23.101 -6.306,32.43 l 0,0.322 c 3.658,-2.839 7.504,-5.146 11.309,-7.641 9.233,-6.305 15.492,-16.079 13.801,-27.218 -0.658,6.676 -5.727,11.598 -10.715,16.408 z m -8.315,-57.534 -0.699,-1.608 c -1.231,-5.043 -3.12,-9.91 -7.32,-13.674 -3.57,-3.209 -8.067,-4.254 -12.242,-6.032 l 4.754,4.802 c 3.884,6.225 9.419,12.129 15.507,16.512 z m 7.689,70.838 c -6.636,4.97 -14.647,6.708 -20.783,12.836 -0.66,0.434 -1.32,1.094 -2.061,1.134 2.294,-2.003 4.377,-4.496 5.832,-7.038 3.772,-6.411 2.341,-14.985 5.63,-21.587 -2.011,2.195 -3.435,4.616 -5.154,6.933 -5.406,8.196 -4.938,18.982 -13.047,25.939 4.786,-1.632 10.055,-2.042 14.985,-3.37 9.521,-3.032 19.633,-12.587 20.88,-22.771 -1.159,3.009 -3.619,5.8 -6.282,7.924 z"
   id="path3112"
   inkscape:connector-curvature="0"
   style="fill:#ffffff"
   sodipodi:nodetypes="cccccccccccccccccccccccscsccccccccccccccccccccccccccscccccccccccccccccccccccccccccccccccccccccccccccccccccccccccccccccccccccccccccccccccccccccccccccccccccccccccccccccccccc" />
</g>
</svg>