<?xml version="1.0" encoding="UTF-8" standalone="no"?>
<!-- Created with Inkscape (http://www.inkscape.org/) -->

<svg
   xmlns:dc="http://purl.org/dc/elements/1.1/"
   xmlns:cc="http://creativecommons.org/ns#"
   xmlns:rdf="http://www.w3.org/1999/02/22-rdf-syntax-ns#"
   xmlns:svg="http://www.w3.org/2000/svg"
   xmlns="http://www.w3.org/2000/svg"
   xmlns:sodipodi="http://sodipodi.sourceforge.net/DTD/sodipodi-0.dtd"
   xmlns:inkscape="http://www.inkscape.org/namespaces/inkscape"
   width="400"
   height="400"
   id="svg2"
   version="1.1"
   inkscape:version="0.48.4 r9939"
   sodipodi:docname="grass1.svg"
   style="display:inline">
  <defs
     id="defs4" />
  <sodipodi:namedview
     id="base"
     pagecolor="#ffffff"
     bordercolor="#666666"
     borderopacity="1.0"
     inkscape:pageopacity="0.0"
     inkscape:pageshadow="2"
     inkscape:zoom="2.1547344"
     inkscape:cx="181.95042"
     inkscape:cy="239.8328"
     inkscape:document-units="px"
     inkscape:current-layer="g2993"
     showgrid="false"
     inkscape:window-width="1218"
     inkscape:window-height="1002"
     inkscape:window-x="1592"
     inkscape:window-y="-8"
     inkscape:window-maximized="1"
     inkscape:snap-grids="true">
    <sodipodi:guide
       position="0,0"
       orientation="0,575"
       id="guide3710" />
    <sodipodi:guide
       position="566.51738,256.902"
       orientation="-320,0"
       id="guide3712" />
    <sodipodi:guide
       position="427.76607,199.94731"
       orientation="0,-575"
       id="guide3714" />
    <sodipodi:guide
       position="200.55321,401.10642"
       orientation="320,0"
       id="guide3716" />
  </sodipodi:namedview>
  <metadata
     id="metadata7">
    <rdf:RDF>
      <cc:Work
         rdf:about="">
        <dc:format>image/svg+xml</dc:format>
        <dc:type
           rdf:resource="http://purl.org/dc/dcmitype/StillImage" />
        <dc:title />
      </cc:Work>
    </rdf:RDF>
  </metadata>
  <g
     inkscape:groupmode="layer"
     id="layer2"
     inkscape:label="Warstwa"
     style="display:inline"
     transform="translate(0,-65)">
    <g
       id="g4710"
       transform="translate(-1.7101537,63.408902)">
      <g
         id="g4241"
         transform="translate(58.772396,42.413066)">
        <g
           id="g3983"
           transform="translate(-1.8177028,27.265542)">
          <g
             id="g2993"
             transform="matrix(0.26400717,0,0,0.26400717,109.2654,86.817567)">
            <g
               id="g3778"
               transform="matrix(0.68219287,0,0,0.68219287,46.267032,73.777978)">
              <path
                 inkscape:connector-curvature="0"
                 id="path3776"
                 d="m 136.52383,193.74418 c -2.54266,0.82869 -5.08532,1.65734 -7.62798,2.48603 0,0.20719 0.14659,0.47502 0,0.6215 -0.32764,0.32764 -0.98607,0.23598 -1.24303,0.6215 -0.22992,0.34468 0.22991,0.89827 0,1.24303 -0.25681,0.38544 -0.91543,0.29393 -1.243,0.6215 -0.14659,0.14659 0,0.41434 0,0.6215 -0.41434,0.20719 -0.91547,0.29393 -1.24303,0.62153 -0.14659,0.14659 0,0.41431 0,0.6215 0,0.20719 0,0.41435 0,0.6215 0,0.60214 -0.12349,3.35843 0,3.72903 0.14658,0.43949 0.25075,0.96508 0.62153,1.24303 1.6209,1.21569 3.80066,0.36552 5.59356,0.6215 1.60375,-0.64271 2.44422,0.98603 3.72903,1.243 0.60941,0.12196 1.25148,-0.10227 1.86449,0 0.64624,0.10757 1.22213,0.49305 1.86454,0.62153 2.96408,0.59279 -0.83547,-1.06838 3.10753,0.6215 0.85156,0.36514 1.69158,0.76634 2.48603,1.243 0.25113,0.15075 0.34355,0.52885 0.6215,0.6215 0.39309,0.13105 0.82868,0 1.24303,0 1.24527,0 2.48372,0 3.72903,0 1.45019,0 2.90037,0 4.35052,0 0.41435,0 0.82869,0 1.24304,0 0.41434,0 0.84104,0.10037 1.24299,0 0.22197,-0.0553 3.60669,-1.74215 3.72907,-1.8645 0.14659,-0.14659 -0.18522,-0.52889 0,-0.6215 0.37044,-0.18522 0.8724,0.18522 1.243,0 0.52411,-0.26211 0.75547,-0.918 1.24299,-1.24303 0.17235,-0.11477 0.42499,0.0655 0.62154,0 1.30515,-0.43507 2.42387,-1.42947 3.72903,-1.86454 0.19658,-0.0655 0.44911,0.11477 0.62149,0 0.48757,-0.32499 0.75548,-0.91796 1.24304,-1.24299 0.17234,-0.11477 0.4362,0.0928 0.6215,0 0.61157,-0.30568 1.87442,-2.18025 2.48603,-2.48603 0.18522,-0.0928 0.4143,0 0.6215,0 0.41434,-0.41435 0.77422,-0.89142 1.24299,-1.243 3.81532,-2.86147 -1.18947,1.21626 2.48603,-0.6215 0.52412,-0.26211 0.73426,-0.95232 1.24304,-1.24303 0.96861,-0.55351 2.04911,-0.8902 3.10753,-1.243 0.19658,-0.0655 0.45574,0.12424 0.6215,0 0.70316,-0.52737 1.16137,-1.33716 1.86449,-1.86453 0.16591,-0.12424 0.44915,0.11477 0.62154,0 0.48752,-0.32499 0.77422,-0.89142 1.24299,-1.243 0.37045,-0.27802 0.85759,-0.36476 1.243,-0.62153 0.24393,-0.1625 0.37764,-0.45897 0.62154,-0.6215 0.38544,-0.25681 0.79357,-0.50915 1.24299,-0.6215 0.40196,-0.10038 0.89827,0.22992 1.24304,0 0.3854,-0.25681 0.29393,-0.91547 0.6215,-1.243 0.22158,-1.52674 1.31939,-0.25832 1.86449,-0.62153 0.48756,-0.32499 0.77426,-0.89142 1.24303,-1.243 0.37045,-0.27802 0.8724,-0.34355 1.243,-0.6215 0.46878,-0.3515 0.82869,-0.82869 1.24304,-1.24303 0.20719,-0.20719 0.49047,-0.35946 0.62149,-0.6215 0.20719,-0.6215 0.41435,-1.243 0.6215,-1.86453 0.41435,-0.20719 0.98607,-0.23598 1.24304,-0.6215 0.22991,-0.34469 -0.10038,-0.84104 0,-1.243 0.11249,-0.44942 0.4143,-0.82869 0.62149,-1.24303 0.2072,-0.41431 0.38318,-0.84577 0.6215,-1.243 0.38431,-0.64051 0.90896,-1.19641 1.243,-1.86453 0.0928,-0.18522 -0.0655,-0.42495 0,-0.6215 0.29279,-0.87895 0.95005,-1.60708 1.24303,-2.48603 0.0655,-0.19659 -0.0655,-0.42495 0,-0.6215 1.28592,-3.85774 -0.0504,2.06559 1.243,-3.10753 0.22121,-0.88418 -0.27575,-2.28066 0,-3.10753 0.0928,-0.27802 0.41434,-0.41434 0.6215,-0.6215 0.20719,-0.62149 0.49305,-1.22212 0.62153,-1.86453 0.0814,-0.40628 -0.18522,-0.8724 0,-1.243 0.26212,-0.52411 0.98096,-0.71891 1.243,-1.24303 0.0413,-0.0826 -0.0386,-2.25357 0,-2.48603 0.64676,-3.88046 0.28408,-1.18959 1.86453,-4.35053 0.0928,-0.18522 0,-0.41434 0,-0.62149 0,-0.41435 -0.15378,-0.85831 0,-1.24304 0.44556,-1.11391 1.56288,-1.90093 1.8645,-3.10753 0.15075,-0.60294 -0.19659,-1.27489 0,-1.86449 0.29317,-0.87896 0.82869,-1.65738 1.24303,-2.48603 0.20719,-0.41435 0.50916,-0.79362 0.6215,-1.24304 0.15075,-0.60294 -0.19658,-1.27489 0,-1.86449 0.14659,-0.4395 0.47503,-0.80354 0.6215,-1.24304 0.0655,-0.19658 -0.0655,-0.42495 0,-0.6215 0.14659,-0.43945 0.50915,-0.79361 0.6215,-1.24299 0.20113,-0.80396 -0.20113,-1.68212 0,-2.48603 0.11249,-0.44942 0.50915,-0.79362 0.62153,-1.24304 0.10038,-0.40196 -0.18522,-0.8724 0,-1.24299 0.26212,-0.52412 0.91797,-0.75548 1.243,-1.24304 0.11477,-0.17234 0,-0.41431 0,-0.6215 0,-0.41434 0,-0.82865 0,-1.24299 0,-1.45019 0,-2.90038 0,-4.35057 0,-1.65734 0,-3.31468 0,-4.97202 0,-0.50885 0.13409,-2.70485 0,-3.10753 -0.37613,-1.1288 -0.53192,-1.15345 -1.243,-1.86453 -0.20719,-0.20719 -0.459,-0.37764 -0.62153,-0.6215 -0.25681,-0.38545 -0.36439,-0.85759 -0.6215,-1.24304 -0.1625,-0.24393 -0.52885,-0.34355 -0.6215,-0.62149 -0.13106,-0.39306 0.13106,-0.84994 0,-1.243 -0.0928,-0.27802 -0.459,-0.37764 -0.6215,-0.62154 -1.01372,0.39814 -0.48752,-1.59654 -0.6215,-1.86449 -0.26211,-0.52412 -0.918,-0.75547 -1.24303,-1.24304 -0.25681,-0.38544 -0.36438,-0.85755 -0.6215,-1.24299 -0.32499,-0.48757 -0.98096,-0.71892 -1.24303,-1.243 -0.24848,-0.49722 0.24848,-1.36735 0,-1.86453 -1.29326,-2.58656 0.0428,0.66441 -1.243,-0.6215 -0.32764,-0.32764 -0.36438,-0.85759 -0.6215,-1.24303 -0.16249,-0.24394 -0.49048,-0.35946 -0.6215,-0.6215 -0.0928,-0.18522 0.0928,-0.4362 0,-0.6215 -0.13105,-0.26212 -0.41434,-0.41435 -0.62153,-0.6215 -0.48836,-0.48836 -2.90958,-2.71167 -3.10753,-3.10753 -0.18522,-0.37044 0.18522,-0.87244 0,-1.243033 -0.13106,-0.262114 -0.49048,-0.35946 -0.6215,-0.621498 -0.0928,-0.185222 0.14659,-0.475025 0,-0.621498 -0.14659,-0.146587 -0.47502,0.146587 -0.6215,0 -0.32764,-0.327643 -0.29393,-0.915468 -0.6215,-1.243035 -0.14658,-0.146587 -0.47502,0.146587 -0.62149,0 -0.32765,-0.327642 -0.23598,-0.986034 -0.62154,-1.242996 -0.12386,-0.08257 -2.68478,0 -3.10753,0 -0.20719,0 -0.41434,0 -0.6215,0 -0.20719,0 -0.47502,-0.146587 -0.6215,0 -0.14658,0.146587 0.0928,0.4362 0,0.621498 -0.13105,0.262114 -0.49047,0.35946 -0.62149,0.621498 -0.0947,0.18901 0,1.584616 0,1.864533 0,2.071691 0,4.143371 0,6.215061 0,7.8724 0,15.74483 0,23.61723 0,2.69319 0,5.38641 0,8.0796 0,0.67861 0.13408,2.7056 0,3.10752 -0.2072,0.41435 -0.41435,0.82869 -0.62154,1.243 0,0.41435 0.13106,0.84994 0,1.24304 -0.0928,0.27802 -0.49048,0.35946 -0.6215,0.62149 -0.0928,0.18523 0,0.41435 0,0.6215 0,0.41435 0.10038,0.84104 0,1.24304 -0.1125,0.44938 -0.47502,0.80354 -0.6215,1.24299 -0.13105,0.3931 0.22992,0.89827 0,1.243 -0.32499,0.48756 -0.91796,0.75547 -1.24299,1.24303 -0.11477,0.17235 0.0928,0.4362 0,0.6215 -0.13106,0.26212 -0.49052,0.35946 -0.62154,0.6215 -0.0928,0.18522 0,0.41435 0,0.62154 -0.20719,0.4143 -0.36438,0.85755 -0.6215,1.24299 -0.16249,0.24394 -0.41434,0.41435 -0.6215,0.6215 -0.20719,0.41435 -0.36438,0.85759 -0.62149,1.24304 -0.1625,0.24355 -0.41435,0.4143 -0.62154,0.62149 -0.41431,0.41435 -0.82865,0.82866 -1.243,1.243 -0.20719,0.20719 -0.49048,0.35946 -0.6215,0.6215 -0.0928,0.18522 0.0928,0.43624 0,0.62154 -0.26211,0.52407 -0.98095,0.71888 -1.24303,1.24299 -0.0928,0.18522 0.11477,0.44912 0,0.6215 -0.32499,0.48756 -0.82865,0.82869 -1.243,1.24303 -0.62149,0.6215 -1.24299,1.243 -1.86453,1.8645 -0.41431,0.41434 -0.82865,0.82869 -1.243,1.24303 -0.20719,0.2072 -0.35946,0.49048 -0.62149,0.6215 -0.58597,0.2928 -1.30277,0.28446 -1.86454,0.6215 -0.98686,0.59214 -1.52965,1.84844 -2.48603,2.48603 -0.1159,0.0773 -2.44618,1.20319 -2.48603,1.24304 -0.32764,0.32764 -0.29393,0.91543 -0.6215,1.24299 -0.003,0.003 -1.84373,-0.004 -1.86449,0 -3.00125,0.75032 0.0303,0.29545 -1.86453,1.243 -0.58597,0.29279 -1.25626,0.3784 -1.86454,0.62154 -0.4301,0.17196 -0.82865,0.4143 -1.24299,0.62149 -0.41435,0.20719 -0.85759,0.36439 -1.24304,0.6215 -0.24393,0.1625 -0.4143,0.41435 -0.6215,0.6215 -0.41434,0.20719 -0.85755,0.36438 -1.24299,0.6215 -0.24394,0.16249 -0.35946,0.49048 -0.6215,0.62153 -0.58597,0.2928 -1.30277,0.28447 -1.86453,0.6215 -0.50245,0.30151 -0.75548,0.91797 -1.243,1.243 -0.17234,0.11477 -0.41434,0 -0.62154,0 -0.41434,0.20719 -0.8724,0.34355 -1.24299,0.6215 -0.41435,0.41434 -0.82869,0.82869 -1.24304,1.24303 -0.20719,0 -0.4362,-0.0928 -0.6215,0 -0.51127,0.25568 -2.02634,2.1796 -2.48603,2.48603 -0.34468,0.22992 -0.8724,-0.18522 -1.24299,0 -2.8444,1.4222 2.63731,-0.25757 -1.86454,1.243 -0.19658,0.0655 -0.47498,-0.14659 -0.62149,0 -0.14659,0.14659 0.18522,0.52885 0,0.6215 -0.37045,0.18522 -0.84994,-0.13106 -1.243,0 -1.93995,0.64665 0.20719,0.41434 -0.62154,1.24303 -0.32764,0.32764 -0.85755,0.36439 -1.24299,0.6215 -0.24394,0.1625 -0.35946,0.49048 -0.6215,0.6215 -0.18522,0.0928 -0.47503,-0.14659 -0.6215,0 -0.14659,0.14659 0.0928,0.4362 0,0.6215 -0.13106,0.26211 -0.49048,0.35946 -0.62154,0.62153 -0.0928,0.18523 0.14659,0.47499 0,0.6215 -0.14658,0.14659 -0.47498,-0.14659 -0.62149,0 -0.14659,0.14659 0.14658,0.47503 0,0.6215 -0.14659,0.14659 -0.47503,-0.14659 -0.6215,0 -0.2928,0.29279 0.29279,0.95005 0,1.24303 -0.14659,0.14659 -0.47503,-0.14658 -0.6215,0 -0.17007,0.17008 0.16856,2.14885 0,2.486 -0.13106,0.26211 -0.49048,0.35946 -0.6215,0.62153 -0.2837,0.56734 0.53688,1.66223 -0.62153,1.8645 -0.9646,0.16855 -1.9584,0 -2.93761,0 z"
                 style="fill:#c29261;fill-opacity:1;stroke:none" />
              <path
                 transform="matrix(3.7877759,0,0,3.7877759,-623.12679,-586.74572)"
                 inkscape:connector-curvature="0"
                 id="path3772"
                 d="m 181.47483,200.05269 c 0,0.85217 0,1.70434 0,2.55652 0,0.0858 -0.0216,0.61318 0,0.65633 0.0692,0.13836 0.25898,0.18979 0.32816,0.32816 0.0508,0.10163 -0.0486,0.60778 0,0.65633 0.0387,0.0387 0.13962,-0.0489 0.16408,0 0.0489,0.0978 -0.0656,0.24065 0,0.32816 0.11832,0.15776 0.33449,0.20985 0.49225,0.32817 0.0619,0.0464 0.0997,0.12117 0.16408,0.16408 0.10176,0.0678 0.22329,0.10116 0.32817,0.16408 0.1691,0.10146 0.31586,0.23997 0.49224,0.32817 0.0978,0.0489 0.25082,-0.0773 0.32817,0 0.21877,0.21877 -0.34807,0.15744 0.16408,0.32816 0.10377,0.0346 0.22439,-0.0346 0.32816,0 0.0734,0.0245 0.0949,0.12949 0.16408,0.16408 0.0489,0.0245 0.10939,0 0.16409,0 0.32816,0 0.65633,0 0.98449,0 0.0547,0 0.12541,0.0387 0.16408,0 0.0387,-0.0387 -0.0387,-0.12541 0,-0.16408 0.33949,-0.33949 -0.0133,0.51879 0.32817,-0.16408 0.0245,-0.0489 -0.0245,-0.11516 0,-0.16408 0.0346,-0.0692 0.12949,-0.0949 0.16408,-0.16409 0.0489,-0.0978 -0.0774,-0.25081 0,-0.32816 0.0387,-0.0387 0.12541,0.0387 0.16408,0 0.0387,-0.0387 0,-0.10939 0,-0.16408 0,-0.0547 0,-0.10939 0,-0.16408 0,-0.87511 0,-1.75021 0,-2.62532 0,-0.9298 0,-1.8596 0,-2.78939 0,-0.32224 0.0378,-1.21198 0,-1.47674 -0.0277,-0.19387 -0.35591,-0.96679 -0.49225,-1.14858 -0.0928,-0.12376 -0.25898,-0.1898 -0.32816,-0.32816 -0.0193,-0.0386 0,-0.54854 0,-0.65633 0,-0.38286 0,-0.76572 0,-1.14858 0,-0.0739 -0.025,-0.44231 0,-0.49224 0.0346,-0.0692 0.13962,-0.0907 0.16408,-0.16409 0.0346,-0.10377 0,-0.21877 0,-0.32816 0,-0.0594 -0.0287,-0.86953 0,-0.98449 0.0297,-0.11865 0.11866,-0.21461 0.16408,-0.32817 0.0642,-0.16058 0.0998,-0.33166 0.16409,-0.49224 0.0454,-0.11355 0.13442,-0.20952 0.16408,-0.32817 0.0531,-0.21224 -0.0429,-0.4418 0,-0.65633 0.19407,-0.97037 0.10505,-0.0165 0.49224,-0.98449 0.0406,-0.10156 0,-0.21877 0,-0.32816 0,-0.38286 0,-0.76572 0,-1.14858 0,-0.21877 0,-0.43755 0,-0.65633 0,-0.0547 -0.0173,-0.11219 0,-0.16408 0.0387,-0.11602 0.12541,-0.21214 0.16409,-0.32816 0.0173,-0.0519 -0.0245,-0.11516 0,-0.16408 0.0346,-0.0692 0.13962,-0.0907 0.16408,-0.16409 0.0346,-0.10377 -0.0346,-0.22439 0,-0.32816 0.0487,-0.14605 0.44356,-0.3462 0.49225,-0.49225 0.0346,-0.10377 -0.0607,-0.23714 0,-0.32816 0.0678,-0.10176 0.26032,-0.0623 0.32816,-0.16408 0.0346,-0.0519 -0.0321,-0.56015 0,-0.65633 0.0222,-0.0667 0.79674,-0.80266 0.82041,-0.82041 0.0978,-0.0734 0.2264,-0.0962 0.32816,-0.16408 0.12872,-0.0858 0.20441,-0.23535 0.32817,-0.32817 0.15776,-0.11832 0.32315,-0.2267 0.49224,-0.32816 0.10488,-0.0629 0.23033,-0.0907 0.32817,-0.16409 0.12376,-0.0928 0.19945,-0.24235 0.32816,-0.32816 0.0455,-0.0303 0.11517,0.0245 0.16409,0 0.0692,-0.0346 0.0997,-0.12118 0.16408,-0.16408 0.0826,-0.3615 0.33755,-0.0867 0.49224,-0.16408 0.0692,-0.0346 0.0949,-0.12949 0.16409,-0.16409 0.0978,-0.0489 0.25081,0.0773 0.32816,0 0.32563,-0.32563 -0.77705,-0.0519 0.32816,-0.32816 0.16266,-0.0407 0.67512,0.0484 0.82042,0 0.34457,-0.11486 0.63992,-0.37739 0.98449,-0.49225 0.0519,-0.0173 0.11219,0.0173 0.16408,0 0.11602,-0.0387 0.20952,-0.13442 0.32816,-0.16408 0.10613,-0.0265 0.22027,0.018 0.32817,0 0.41674,0.14007 0.6489,-0.24427 0.98449,-0.32816 0.10612,-0.0265 0.22204,0.0265 0.32817,0 0.11864,-0.0297 0.20951,-0.13442 0.32816,-0.16408 0.2653,-0.0663 0.55511,0.0663 0.82041,0 0.075,-0.0188 0.0907,-0.13963 0.16408,-0.16409 0.10378,-0.0346 0.21878,0 0.32817,0 0.16408,-0.10938 0.30915,-0.25492 0.49224,-0.32816 0.20313,-0.0812 0.44409,0.0531 0.65633,0 0.11865,-0.0297 0.20753,-0.14398 0.32817,-0.16408 0.2158,-0.036 0.43975,0.0309 0.65632,0 0.17122,-0.0245 0.32103,-0.13963 0.49225,-0.16409 0.21658,-0.0309 0.44597,0.0601 0.65633,0 0.18961,-0.0542 0.31586,-0.23997 0.49225,-0.32816 0.0489,-0.0245 0.10938,0 0.16408,0 0.10939,0 0.22204,0.0265 0.32816,0 0.79235,-0.19809 -0.008,-0.078 0.49225,-0.32816 0.1547,-0.0773 0.32265,-0.13017 0.49224,-0.16409 0.17769,-0.0355 0.97318,0 1.14858,0 0.10939,0 0.2209,0.0215 0.32816,0 0.31007,-0.062 0.67443,-0.26615 0.9845,-0.32816 0.10726,-0.0214 0.21877,0 0.32816,0 0.0547,0 0.11516,0.0245 0.16408,0 0.0692,-0.0346 0.0949,-0.12949 0.16409,-0.16408 0.0978,-0.0489 0.23032,0.0489 0.32816,0 0.0692,-0.0346 0.0949,-0.12949 0.16408,-0.16408 0.0489,-0.0245 0.11516,0.0245 0.16408,0 0.13837,-0.0692 0.18141,-0.27925 0.32817,-0.32817 0.10377,-0.0346 0.23032,0.0489 0.32816,0 0.0489,-0.0245 -0.0387,-0.12541 0,-0.16408 0.64037,-0.64037 0.0881,0.038 0.49225,-0.16408 0.0692,-0.0346 0.0997,-0.12118 0.16408,-0.16409 0.10176,-0.0678 0.22641,-0.0962 0.32816,-0.16408 0.12872,-0.0858 0.1898,-0.25898 0.32817,-0.32816 0.0489,-0.0245 0.11516,0.0245 0.16408,0 0.13837,-0.0692 0.19945,-0.24235 0.32817,-0.32817 0.10938,-0.0547 0.21877,-0.10938 0.32816,-0.16408 0.10939,0 0.23032,0.0489 0.32816,0 0.0489,-0.0245 -0.0387,-0.12541 0,-0.16408 0.0387,-0.0387 0.12541,0.0387 0.16409,0 0.0387,-0.0387 -0.0245,-0.11516 0,-0.16408 0.0346,-0.0692 0.12117,-0.0997 0.16408,-0.16408 0.0547,-0.10939 0.10939,-0.21878 0.16408,-0.32817 0,-0.0547 -0.0245,-0.11516 0,-0.16408 0.0346,-0.0692 0.12949,-0.0949 0.16408,-0.16408 0.0245,-0.0489 -0.0173,-0.1122 0,-0.16408 0.0387,-0.11603 0.10939,-0.21878 0.16408,-0.32817 0.0547,-0.10939 0.0962,-0.2264 0.16409,-0.32816 0.0429,-0.0644 0.12949,-0.0949 0.16408,-0.16409 0.0245,-0.0489 0.0387,-0.20275 0,-0.16408 -0.0865,0.0865 -0.16408,0.45047 -0.16408,0.32817 0,-0.15635 0.25263,-0.56778 0.16408,-0.65633 -0.0387,-0.0387 -0.12541,0.0387 -0.16408,0 -0.0387,-0.0387 0.0173,-0.1122 0,-0.16408 -0.0387,-0.11603 -0.0907,-0.23033 -0.16409,-0.32817 -0.0928,-0.12376 -0.24235,-0.19945 -0.32816,-0.32816 -0.0607,-0.091 0.0773,-0.25082 0,-0.32817 -0.0387,-0.0387 -0.12541,0.0387 -0.16408,0 -0.0387,-0.0387 0.0387,-0.1254 0,-0.16408 -0.0387,-0.0387 -0.11516,0.0245 -0.16408,0 -0.75094,-0.37547 0.69626,0.068 -0.49225,-0.32816 -0.0519,-0.0173 -0.11516,0.0245 -0.16408,0 -0.58948,-0.29474 0.58704,-0.12094 -0.65633,-0.32817 -1.04521,-0.1742 -0.0349,0.13093 -0.82041,0 -0.22244,-0.0371 -0.43389,-0.12701 -0.65633,-0.16408 -0.1079,-0.018 -0.21878,0 -0.32816,0 -0.16409,0 -0.32817,0 -0.49225,0 -0.60164,0 -1.20327,0 -1.8049,0 -1.14858,0 -2.29715,0 -3.44573,0 -0.43755,0 -0.8751,0 -1.31266,0 -0.10938,0 -0.21877,0 -0.32816,0 -0.16408,0 -0.33306,-0.0398 -0.49225,0 -0.075,0.0188 -0.0907,0.13962 -0.16408,0.16408 -0.11874,0.0396 -0.60224,-0.0541 -0.65633,0 -0.0387,0.0387 0.0489,0.13962 0,0.16408 -0.0978,0.0489 -0.21877,0 -0.32816,0 -0.27347,0 -0.54694,0 -0.82041,0 -0.0547,0 -0.11516,-0.0245 -0.16408,0 -0.0692,0.0346 -0.0949,0.1295 -0.16409,0.16409 -0.29046,0.14523 -0.0561,-0.24406 -0.32816,0.16408 -0.39735,0.59602 0.0481,0.11603 -0.32816,0.49225 -0.10939,0.10938 -0.21878,0.21877 -0.32817,0.32816 -0.10939,0.10939 -0.19945,0.24235 -0.32816,0.32816 -0.0455,0.0303 -0.12541,-0.0387 -0.16409,0 -0.0865,0.0865 -0.0623,0.26033 -0.16408,0.32817 -0.091,0.0607 -0.22439,-0.0346 -0.32816,0 -0.0734,0.0245 -0.0997,0.12117 -0.16408,0.16408 -0.10176,0.0678 -0.21214,0.12541 -0.32817,0.16408 -0.0519,0.0173 -0.11857,-0.0303 -0.16408,0 -0.12872,0.0858 -0.21878,0.21878 -0.32816,0.32817 -0.20701,0.207 -0.42774,0.48488 -0.65633,0.65633 -0.0978,0.0734 -0.23033,0.0907 -0.32817,0.16408 -0.12376,0.0928 -0.19944,0.24235 -0.32816,0.32816 -0.0455,0.0303 -0.11516,-0.0245 -0.16408,0 -0.17639,0.0882 -0.31587,0.23997 -0.49225,0.32817 -0.0489,0.0245 -0.11516,-0.0245 -0.16408,0 -0.0692,0.0346 -0.0949,0.12949 -0.16408,0.16408 -0.0489,0.0245 -0.12541,-0.0387 -0.16409,0 -0.0387,0.0387 0.0489,0.13962 0,0.16408 -0.14676,0.0734 -0.34548,-0.0734 -0.49224,0 -0.0692,0.0346 -0.0949,0.12949 -0.16408,0.16408 -0.0489,0.0245 -0.11517,-0.0245 -0.16409,0 -0.0692,0.0346 -0.0949,0.12949 -0.16408,0.16408 -0.073,0.0365 -0.58128,-0.025 -0.65633,0 -0.0734,0.0245 -0.0997,0.12118 -0.16408,0.16409 -0.22732,0.15154 -0.42901,0.17662 -0.65633,0.32816 -0.0644,0.0429 -0.0997,0.12118 -0.16408,0.16408 -0.20352,0.13568 -0.45281,0.19249 -0.65633,0.32817 -0.0644,0.0429 -0.10939,0.10939 -0.16408,0.16408 -0.0547,0.0547 -0.12949,0.0949 -0.16408,0.16408 -0.0245,0.0489 0.0387,0.12541 0,0.16408 -0.0387,0.0387 -0.11516,-0.0245 -0.16408,0 -0.0692,0.0346 -0.0997,0.12118 -0.16409,0.16409 -0.10176,0.0678 -0.24168,0.0776 -0.32816,0.16408 -0.0865,0.0865 -0.0776,0.24168 -0.16408,0.32816 -0.0387,0.0387 -0.1122,-0.0173 -0.16409,0 -0.11602,0.0387 -0.21877,0.10939 -0.32816,0.16408 -0.10939,0.0547 -0.21878,0.10939 -0.32816,0.16409 -0.10939,0.0547 -0.24169,0.0776 -0.32817,0.16408 -0.0387,0.0387 0.0387,0.12541 0,0.16408 -0.0387,0.0387 -0.11219,-0.0173 -0.16408,0 -0.11602,0.0387 -0.24169,0.0776 -0.32816,0.16408 -0.0387,0.0387 0.0387,0.12541 0,0.16408 -0.0865,0.0865 -0.23033,0.0907 -0.32817,0.16409 -1.00476,1.00476 0.27673,-0.20755 -0.65633,0.49224 -0.47313,0.35485 -0.21274,0.23707 -0.49224,0.65633 -0.0429,0.0644 -0.10939,0.10939 -0.16409,0.16408 -0.17859,0.1786 -0.53402,0.47287 -0.65632,0.65633 -0.0303,0.0455 0.0245,0.11516 0,0.16408 -0.0692,0.13837 -0.24236,0.19945 -0.32817,0.32817 -0.13568,0.20352 -0.19248,0.45281 -0.32816,0.65633 -0.0858,0.12871 -0.24236,0.19944 -0.32817,0.32816 -0.0678,0.10176 -0.0962,0.22641 -0.16408,0.32817 -0.0429,0.0643 -0.13962,0.0907 -0.16408,0.16408 -0.0346,0.10377 0.0346,0.22439 0,0.32816 -0.0489,0.14676 -0.25898,0.1898 -0.32817,0.32817 -0.0245,0.0489 0,0.10938 0,0.16408 0,0.10939 0.0265,0.22204 0,0.32816 -0.0297,0.11865 -0.1254,0.21214 -0.16408,0.32817 -0.0173,0.0519 0,0.10938 0,0.16408 0,0.10939 0,0.21878 0,0.32816 0,0.10939 0.0265,0.22205 0,0.32817 -0.0297,0.11865 -0.13442,0.20951 -0.16408,0.32816 -0.0265,0.10612 0,0.21878 0,0.32817 -0.0547,0.16408 -0.12213,0.32445 -0.16408,0.49224 -0.0386,0.15443 0.0386,0.33782 0,0.49225 -0.0297,0.11865 -0.13442,0.20951 -0.16408,0.32816 -0.0265,0.10612 0,0.21878 0,0.32817 -0.0547,0.10939 -0.12541,0.21214 -0.16409,0.32816 -0.0173,0.0519 0,0.10939 0,0.16408 0,0.32817 0,0.65633 0,0.9845 0,0.10938 0,0.21877 0,0.32816 0,0.0547 0.0173,0.1122 0,0.16408 -0.0387,0.11603 -0.13442,0.20952 -0.16408,0.32817 -0.0366,0.14649 0,0.63048 0,0.82041 0,0.54694 0,1.09388 0,1.64082 0,0.27347 0,0.54694 0,0.82041 0,0.0547 0,0.10939 0,0.16408 0,0.0547 -0.0245,0.11516 0,0.16408 0.0346,0.0692 0.13962,0.0907 0.16408,0.16409 0.0372,0.11162 -0.0435,0.7334 0,0.82041 0.0346,0.0692 0.12949,0.0949 0.16409,0.16408 0.0489,0.0978 -0.0489,0.23032 0,0.32816 0.0346,0.0692 0.12949,0.0949 0.16408,0.16408 0.0489,0.0978 -0.0489,0.23033 0,0.32817 0.0346,0.0692 0.12949,0.0949 0.16408,0.16408 0.0245,0.0489 0,0.10939 0,0.16408 0.0547,0.0547 0.12949,0.0949 0.16408,0.16409 0.0516,0.10312 -0.0516,0.55319 0,0.65632 0.0346,0.0692 0.12949,0.0949 0.16408,0.16409 0.0484,0.0968 -0.0376,0.37938 0,0.49224 0.0387,0.11603 0.12541,0.21214 0.16409,0.32817 0.0309,0.0926 0,0.38442 0,0.49224 0,0.29641 0,0.59281 0,0.88921 0,0.25054 0.25053,0.75161 0,0.75161 -0.25054,0 0,-0.50107 0,-0.75161"
                 style="fill:#a67647;fill-opacity:1;stroke:none" />
              <path
                 transform="matrix(3.7877759,0,0,3.7877759,-623.12679,-586.74572)"
                 inkscape:connector-curvature="0"
                 id="path2998"
                 d="m 195.15166,207.6329 c -0.30939,0.0773 -0.61361,0.17962 -0.92819,0.23205 -0.18524,0.0309 -1.53528,0.0223 -1.62433,0 -0.4041,-0.10103 -0.75613,-0.36307 -1.16023,-0.46409 -0.22512,-0.0563 -0.4686,0.0455 -0.69614,0 -0.1696,-0.0339 -0.30512,-0.16392 -0.4641,-0.23205 -0.38286,-0.16408 -0.81365,-0.23304 -1.16023,-0.4641 -0.14391,-0.0959 -0.10975,-0.34179 -0.23205,-0.46409 -0.2446,-0.2446 -0.68359,-0.2195 -0.92819,-0.46409 -0.3181,-0.31811 -0.23205,-0.76545 -0.23205,-1.16024 0,-0.0773 0.0547,-0.17735 0,-0.23205 -0.0547,-0.0547 -0.15469,0 -0.23204,0 -0.1547,0 -0.3094,0 -0.4641,0 -0.38674,0 -0.77349,0 -1.16023,0 -0.1547,0 -0.3094,0 -0.4641,0 -0.0773,0 -0.16286,0.0346 -0.23204,0 -0.18617,-0.0931 -0.27793,-0.37101 -0.4641,-0.46409 -0.0692,-0.0346 -0.17735,0.0547 -0.23205,0 -0.0547,-0.0547 0,-0.1547 0,-0.23205 0,-0.0773 0,-0.1547 0,-0.23205 0,-0.1868 -0.0485,-0.78254 0,-0.92818 0.0547,-0.16409 0.17736,-0.30002 0.23205,-0.4641 0.0489,-0.14676 0,-0.3094 0,-0.46409 0,-0.54145 0,-1.08289 0,-1.62433 0,-0.54145 0,-1.08289 0,-1.62433 0,-0.23205 0.0563,-0.47103 0,-0.69615 -0.042,-0.16779 -0.1901,-0.2963 -0.23205,-0.46409 -0.0375,-0.15008 0.0692,-0.32573 0,-0.46409 -0.24005,0 -0.32072,0.0547 -0.46409,-0.23205 -0.0346,-0.0692 0.0346,-0.16287 0,-0.23205 -0.0489,-0.0978 -0.18313,-0.13421 -0.23205,-0.23205 -0.10939,-0.21877 -0.1062,-0.48639 -0.23204,-0.69614 -0.11256,-0.1876 -0.3094,-0.30939 -0.4641,-0.46409 -0.0773,-0.0773 -0.19745,-0.12827 -0.23205,-0.23205 -0.0489,-0.14676 0,-0.30939 0,-0.46409 0,-0.6304 0,-0.51172 0,-0.92819 0,-0.22796 -0.0512,-1.23881 0,-1.39228 0.56028,-1.68082 -0.0669,0.36584 0.4641,-0.69615 0.0346,-0.0692 0,-0.15469 0,-0.23204 0.0773,-0.0773 0.18313,-0.13421 0.23205,-0.23205 0.12375,-0.24752 -0.22972,-0.31017 0.23204,-0.46409 0.14676,-0.0489 0.3124,0.0303 0.4641,0 0.11327,-0.0227 1.00553,-0.3094 1.16023,-0.4641 0.007,-0.007 0,-0.63986 0,-0.69614 0,-1.16024 0,-2.32047 0,-3.48071 0,-0.0563 -0.007,-0.68868 0,-0.69614 0.13239,-0.13239 0.88557,-0.60459 1.16024,-0.69614 0.14676,-0.0489 0.32573,0.0692 0.46409,0 0.0978,-0.0489 0.13421,-0.18313 0.23205,-0.23205 0.0692,-0.0346 0.16286,0.0346 0.23205,0 0.0978,-0.0489 0.14103,-0.17137 0.23204,-0.23204 0.14391,-0.0959 0.32019,-0.13611 0.4641,-0.23205 0.091,-0.0607 0.13421,-0.18313 0.23205,-0.23205 0.0692,-0.0346 0.16286,0.0346 0.23204,0 0.27846,-0.13923 0.41769,-0.55691 0.69614,-0.69614 0.0692,-0.0346 0.16287,0.0346 0.23205,0 0.12393,-0.062 0.57398,-0.57398 0.69614,-0.69614 0.23205,-0.23205 0.4641,-0.4641 0.69614,-0.69614 0.0773,-0.0773 0.17137,-0.14103 0.23205,-0.23205 0.0959,-0.14391 0.10975,-0.3418 0.23205,-0.4641 0.0547,-0.0547 0.17735,0.0547 0.23205,0 0.0547,-0.0547 -0.0547,-0.17735 0,-0.23204 0.0547,-0.0547 0.19745,0.0692 0.23204,0 0.0692,-0.13837 -0.0858,-0.33538 0,-0.4641 0.0959,-0.14391 0.3418,-0.10974 0.4641,-0.23204 0.0547,-0.0547 -0.0547,-0.17736 0,-0.23205 0.0547,-0.0547 0.16286,0.0346 0.23204,0 0.0978,-0.0489 0.13421,-0.18313 0.23205,-0.23205 0.06,-0.03 1.22781,0 1.39228,0 0.38675,0 0.7735,0 1.16024,0 0.0773,0 0.1547,0 0.23205,0 0.0773,0 0.16286,-0.0346 0.23204,0 0.18623,0.0931 0.27787,0.37098 0.4641,0.4641 0.0692,0.0346 0.16286,-0.0346 0.23205,0 0.0978,0.0489 0.1342,0.18312 0.23204,0.23204 0.0692,0.0346 0.1547,0 0.23205,0 0.0773,0 0.1547,0 0.23205,0 0.0773,0 0.1547,0 0.23204,0 0.0773,0 0.17736,0.0547 0.23205,0 0.0547,-0.0547 -0.0346,-0.16286 0,-0.23204 0.0489,-0.0978 0.1547,-0.1547 0.23205,-0.23205 0,-0.1547 -0.0489,-0.31734 0,-0.4641 0.0692,-0.20754 0.36625,-0.26841 0.46409,-0.46409 0.0346,-0.0692 -0.0346,-0.16286 0,-0.23205 0.0489,-0.0978 0.1547,-0.15469 0.23205,-0.23204 0.0773,-0.0773 0.13421,-0.18313 0.23205,-0.23205 0.0692,-0.0346 0.1547,0 0.23204,0 0.1547,-0.0774 0.32019,-0.13611 0.4641,-0.23205 0.091,-0.0607 0.13421,-0.18313 0.23205,-0.23205 0.0692,-0.0346 0.16286,0.0346 0.23204,0 0.19568,-0.0978 0.25655,-0.39491 0.4641,-0.46409 0.12475,-0.0416 0.73172,0 0.92819,0 0.85084,0 1.70168,0 2.55252,0 0.33313,0 0.88453,0.0689 1.16023,0 0.10612,-0.0265 0.12593,-0.20552 0.23205,-0.23205 0.22512,-0.0563 0.47102,0.0563 0.69614,0 0.10612,-0.0265 0.12592,-0.20551 0.23205,-0.23204 0.22512,-0.0563 0.476,0.0734 0.69614,0 0.0734,-0.0245 -0.0547,-0.17736 0,-0.23205 0.0547,-0.0547 0.15867,0.0245 0.23205,0 0.16408,-0.0547 0.30001,-0.17735 0.46409,-0.23205 0.0734,-0.0245 0.16286,0.0346 0.23205,0 1.06199,-0.53099 -0.98468,0.0962 0.69614,-0.46409 0.13092,-0.0436 0.54366,0 0.69614,0 0.12396,0 1.09382,-0.0332 1.16024,0 0.0978,0.0489 0.1342,0.18312 0.23204,0.23204 0.0692,0.0346 0.15867,-0.0245 0.23205,0 0.16408,0.0547 0.30001,0.17736 0.46409,0.23205 0.0734,0.0245 0.16287,-0.0346 0.23205,0 0.0978,0.0489 0.13421,0.18313 0.23205,0.23205 0.13837,0.0692 0.31733,-0.0489 0.46409,0 0.16409,0.0547 0.30002,0.17735 0.4641,0.23205 0.0903,0.0301 0.66013,-0.036 0.69614,0 0.0547,0.0547 -0.0547,0.17735 0,0.23204 0.0547,0.0547 0.16286,-0.0346 0.23205,0 0.22834,0.11417 0.69984,0.81402 0.92818,0.92819 0.13837,0.0692 0.32047,-0.0574 0.4641,0 0.25894,0.10358 0.457,0.32061 0.69614,0.4641 0.14831,0.089 0.32019,0.1361 0.46409,0.23204 0.091,0.0607 0.1547,0.1547 0.23205,0.23205 0.0773,0.0773 0.18313,0.13421 0.23205,0.23205 0.0346,0.0692 0,0.1547 0,0.23204 0,0.1547 0,0.3094 0,0.4641 0,0.46409 0,0.92819 0,1.39228 0,0.92819 0,1.85638 0,2.78457 0,0.12134 0.0305,0.86717 0,0.92819 -0.0489,0.0978 -0.19746,0.12827 -0.23205,0.23204 -0.0193,0.0578 0.0239,1.13634 0,1.16024 -0.0547,0.0547 -0.17735,-0.0547 -0.23205,0 -0.58612,0.58613 -0.0892,0.2675 -0.23204,0.69614 -0.0547,0.16408 -0.17736,0.30001 -0.23205,0.4641 -0.0209,0.0628 -0.009,1.13399 0,1.16023 0.0346,0.10378 0.16641,0.14454 0.23205,0.23205 0.16733,0.22311 0.28987,0.47837 0.46409,0.69614 0.13667,0.17084 0.36626,0.26841 0.4641,0.46409 0.0692,0.13837 -0.0489,0.31734 0,0.4641 0.0346,0.10377 0.18312,0.13421 0.23204,0.23205 0.0346,0.0692 0,0.15469 0,0.23204 0,0.0773 0,0.1547 0,0.23205 0,0.3094 0,0.61879 0,0.92819 0,0.1547 0.0375,0.31401 0,0.46409 -0.16824,0.67299 -0.18103,0.27156 -0.46409,0.69614 -0.0934,0.14011 -0.37069,0.78809 -0.4641,0.92819 -0.0607,0.091 -0.18312,0.13421 -0.23204,0.23205 -0.0621,0.12411 0.062,0.33998 0,0.46409 -0.0489,0.0978 -0.18313,0.13421 -0.23205,0.23205 -0.0353,0.0706 0,0.59164 0,0.69614 0,0.0762 0.0231,0.66157 0,0.69614 -0.12135,0.18204 -0.34274,0.28207 -0.46409,0.4641 -0.0429,0.0644 0.0245,0.15867 0,0.23205 -0.56028,1.68081 0.0669,-0.36585 -0.4641,0.69614 -0.0346,0.0692 0.0346,0.16286 0,0.23204 -0.0489,0.0978 -0.17137,0.14104 -0.23205,0.23205 -0.0959,0.14391 -0.1361,0.32019 -0.23204,0.4641 -0.0607,0.091 -0.18313,0.1342 -0.23205,0.23204 -0.0346,0.0692 0,0.1547 0,0.23205 0,0.0773 0,0.1547 0,0.23205 0,0.46409 0,0.92819 0,1.39228 0,0.0773 0,0.1547 0,0.23205 0,0.0773 0.0346,0.16286 0,0.23205 -0.0489,0.0978 -0.1547,0.15469 -0.23205,0.23204 -0.58639,0.5864 -0.26841,0.36626 -0.92819,0.69614 -0.15469,0.0774 -0.34179,0.10975 -0.46409,0.23205 -0.1223,0.1223 -0.10975,0.3418 -0.23205,0.4641 -0.1223,0.12229 -0.32018,0.1361 -0.46409,0.23204 -0.18203,0.12136 -0.28206,0.34274 -0.4641,0.4641 -0.1439,0.0959 -0.32018,0.1361 -0.46409,0.23204 -0.091,0.0607 -0.14103,0.17137 -0.23205,0.23205 -0.11685,0.51124 -0.47736,0.12266 -0.69614,0.23205 -0.19568,0.0978 -0.26841,0.36625 -0.46409,0.46409 -0.0692,0.0346 -0.15701,-0.0188 -0.23205,0 -0.2373,0.0593 -0.46904,0.14121 -0.69614,0.23205 -0.16059,0.0642 -0.2963,0.1901 -0.4641,0.23205 -0.15007,0.0375 -0.31733,-0.0489 -0.46409,0 -0.10377,0.0346 -0.1547,0.15469 -0.23205,0.23204 -0.1547,0.1547 -0.28206,0.34274 -0.46409,0.4641 -0.0644,0.0429 -0.17735,-0.0547 -0.23205,0 -0.0547,0.0547 0.0346,0.16286 0,0.23205 -0.0489,0.0978 -0.1547,0.15469 -0.23205,0.23204 -0.0773,0.0773 -0.1342,0.18313 -0.23204,0.23205 -0.092,0.046 -0.64871,-0.0474 -0.69614,0 -0.0547,0.0547 0.0547,0.17735 0,0.23205 -0.0547,0.0547 -0.17736,-0.0547 -0.23205,0 -0.0547,0.0547 0.0547,0.17735 0,0.23204 -0.48012,0.48012 0.0188,-0.73367 -0.4641,0.23205 -0.0346,0.0692 0.0547,0.17735 0,0.23205 -0.0547,0.0547 -0.15469,0 -0.23204,0 -0.1614,0 -1.07632,-0.042 -1.16024,0 -0.0978,0.0489 -0.13421,0.18313 -0.23205,0.23205 -0.13836,0.0692 -0.31733,-0.0489 -0.46409,0 -0.50806,0.16935 -0.42012,0.29474 -0.92819,0.46409 -0.12684,0.0423 -1.44294,0 -1.62433,0 -0.0773,0 -0.17735,-0.0547 -0.23205,0 -0.0547,0.0547 0.0547,0.17735 0,0.23205 -0.10938,0.10939 -0.32572,-0.0692 -0.46409,0 -0.0978,0.0489 -0.13421,0.18312 -0.23205,0.23204 -0.14584,0.0729 -0.78234,-0.0729 -0.92819,0 -0.0978,0.0489 -0.1342,0.18313 -0.23204,0.23205 -0.092,0.046 -0.64871,-0.0474 -0.69615,0 -0.0547,0.0547 0.0547,0.17735 0,0.23205 -0.0547,0.0547 -0.23204,0.0773 -0.23204,0 0,-0.10939 0.34143,-0.23205 0.23204,-0.23205 -0.17295,0 -0.30001,0.17735 -0.46409,0.23205 -0.13092,0.0436 -0.54366,0 -0.69614,0 -0.33653,0 -2.68603,0.0604 -1.16024,-1.16024 0.38675,-0.30939 1.31494,0.85084 0.92819,1.16024 -0.38674,0.30939 -0.61879,-0.77349 -0.92819,-1.16024 z"
                 style="fill:#008000;stroke:none" />
              <path
                 transform="matrix(3.7877759,0,0,3.7877759,-623.12679,-586.74572)"
                 inkscape:connector-curvature="0"
                 id="path3768"
                 d="m 188.30627,200.05269 c 1.86506,-0.0108 0.0116,2.36302 -0.69614,2.1271 -0.0519,-0.0173 -0.0723,-0.0832 -0.11602,-0.11602 -0.11156,-0.0837 -0.24947,-0.13345 -0.34807,-0.23205 -0.0274,-0.0273 0.0122,-0.0793 0,-0.11602 -0.24006,-0.72017 0.009,0.38561 -0.23205,-0.58012 -0.0188,-0.075 0.0188,-0.15701 0,-0.23205 -0.0297,-0.11864 -0.0864,-0.22942 -0.11602,-0.34807 -0.0275,-0.10998 0,-0.70336 0,-0.81216 0,-0.0387 0.0122,-0.0793 0,-0.11602 -0.0547,-0.16409 -0.17736,-0.30002 -0.23205,-0.4641 -0.0367,-0.11007 0.0367,-0.238 0,-0.34807 -0.0173,-0.0519 -0.0916,-0.0671 -0.11603,-0.11602 -0.0173,-0.0346 0.0122,-0.0793 0,-0.11603 -0.0273,-0.082 -0.095,-0.14815 -0.11602,-0.23204 -0.0188,-0.075 0.0245,-0.15867 0,-0.23205 -0.0173,-0.0519 -0.0916,-0.0671 -0.11602,-0.11602 -0.0173,-0.0346 0.0122,-0.0793 0,-0.11603 -0.28014,-0.84041 0.0334,0.18293 -0.23205,-0.34807 -0.0173,-0.0346 0,-0.0773 0,-0.11602 -0.0387,-0.11603 -0.0482,-0.24631 -0.11602,-0.34807 -0.0215,-0.0322 -0.0773,0 -0.11603,0 0,-0.0387 0.0173,-0.0814 0,-0.11603 -0.0245,-0.0489 -0.0916,-0.0671 -0.11602,-0.11602 -0.14288,-0.28576 0.33679,0.10474 -0.11602,-0.34807 -0.0612,-0.0611 -0.1709,-0.0549 -0.23205,-0.11602 -0.0273,-0.0274 0.0274,-0.0887 0,-0.11603 -0.0273,-0.0273 -0.0987,0.0346 -0.11602,0 -0.0464,-0.0928 0.0464,-0.25525 0,-0.34807 -0.0245,-0.0489 -0.0916,-0.0671 -0.11603,-0.11602 -0.0173,-0.0346 0.0173,-0.0814 0,-0.11603 -0.0624,-0.12472 -0.18026,-0.2186 -0.23205,-0.34807 -0.0287,-0.0718 0.0346,-0.16286 0,-0.23204 -0.0173,-0.0346 -0.0987,0.0346 -0.11602,0 -0.0346,-0.0692 0,-0.1547 0,-0.23205 0,-0.23205 0,-0.4641 0,-0.69614 0,-0.1547 0,-0.3094 0,-0.4641 0,-0.0387 -0.0274,-0.0887 0,-0.11602 0.0273,-0.0274 0.0887,0.0273 0.11602,0 0.0611,-0.0611 0.0681,-0.16009 0.11603,-0.23205 0.0607,-0.091 0.18313,-0.13421 0.23205,-0.23205 0.0173,-0.0346 -0.0274,-0.0887 0,-0.11602 0.0273,-0.0273 0.0887,0.0274 0.11602,0 0.0547,-0.0547 -0.0346,-0.16286 0,-0.23205 0.0696,-0.13922 0.27846,-0.20884 0.34807,-0.34807 0.0173,-0.0346 -0.0215,-0.0838 0,-0.11602 0.0607,-0.091 0.17137,-0.14103 0.23205,-0.23205 0.0215,-0.0322 -0.0173,-0.0814 0,-0.11602 0.0245,-0.0489 0.0857,-0.0705 0.11602,-0.11602 0.048,-0.072 0.068,-0.1601 0.11602,-0.23205 0.091,-0.13653 0.24963,-0.21681 0.34807,-0.34807 0.0519,-0.0692 0.0681,-0.16009 0.11603,-0.23205 0.0303,-0.0455 0.0916,-0.0671 0.11602,-0.11602 0.0173,-0.0346 -0.0273,-0.0887 0,-0.11603 0.0611,-0.0611 0.18408,-0.0441 0.23205,-0.11602 0.0429,-0.0644 -0.0245,-0.15867 0,-0.23205 0.0173,-0.0519 0.0773,-0.0773 0.11602,-0.11602 0.0387,-0.0773 0.095,-0.14815 0.11603,-0.23205 0.0188,-0.075 0,-0.1547 0,-0.23205 0,-0.0387 -0.0173,-0.0814 0,-0.11602 0.0245,-0.0489 0.0773,-0.0773 0.11602,-0.11602 0,-0.0773 -0.0188,-0.15701 0,-0.23205 0.19538,-0.7815 0.002,-0.002 0.23205,-0.23205 0.0273,-0.0273 -0.0173,-0.0814 0,-0.11602 0.0245,-0.0489 0.0916,-0.0671 0.11602,-0.11602 0.0173,-0.0346 -0.0273,-0.0887 0,-0.11603 0.0611,-0.0611 0.1709,-0.0549 0.23205,-0.11602 0.0273,-0.0273 0,-0.0773 0,-0.11602 0,-0.0387 0,-0.0773 0,-0.11603 0,-0.19337 0,-0.38674 0,-0.58012 0,-0.0387 0,-0.0774 0,-0.11602 0,-0.0387 -0.0173,-0.0814 0,-0.11602 0.26549,-0.531 -0.0481,0.49233 0.23204,-0.34807 0.0122,-0.0367 -0.0173,-0.0814 0,-0.11603 0.0489,-0.0978 0.18313,-0.13421 0.23205,-0.23204 0.0346,-0.0692 -0.0346,-0.16287 0,-0.23205 0.0245,-0.0489 0.0916,-0.0671 0.11603,-0.11603 0.0346,-0.0692 -0.0547,-0.17735 0,-0.23204 0.14131,-0.14132 0.25922,-0.0543 0.34807,-0.23205 0.0173,-0.0346 0,-0.0773 0,-0.11602 0.0387,-0.0773 0.068,-0.1601 0.11602,-0.23205 0.0607,-0.091 0.1547,-0.1547 0.23205,-0.23205 0.1547,-0.1547 0.30939,-0.30939 0.46409,-0.46409 0.0611,-0.0611 0.28611,-0.31709 0.34807,-0.34807 0.0346,-0.0173 0.0773,0 0.11603,0 0.0773,-0.0387 0.16009,-0.0681 0.23204,-0.11603 0.10012,-0.0667 0.25745,-0.25744 0.34807,-0.34807 0.0773,-0.0773 0.1547,-0.1547 0.23205,-0.23204 0.0387,-0.0387 0.0857,-0.0705 0.11602,-0.11603 0.048,-0.0719 0.0549,-0.1709 0.11603,-0.23205 0.0274,-0.0273 0.0887,0.0273 0.11602,0 0.0273,-0.0273 -0.0274,-0.0887 0,-0.11602 0.0273,-0.0273 0.0793,0.0122 0.11603,0 0.082,-0.0273 0.16009,-0.068 0.23204,-0.11602 0.0455,-0.0303 0.0773,-0.0773 0.11603,-0.11603 0.0773,-0.0387 0.16009,-0.068 0.23204,-0.11602 0.0455,-0.0303 0.0671,-0.0916 0.11603,-0.11602 0.0346,-0.0173 0.0814,0.0173 0.11602,0 0.0978,-0.0489 0.13421,-0.18313 0.23205,-0.23205 0.0346,-0.0173 0.0887,0.0273 0.11602,0 0.0273,-0.0274 -0.0274,-0.0887 0,-0.11602 0.0273,-0.0273 0.0793,0.0122 0.11602,0 0.16409,-0.0547 0.30002,-0.17736 0.4641,-0.23205 0.0367,-0.0122 0.0814,0.0173 0.11602,0 0.48286,-0.24143 -0.12403,0.008 0.11603,-0.23205 0.0273,-0.0274 0.0887,0.0273 0.11602,0 0.0274,-0.0274 -0.0273,-0.0887 0,-0.11602 0.24006,-0.24006 -0.009,0.36684 0.23205,-0.11603 0.0173,-0.0346 -0.0274,-0.0887 0,-0.11602 0.0273,-0.0274 0.0793,0.0122 0.11602,0 0.082,-0.0274 0.15001,-0.0887 0.23205,-0.11602 0.0367,-0.0122 0.0814,0.0173 0.11602,0 0.0978,-0.0489 0.14103,-0.17137 0.23205,-0.23205 0.072,-0.048 0.16009,-0.068 0.23205,-0.11602 0.0455,-0.0303 0.0671,-0.0916 0.11602,-0.11603 0.0314,-0.0157 0.64616,0 0.69614,0 0.61879,0 1.23759,0 1.85638,0 0.11874,0 0.83687,0.0228 0.92819,0 0.10612,-0.0265 0.12592,-0.20551 0.23204,-0.23204 0.11256,-0.0281 0.238,0.0367 0.34807,0 0.0367,-0.0122 -0.0273,-0.0887 0,-0.11603 0.45281,-0.45281 0.0623,0.0269 0.34808,-0.11602 0.0489,-0.0245 0.0705,-0.0857 0.11602,-0.11602 0.0719,-0.048 0.1709,-0.0549 0.23205,-0.11603 0.0273,-0.0273 -0.0273,-0.0887 0,-0.11602 0.0611,-0.0611 0.17089,-0.0549 0.23204,-0.11603 0.0611,-0.0611 0.0549,-0.17089 0.11603,-0.23204 0.0273,-0.0274 0.0814,0.0173 0.11602,0 0.0489,-0.0245 0.0774,-0.0773 0.11602,-0.11603 0.0387,-0.0387 0.0916,-0.0671 0.11603,-0.11602 0.0173,-0.0346 -0.0173,-0.0814 0,-0.11602 0.26549,-0.531 -0.0481,0.49233 0.23204,-0.34807 0.0245,-0.0734 -0.0346,-0.16287 0,-0.23205 0.0665,-0.13301 0.24209,-0.16139 0.34808,-0.23205 0.0455,-0.0303 0.0671,-0.0916 0.11602,-0.11602 0.0346,-0.0173 0.0814,0.0173 0.11602,0 0.0489,-0.0245 0.0705,-0.0857 0.11603,-0.11603 0.0719,-0.048 0.16009,-0.068 0.23204,-0.11602 0.0455,-0.0303 0.0671,-0.0916 0.11603,-0.11602 0.0684,-0.0342 0.26826,0.0266 0.34807,0 0.16408,-0.0547 0.30939,-0.1547 0.46409,-0.23205 0.0774,-0.0387 0.14815,-0.095 0.23205,-0.11602 0.15008,-0.0375 0.31401,0.0375 0.46409,0 0.56027,-0.14007 -0.006,-0.0551 0.34807,-0.23205 0.0692,-0.0346 0.17736,0.0547 0.23205,0 0.0274,-0.0273 -0.0273,-0.0887 0,-0.11602 0.0274,-0.0274 0.0814,0.0173 0.11602,0 0.0489,-0.0245 0.0671,-0.0916 0.11603,-0.11603 0.0692,-0.0346 0.16286,0.0346 0.23205,0 0.35382,-0.17691 -0.21221,-0.092 0.34807,-0.23204 0.075,-0.0188 0.15469,0 0.23204,0 0.12793,0 0.61277,0.0208 0.69614,0 0.0531,-0.0133 0.0705,-0.0857 0.11603,-0.11603 0.072,-0.048 0.15,-0.0887 0.23205,-0.11602 0.0367,-0.0122 0.0773,0 0.11602,0 0.11602,0 0.23205,0 0.34807,0 0.27072,0 0.54144,0 0.81217,0 0.92818,0 1.85637,0 2.78456,0 0.13478,0 0.47494,0.0263 0.58012,0 0.0839,-0.021 0.15,-0.0887 0.23205,-0.11603 0.0734,-0.0245 0.15469,0 0.23204,0 0.11603,0 0.23205,0 0.34807,0 0.42542,0 0.85084,0 1.27626,0 0.16655,0 0.57404,-0.0305 0.69614,0 0.0531,0.0133 0.0723,0.0832 0.11603,0.11603 0.11155,0.0837 0.23651,0.14838 0.34807,0.23205 0.0619,0.0465 0.43671,0.40932 0.46409,0.46409 0.0173,0.0346 -0.0273,0.0887 0,0.11602 0.24006,0.24006 -0.009,-0.36684 0.23205,0.11603 0.0173,0.0346 -0.0173,0.0814 0,0.11602 0.0773,0.15452 0.15479,0.0775 0.23205,0.23205 0.0173,0.0346 -0.0173,0.0814 0,0.11602 0.0696,0.13923 0.27845,0.20884 0.34807,0.34807 0.0173,0.0346 -0.0173,0.0814 0,0.11603 0.0245,0.0489 0.0916,0.0671 0.11602,0.11602 0.0173,0.0346 0,0.0773 0,0.11602 0,0.0387 0,0.0774 0,0.11603 0,0.19337 0,0.38674 0,0.58011 0,0.0728 0.0143,0.44977 0,0.4641 -0.0273,0.0273 -0.0774,0 -0.11602,0 -0.1547,0 -0.3094,0 -0.4641,0 -0.0773,0 -0.157,-0.0188 -0.23204,0 -0.0839,0.021 -0.15001,0.0887 -0.23205,0.11602 -0.0752,0.0251 -0.48513,0 -0.58012,0 -0.38674,0 -0.77349,0 -1.16023,0 -0.27073,0 -0.54145,0 -0.81217,0 -0.11602,0 -0.23551,0.0281 -0.34807,0 -0.0839,-0.021 -0.15001,-0.0887 -0.23205,-0.11602 -0.0367,-0.0122 -0.0887,0.0273 -0.11602,0 -0.0611,-0.0611 -0.0549,-0.1709 -0.11602,-0.23205 -0.0547,-0.0547 -0.16287,0.0346 -0.23205,0 -0.0489,-0.0245 -0.0671,-0.0916 -0.11602,-0.11602 -0.0346,-0.0173 -0.0814,0.0173 -0.11603,0 -0.53099,-0.2655 0.49234,0.0481 -0.34807,-0.23205 -0.0628,-0.0209 -0.42457,0 -0.46409,0 -0.3094,0 -0.6188,0 -0.92819,0 -0.3094,0 -0.61879,0 -0.92819,0 -0.095,0 -0.50494,-0.0251 -0.58012,0 -0.21072,0.0702 -0.21532,0.0993 -0.34807,0.23205 -0.0387,0.0387 -0.0671,0.0916 -0.11602,0.11602 -0.80797,0.26932 0.0569,-0.0766 -0.58012,0.34807 -0.0322,0.0215 -0.0839,-0.0214 -0.11602,0 -0.0858,0.0572 -0.36865,0.41637 -0.4641,0.4641 -0.0346,0.0173 -0.0814,-0.0173 -0.11602,0 -0.0489,0.0245 -0.0641,0.0987 -0.11603,0.11602 -0.0734,0.0245 -0.157,-0.0188 -0.23204,0 -0.0839,0.021 -0.14815,0.0951 -0.23205,0.11602 -0.15255,0.0381 -0.43602,-0.048 -0.58012,0 -0.0519,0.0173 -0.0671,0.0916 -0.11602,0.11603 -0.0346,0.0173 -0.0785,-0.009 -0.11603,0 -0.11602,0.0387 -0.23204,0.0773 -0.34807,0.11602 -0.0773,0 -0.157,-0.0188 -0.23204,0 -0.1678,0.042 -0.30002,0.17735 -0.4641,0.23205 -0.0367,0.0122 -0.0773,0 -0.11602,0 -0.0773,0.0387 -0.15001,0.0887 -0.23205,0.11602 -0.0734,0.0245 -0.17735,-0.0547 -0.23205,0 -0.0273,0.0273 0.0274,0.0887 0,0.11602 -0.0273,0.0274 -0.0887,-0.0273 -0.11602,0 -0.0274,0.0274 0.0173,0.0814 0,0.11603 -0.0696,0.13923 -0.27846,0.20884 -0.34807,0.34807 -0.0173,0.0346 0.0173,0.0814 0,0.11602 -0.0489,0.0978 -0.17137,0.14103 -0.23205,0.23205 -0.048,0.0719 -0.068,0.16009 -0.11602,0.23205 -0.0303,0.0455 -0.0916,0.0671 -0.11602,0.11602 -0.0173,0.0346 0.0173,0.0814 0,0.11602 -0.0245,0.0489 -0.0857,0.0705 -0.11603,0.11603 -0.048,0.0719 -0.0441,0.18408 -0.11602,0.23204 -0.0644,0.0429 -0.15701,-0.0188 -0.23205,0 -0.0839,0.021 -0.16009,0.0681 -0.23205,0.11603 -0.0455,0.0303 -0.063,0.10276 -0.11602,0.11602 -0.11256,0.0281 -0.23551,-0.0281 -0.34807,0 -0.0531,0.0133 -0.0671,0.0916 -0.11602,0.11603 -0.0346,0.0173 -0.0793,-0.0122 -0.11603,0 -0.082,0.0273 -0.15,0.0887 -0.23204,0.11602 -0.0367,0.0122 -0.0814,-0.0173 -0.11603,0 -0.0978,0.0489 -0.14103,0.17137 -0.23204,0.23205 -0.072,0.048 -0.1601,0.068 -0.23205,0.11602 -0.0455,0.0303 -0.0641,0.0987 -0.11603,0.11602 -0.0734,0.0245 -0.16768,-0.0429 -0.23204,0 -0.072,0.048 -0.0549,0.1709 -0.11603,0.23205 -0.0273,0.0274 -0.0773,0 -0.11602,0 -0.11602,0 -0.23205,0 -0.34807,0 -0.4641,0 -0.92819,0 -1.39228,0 -0.0459,0 -0.53057,-0.0248 -0.58012,0 -0.48286,0.24143 0.12403,-0.008 -0.11603,0.23205 -0.0273,0.0273 -0.0814,-0.0173 -0.11602,0 -0.13923,0.0696 -0.20884,0.27845 -0.34807,0.34807 -0.0346,0.0173 -0.0814,-0.0173 -0.11602,0 -0.35382,0.17691 0.2122,0.092 -0.34807,0.23205 -0.075,0.0188 -0.15867,-0.0245 -0.23205,0 -0.0519,0.0173 -0.0671,0.0916 -0.11602,0.11602 -0.21878,0.10939 -0.49263,0.0964 -0.69615,0.23205 -0.0322,0.0215 0.0273,0.0887 0,0.11602 -0.42228,0.42228 -0.0815,-0.12335 -0.34807,0.23205 -0.0837,0.11155 -0.13344,0.24947 -0.23204,0.34807 -0.0611,0.0611 -0.1601,0.068 -0.23205,0.11602 -0.26655,0.1777 0.0497,0.0663 -0.23205,0.34807 -0.0273,0.0274 -0.0987,-0.0346 -0.11602,0 -0.0346,0.0692 0.0188,0.15701 0,0.23205 -0.021,0.0839 -0.0887,0.15001 -0.11603,0.23205 -0.0245,0.0734 0.0245,0.15866 0,0.23204 -0.0387,0.0773 -0.0773,0.1547 -0.11602,0.23205 -0.0387,0 -0.0887,-0.0274 -0.11602,0 -0.0611,0.0611 -0.0681,0.16009 -0.11603,0.23205 -0.0704,0.10562 -0.29665,0.24523 -0.34807,0.34807 -0.0173,0.0346 0,0.0773 0,0.11602 -0.0387,0.0387 -0.0916,0.0671 -0.11602,0.11603 -0.0173,0.0346 0.0173,0.0814 0,0.11602 -0.0489,0.0978 -0.18313,0.13421 -0.23205,0.23205 -0.0173,0.0346 0.0273,0.0887 0,0.11602 -0.0273,0.0273 -0.0793,-0.0122 -0.11602,0 -0.082,0.0273 -0.1547,0.0773 -0.23205,0.11602 -0.56168,0.28084 0.1223,-0.0917 -0.46409,0.34807 -0.0692,0.0519 -0.1709,0.0549 -0.23205,0.11603 -0.0273,0.0273 0.0274,0.0887 0,0.11602 -0.0273,0.0274 -0.0887,-0.0273 -0.11602,0 -0.0274,0.0274 0.0173,0.0814 0,0.11603 -0.0245,0.0489 -0.0916,0.0671 -0.11603,0.11602 -0.14288,0.28576 0.33679,-0.10474 -0.11602,0.34807 -0.0274,0.0274 -0.0887,-0.0273 -0.11602,0 -0.0273,0.0274 0.0273,0.0887 0,0.11602 -0.0773,0.0387 -0.1547,0.0773 -0.23205,0.11603 0,0.0387 0.0273,0.0887 0,0.11602 -0.0274,0.0274 -0.0839,-0.0214 -0.11602,0 -0.091,0.0607 -0.14104,0.17137 -0.23205,0.23205 -0.0322,0.0214 -0.0887,-0.0274 -0.11603,0 -0.0273,0.0273 0.0273,0.0887 0,0.11602 -0.0273,0.0274 -0.0887,-0.0274 -0.11602,0 -0.0612,0.0611 -0.068,0.16009 -0.11602,0.23205 -0.0303,0.0455 -0.0987,0.0641 -0.11603,0.11602 -0.0245,0.0734 0.0346,0.16287 0,0.23205 -0.0173,0.0346 -0.0773,0 -0.11602,0 -0.0387,0.0387 -0.0987,0.0641 -0.11602,0.11602 -0.0256,0.0768 0,0.65494 0,0.81217 0,0.0773 0.0346,0.16286 0,0.23204 -0.0173,0.0346 -0.0887,-0.0273 -0.11603,0 -0.004,0.004 0,0.31994 0,0.34808 0,0.77349 0,1.54698 0,2.32047 0,0.0547 0.005,0.57486 0,0.58012 -0.0273,0.0273 -0.0887,-0.0274 -0.11602,0 -0.0547,0.0547 0.0346,0.16286 0,0.23204 -0.0245,0.0489 -0.0916,0.0671 -0.11602,0.11603 -0.0177,0.0353 0,0.29581 0,0.34807 0,0.23204 0,0.46409 0,0.69614 0,0.19337 0,0.38674 0,0.58012 0,0.0387 0,0.0773 0,0.11602 0,0.0387 -0.0173,0.0814 0,0.11602 0.0245,0.0489 0.0916,0.0671 0.11602,0.11603 0.0177,0.0353 0,0.29582 0,0.34807 0,0.0887 0.0235,0.39744 0,0.46409 -0.0653,0.18516 -0.1547,0.36096 -0.23205,0.54144 z"
                 style="fill:#00ff00;stroke:none" />
            </g>
            <path
               style="fill:#005500;stroke:none"
               d="m 125.02894,206.38492 c 1.33565,-0.66786 0.77975,-0.62154 1.55375,-0.62154 0.31059,0 0.62756,0.061 0.93228,0 1.78537,-0.35719 -0.0894,-0.3106 0.93225,-0.3106 0.20719,0 0.41434,0 0.6215,0 0.3106,0 0.63744,0.0981 0.93225,0 0.0981,-0.0341 -0.0731,-0.23749 0,-0.3106 0.0731,-0.0731 0.21249,0.0341 0.31097,0 0.20719,-0.1034 0.41431,-0.20719 0.6215,-0.31059 0.10341,0 0.21249,0.0341 0.3106,0 0.21969,-0.0731 0.39438,-0.26515 0.6215,-0.3106 0.30453,-0.061 0.62755,0.061 0.93224,0 0.22727,-0.0455 0.40177,-0.23749 0.62154,-0.3106 0.0981,-0.0341 0.21249,0.0341 0.3106,0 0.43946,-0.14659 0.80354,-0.47502 1.24299,-0.6215 0.57404,-0.19128 0.14735,0.47416 0.93225,-0.31059 0.0731,-0.0731 0,-0.2072 0,-0.3106 0,-0.10341 0,-0.20719 0,-0.3106 0,-0.93225 0,-1.86449 0,-2.79678 0,-0.3106 0.0754,-0.63078 0,-0.93225 -0.0561,-0.22461 -0.20719,-0.41434 -0.3106,-0.6215 -0.1034,-0.20719 -0.18219,-0.42877 -0.31059,-0.62149 -0.0811,-0.12197 -0.24507,-0.17954 -0.3106,-0.3106 -0.14659,-0.2928 -0.14204,-0.65138 -0.3106,-0.93229 -0.46127,-0.7688 -0.91861,-0.60786 -1.55374,-1.24299 -0.16364,-0.16363 -0.17197,-0.4362 -0.31098,-0.6215 -0.17575,-0.23446 -0.41431,-0.41435 -0.6215,-0.62154 -0.20719,-0.20719 -0.41434,-0.4143 -0.6215,-0.6215 -0.10378,-0.10378 -0.24545,-0.17954 -0.3106,-0.31059 -0.0462,-0.0928 0,-0.20719 0,-0.3106 0,-0.20719 0,-0.41435 0,-0.6215 0,-0.31287 -0.0572,-1.69268 0,-1.86453 0.0462,-0.13901 0.24507,-0.17954 0.3106,-0.3106 0.0462,-0.0928 -0.0462,-0.21818 0,-0.3106 0.0655,-0.13105 0.24545,-0.17954 0.3106,-0.31059 0.0462,-0.0928 0,-0.2072 0,-0.3106 0,-0.20719 0,-0.41435 0,-0.62154 0,-2.07168 0,-4.14337 0,-6.21506 0,-0.6215 0,-1.24299 0,-1.86449 0,-0.3106 0.0511,-0.62574 0,-0.93229 -0.0538,-0.32309 -0.22083,-0.61729 -0.3106,-0.93224 -0.29469,-1.03134 -0.24885,-1.24391 -0.6215,-2.17529 -0.086,-0.21514 -0.25453,-0.39677 -0.31059,-0.62149 -0.0754,-0.30151 0,-0.6215 0,-0.93225 0,-0.93229 0,-1.86453 0,-2.79678 0,-0.20719 0,-0.41435 0,-0.6215 0,-0.10379 -0.0731,-0.23749 0,-0.3106 0.0731,-0.0731 0.20719,0 0.31059,0 0.2072,0 0.41435,0 0.6215,0 0.51794,0 1.03585,0 1.55379,0 0.20416,0 0.75691,0.0583 0.93224,0 1.13296,-0.37764 0.23939,-0.20378 0.93225,-1.24303 0.0576,-0.0864 0.23749,0.0731 0.3106,0 0.0731,-0.0731 -0.0928,-0.26439 0,-0.3106 0.18522,-0.0928 0.42499,0.0655 0.6215,0 0.27802,-0.0928 0.37764,-0.459 0.62153,-0.6215 0.1928,-0.1284 0.45772,-0.14696 0.6215,-0.3106 0.0731,-0.0731 -0.0731,-0.23749 0,-0.31059 0.16363,-0.16364 0.45772,-0.14697 0.6215,-0.31098 0.0731,-0.0731 -0.0731,-0.23749 0,-0.3106 0.0731,-0.0731 0.23749,0.0731 0.3106,0 0.0731,-0.0731 -0.0462,-0.21817 0,-0.3106 0.0655,-0.13105 0.20719,-0.20719 0.31059,-0.31059 0.10341,-0.10379 0.17954,-0.24507 0.3106,-0.3106 0.0826,-0.0413 2.11623,-0.0189 2.17528,0 0.13902,0.0462 0.24545,0.17954 0.3106,0.3106 0.0572,0.11477 0,1.59382 0,1.86453 0,0.17916 0.0564,1.44049 0,1.55375 -0.16704,0.33408 -0.48279,0.58551 -0.6215,0.93228 -0.0769,0.19242 0.11477,0.44912 0,0.6215 -0.1284,0.1928 -0.45771,0.14696 -0.6215,0.3106 -0.14658,0.14658 0.0928,0.4362 0,0.6215 -0.18635,0.37309 -0.74581,0.55937 -0.93224,0.93224 -0.0928,0.18522 0.0928,0.43624 0,0.62154 -0.18636,0.37309 -0.74582,0.55934 -0.93229,0.93225 -0.0462,0.0928 0,0.20719 0,0.31059 0,0.10379 0,0.2072 0,0.3106 0,0.51794 0,1.03584 0,1.55378 0,0.3106 -0.0754,0.63078 0,0.93225 0.0561,0.22462 0.2375,0.40177 0.3106,0.6215 0.0341,0.0981 -0.0462,0.21818 0,0.3106 0.75002,1.12501 0.4545,0.59824 0.93229,1.55378 0.1034,0.20719 0.25453,0.39681 0.31059,0.6215 0.0504,0.20113 -0.0928,0.4362 0,0.6215 0.13106,0.26211 0.45897,0.37764 0.6215,0.62153 0.0341,0.0526 0,1.66557 0,1.8645 0,0.72509 0,1.45019 0,2.17528 0,0.20719 0,0.41435 0,0.6215 0,0.10378 0.0462,0.21818 0,0.3106 -0.71112,1.42219 0.12879,-1.31864 -0.6215,0.93228 -0.0621,0.18636 0,1.3058 0,1.55375 0,0.10378 0.0341,0.21249 0,0.3106 -0.0731,0.21969 -0.23749,0.40176 -0.31059,0.62149 -0.0341,0.10644 -0.0341,1.1366 0,1.24304 0.0731,0.21969 0.20719,0.41434 0.31059,0.6215 0.10341,0.20719 0.14697,0.45771 0.3106,0.62149 0.0731,0.0731 0.23749,-0.0731 0.3106,0 0.0731,0.0731 -0.0731,0.2375 0,0.3106 0.16363,0.16363 0.45771,0.14697 0.6215,0.3106 0.0189,0.0189 0.58293,1.18516 0.62149,1.24303 0.0814,0.12197 0.2072,0.2072 0.3106,0.3106 0.20719,0.20719 0.38711,0.44571 0.6215,0.6215 0.20189,0.15151 1.61374,0.84869 1.8645,0.93229 0.0985,0.0341 0.21817,-0.0462 0.31059,0 0.13106,0.0655 0.17954,0.24506 0.31098,0.31059 0.0928,0.0462 0.21818,-0.0462 0.3106,0 0.13105,0.0655 0.24507,0.17954 0.31059,0.3106 0.0561,0.1125 0,1.33762 0,1.55375 0,0.26931 0.0598,1.063 0,1.24303 -0.1034,0.20719 -0.20719,0.41435 -0.31059,0.6215 -0.10379,0 -0.2375,-0.0731 -0.3106,0 -0.16363,0.16363 -0.14697,0.45771 -0.31098,0.6215 -0.0731,0.0731 -0.21817,-0.0462 -0.31059,0 -0.13106,0.0655 -0.2072,0.20719 -0.3106,0.3106 -0.41435,0.41434 -0.82865,0.82868 -1.243,1.24303 -0.008,0.008 -1.18027,1.11747 -1.24303,1.243 -0.0462,0.0928 0.0731,0.23749 0,0.31059 -0.0731,0.0731 -0.26439,-0.0928 -0.3106,0 -0.0928,0.18523 0.0655,0.42499 0,0.6215 -0.0928,0.27802 -0.45897,0.37764 -0.6215,0.62154 -0.18939,0.2837 -0.26514,0.75411 -0.6215,0.93225 -0.0928,0.0462 -0.21249,-0.0341 -0.3106,0 -0.21969,0.0731 -0.40176,0.23749 -0.62149,0.31059 -0.16818,0.0561 -1.13717,0 -1.24304,0 -0.13977,0 -0.83766,-0.0473 -0.93225,0 -0.13105,0.0655 -0.17954,0.24545 -0.31059,0.3106 -0.0928,0.0462 -0.20719,0 -0.3106,0 -0.10341,0 -0.20719,0 -0.3106,0 -0.72505,0 -1.45015,0 -2.17524,0 -0.7251,0 -1.45019,0 -2.17528,0 -0.10379,0 -0.2072,0 -0.3106,0 -0.10341,0 -0.2375,-0.0731 -0.3106,0 -0.0731,0.0731 0.0731,0.23749 0,0.3106 -0.0731,0.0731 -0.20719,0 -0.3106,0 -0.22802,0 -1.7562,-0.0542 -1.86453,0 -0.13106,0.0655 -0.17954,0.24545 -0.3106,0.3106 -0.0928,0.0462 -0.21817,-0.0462 -0.31059,0 -0.3731,0.18635 -0.55938,0.74581 -0.93225,0.93228 -0.13257,0.0663 -1.43095,0 -1.55379,0 -0.20719,0 -0.4362,0.0928 -0.62149,0 -0.0928,-0.0462 0.0731,-0.23749 0,-0.3106 -0.10341,-0.1034 -0.51802,0.10341 -0.6215,0 -0.0731,-0.0731 0,-0.20719 0,-0.31097 0,-0.10341 0,-0.20719 0,-0.3106 0,-1.05448 4.1e-4,-0.6226 0.6215,-2.17524 z"
               id="path3786"
               inkscape:connector-curvature="0" />
            <path
               style="fill:#005500;fill-opacity:1;stroke:none"
               d="m 152.44415,166.39459 c -3.29548,-5.82541 -0.57745,-3.07939 -1.86453,-2.43584 -0.0928,0.0462 -0.2375,-0.0731 -0.3106,0 -0.16363,0.16363 -0.18219,0.42877 -0.3106,0.62149 -0.16249,0.24394 -0.49048,0.35946 -0.6215,0.6215 -0.0462,0.0928 0.0462,0.21818 0,0.3106 -0.0655,0.13106 -0.24544,0.17954 -0.31059,0.3106 -0.0473,0.0947 0,0.79232 0,0.93228 0,0.10341 0,0.20719 0,0.3106 0,0.10341 -0.0731,0.23749 0,0.3106 0.0731,0.0731 0.23749,-0.0731 0.31059,0 0.64294,0.64294 -0.98255,-0.0265 0.3106,0.6215 0.3284,0.16439 0.93225,-0.36439 0.93225,0.62149 0,0.6215 0,1.24304 0,1.86454 0,0.1034 0,0.20719 0,0.3106 0,0.10378 -0.0462,0.21817 0,0.31059 0.0655,0.13106 0.17954,0.24545 0.3106,0.3106 0.0803,0.0402 1.64427,0 1.86453,0 1.34659,0 2.69318,0 4.03978,0 0.20719,0 0.41434,0 0.62153,0 0.10341,0 0.3106,-0.10378 0.3106,0 0,0.10341 -0.41435,0 -0.3106,0 0.20719,0 0.4362,-0.0928 0.6215,0 0.12916,0.0644 -0.10833,0.8238 0,0.93225 0.0731,0.0731 0.23749,-0.0731 0.3106,0 0.14658,0.14658 -0.14659,0.47502 0,0.62153 0.0731,0.0731 0.23749,-0.0731 0.31059,0 0.0731,0.0731 -0.0731,0.2375 0,0.3106 0.0731,0.0731 0.2072,0 0.3106,0 0.7251,0 1.45019,0 2.17528,0 0.82869,0 1.65735,0 2.48604,0 0.0739,0 1.17333,-0.0341 1.24299,0 0.3731,0.18636 0.55938,0.74581 0.93229,0.93225 0.34165,0.17083 0.62721,-0.29924 0.93224,0.3106 0.0402,0.0803 0,1.64427 0,1.86453 0,0.5179 0,1.03584 0,1.55375 0,0.20719 0.0928,0.43623 0,0.62153 -0.0462,0.0928 -0.26438,-0.0928 -0.31059,0 -0.0928,0.18522 0,0.41431 0,0.6215 -0.20719,0.10341 -0.45776,0.14697 -0.6215,0.3106 -0.0731,0.0731 0.0462,0.21817 0,0.31059 -0.0655,0.13106 -0.20719,0.2072 -0.3106,0.3106 -0.10341,0.20719 -0.22461,0.40647 -0.3106,0.6215 -0.12158,0.30416 -0.14204,0.65138 -0.31059,0.93229 -0.3106,0.5179 -0.6215,0.5179 -0.93225,0.93224 -0.22424,0.29886 -0.42935,0.61199 -0.6215,0.93225 -0.11931,0.19848 -0.14697,0.45775 -0.3106,0.6215 -0.0731,0.0731 -0.23749,-0.0731 -0.3106,0 -0.16363,0.16363 -0.14696,0.45775 -0.31059,0.62154 -0.16363,0.16363 -0.45772,0.14696 -0.6215,0.31059 -0.0731,0.0731 0.0731,0.2375 0,0.3106 -0.14659,0.14659 -0.4362,-0.0928 -0.6215,0 -0.13106,0.0655 -0.20719,0.20719 -0.3106,0.3106 -0.10378,0.10378 -0.24544,0.17954 -0.31059,0.3106 -0.0409,0.0818 0,1.0805 0,1.24303 0,0.27764 -0.0496,1.45473 0,1.55375 0.0655,0.13105 0.20719,0.20719 0.31059,0.31059 0.10379,0.10341 0.18901,0.22954 0.3106,0.3106 0.1928,0.12841 0.42878,0.18219 0.6215,0.3106 0.12197,0.0814 0.17954,0.24545 0.3106,0.31097 0.1659,0.083 0.45574,-0.083 0.62149,0 0.13106,0.0655 0.17955,0.24507 0.3106,0.3106 0.0818,0.0409 1.0805,0 1.243,0 0.82869,0 1.65734,0 2.48603,0 0.20719,0 0.41434,0 0.6215,0 0.10378,0 0.23749,0.0731 0.3106,0 0.0731,-0.0731 -0.0462,-0.21817 0,-0.3106 0.0655,-0.13105 0.24544,-0.17954 0.31059,-0.31097 0.0462,-0.0928 0,-0.20719 0,-0.3106 0.10341,-0.10341 0.24545,-0.17954 0.3106,-0.3106 0.0462,-0.0928 -0.0731,-0.23749 0,-0.31059 0.0731,-0.0731 0.21818,0.0462 0.3106,0 0.37309,-0.18636 0.55938,-0.74582 0.93228,-0.93225 0.0928,-0.0462 0.2375,0.0731 0.3106,0 0.0731,-0.0731 -0.0462,-0.21818 0,-0.3106 0.0655,-0.13106 0.24507,-0.17954 0.3106,-0.3106 0.0462,-0.0928 -0.0731,-0.23749 0,-0.31097 0.64297,-0.64294 -0.0265,0.98255 0.6215,-0.3106 0.0462,-0.0928 -0.0462,-0.21818 0,-0.3106 0.0655,-0.13106 0.20719,-0.20719 0.3106,-0.3106 0.35567,-0.35567 0.43339,-0.36779 0.62153,-0.93224 0.0341,-0.0985 0,-0.20719 0,-0.3106 0.10341,-0.10379 0.24507,-0.17954 0.3106,-0.3106 0.0462,-0.0928 -0.0462,-0.21817 0,-0.31098 0.0655,-0.13105 0.22954,-0.18901 0.3106,-0.31059 0.1284,-0.1928 0.18219,-0.42878 0.31059,-0.6215 0.1625,-0.24393 0.49048,-0.35946 0.6215,-0.6215 0.0462,-0.0928 0,-0.20719 0,-0.3106 0,-0.20719 -0.0504,-0.42052 0,-0.6215 0.0561,-0.22461 0.2375,-0.40176 0.3106,-0.62153 0.0341,-0.0981 -0.0462,-0.21818 0,-0.3106 0.0655,-0.13106 0.26439,-0.17196 0.3106,-0.3106 0.14128,-0.4243 -0.14129,-1.44022 0,-1.86449 0.0462,-0.13901 0.24545,-0.17954 0.3106,-0.3106 0.0462,-0.0928 -0.0341,-0.21249 0,-0.3106 0.35718,-1.07122 0.31059,-0.23029 0.31059,-0.93224 0,-0.6215 0,-1.243 0,-1.86454 0,-0.20719 0,-0.4143 0,-0.6215 0,-0.1034 -0.0341,-0.21249 0,-0.31059 0.0731,-0.21969 0.20719,-0.41435 0.3106,-0.6215 0.10341,-0.20719 0.18219,-0.42878 0.3106,-0.6215 0.37904,-0.56862 0.39616,-0.0303 0.6215,-0.93228 0.0504,-0.20114 -0.0504,-0.42052 0,-0.6215 0.37499,-1.50061 0.14772,0.0152 0.62149,-0.93225 0.083,-0.1659 -0.083,-0.45575 0,-0.6215 0.0655,-0.13106 0.24545,-0.17954 0.3106,-0.3106 0.0928,-0.18522 -0.0928,-0.43623 0,-0.62153 0.13788,-0.27537 0.74369,-0.64938 0.93229,-0.93225 0.1284,-0.1928 0.14696,-0.45771 0.3106,-0.6215 0.16363,-0.16363 0.45771,-0.14696 0.62149,-0.3106 0.0731,-0.0731 0,-0.20719 0,-0.31059 0,-0.41435 0,-0.82869 0,-1.24304 0,-0.72509 0,-1.45019 0,-2.17528 0,-0.20719 0.0655,-0.42495 0,-0.6215 -0.0731,-0.21969 -0.25453,-0.39681 -0.31059,-0.6215 -0.0504,-0.20113 0.11477,-0.44911 0,-0.62149 -0.12841,-0.1928 -0.45772,-0.14697 -0.6215,-0.3106 -0.87502,-0.0189 -0.0792,-0.70066 -0.3106,-0.93229 -0.0731,-0.0731 -0.23749,0.0731 -0.3106,0 -0.0731,-0.0731 0.0462,-0.21817 0,-0.31059 -0.0655,-0.13106 -0.24507,-0.17955 -0.3106,-0.3106 -0.0462,-0.0928 0.0462,-0.21818 0,-0.3106 -0.0655,-0.13106 -0.24506,-0.17954 -0.31059,-0.3106 -0.0992,-0.19848 0.0833,-0.99289 0,-1.24303 -0.0731,-0.21969 -0.25454,-0.39677 -0.3106,-0.6215 -0.0606,-0.24242 0,-1.50182 0,-1.8645 0,-1.45018 0,-2.90037 0,-4.35056 0,-0.36741 -0.061,-2.2427 0,-2.48603 0.0341,-0.14204 0.24507,-0.17954 0.3106,-0.3106 0.0462,-0.0928 0,-0.20719 0,-0.3106 0,-0.13067 -0.0462,-1.77207 0,-1.86453 0.0655,-0.13105 0.24545,-0.17954 0.31059,-0.3106 0.083,-0.1659 -0.0829,-0.45574 0,-0.62149 0.0655,-0.13106 0.24545,-0.17954 0.3106,-0.3106 0.0473,-0.0947 0,-0.79233 0,-0.93225 0,-0.10378 0.0731,-0.23749 0,-0.3106 -0.0731,-0.0731 -0.21817,0.0462 -0.3106,0 -0.13105,-0.0655 -0.17954,-0.24544 -0.31059,-0.31097 -0.0928,-0.0462 -0.20719,0 -0.3106,0 -0.20719,0 -0.41435,0 -0.6215,0 -0.6215,0 -1.24303,0 -1.86453,0 -0.6215,0 -1.243,0 -1.8645,0 -0.20719,0 -0.41434,0 -0.62153,0 -0.10341,0 -0.21818,-0.0462 -0.3106,0 -0.13106,0.0655 -0.20719,0.20719 -0.3106,0.31097 -0.10378,0.10341 -0.24507,0.17954 -0.3106,0.3106 -0.0401,0.0803 0,1.64424 0,1.8645 0,0.82869 0,1.65738 0,2.48603 0,0.20719 0,0.41434 0,0.6215 0,0.10378 -0.0462,0.21817 0,0.31097 0.0655,0.13106 0.24545,0.17954 0.3106,0.3106 0.0413,0.083 0,1.72393 0,1.86449 0,0.82869 0,1.65735 0,2.48604 0,0.31059 0.0981,0.63744 0,0.93224 -0.0462,0.13901 -0.24507,0.17954 -0.3106,0.3106 -0.12423,0.24848 0.12424,0.68366 0,0.93225 -0.13105,0.26211 -0.49047,0.35946 -0.62149,0.6215 -0.0341,0.0697 0,1.16917 0,1.24299 0,0.62154 0,1.24304 0,1.86454 0,0.22006 0.0402,1.78419 0,1.86453 -0.0655,0.13105 -0.26439,0.17196 -0.3106,0.3106 0,1.41462 0.14659,0.0189 -0.3106,0.93224 -0.0693,0.13826 0.0473,1.10088 0,1.24304 -0.0462,0.13901 -0.20719,0.20719 -0.31098,0.31059 -0.1034,0.10341 -0.17954,0.24507 -0.31059,0.3106 -0.0924,0.0462 -1.73378,0 -1.8645,0 -0.51794,0 -1.03584,0 -1.55378,0 -0.20416,0 -0.75691,0.0583 -0.93225,0 -0.21969,-0.0731 -0.42877,-0.18219 -0.6215,-0.3106 -0.24393,-0.16249 -0.35946,-0.49047 -0.62153,-0.62153 -0.0928,-0.0462 -0.21818,0.0462 -0.3106,0 -0.13106,-0.0655 -0.20719,-0.20719 -0.3106,-0.3106 -0.20719,-0.20719 -0.44571,-0.38711 -0.6215,-0.6215 -0.13901,-0.18522 -0.18219,-0.42877 -0.31059,-0.6215 -0.0879,-0.13181 -0.80369,-0.86796 -0.93225,-0.93224 -0.36439,-0.18219 -0.36893,0.18446 -0.62154,0.31059 -0.0928,0.0462 -0.23749,-0.0731 -0.3106,0 -0.64293,0.64294 0.98255,-0.0265 -0.31059,0.6215 -0.0928,0.0462 -0.2375,-0.0731 -0.3106,0 -0.0731,0.0731 0.0731,0.2375 0,0.3106 -0.0731,0.0731 -0.20719,0 -0.3106,0 -0.0739,0 -1.17338,0.0341 -1.24299,0 -1.2933,-0.64665 0.33218,0.0227 -0.31098,-0.6215 -0.0731,-0.0731 -0.23749,0.0731 -0.3106,0 -0.0731,-0.0731 0,-0.20719 0,-0.3106 0,-0.1034 0,-0.20719 0,-0.31059 0,-0.51794 0,-1.03585 0,-1.55379 0,-0.20719 0.14659,-0.47502 0,-0.62149 -0.14659,-0.14659 -0.41431,0 -0.6215,0 -0.20719,0 -0.42495,-0.0655 -0.6215,0 -0.13901,0.0462 -0.20719,0.20719 -0.31059,0.31059 -0.10341,0.10379 -0.24507,0.17954 -0.3106,0.3106 -0.38268,0.76536 0.90202,-0.28067 -0.3106,0.93225 -0.0731,0.0731 -0.23749,-0.0731 -0.31097,0 -0.0731,0.0731 0.0462,0.21817 0,0.31097 -0.0655,0.13106 -0.24507,0.17954 -0.3106,0.3106 -0.0928,0.18522 0.14658,0.47499 0,0.6215 -0.0731,0.0731 -0.2375,-0.0731 -0.3106,0 -0.0731,0.0731 0,0.20719 0,0.3106 0,0.21628 -0.0561,1.4414 0,1.55374 0.13106,0.26212 0.49048,0.35946 0.6215,0.62154 0.0561,0.1125 0,1.33761 0,1.55375 0,0.10378 0.0973,0.27499 0,0.31059 -0.49287,0.18144 -1.03584,0.17386 -1.55375,0.2606 z"
               id="path3788"
               inkscape:connector-curvature="0" />
            <path
               style="fill:#00ff00;fill-opacity:1;stroke:none"
               d="m 147.73874,168.86226 c 1.52505,0.50152 -2.40325,1.04742 -2.42632,2.12136 -0.003,0.0738 0.0968,0.12474 0.094,0.19856 -0.002,0.10364 -0.10232,0.18927 -0.10454,0.29257 -0.003,0.0653 0.32697,0.69053 0.37615,0.7944 0.094,0.19856 0.28665,0.37615 0.2821,0.59578 -0.003,0.0738 -0.17387,0.0249 -0.19856,0.094 -0.0247,0.0691 0.0968,0.12474 0.094,0.19856 -0.002,0.10364 -0.10232,0.18927 -0.10454,0.29257 -0.003,0.0738 0.0627,0.13249 0.094,0.19856 0.0313,0.0661 0.0627,0.13249 0.094,0.19856 0.15674,0.33104 0.31345,0.66199 0.47018,0.993 0.0313,0.0661 0.0627,0.13248 0.094,0.19855 0.0313,0.0661 0.0968,0.12474 0.094,0.19856 -0.002,0.10364 -0.10249,0.18892 -0.10454,0.29257 -0.003,0.0738 0.0627,0.13249 0.094,0.19856 0.0627,0.13249 0.12531,0.26463 0.18807,0.39718 0.21941,0.46339 0.43883,0.92678 0.65824,1.39018 0.0491,0.10373 0.32403,0.75513 0.37615,0.7944 0.16313,0.12769 0.42235,0.0812 0.58525,0.20912 0.0589,0.0446 0.0627,0.13249 0.094,0.19855 0.13973,0.29511 0.21097,0.57033 0.5747,0.70039 0.0691,0.0247 0.12945,-0.11872 0.19856,-0.094 0.0691,0.0247 0.0249,0.17387 0.094,0.19856 0.0691,0.0247 0.12945,-0.11872 0.19855,-0.094 0.60548,0.21635 -0.636,0.28024 0.38664,0.30321 0.14649,0.003 0.25925,-0.23758 0.39719,-0.18807 0.0691,0.0247 0.0627,0.13249 0.094,0.19856 0.0313,0.0661 0.0627,0.13249 0.094,0.19856 0.37615,0.7944 0.75228,1.58876 1.12842,2.38316 0.37615,0.79441 0.75229,1.58881 1.12843,2.38318 0.0313,0.0661 0.0627,0.13248 0.094,0.19856 0.0313,0.0661 0.11872,0.12944 0.094,0.19855 -0.0247,0.0691 -0.17387,0.0249 -0.19856,0.094 -0.0247,0.0691 0.0627,0.13249 0.094,0.19855 0.0313,0.0661 0.0627,0.13249 0.094,0.19856 0.3448,0.7282 0.6896,1.45639 1.03439,2.18458 0.21942,0.46339 0.43883,0.92678 0.65824,1.39017 0.0423,0.0894 0.22267,0.54995 0.28212,0.59582 0.0815,0.0641 0.21109,0.0404 0.29257,0.10454 0.0589,0.0446 0.0249,0.17387 0.094,0.19855 0.0691,0.0247 0.12944,-0.11871 0.19855,-0.094 0.0691,0.0247 0.0249,0.17387 0.094,0.19856 0.60548,0.21634 -0.3144,-0.61983 0.49124,0.0105 0.0589,0.0446 0.0249,0.17387 0.094,0.19856 0.0691,0.0247 0.12474,-0.0968 0.19856,-0.094 0.10364,0.002 0.18892,0.10249 0.29257,0.10454 0.0738,0.003 0.1261,-0.10452 0.19856,-0.094 0.58423,0.0859 0.52138,0.0742 0.67931,0.40769 0.0313,0.0661 0.0249,0.17387 0.094,0.19856 0.60542,0.21633 -0.3144,-0.61983 0.4912,0.0105 0.12196,0.0957 0.34821,0.89736 0.47018,0.993 0.0815,0.0641 0.21109,0.0404 0.29257,0.10454 0.0589,0.0446 0.0351,0.15393 0.094,0.19856 0.80462,0.63083 -0.11424,-0.20574 0.49123,0.0105 0.0691,0.0247 0.0249,0.17387 0.094,0.19856 0.0691,0.0247 0.12474,-0.0968 0.19856,-0.094 0.10364,0.002 0.18926,0.10233 0.29257,0.10454 0.0654,0.003 0.69053,-0.32696 0.7944,-0.37614 0.0894,-0.0423 0.54995,-0.22267 0.59578,-0.2821 0.0641,-0.0815 0.0408,-0.21126 0.10454,-0.29257 0.0904,-0.11529 0.3067,-0.0728 0.39722,-0.18808 0.0641,-0.0815 0.0697,-0.19522 0.10454,-0.29258 0.0348,-0.0974 0.10233,-0.18926 0.10454,-0.29257 0.003,-0.065 -0.32697,-0.69053 -0.37615,-0.79441 -0.0653,-0.13795 -0.4002,-0.93819 -0.47018,-0.99299 -0.0815,-0.0641 -0.20358,-0.0511 -0.29257,-0.10454 -0.20676,-0.12422 -0.39766,-0.4017 -0.67928,-0.40771 -0.0738,-0.003 -0.12945,0.11872 -0.19856,0.094 -0.0691,-0.0247 -0.0249,-0.17386 -0.094,-0.19856 -0.0691,-0.0247 -0.12473,0.0968 -0.19855,0.094 -0.20712,-0.005 -0.37819,-0.20482 -0.58525,-0.20912 -0.0738,-0.003 -0.12945,0.11872 -0.19856,0.094 -0.0691,-0.0247 -0.0249,-0.17387 -0.094,-0.19857 -0.14628,-0.0523 -0.44948,0.33438 -0.59581,0.28212 -0.0691,-0.0247 -0.0249,-0.17386 -0.094,-0.19856 -0.0691,-0.0247 -0.12473,0.0968 -0.19855,0.094 -1.0222,-0.0219 0.21876,-0.0868 -0.38664,-0.3032 -0.0691,-0.0247 -0.12945,0.11872 -0.19855,0.094 -0.0691,-0.0247 -0.0209,-0.19715 -0.094,-0.19856 -0.14648,-0.003 -0.25063,0.19115 -0.39721,0.18808 -0.0738,-0.003 -0.0352,-0.15393 -0.094,-0.19856 -0.0815,-0.0641 -0.21126,-0.0408 -0.29257,-0.10454 -0.12144,-0.0955 -0.25478,-0.69907 -0.37615,-0.7944 -0.0815,-0.0641 -0.2111,-0.0404 -0.29258,-0.10454 -0.0595,-0.046 -0.23976,-0.50636 -0.28211,-0.59581 -0.21942,-0.46339 -0.43883,-0.92678 -0.65825,-1.39017 -0.40747,-0.86058 -0.81497,-1.72119 -1.22245,-2.58177 -0.0723,-0.15268 -0.47334,-0.91111 -0.47018,-0.99299 0.003,-0.0738 0.17387,-0.0249 0.19856,-0.094 0.0224,-0.0626 -0.36089,-0.66756 -0.37614,-0.7944 -0.0196,-0.16257 0.0301,-0.32856 0.0105,-0.4912 -0.0164,-0.13557 -0.41764,-0.88204 -0.47018,-0.99299 -0.31344,-0.66199 -0.62691,-1.324 -0.94036,-1.98599 -0.56421,-1.19159 -1.12842,-2.38317 -1.69263,-3.57476 -0.18806,-0.39718 -0.37614,-0.79439 -0.56421,-1.19158 -0.0313,-0.0661 -0.0627,-0.13249 -0.094,-0.19856 -0.0313,-0.0661 -0.0352,-0.15392 -0.094,-0.19855 -0.0815,-0.0641 -0.21125,-0.0408 -0.29257,-0.10454 -0.0522,-0.0395 -0.32697,-0.69055 -0.37613,-0.79437 -0.31384,-0.66281 -0.61916,-1.32633 -0.91984,-1.9957 z"
               id="path3790"
               inkscape:connector-curvature="0" />
            <path
               style="fill:#00ff00;fill-opacity:1;stroke:none"
               d="m 120.22414,207.2933 c -0.21087,-0.20313 -0.83615,-0.39893 -0.63301,-0.60979 0.2034,-0.21114 0.7308,0.88598 0.63301,0.60979 -0.14872,-0.41997 -0.52307,-0.72163 -0.79708,-1.0729 -0.0442,-0.0584 -0.13469,-0.0824 -0.15822,-0.15243 -0.0348,-0.0976 0.0287,-0.21323 -0.006,-0.31063 -0.049,-0.1381 -0.2675,-0.16675 -0.31649,-0.3049 -0.0348,-0.0976 0.0289,-0.21296 -0.006,-0.31064 -0.0656,-0.18523 -0.40914,-0.27209 -0.47475,-0.45735 -0.0348,-0.0977 0.0289,-0.21297 -0.006,-0.31066 -0.0231,-0.07 -0.13469,-0.0824 -0.15822,-0.15241 -0.069,-0.19534 0.0845,-0.43769 -0.0116,-0.62138 -4.8e-4,-9.2e-4 -0.47473,-0.45706 -0.47476,-0.45736 -0.001,-0.0734 0.1538,-0.0848 0.15241,-0.15822 -10e-4,-0.0734 -0.10555,-0.1017 -0.15821,-0.15241 -0.0527,-0.0507 -0.10555,-0.10171 -0.15822,-0.15242 -0.422,-0.40654 -0.84401,-0.81308 -1.26601,-1.21961 -0.73849,-0.71142 -1.47699,-1.42285 -2.21548,-2.13428 -0.11211,-0.10801 -0.92697,-0.85619 -0.9495,-0.91469 -0.0348,-0.0977 -0.037,-0.21194 -0.006,-0.31065 0.0209,-0.0708 0.177,-0.0893 0.15241,-0.15821 -0.049,-0.1381 -0.23779,-0.18173 -0.31648,-0.3049 -0.58021,-0.9271 0.0807,-0.0674 -0.1698,-0.77382 -0.049,-0.1381 -0.2675,-0.16675 -0.31652,-0.30492 -0.0192,-1.03046 0.0775,0.2182 -0.16413,-0.4631 -0.069,-0.19534 0.0845,-0.43768 -0.0116,-0.6214 -0.0681,-0.12971 -0.2675,-0.16674 -0.31649,-0.30489 -0.0231,-0.07 0.177,-0.0893 0.15242,-0.15822 -0.049,-0.13809 -0.2675,-0.16674 -0.31649,-0.30489 -0.0231,-0.07 0.13152,-0.0873 0.15241,-0.15822 0.0311,-0.0989 0.0287,-0.21323 -0.006,-0.31063 -0.11312,-0.31936 -0.32627,0.0557 -0.16413,-0.46314 0.0209,-0.0708 0.10169,-0.10555 0.15242,-0.15822 0.0491,-0.15629 0.11748,-0.30757 0.14666,-0.46889 0.0184,-0.10216 -0.004,-0.20727 -0.006,-0.31065 0.0491,-0.15629 0.11749,-0.30758 0.1467,-0.46894 0.0184,-0.10216 -0.024,-0.20878 -0.006,-0.31064 0.0291,-0.16127 0.1497,-0.30497 0.14668,-0.46891 -0.001,-0.0734 -0.13468,-0.0824 -0.15822,-0.15242 -0.0348,-0.0976 -0.037,-0.21172 -0.006,-0.31063 0.0209,-0.0708 0.10172,-0.10556 0.15242,-0.15822 0.0507,-0.0526 0.079,-0.15686 0.15242,-0.15823 0.0733,-0.001 0.0848,0.15381 0.15822,0.15242 0.0733,-0.001 0.079,-0.15685 0.15241,-0.15821 0.0733,-0.001 0.0848,0.1538 0.15822,0.15242 0.64286,-0.012 -0.51346,-0.46841 0.4631,-0.16412 0.16198,0.0508 0.68206,0.7644 0.79122,0.76222 0.1639,-0.003 0.29919,-0.1609 0.46313,-0.16412 0.10225,-0.002 0.48169,0.53762 0.63298,0.60977 0.0943,0.0435 0.2174,-0.0503 0.31065,-0.006 0.13215,0.0632 0.21114,0.2034 0.31652,0.30492 0.26379,0.25412 0.52749,0.50816 0.79125,0.76225 0.13257,0.12772 0.75631,0.66388 0.79124,0.76224 0.0231,0.0701 -0.1538,0.0848 -0.15241,0.15823 0.001,0.0734 0.12405,0.088 0.15822,0.15241 0.0758,0.14512 0.0882,0.31794 0.16412,0.4631 0.0341,0.0645 0.13467,0.0824 0.15821,0.15241 0.069,0.19534 -0.0577,0.42621 0.0116,0.62144 0.0365,0.103 0.58426,0.5155 0.63298,0.60978 0.047,0.0926 -0.0287,0.21323 0.006,0.31064 0.0231,0.07 0.13469,0.0824 0.15823,0.15243 0.0348,0.0977 -0.0287,0.21322 0.006,0.31063 0.0365,0.103 0.58427,0.5155 0.63301,0.60981 0.0469,0.0926 -0.0423,0.21913 0.006,0.31064 0.0681,0.12971 0.2675,0.16674 0.31649,0.30489 0.0231,0.07 -0.1538,0.0848 -0.15242,0.15821 0.003,0.15531 0.47183,0.30202 0.47476,0.45736 0.008,0.41401 -0.4162,-0.0959 0.006,0.31065 0.0526,0.0507 0.10555,0.1017 0.15823,0.15242 0.0526,0.0507 0.15684,0.079 0.15822,0.15242 0.001,0.0734 -0.15381,0.0848 -0.15244,0.15822 0.0227,1.21258 0.12036,0.0454 0.32234,0.61557 0.0348,0.0977 -0.0287,0.21323 0.006,0.31065 0.0231,0.07 0.13468,0.0824 0.15822,0.15241 0.0192,1.03046 -0.0775,-0.2182 0.16412,0.46313 0.0348,0.0977 -0.0289,0.21297 0.006,0.31065 0.0656,0.18524 0.40911,0.27207 0.47474,0.45734 0.0348,0.0976 -0.0287,0.21323 0.006,0.31063 0.049,0.13809 0.24837,0.17513 0.31651,0.30491 0.0758,0.14512 0.0882,0.31796 0.16412,0.4631 0.0341,0.0645 0.13468,0.0824 0.15822,0.15243 0.0348,0.0977 -0.0287,0.21323 0.006,0.31063 0.049,0.1381 0.31371,0.15863 0.3165,0.3049 0.001,0.0733 -0.17699,0.0893 -0.15242,0.15821 0.049,0.1381 0.24837,0.17512 0.31649,0.30489 0.047,0.0926 -0.0289,0.21296 0.006,0.31064 0.0325,0.0918 0.4737,0.39371 0.47476,0.45736 0.001,0.0734 -0.1538,0.0848 -0.15242,0.15823 0.003,0.14647 0.26749,0.16673 0.31648,0.30488 0.069,0.19534 -0.0577,0.42621 0.0116,0.6214 0.0231,0.07 0.15685,0.079 0.15822,0.15243 10e-4,0.0733 -0.1538,0.0848 -0.15242,0.15821 0.003,0.16388 0.16126,0.29942 0.16403,0.46312 0.001,0.0734 -0.13153,0.0873 -0.15241,0.15822 -0.0311,0.0989 0.037,0.21173 0.006,0.31064 -0.0209,0.0708 -0.1315,0.0874 -0.15242,0.15822 -0.0311,0.0989 0.037,0.21194 0.006,0.31063 -0.0209,0.0708 -0.1538,0.0848 -0.15242,0.15822 0.001,0.0734 0.15686,0.079 0.15822,0.15242 2e-4,0.0113 -0.55383,0.5749 -0.6098,0.63301 -0.0507,0.0527 -0.1017,0.10555 -0.15243,0.15823 -0.0507,0.0526 -0.079,0.15684 -0.15241,0.15821 -0.0113,2e-4 -0.57491,-0.55383 -0.633,-0.6098 -0.42045,-0.40504 -0.66027,-0.52512 -1.26017,-0.90892 z"
               id="path3792"
               inkscape:connector-curvature="0" />
          </g>
        </g>
      </g>
      <g
         id="g4641" />
    </g>
  </g>
</svg>
