<?xml version="1.0" encoding="UTF-8" standalone="no"?>
<!-- Created with Inkscape (http://www.inkscape.org/) -->

<svg
   xmlns:dc="http://purl.org/dc/elements/1.1/"
   xmlns:cc="http://creativecommons.org/ns#"
   xmlns:rdf="http://www.w3.org/1999/02/22-rdf-syntax-ns#"
   xmlns:svg="http://www.w3.org/2000/svg"
   xmlns="http://www.w3.org/2000/svg"
   xmlns:sodipodi="http://sodipodi.sourceforge.net/DTD/sodipodi-0.dtd"
   xmlns:inkscape="http://www.inkscape.org/namespaces/inkscape"
   width="400"
   height="400"
   id="svg2"
   version="1.1"
   inkscape:version="0.48.4 r9939"
   sodipodi:docname="hill1.svg"
   style="display:inline">
  <defs
     id="defs4" />
  <sodipodi:namedview
     id="base"
     pagecolor="#ffffff"
     bordercolor="#666666"
     borderopacity="1.0"
     inkscape:pageopacity="0.0"
     inkscape:pageshadow="2"
     inkscape:zoom="1.5236273"
     inkscape:cx="219.93136"
     inkscape:cy="317.12385"
     inkscape:document-units="px"
     inkscape:current-layer="g3983"
     showgrid="false"
     inkscape:window-width="1218"
     inkscape:window-height="1002"
     inkscape:window-x="1592"
     inkscape:window-y="-8"
     inkscape:window-maximized="1"
     inkscape:snap-grids="true">
    <sodipodi:guide
       position="0,0"
       orientation="0,575"
       id="guide3710" />
    <sodipodi:guide
       position="566.51738,256.902"
       orientation="-320,0"
       id="guide3712" />
    <sodipodi:guide
       position="427.76607,199.94731"
       orientation="0,-575"
       id="guide3714" />
    <sodipodi:guide
       position="200.55321,401.10642"
       orientation="320,0"
       id="guide3716" />
  </sodipodi:namedview>
  <metadata
     id="metadata7">
    <rdf:RDF>
      <cc:Work
         rdf:about="">
        <dc:format>image/svg+xml</dc:format>
        <dc:type
           rdf:resource="http://purl.org/dc/dcmitype/StillImage" />
        <dc:title />
      </cc:Work>
    </rdf:RDF>
  </metadata>
  <g
     inkscape:groupmode="layer"
     id="layer2"
     inkscape:label="Warstwa"
     style="display:inline"
     transform="translate(0,-65)">
    <g
       id="g4710"
       transform="translate(-1.7101537,63.408902)">
      <g
         id="g4241"
         transform="translate(58.772396,42.413066)">
        <g
           id="g3983"
           transform="translate(-1.8177028,27.265542)">
          <g
             id="g2993"
             transform="matrix(0.26400717,0,0,0.26400717,109.2654,86.817567)">
            <path
               transform="translate(-55.24454,-68.08751)"
               inkscape:connector-curvature="0"
               id="path3019"
               d="m 103.6999,315.98995 c 0.63195,1.95679 2.30325,-0.4892 3.28165,0 0.27673,0.13837 0.37959,0.51796 0.65632,0.65633 0.19568,0.0978 0.43756,0 0.65633,0 0.21878,0 0.43756,0 0.65633,0 0.29558,0 1.76924,-0.0999 1.96899,0 0.27673,0.13837 0.36281,0.55849 0.65633,0.65633 0.33812,0.11271 3.90002,0 4.5943,0 0.43755,0 0.92129,-0.19568 1.31265,0 0.19568,0.0978 -0.1547,0.50163 0,0.65633 0.1547,0.1547 0.43755,0 0.65633,0 0.65633,0 1.31266,0 1.96899,0 3.06286,0 6.12573,0 9.1886,0 8.96982,0 17.93964,0 26.90946,0 3.06287,0 6.12574,0 9.1886,0 0.99543,0 4.36943,0.14686 5.25063,0 1.36484,-0.22748 2.56499,-1.14104 3.93797,-1.31266 1.08544,-0.13568 2.19621,0.13568 3.28164,0 0.68649,-0.0858 1.28657,-0.54259 1.96899,-0.65633 0.6474,-0.1079 1.32159,0.1079 1.96899,0 0.68241,-0.11373 1.28656,-0.54259 1.96898,-0.65633 1.2948,-0.2158 2.64318,0.2158 3.93797,0 0.68242,-0.11373 1.31266,-0.43755 1.96899,-0.65633 0.65633,-0.21877 1.3212,-0.41341 1.96898,-0.65632 1.10314,-0.41368 2.16396,-0.9401 3.28165,-1.31266 0.85574,-0.28525 1.76131,-0.39713 2.62531,-0.65633 1.32531,-0.39759 2.59562,-0.97707 3.93797,-1.31266 1.29103,-0.32275 2.62867,-0.41827 3.93797,-0.65633 3.71242,-0.67498 3.68355,-0.89341 7.87594,-1.31265 0.65308,-0.0653 1.33791,0.18031 1.96899,0 0.94075,-0.26879 1.70921,-0.96912 2.62531,-1.31266 1.68921,-0.63345 3.59243,-0.602 5.25063,-1.31266 0.72503,-0.31072 1.2304,-1.03568 1.96899,-1.31265 1.04451,-0.3917 2.19266,-0.41434 3.28164,-0.65633 2.25609,-0.50135 3.76286,-0.89694 5.90696,-1.96899 1.14099,-0.5705 2.14064,-1.39848 3.28164,-1.96898 1.05376,-0.52689 2.20504,-0.83417 3.28164,-1.31266 0.89407,-0.39736 1.72603,-0.92725 2.62532,-1.31266 0.63589,-0.27252 1.3212,-0.41341 1.96898,-0.65633 1.10313,-0.41367 2.18776,-0.8751 3.28164,-1.31265 1.09388,-0.43755 2.25873,-0.72814 3.28165,-1.31266 0.53726,-0.30701 0.73812,-1.08284 1.31265,-1.31266 0.60939,-0.24375 1.32541,0.12872 1.96899,0 0.4797,-0.0959 0.85845,-0.47464 1.31266,-0.65632 0.64234,-0.25694 1.37574,-0.30039 1.96898,-0.65633 0.53061,-0.31837 0.78205,-0.99429 1.31266,-1.31266 0.59324,-0.35594 1.32663,-0.39939 1.96898,-0.65633 0.45421,-0.18168 0.87511,-0.43755 1.31266,-0.65633 0.43755,-0.21877 0.96674,-0.31041 1.31266,-0.65633 0.34591,-0.34591 0.27433,-1.00705 0.65633,-1.31265 -0.10579,-4.33312 2.30136,-0.65914 3.28164,-1.31266 0.51486,-0.34324 0.78205,-0.99429 1.31266,-1.31266 0.59324,-0.35594 1.35019,-0.34693 1.96898,-0.65633 0.27673,-0.13836 0.43755,-0.43755 0.65633,-0.65632 0.65633,-0.43756 1.26345,-0.95989 1.96898,-1.31266 0.19568,-0.0978 0.43756,0 0.65633,0 0.43756,-0.21878 0.90562,-0.38497 1.31266,-0.65633 0.25743,-0.17162 0.43755,-0.43755 0.65633,-0.65633 0.65633,-0.43755 1.29259,-0.90682 1.96898,-1.31265 0.41949,-0.2517 0.96675,-0.31042 1.31266,-0.65633 0.34592,-0.34592 0.31041,-0.96674 0.65633,-1.31266 0.55777,-0.55777 1.35303,-0.81989 1.96899,-1.31266 0.48319,-0.38655 0.81762,-0.94138 1.31265,-1.31265 0.39136,-0.29352 0.93066,-0.35073 1.31266,-0.65633 0.72479,-0.57984 1.24419,-1.38915 1.96898,-1.96899 0.382,-0.3056 0.96675,-0.31041 1.31266,-0.65633 3.18348,-3.18348 -1.20039,0.0414 1.31266,-1.96898 0.85418,-0.68334 1.71515,-1.36221 2.62531,-1.96899 0.40704,-0.27136 0.96674,-0.31041 1.31266,-0.65633 0.34592,-0.34591 0.27433,-1.00705 0.65633,-1.31265 0.764,-0.6112 1.81124,-0.76994 2.62531,-1.31266 3.54072,-2.36048 -0.45204,-0.20429 1.96899,-2.62531 8.57991,-6.43494 -1.82033,1.82032 3.93797,-3.93798 3.41132,-3.41131 0.68365,0.62218 3.28164,-2.62531 0.49277,-0.61596 0.75489,-1.41121 1.31266,-1.96898 0.55777,-0.55778 1.41121,-0.75489 1.96898,-1.31266 0.55778,-0.55777 0.83938,-1.33794 1.31266,-1.96899 0.37128,-0.49503 1.03593,-0.75919 1.31266,-1.31265 0.30939,-0.6188 0.24123,-1.41553 0.65633,-1.96899 0.29352,-0.39136 0.96674,-0.31041 1.31265,-0.65633 0.86376,-0.86375 1.14465,-3.3578 1.96899,-4.5943 1.84602,-2.76903 -1.12638,3.56541 1.96898,-2.62531 0.0978,-0.19568 -0.0978,-0.46065 0,-0.65633 0.13837,-0.27673 0.43756,-0.43755 0.65633,-0.65633 0.43756,-0.65633 0.95989,-1.26345 1.31266,-1.96898 0.0978,-0.19568 0,-0.43756 0,-0.65633 0.21878,-0.43756 0.38497,-0.90562 0.65633,-1.31266 0.17162,-0.25743 0.51796,-0.3796 0.65633,-0.65633 0.0978,-0.19568 -0.0692,-0.44878 0,-0.65633 0.30939,-0.92819 1.07536,-1.67613 1.31265,-2.62531 0.10613,-0.42449 -0.10612,-0.88817 0,-1.31266 0.11865,-0.47459 0.53768,-0.83806 0.65633,-1.31266 0.10612,-0.42448 -0.10612,-0.88816 0,-1.31265 0.11865,-0.47459 0.43755,-0.87511 0.65633,-1.31266 0.21878,-0.43755 0.43755,-0.8751 0.65633,-1.31266 0.43755,-0.8751 0.76994,-1.81123 1.31266,-2.62531 0.17162,-0.25743 0.55849,-0.36281 0.65633,-0.65633 0.13836,-0.4151 -0.10613,-0.88817 0,-1.31266 0.32584,-1.30339 1.64313,-2.63457 1.96898,-3.93797 0.10612,-0.42448 -0.10612,-0.88817 0,-1.31265 0.11865,-0.4746 0.50163,-0.84857 0.65633,-1.31266 0.0692,-0.20755 -0.0531,-0.44409 0,-0.65633 1.36574,-5.46296 -0.0453,0.79226 1.31266,-3.28164 0.0692,-0.20755 -0.0692,-0.44878 0,-0.65633 0.30939,-0.92819 1.00326,-1.69713 1.31265,-2.62531 0.0692,-0.20755 -0.0692,-0.44878 0,-0.65633 0.1547,-0.4641 0.53768,-0.83807 0.65633,-1.31266 0.21225,-0.84898 -0.27673,-1.79512 0,-2.62531 0.0978,-0.29352 0.58129,-0.35617 0.65633,-0.65633 0.21224,-0.84898 -0.21224,-1.77634 0,-2.62532 0.16779,-0.67117 0.48853,-1.29781 0.65633,-1.96898 0.0531,-0.21225 0,-0.43755 0,-0.65633 0,-0.65633 0,-1.31266 0,-1.96899 0,-0.21877 -0.0692,-0.44878 0,-0.65632 0.1547,-0.4641 0.53768,-0.83807 0.65633,-1.31266 0.10612,-0.42449 -0.19568,-0.9213 0,-1.31266 0.0978,-0.19568 0.50163,0.1547 0.65633,0 0.15469,-0.15469 -0.18912,-2.99797 0,-3.28164 0.34324,-0.51487 0.96941,-0.79779 1.31265,-1.31266 0.17297,-0.25945 -0.12061,-3.04042 0,-3.28164 2.18776,-4.37552 0.65633,3.28164 1.96899,-1.96899 0.10612,-0.42448 -0.0858,-0.8836 0,-1.31265 0.13568,-0.6784 0.48853,-1.29781 0.65633,-1.96899 0.0531,-0.21224 -0.0692,-0.44878 0,-0.65633 0.21877,-0.43755 0.43755,-0.8751 0.65633,-1.31265 0,-0.21878 -0.0692,-0.44878 0,-0.65633 0.15469,-0.4641 0.53768,-0.83807 0.65632,-1.31266 0.10613,-0.42449 0,-0.8751 0,-1.31266 0.21878,-0.43755 0.50163,-0.84856 0.65633,-1.31265 0.13078,-0.39235 -0.13078,-0.92032 0,-1.31266 0.1547,-0.46409 0.53768,-0.83807 0.65633,-1.31266 0.15918,-0.63673 -0.20755,-1.34634 0,-1.96898 0.1547,-0.4641 0.50163,-0.84857 0.65633,-1.31266 0.13837,-0.4151 -0.10612,-0.88817 0,-1.31266 1.65782,-6.63129 -0.237,0.474 1.31266,-2.62531 0.0978,-0.19568 0,-0.43755 0,-0.65633 0,-0.21878 0,-0.43755 0,-0.65633 0,-1.31266 0,-2.62531 0,-3.93797 0,-2.62531 0,-5.25063 0,-7.87594 0,-0.35062 0.0939,-3.0938 0,-3.28164 -0.13837,-0.27674 -0.51797,-0.3796 -0.65633,-0.65633 -0.3513,-0.70259 0.56833,-1.40066 -0.65633,-2.62532 -0.1547,-0.15469 -0.50163,0.1547 -0.65633,0 -0.23038,-0.23038 0.22667,-2.82829 0,-3.28164 -0.13837,-0.27673 -0.51796,-0.37959 -0.65633,-0.65633 -0.0978,-0.19568 0,-0.43755 0,-0.65633 -0.21877,-0.43755 -0.38497,-0.90562 -0.65633,-1.31265 -0.17162,-0.25744 -0.55849,-0.36281 -0.65632,-0.65633 -0.13837,-0.4151 0.13836,-0.89756 0,-1.31266 -0.0978,-0.29352 -0.48471,-0.39889 -0.65633,-0.65633 -0.27136,-0.40703 -0.38497,-0.90562 -0.65633,-1.31265 -0.17162,-0.25744 -0.43755,-0.43756 -0.65633,-0.65633 -0.21878,-0.21878 -0.3796,-0.51796 -0.65633,-0.65633 -0.34705,-0.17353 -2.30556,0.0799 -2.62531,0 -0.47459,-0.11865 -0.84857,-0.50163 -1.31266,-0.65633 -0.20755,-0.0692 -0.44408,0.0531 -0.65633,0 -0.67117,-0.16779 -1.29059,-0.52065 -1.96898,-0.65633 -0.42906,-0.0858 -0.87511,0 -1.31266,0 -1.31266,0 -2.62531,0 -3.93797,0 -3.7192,0 -7.43839,0 -11.15759,0 -3.93797,0 -7.87594,0 -11.81391,0 -1.53143,0 -3.06287,0 -4.5943,0 -0.43755,0 -0.8836,-0.0858 -1.31266,0 -0.67839,0.13568 -1.29059,0.52065 -1.96898,0.65633 -0.85811,0.17162 -1.77634,-0.21224 -2.62532,0 -0.47459,0.11865 -0.83806,0.53768 -1.31265,0.65633 -0.42449,0.10612 -0.87511,0 -1.31266,0 -0.65633,0 -1.31266,0 -1.96899,0 -0.65632,0 -1.32158,-0.1079 -1.96898,0 -1.36484,0.22747 -2.58118,1.0413 -3.93797,1.31266 -0.42906,0.0858 -0.8836,-0.0858 -1.31266,0 -0.67839,0.13568 -1.28411,0.55849 -1.96898,0.65632 -0.86631,0.12376 -1.75557,-0.0966 -2.62532,0 -1.10872,0.1232 -2.17292,0.53314 -3.28164,0.65633 -0.86975,0.0966 -1.77634,-0.21224 -2.62531,0 -0.94919,0.2373 -1.70922,0.96912 -2.62532,1.31266 -0.8446,0.31673 -1.76957,0.37108 -2.62531,0.65633 -1.11769,0.37256 -2.17851,0.89898 -3.28165,1.31266 -0.64778,0.24291 -1.3212,0.41341 -1.96898,0.65632 -1.10313,0.41368 -2.17851,0.89899 -3.28164,1.31266 -0.64778,0.24292 -1.3502,0.34693 -1.96899,0.65633 -0.70553,0.35277 -1.24816,0.99229 -1.96898,1.31266 -1.26441,0.56196 -2.62532,0.8751 -3.93798,1.31265 -0.65632,0.21878 -1.39334,0.27257 -1.96898,0.65633 -0.7723,0.51487 -1.26425,1.36493 -1.96899,1.96899 -0.64836,1.90474 -2.70606,1.63978 -3.93797,2.62531 -0.72479,0.57984 -1.24419,1.38915 -1.96898,1.96899 -0.382,0.3056 -0.88792,0.41362 -1.31266,0.65633 -1.10759,0.63291 -2.17405,1.33607 -3.28164,1.96898 -2.11269,1.20725 -0.59225,0.16006 -3.28165,1.31266 -0.89928,0.38541 -1.70921,0.96912 -2.62531,1.31266 -1.68921,0.63345 -3.51597,0.81704 -5.25063,1.31265 -1.33042,0.38012 -2.62531,0.87511 -3.93797,1.31266 -0.65633,0.21878 -1.35019,0.34693 -1.96898,0.65633 -0.70554,0.35276 -1.2366,1.0197 -1.96899,1.31265 -0.40626,0.16251 -0.88817,-0.10612 -1.31266,0 -0.94918,0.2373 -1.71689,0.94929 -2.62531,1.31266 -0.64235,0.25694 -1.29059,0.52065 -1.96899,0.65633 -0.42905,0.0858 -0.92129,-0.19568 -1.31265,0 -2.06238,1.03119 -0.43996,1.53191 -2.62532,1.96899 -0.64358,0.12871 -1.34633,-0.20755 -1.96898,0 -0.74891,0.49927 -2.27255,1.63262 -3.28164,1.96898 -0.85575,0.28525 -1.78071,0.3396 -2.62532,0.65633 -0.9161,0.34354 -1.75021,0.8751 -2.62531,1.31266 -0.87511,0.43755 -1.79564,0.7941 -2.62532,1.31265 -0.92761,0.57976 -1.67556,1.42627 -2.62531,1.96899 -0.60068,0.34324 -1.35019,0.34693 -1.96899,0.65633 -1.14099,0.5705 -2.18776,1.31266 -3.28164,1.96898 -2.28702,1.37222 -3.91831,2.19791 -5.90696,3.93797 -0.93137,0.81496 -1.70033,1.80311 -2.62531,2.62532 -1.04701,0.93067 -2.18776,1.75021 -3.28164,2.62531 -3.75515,3.00412 -7.62122,5.92426 -11.15759,9.1886 -5.25223,4.84822 -2.85152,3.08915 -7.87594,8.53227 -2.51829,2.72815 -5.25063,5.25063 -7.87594,7.87594 -1.09388,1.09389 -2.24677,2.13178 -3.28164,3.28165 -0.93712,1.04124 -1.6882,2.24039 -2.62532,3.28164 -1.86277,2.06975 -4.05699,3.82575 -5.90695,5.90696 -0.93068,1.047 -1.71366,2.21803 -2.62532,3.28164 -0.4027,0.46982 -0.91651,0.83729 -1.31265,1.31266 -0.70029,0.84034 -1.2571,1.79477 -1.96899,2.62531 -1.20811,1.40947 -2.74955,2.51186 -3.93797,3.93797 -0.50498,0.60598 -0.87511,1.31266 -1.31266,1.96899 -0.8751,1.31265 -1.70834,2.65421 -2.62531,3.93797 -0.63581,0.89012 -1.2687,1.78497 -1.96899,2.62531 -0.39614,0.47537 -0.99429,0.78205 -1.31265,1.31266 -0.35595,0.59324 -0.31309,1.36831 -0.65633,1.96898 -0.54272,0.94976 -1.33318,1.73519 -1.96899,2.62532 -0.45848,0.64188 -0.90682,1.29259 -1.31266,1.96898 -0.50338,0.83897 -0.94929,1.7169 -1.31265,2.62532 -0.25694,0.64235 -0.30039,1.37574 -0.65633,1.96898 -0.31837,0.53061 -0.94138,0.81763 -1.31266,1.31266 -1.446,0.33052 -0.34693,1.35019 -0.65633,1.96899 -0.5705,1.14099 -1.26137,2.22021 -1.96898,3.28164 -0.51487,0.7723 -1.42949,1.21368 -1.96899,1.96898 -0.74147,1.03806 -1.29288,2.19988 -1.96898,3.28165 -0.41807,0.6689 -0.75489,1.41121 -1.31266,1.96898 -0.55777,0.55777 -1.411214,0.75489 -1.968986,1.31266 -0.452321,0.45232 -1.487726,3.21608 -1.968985,3.93797 -1.252062,1.87809 -0.122967,-1.00524 -1.312657,1.96898 -0.725512,1.81378 -0.656329,1.39187 -0.656329,2.62532 0,0.43755 0.106122,0.88817 0,1.31266 -0.118648,0.47459 -0.437552,0.8751 -0.656328,1.31265 -0.218777,0.65633 -0.52065,1.29059 -0.656329,1.96899 -0.08581,0.42905 0.106122,0.88817 0,1.31266 -0.118648,0.47459 -0.474645,0.85844 -0.656328,1.31265 -0.25694,0.64235 -0.399389,1.32664 -0.656329,1.96899 -0.181684,0.45421 -0.53768,0.83806 -0.656328,1.31265 -0.159183,0.63674 0.207549,1.34634 0,1.96899 -0.154699,0.46409 -0.501631,0.84856 -0.656329,1.31266 -0.232474,0.69742 0.232474,1.92789 0,2.62531 -0.09784,0.29352 -0.558489,0.36281 -0.656328,0.65633 -0.117616,0.35285 0,2.06963 0,2.62531 0,1.96899 0,3.93797 0,5.90696 0,1.09388 0,2.18776 0,3.28164 0,0.65633 -0.20755,1.34634 0,1.96899 0.09784,0.29352 0.517962,0.37959 0.656328,0.65633 0.09784,0.19568 -0.09784,0.46065 0,0.65633 0.138366,0.27673 0.484706,0.39889 0.656329,0.65632 0.271358,0.40704 0.38497,0.90562 0.656328,1.31266 0.171622,0.25743 0.484706,0.3989 0.656329,0.65633 0.271358,0.40704 0.310413,0.96674 0.656328,1.31266 0.154698,0.15469 0.558489,-0.19568 0.656329,0 0.195679,0.39136 -0.19568,0.92129 0,1.31265 0.09784,0.19568 0.50163,-0.15469 0.656328,0 0.154698,0.1547 -0.154698,0.50163 0,0.65633 0.154698,0.1547 0.501631,-0.1547 0.656329,0 0.309396,0.3094 -0.309397,1.00326 0,1.31266 0.154698,0.1547 0.460649,-0.0978 0.656328,0 2.176768,2.17677 -0.618792,-0.3094 1.312657,0.65633 0.553465,0.27673 0.725619,1.11698 1.312657,1.31265 0.415099,0.13837 0.875105,0 1.312656,0 1.09388,0.43756 2.18776,0.87511 3.28164,1.31266 z"
               style="fill:#a67647;fill-opacity:1;stroke:none" />
            <path
               transform="translate(-55.24454,-68.08751)"
               inkscape:connector-curvature="0"
               id="path3021"
               d="m 94.511305,300.23807 c -1.953932,-0.2718 -3.950014,0.21744 -5.906957,0 -3.356205,-0.37291 -6.672034,-1.56769 -9.844927,-2.62532 -1.312658,-0.43755 -2.573136,-1.08518 -3.937972,-1.31265 -1.294796,-0.2158 -2.658929,0.29516 -3.937971,0 -1.623481,-0.37465 -3.047318,-1.3502 -4.594299,-1.96899 -0.642349,-0.25694 -1.312657,-0.43755 -1.968986,-0.65633 -1.312657,-0.43755 -2.625314,-0.8751 -3.937971,-1.31265 -0.218776,-0.21878 -0.379596,-0.51797 -0.656328,-0.65633 -0.618793,-0.3094 -1.350193,-0.34694 -1.968986,-0.65633 -0.276732,-0.13837 -0.379596,-0.51796 -0.656328,-0.65633 -0.905311,-0.45266 -0.587068,0.79485 -1.312657,-0.65633 -0.09784,-0.19568 0.06918,-0.44878 0,-0.65633 -0.154698,-0.46409 -0.537681,-0.83806 -0.656329,-1.31265 -0.106122,-0.42449 0.138367,-0.89756 0,-1.31266 -0.09784,-0.29352 -0.437552,-0.43755 -0.656328,-0.65633 -0.218776,-0.43755 -0.501631,-0.84856 -0.656329,-1.31266 -0.420577,-1.26173 -0.680584,-3.33015 -1.312657,-4.5943 -0.352766,-0.70553 -0.959891,-1.26345 -1.312657,-1.96898 -1.371069,-2.74214 -1.910573,-5.79013 -3.281642,-8.53227 -0.570499,-1.141 -1.29288,-2.19988 -1.968986,-3.28164 -0.418067,-0.66891 -0.959891,-1.26346 -1.312657,-1.96899 -0.309396,-0.61879 -0.41341,-1.3212 -0.656328,-1.96899 -0.413675,-1.10313 -1.026915,-2.13867 -1.312657,-3.28164 -0.159183,-0.63673 0.08141,-1.31772 0,-1.96898 -0.138366,-1.10693 -0.533138,-2.17293 -0.656329,-3.28165 -0.09664,-0.86975 0.108544,-1.75696 0,-2.62531 -0.111884,-0.89507 -0.544444,-1.73024 -0.656328,-2.62531 -0.108544,-0.86835 0.189837,-1.77105 0,-2.62532 -0.0074,-0.0333 -2.595931,-6.47513 -2.625314,-6.56328 -2.9024,-8.7072 0.862105,2.23865 -0.656329,-4.5943 -0.300158,-1.35072 -0.948591,-2.60307 -1.312657,-3.93797 -1.753345,-6.42893 -0.08663,-0.69305 -0.656328,-5.25063 -0.138366,-1.10693 -0.555332,-2.17068 -0.656329,-3.28164 -0.118842,-1.30727 0,-2.62532 0,-3.93798 0,-1.96898 0,-3.93797 0,-5.90695 0,-5.46941 0,-10.93881 0,-16.40821 0,-5.68819 0,-11.37637 0,-17.06455 0,-1.75021 0,-3.50041 0,-5.25062 0,-0.54961 -0.124779,-2.78253 0,-3.28165 0.792344,-3.16937 0.3119,0.0325 1.312657,-1.96898 0.09784,-0.19568 0,-0.43755 0,-0.65633 0,-0.65633 -0.159183,-1.33225 0,-1.96899 0.07504,-0.30015 0.484707,-0.39889 0.656329,-0.65632 0.271358,-0.40704 0.53768,-0.83807 0.656328,-1.31266 0.159183,-0.63673 -0.207549,-1.34634 0,-1.96899 0.491183,-1.47354 1.220079,-1.78383 1.968986,-3.28164 0.09784,-0.19568 -0.121355,-0.4743 0,-0.65633 0.343244,-0.51486 0.875104,-0.8751 1.312657,-1.31266 0.437552,-0.65632 0.906818,-1.29258 1.312657,-1.96898 0.503381,-0.83897 0.76994,-1.81124 1.312657,-2.62531 0.171622,-0.25744 0.558489,-0.36281 0.656328,-0.65633 0.138366,-0.4151 -0.195679,-0.9213 0,-1.31266 0.656329,-1.31266 1.312657,-0.98449 1.968986,-1.96899 0.271358,-0.40703 0.38497,-0.90561 0.656328,-1.31265 0.171622,-0.25744 0.558489,-0.36281 0.656329,-0.65633 0.138366,-0.4151 -0.138366,-0.89756 0,-1.31266 0.195679,-0.58704 1.035924,-0.75919 1.312657,-1.31266 0.09784,-0.19567 -0.09784,-0.46064 0,-0.65632 0.138366,-0.27674 0.517962,-0.3796 0.656328,-0.65633 0.09784,-0.19568 -0.09784,-0.46065 0,-0.65633 0.276733,-0.55347 0.969413,-0.79779 1.312657,-1.31266 0.271359,-0.40704 0.38497,-0.90562 0.656329,-1.31265 0.206578,-0.30987 1.106079,-1.00279 1.312657,-1.31266 0.271358,-0.40704 0.362809,-0.9213 0.656328,-1.31266 0.115493,-0.15399 2.585654,-2.54599 2.625314,-2.62531 0.19568,-0.39136 -0.138366,-0.89756 0,-1.31266 0.09784,-0.29352 0.517963,-0.3796 0.656329,-0.65633 0.309396,-0.61879 0.346932,-1.35019 0.656328,-1.96898 0.138367,-0.27674 0.437553,-0.43756 0.656329,-0.65633 0.437552,-0.43755 0.994291,-0.78205 1.312657,-1.31266 1.572268,-2.62045 -0.01571,-1.24982 0.656328,-3.93797 0.01577,-0.0631 1.183189,-1.14003 1.312657,-1.31266 0.473286,-0.63104 0.959891,-1.26345 1.312657,-1.96898 0.309397,-0.6188 0.346933,-1.3502 0.656329,-1.96899 0.352766,-0.70553 0.906818,-1.29259 1.312657,-1.96898 0.25169,-0.41949 0.38497,-0.90562 0.656328,-1.31266 0.171623,-0.25743 0.484707,-0.3989 0.656329,-0.65633 0.271358,-0.40704 0.38497,-0.90562 0.656328,-1.31266 1.846019,-2.76902 -1.126375,3.56541 1.968986,-2.62531 1.067339,-2.13468 0.165692,-1.5612 1.312657,-3.28164 -0.06552,-1.30023 0.966741,-0.31042 1.312657,-0.65633 1.357967,-1.35797 -2.075154,0.0531 0.656328,-1.31266 0.19568,-0.0978 0.46065,0.0978 0.656329,0 0.787594,-0.3938 1.181391,-1.57519 1.968985,-1.96898 0.19568,-0.0978 0.46065,0.0978 0.656329,0 0.276732,-0.13837 0.398895,-0.48471 0.656328,-0.65633 0.57045,-0.3803 2.054865,-0.93236 2.625315,-1.31266 0.257433,-0.17162 0.379596,-0.51796 0.656328,-0.65633 6.338748,-3.169372 -1.223994,0.84555 3.281643,-0.65633 0.587038,-0.195676 0.759192,-1.035921 1.312657,-1.312653 0.195679,-0.09784 0.460649,0.09784 0.656328,0 2.001514,-1.000757 -1.200388,-0.520314 1.968986,-1.312657 0.424488,-0.106122 0.888168,0.106122 1.312657,0 1.664805,-0.416202 2.929587,-2.07041 4.594299,-2.625314 0.207549,-0.06918 0.4532,0.08125 0.656329,0 0.908418,-0.363368 1.750209,-0.875105 2.625314,-1.312657 0.437552,-0.218777 0.921298,-0.36281 1.312657,-0.656329 0.495034,-0.371275 0.817623,-0.941382 1.312657,-1.312657 0.457894,-0.343421 2.167414,-0.969236 2.625314,-1.312657 0.49503,-0.371275 0.78205,-0.994291 1.31266,-1.312657 0.59324,-0.355944 1.37574,-0.300384 1.96898,-0.656328 0.53061,-0.318367 0.78205,-0.994291 1.31266,-1.312658 0.59324,-0.355944 1.37574,-0.300384 1.96898,-0.656328 1.09389,-0.656329 1.09389,-1.312657 1.96899,-1.968986 3.76189,-2.821419 0.15304,-0.07652 3.93797,-1.968985 1.00522,-0.502609 0.51326,-1.169588 1.31266,-1.968986 0.1547,-0.154698 0.46065,0.09784 0.65633,0 0.27673,-0.138366 0.39889,-0.484706 0.65633,-0.656328 0.40703,-0.271358 0.90561,-0.38497 1.31265,-0.656329 0.25744,-0.171622 0.43755,-0.437552 0.65633,-0.656328 0.43755,-0.218776 0.90562,-0.38497 1.31266,-0.656329 0.25743,-0.171622 0.37959,-0.517962 0.65633,-0.656328 0.19568,-0.09784 0.46065,0.09784 0.65632,0 0.27674,-0.138366 0.3796,-0.517962 0.65633,-0.656329 0.19568,-0.09784 0.46065,0.09784 0.65633,0 0.27673,-0.138366 0.3796,-0.517962 0.65633,-0.656328 0.19568,-0.09784 0.44878,0.06918 0.65633,0 0.92819,-0.309396 1.69712,-1.003261 2.62531,-1.312657 0.4151,-0.138366 0.9213,0.195679 1.31266,0 2.00151,-1.000757 -1.20039,-0.520314 1.96899,-1.312657 0.42448,-0.106122 0.88816,0.106122 1.31265,0 0.47459,-0.118648 0.83807,-0.537681 1.31266,-0.656329 0.42449,-0.106122 0.8751,0 1.31266,0 1.09388,-0.218776 2.20902,-0.349865 3.28164,-0.656328 0.94075,-0.268786 1.66592,-1.120778 2.62531,-1.312657 0.64359,-0.128717 1.31926,0.09282 1.96899,0 0.89297,-0.127567 1.73555,-0.508035 2.62531,-0.656329 2.18776,-0.364627 0.54694,0.546941 3.28164,0 0.4797,-0.09594 0.85845,-0.474644 1.31266,-0.656328 0.64235,-0.25694 1.31266,-0.437552 1.96899,-0.656329 1.31265,-0.437552 2.59562,-0.977069 3.93797,-1.312657 0.42449,-0.106122 0.8836,0.08581 1.31266,0 0.67839,-0.135679 1.29058,-0.520649 1.96898,-0.656328 0.42906,-0.08581 0.88817,0.106122 1.31266,0 0.47459,-0.118648 0.8751,-0.437552 1.31266,-0.656329 1.07122,-0.535613 2.0651,-1.1099 3.28164,-1.312657 0.6474,-0.107899 1.31265,0 1.96898,0 0.65633,-0.218776 1.29059,-0.520649 1.96899,-0.656328 0.42905,-0.08581 0.88817,0.106122 1.31266,0 0.47459,-0.118648 0.8751,-0.437552 1.31265,-0.656329 0.65633,-0.218776 1.29059,-0.520649 1.96899,-0.656328 0.65131,-0.130262 2.59207,0 3.28164,0 0.43755,0 0.89756,0.138366 1.31266,0 0.92819,-0.309396 1.69712,-1.003261 2.62531,-1.312657 0.4151,-0.138366 0.9213,0.195679 1.31266,0 0.55346,-0.276733 0.73812,-1.082843 1.31266,-1.312657 0.4412,-0.176481 4.54423,0.100913 5.25062,0 0.9681,-0.1383 3.55536,-0.897081 4.5943,-1.312657 1.75021,-0.700084 1.10488,-0.877304 3.28165,-1.312657 0.91156,-0.182314 2.46123,0.27347 3.28164,0 0.74833,-0.249443 1.26345,-0.959891 1.96898,-1.312657 0.19568,-0.09784 0.44878,0.06918 0.65633,0 0.4641,-0.154698 0.83807,-0.537681 1.31266,-0.656329 0.31976,-0.07994 2.27826,0.173525 2.62531,0 0.27674,-0.138366 0.43756,-0.437552 0.65633,-0.656328 0.43755,0 0.89756,0.138366 1.31266,0 0.29352,-0.09784 0.37959,-0.517963 0.65633,-0.656329 0.19974,-0.09987 1.6734,0 1.96898,0 1.31266,0 2.62532,0 3.93797,0 2.62532,0 5.25063,0 7.87595,0 0.65632,0 1.31265,0 1.96898,0 0.65633,0 1.32159,-0.107899 1.96899,0 0.68241,0.113737 1.28656,0.542592 1.96898,0.656329 0.6474,0.1079 1.31266,0 1.96899,0 0.65633,0.218776 1.28657,0.542592 1.96898,0.656328 0.6474,0.1079 1.31266,0 1.96899,0 0.65633,0 1.31266,0 1.96898,0 0.43756,0 0.88817,-0.106122 1.31266,0 0.47459,0.118648 0.87511,0.437553 1.31266,0.656329 0.65633,0 1.3254,-0.128717 1.96898,0 0.9594,0.191879 1.67613,1.075361 2.62532,1.312657 0.53373,0.133432 3.2509,0 3.93797,0 0.21878,0 0.43755,0 0.65633,0 0.21877,0 0.46065,-0.09784 0.65633,0 0.27673,0.138366 0.37959,0.517962 0.65632,0.656328 0.19568,0.09784 0.46065,-0.09784 0.65633,0 0.27674,0.138367 0.3796,0.517963 0.65633,0.656329 0.19568,0.09784 0.43755,0 0.65633,0 0.65633,0 1.32159,-0.1079 1.96899,0 2.73148,0.455247 1.13919,0.598506 3.28164,1.312657 3.28316,1.094387 2.26563,0.272279 5.90695,1.312657 4.75769,1.359339 -4.02657,-0.01477 3.93798,1.312657 0.43159,0.07193 0.88816,-0.106122 1.31265,0 1.18792,-0.395588 1.22066,1.063214 1.96899,1.312657 0.59069,0.196898 1.37829,-0.196899 1.96898,0 0.92819,0.309396 1.69713,1.003261 2.62532,1.312657 0.20755,0.06918 0.44878,-0.06918 0.65633,0 0.46409,0.154698 0.85844,0.474645 1.31265,0.656328 0.64235,0.25694 1.3502,0.346933 1.96899,0.656329 0.70553,0.352766 1.23659,1.019701 1.96898,1.312657 0.40626,0.162503 0.9064,-0.162503 1.31266,0 3.87198,1.548791 0.0565,1.192689 3.93797,1.968985 0.42906,0.08581 0.9213,-0.195679 1.31266,0 0.55346,0.276733 0.78205,0.994291 1.31266,1.312657 2.26625,1.359751 1.58584,0.185903 3.93797,0.656329 1.44424,0.288849 1.50038,1.125284 2.62531,1.968985 0.43755,0.218777 0.87511,0.437553 1.31266,0.656329 0.21877,0 0.46065,-0.09784 0.65633,0 0.27673,0.138366 0.36281,0.558489 0.65633,0.656328 0.41509,0.138367 0.92129,-0.195679 1.31265,0 0.68651,0.343255 -0.77415,0.597418 0.65633,1.312657 0.19568,0.09784 0.46065,-0.09784 0.65633,0 0.80298,0.401493 0.83302,1.329468 1.31266,1.968986 0.37127,0.495034 1.03592,0.759192 1.31265,1.312657 0.19568,0.391359 -0.19568,0.921298 0,1.312657 0.65633,1.312657 1.31266,0.984493 1.96899,1.968985 0.0815,0.122256 1.2706,2.583257 1.31266,2.625314 0.34591,0.345916 1.01913,0.26497 1.31265,0.656329 0.4151,0.553465 0.39939,1.326637 0.65633,1.968986 1.18969,2.974227 0.0606,0.09089 1.31266,1.968985 0.0815,0.122255 1.2706,2.583257 1.31266,2.625314 0.34591,0.345916 1.04129,0.249291 1.31265,0.656329 0.24271,0.364065 -0.19568,0.921298 0,1.312657 0.0978,0.195679 0.50163,-0.154699 0.65633,0 0.53565,0.535652 1.40186,3.181803 1.96899,3.937971 0.37127,0.495034 0.96941,0.79779 1.31265,1.312653 0.12136,0.18204 -0.12135,0.4743 0,0.65633 0.34325,0.51487 0.87511,0.87511 1.31266,1.31266 0.87511,0.8751 1.75021,1.75021 2.62531,2.62531 0.43756,0.43756 0.96942,0.79779 1.31266,1.31266 0.12136,0.18203 -0.0978,0.46065 0,0.65633 2.17677,2.17677 -0.30939,-0.61879 0.65633,1.31266 0.13837,0.27673 0.3796,0.51796 0.65633,0.65632 0.19568,0.0978 0.55849,-0.19568 0.65633,0 0.19568,0.39136 -0.19568,0.9213 0,1.31266 0.0978,0.19568 0.50163,-0.1547 0.65633,0 0.15469,0.1547 0,0.43755 0,0.65633 0,0.43755 -0.24271,0.94859 0,1.31266 0.27135,0.40703 0.96674,0.31041 1.31265,0.65633 0.3094,0.30939 -0.19568,0.92129 0,1.31265 0.27673,0.55347 1.03593,0.75919 1.31266,1.31266 0.0978,0.19568 0,0.43755 0,0.65633 0,0.21877 0,0.43755 0,0.65633 0,0.67615 -0.0969,4.40058 0,4.5943 0.13837,0.27673 0.51796,0.37959 0.65633,0.65632 0.0999,0.19975 0,1.67341 0,1.96899 0,1.53143 0,3.06287 0,4.5943 0,0.43755 0,0.8751 0,1.31266 0,0.21877 -0.0978,0.46065 0,0.65632 0.13836,0.27674 0.55849,0.36281 0.65633,0.65633 0.11761,0.35285 0,2.06964 0,2.62532 0,1.96898 0,3.93797 0,5.90695 0,1.31266 0,2.62532 0,3.93797 0,0.43756 0,0.87511 0,1.31266 0,0.21878 0.0978,0.46065 0,0.65633 -0.13837,0.27673 -0.51797,0.3796 -0.65633,0.65633 -0.80825,1.6165 1.90515,-0.59249 -0.65633,1.96898 -0.1547,0.1547 -0.55849,-0.19567 -0.65633,0 -0.19568,0.39136 0.19568,0.9213 0,1.31266 -0.0978,0.19568 -0.55849,-0.19568 -0.65633,0 -0.19568,0.39136 0.13837,0.89756 0,1.31266 -0.0978,0.29352 -0.43755,0.43755 -0.65633,0.65633 -0.21877,0.21877 -0.43755,0.43755 -0.65632,0.65633 -0.34554,0.34553 -1.61846,1.79371 -1.96899,1.96898 -0.19568,0.0978 -0.4743,-0.12135 -0.65633,0 -0.51486,0.34325 -0.79779,0.96941 -1.31266,1.31266 -0.18203,0.12135 -0.44877,-0.0692 -0.65632,0 -0.4641,0.1547 -0.83807,0.53768 -1.31266,0.65633 -1.06122,0.2653 -2.22042,-0.26531 -3.28164,0 -0.30016,0.075 -0.36281,0.55849 -0.65633,0.65632 -0.4151,0.13837 -0.88817,-0.10612 -1.31266,0 -0.47459,0.11865 -0.83806,0.53769 -1.31266,0.65633 -1.03213,0.25804 -2.23666,-0.20899 -3.28164,0 -0.88452,0.17691 -1.74079,0.47943 -2.62531,0.65633 -0.21453,0.0429 -0.44409,-0.0531 -0.65633,0 -0.67118,0.1678 -1.29781,0.48854 -1.96899,0.65633 -0.63673,0.15918 -1.33225,-0.15918 -1.96898,0 -0.47459,0.11865 -0.83807,0.53768 -1.31266,0.65633 -0.42449,0.10612 -0.8751,0 -1.31266,0 -0.8751,0 -1.75021,0 -2.62531,0 -0.21878,0 -0.43755,0 -0.65633,0 -0.21877,0 -0.46065,-0.0978 -0.65633,0 -0.27673,0.13837 -0.37959,0.51796 -0.65633,0.65633 -0.34988,0.17494 -0.96277,-0.17495 -1.31265,0 -0.27674,0.13836 -0.3796,0.51796 -0.65633,0.65633 -0.43497,0.21748 -2.07523,-0.18337 -2.62532,0 -0.46409,0.15469 -0.84856,0.50163 -1.31265,0.65632 -0.20755,0.0692 -0.44878,-0.0692 -0.65633,0 -0.4641,0.1547 -0.84856,0.50163 -1.31266,0.65633 -0.56225,0.18742 -2.04629,-0.14475 -2.62531,0 -3.16938,0.79235 0.0325,0.3119 -1.96899,1.31266 -0.35893,0.17947 -1.52232,-0.11167 -1.96898,0 -0.67118,0.16779 -1.29781,0.48853 -1.96899,0.65633 -0.21224,0.0531 -0.46065,-0.0978 -0.65633,0 -0.27673,0.13836 -0.36281,0.55849 -0.65633,0.65633 -0.41509,0.13836 -0.89755,-0.13837 -1.31265,0 -0.29352,0.0978 -0.3796,0.51796 -0.65633,0.65633 -0.19568,0.0978 -0.46065,-0.0978 -0.65633,0 -0.55346,0.27673 -0.72562,1.11697 -1.31266,1.31265 -0.41509,0.13837 -0.92129,-0.19568 -1.31265,0 -0.19568,0.0978 0,0.43755 0,0.65633 -0.21878,0.21878 -0.36281,0.55849 -0.65633,0.65633 -0.4151,0.13837 -0.89756,-0.13837 -1.31266,0 -0.58704,0.19568 -0.75919,1.03592 -1.31266,1.31266 -0.19568,0.0978 -0.46064,-0.0978 -0.65632,0 -0.31634,0.15817 -2.61181,2.6073 -2.62532,2.62531 -0.29352,0.39136 -0.38497,0.90562 -0.65633,1.31266 -0.34324,0.51486 -0.8751,0.8751 -1.31265,1.31265 -1.09388,1.09389 -2.18777,2.18777 -3.28165,3.28165 -0.43755,0.43755 -0.94138,0.81762 -1.31265,1.31265 -0.29352,0.39136 -0.38497,0.90562 -0.65633,1.31266 -0.17162,0.25743 -0.51796,0.3796 -0.65633,0.65633 -0.3094,0.61879 -0.34693,1.35019 -0.65633,1.96899 -0.27673,0.55346 -1.03592,0.75919 -1.31266,1.31265 -0.0978,0.19568 0.0978,0.46065 0,0.65633 -0.27673,0.55347 -1.03592,0.75919 -1.31265,1.31266 -0.19568,0.39136 0.30939,1.00326 0,1.31265 -0.1547,0.1547 -0.50163,-0.15469 -0.65633,0 -0.1547,0.1547 0.0978,0.46065 0,0.65633 -0.13837,0.27674 -0.43755,0.43756 -0.65633,0.65633 -0.21878,0.21878 -0.43755,0.43755 -0.65633,0.65633 -1.50485,1.50485 0.27673,-0.4151 -1.31266,1.96899 -0.17162,0.25743 -0.51796,0.37959 -0.65632,0.65632 -0.19568,0.39136 0.30939,1.00326 0,1.31266 -0.1547,0.1547 -0.50163,-0.1547 -0.65633,0 -0.17959,0.17959 0.17802,2.26927 0,2.62532 -0.27673,0.55346 -1.03593,0.75919 -1.31266,1.31265 -0.19568,0.39136 0.19568,0.9213 0,1.31266 -1.00076,2.00151 -0.52031,-1.20039 -1.31266,1.96898 -0.10612,0.42449 0.19568,0.9213 0,1.31266 -0.0978,0.19568 -0.55849,-0.19568 -0.65632,0 -0.19568,0.39136 0.13836,0.89756 0,1.31266 -0.0978,0.29352 -0.48471,0.39889 -0.65633,0.65633 -0.27136,0.40703 -0.43756,0.8751 -0.65633,1.31265 -0.21878,0.43756 -0.50163,0.84857 -0.65633,1.31266 -0.0692,0.20755 0,0.43755 0,0.65633 -0.21878,0.21878 -0.51796,0.3796 -0.65633,0.65633 -0.0978,0.19568 0.1547,0.50163 0,0.65633 -0.1547,0.15469 -0.50163,-0.1547 -0.65633,0 -0.30939,0.30939 0.19568,0.9213 0,1.31265 -0.27673,0.55347 -1.03592,0.7592 -1.31265,1.31266 -0.0978,0.19568 0.0978,0.46065 0,0.65633 -0.32293,0.64585 -2.3024,1.97947 -2.62532,2.62531 -0.19568,0.39136 0.3094,1.00326 0,1.31266 -0.1547,0.1547 -0.46065,-0.0978 -0.65633,0 -1.11202,0.55601 -1.34345,2.34335 -1.96898,3.28164 -0.17162,0.25744 -0.55849,0.36281 -0.65633,0.65633 -0.13837,0.4151 0.13837,0.89756 0,1.31266 -0.19568,0.58704 -1.11698,0.72562 -1.31266,1.31266 -0.13836,0.41509 0.19568,0.92129 0,1.31265 -0.27673,0.55347 -0.96941,0.79779 -1.31266,1.31266 -0.12135,0.18203 0.0978,0.46065 0,0.65633 -3.09536,6.19072 -0.12296,-0.14372 -1.96898,2.62531 -0.27136,0.40704 -0.38497,0.90562 -0.65633,1.31266 -0.60677,0.91016 -1.28564,1.77114 -1.96898,2.62531 -0.38656,0.4832 -0.96942,0.79779 -1.31266,1.31266 -0.27136,0.40704 -0.50163,0.84856 -0.65633,1.31266 -0.40413,1.21238 1.00149,0.31116 -0.65633,1.96898 -0.1547,0.1547 -0.50163,-0.1547 -0.65633,0 -0.30939,0.3094 0.19568,0.9213 0,1.31266 -0.13836,0.27673 -0.43755,0.43755 -0.65633,0.65633 0,0.43755 0.13837,0.89756 0,1.31265 -0.19567,0.58704 -1.16257,0.71235 -1.31265,1.31266 -0.15919,0.63673 0.15918,1.33226 0,1.96899 -0.075,0.30016 -0.51796,0.37959 -0.65633,0.65633 -0.19568,0.39135 0.19568,0.92129 0,1.31265 -0.13837,0.27674 -0.51796,0.3796 -0.65633,0.65633 -0.26253,0.52506 0.26253,1.44392 0,1.96899 -0.43598,0.87196 -0.87668,0.44069 -1.31266,1.31265 -0.0978,0.19568 0.1547,0.50163 0,0.65633 -0.15469,0.1547 -0.50163,-0.1547 -0.65633,0 -0.15469,0.1547 0.1547,0.50163 0,0.65633 -0.15469,0.1547 -0.50163,-0.1547 -0.65632,0 -0.1547,0.1547 0.15469,0.50163 0,0.65633 -0.34592,0.34592 -0.96675,0.31041 -1.31266,0.65633 -0.1547,0.1547 0.1547,0.50163 0,0.65633 -0.34592,0.34591 -0.90562,0.38497 -1.31266,0.65633 -0.25743,0.17162 -0.37959,0.51796 -0.65633,0.65632 -0.19568,0.0978 -0.4532,-0.0813 -0.65632,0 -0.87511,0.43756 -1.75021,0.87511 -2.62532,1.31266 -0.21877,0.21878 -0.37959,0.51796 -0.65633,0.65633 -1.05376,0.52688 -2.25872,0.72813 -3.28164,1.31266 -0.53726,0.307 -0.79779,0.96941 -1.31266,1.31265 -2.68533,1.79022 -2.36463,1.00699 -5.25062,1.96899 -1.47355,0.49118 -1.78383,1.22008 -3.28165,1.96898 -0.19568,0.0978 -0.43755,0 -0.65633,0 -0.65632,0.43756 -1.26345,0.9599 -1.96898,1.31266 -0.19568,0.0978 -0.46065,-0.0978 -0.65633,0 -0.27673,0.13837 -0.36281,0.55849 -0.65633,0.65633 -0.4151,0.13837 -0.89756,-0.13837 -1.31266,0 -0.29351,0.0978 -0.39889,0.48471 -0.65632,0.65633 -0.40704,0.27136 -0.90562,0.38497 -1.31266,0.65633 -0.25743,0.17162 -0.36281,0.55849 -0.65633,0.65633 -0.4151,0.13836 -0.8751,0 -1.31266,0 -0.65632,0 -1.31265,0 -1.96898,0 -0.65633,0 -1.32159,-0.1079 -1.96899,0 -1.36483,0.22747 -2.58118,1.04129 -3.93797,1.31265 -0.42905,0.0858 -0.88817,-0.10612 -1.31266,0 -0.47459,0.11865 -0.83806,0.53768 -1.31265,0.65633 -0.42449,0.10612 -0.87511,0 -1.31266,0 -0.21878,0 -0.46065,-0.0978 -0.65633,0 -0.55346,0.27673 -0.75919,1.03593 -1.31265,1.31266 -0.19568,0.0978 -0.46065,-0.0978 -0.65633,0 -0.27674,0.13836 -0.3796,0.51796 -0.65633,0.65633 -0.19568,0.0978 -0.46065,-0.0978 -0.65633,0 -0.78759,0.39379 -1.18139,1.57518 -1.96899,1.96898 -0.39135,0.19568 -0.89755,-0.13836 -1.31265,0 -0.29352,0.0978 -0.3796,0.51796 -0.65633,0.65633 -0.61879,0.3094 -1.29781,0.48854 -1.96899,0.65633 -0.21224,0.0531 -0.46065,-0.0978 -0.65633,0 -0.27673,0.13836 -0.43755,0.43755 -0.65632,0.65633 -0.65633,0.21877 -1.3502,0.34693 -1.96899,0.65633 -0.27673,0.13836 -0.36281,0.55848 -0.65633,0.65632 -0.4151,0.13837 -0.89756,-0.13836 -1.31265,0 -0.58704,0.19568 -0.7592,1.03593 -1.31266,1.31266 -0.19568,0.0978 -0.46065,-0.0978 -0.65633,0 -0.27673,0.13837 -0.3989,0.48471 -0.65633,0.65633 -3.31564,2.21043 -0.0152,0.005 -1.96898,0.65633 -0.92819,0.30939 -1.75021,0.8751 -2.62532,1.31266 -0.43755,0.21877 -0.83806,0.53768 -1.31266,0.65632 -0.42448,0.10613 -0.8751,0 -1.31265,0 -0.21878,0 -0.4532,-0.0813 -0.65633,0 -0.90842,0.36337 -1.75021,0.87511 -2.62532,1.31266 -0.43755,0.21878 -0.83295,0.56039 -1.31265,0.65633 -0.64359,0.12872 -1.31266,0 -1.96899,0 -0.21877,0 -0.44878,-0.0692 -0.65633,0 -0.46409,0.1547 -0.84856,0.50163 -1.31265,0.65633 -0.20755,0.0692 -0.46065,-0.0978 -0.65633,0 -0.70553,0.35276 -1.2366,1.0197 -1.96899,1.31265 -0.81251,0.32501 -1.77633,-0.21224 -2.62531,0 -0.47459,0.11865 -0.85845,0.47465 -1.31266,0.65633 -0.64235,0.25694 -1.31266,0.43756 -1.96898,0.65633 -0.65633,0.21878 -1.29059,0.52065 -1.96899,0.65633 -1.07264,0.21453 -2.20264,-0.17983 -3.28164,0 -1.33539,-0.22796 -2.12638,1.0816 -3.28164,1.31266 -5.0069,0 0.51774,-0.29352 -3.28165,0.65633 -0.84897,0.21224 -1.77633,-0.21225 -2.62531,0 -0.47459,0.11864 -0.84856,0.50163 -1.31266,0.65632 -0.20755,0.0692 -0.47429,-0.12135 -0.65633,0 -0.51486,0.34325 -0.79779,0.96942 -1.31265,1.31266 -0.24564,0.16376 -2.92779,-0.17693 -3.28165,0 -0.27673,0.13837 -0.37959,0.51796 -0.65632,0.65633 -0.19568,0.0978 -0.50163,-0.1547 -0.65633,0 -1.35797,1.35797 2.07515,-0.0531 -0.65633,1.31266 -0.39136,0.19568 -1.00326,-0.3094 -1.31266,0 -0.1547,0.15469 0.1547,0.50163 0,0.65633 -0.1547,0.15469 -0.46065,-0.0978 -0.65633,0 -0.78759,0.39379 -1.18139,1.57518 -1.96898,1.96898 -0.90531,0.45266 -0.58707,-0.79485 -1.31266,0.65633 -0.0978,0.19568 0.1547,0.50163 0,0.65633 -0.1547,0.1547 -0.46065,-0.0978 -0.65633,0 -0.27673,0.13836 -0.37959,0.51796 -0.65633,0.65633 -0.19568,0.0978 -0.46065,-0.0978 -0.65632,0 -0.64585,0.32292 -1.97947,2.30239 -2.62532,2.62531 -0.39136,0.19568 -0.897557,-0.13837 -1.312656,0 -5.198467,1.73282 5.752776,-0.75676 -4.594299,1.31266 z"
               style="fill:#bc8959;fill-opacity:1;stroke:none" />
            <path
               transform="translate(-55.24454,-68.08751)"
               inkscape:connector-curvature="0"
               id="path3023"
               d="m 105.66889,265.45266 c -1.09388,-0.43756 -2.32295,-0.62788 -3.28164,-1.31266 -0.64188,-0.45849 -0.75489,-1.41121 -1.31266,-1.96899 -0.77349,-0.77349 -1.802085,-1.24866 -2.625314,-1.96898 -2.720068,-2.38006 -2.482688,-2.5357 -4.5943,-5.25063 -0.860039,-1.10576 -1.702847,-2.22739 -2.625314,-3.28164 -0.611216,-0.69854 -1.518217,-1.1576 -1.968985,-1.96899 -0.671966,-1.20954 -0.740094,-2.67833 -1.312657,-3.93797 -4.210001,-9.262 -0.126594,1.05947 -3.281643,-5.25063 -1.268468,-2.53693 -1.116923,-2.97846 -1.968985,-5.25062 -0.82735,-2.20627 -1.88019,-4.32792 -2.625314,-6.56329 -0.28525,-0.85575 -0.300999,-1.79621 -0.656329,-2.62531 -0.310727,-0.72503 -1.095955,-1.21053 -1.312657,-1.96899 -0.24041,-0.84143 0.143866,-1.76212 0,-2.62531 -0.08042,-0.48255 -0.560389,-0.83296 -0.656329,-1.31266 -0.128716,-0.64358 0.128717,-1.3254 0,-1.96899 -0.09594,-0.47969 -0.560388,-0.83295 -0.656328,-1.31265 -0.321792,-1.06202 0.214528,-2.20901 0,-3.28165 -0.135679,-0.67839 -0.520649,-1.29058 -0.656329,-1.96898 -0.171622,-0.85811 0,-1.75021 0,-2.62531 0,-1.31266 0,-2.62532 0,-3.93798 0,-0.43755 0.106123,-0.88816 0,-1.31265 -0.237296,-0.94919 -1.07536,-1.67613 -1.312657,-2.62532 -0.159183,-0.63673 0,-1.31265 0,-1.96898 0,-1.96899 0,-3.93797 0,-5.90696 0,-0.45321 -0.09977,-2.42577 0,-2.62531 0.138367,-0.27674 0.558489,-0.36281 0.656329,-0.65633 0.232474,-0.69742 -0.232474,-1.92789 0,-2.62532 0.154698,-0.46409 0.38497,-0.90561 0.656328,-1.31265 0.171623,-0.25744 0.558489,-0.36281 0.656329,-0.65633 0.267848,-0.80354 -0.205228,-1.8044 0,-2.62531 0.167794,-0.67118 0.27257,-1.39335 0.656328,-1.96899 0.121356,-0.18203 0.437553,0 0.656329,0 0.218776,-0.43755 0.50163,-0.84856 0.656329,-1.31266 0.06918,-0.20755 -0.06918,-0.44878 0,-0.65633 0.154698,-0.46409 0.474644,-0.85844 0.656328,-1.31265 0.25694,-0.64235 0.346932,-1.3502 0.656329,-1.96899 0.833716,-1.66743 0.784428,0.67216 1.312657,-1.96898 0.128716,-0.64359 -0.243755,-1.3596 0,-1.96899 0.525062,-1.31266 1.378289,-0.98449 1.968985,-1.96898 0.503381,-0.83897 0.809276,-1.78635 1.312657,-2.62532 0.159183,-0.2653 0.437552,-0.43755 0.656329,-0.65633 0.437552,-0.43755 0.941381,-0.81762 1.312657,-1.31265 1.612278,-0.23403 0.272569,-1.39335 0.656328,-1.96899 0.504868,-0.7573 1.464117,-1.21168 1.968986,-1.96899 0.271358,-0.40703 0.362809,-0.92129 0.656328,-1.31265 0.371276,-0.49504 0.969413,-0.79779 1.312657,-1.31266 0.121355,-0.18203 -0.06918,-0.44878 0,-0.65633 0.154698,-0.46409 0.38497,-0.90562 0.656329,-1.31266 0.199217,-0.29882 2.413191,-2.51925 2.625314,-2.62531 0.195679,-0.0978 0.460649,0.0978 0.656328,0 2.731482,-1.36574 -0.701638,0.0453 0.656329,-1.31266 0.309396,-0.30939 0.897558,0.13837 1.312657,0 0.464094,-0.15469 0.905619,-0.38497 1.312657,-0.65632 0.257433,-0.17163 0.362809,-0.55849 0.656328,-0.65633 0.415099,-0.13837 0.897556,0.13836 1.312656,0 0.70611,-0.23537 0.60655,-1.07729 1.31266,-1.31266 0.4151,-0.13837 0.9213,0.19568 1.31266,0 0.19567,-0.0978 -0.1547,-0.50163 0,-0.65633 1.65782,-1.65782 0.7566,-0.2522 1.96898,-0.65633 0.4641,-0.1547 0.87511,-0.43755 1.31266,-0.65633 0.43755,-0.21877 0.90562,-0.38497 1.31265,-0.65632 0.25744,-0.17163 0.3796,-0.51797 0.65633,-0.65633 0.19568,-0.0978 0.44409,0.0531 0.65633,0 0.67118,-0.1678 1.31266,-0.43755 1.96899,-0.65633 0.65633,-0.21878 1.32663,-0.39939 1.96898,-0.65633 0.45421,-0.18168 0.83807,-0.53768 1.31266,-0.65633 0.42449,-0.10612 0.88106,0.0719 1.31266,0 0.88976,-0.14829 1.73024,-0.54444 2.62531,-0.65633 0.86835,-0.10854 1.76212,0.14387 2.62531,0 0.19894,-0.0332 3.67284,-1.79222 3.93798,-1.96898 0.25743,-0.17162 0.39889,-0.48471 0.65632,-0.65633 0.40704,-0.27136 0.85845,-0.47465 1.31266,-0.65633 0.64235,-0.25694 1.39335,-0.27257 1.96899,-0.65633 0.18203,-0.12135 -0.0978,-0.46065 0,-0.65633 0.40149,-0.80298 1.32946,-0.83301 1.96898,-1.31265 0.49504,-0.37128 0.81763,-0.94138 1.31266,-1.31266 0.78272,-0.58704 1.8426,-0.72562 2.62531,-1.31266 2.44187,-1.83139 0.0694,-1.01917 3.28165,-2.62531 0.61879,-0.3094 1.37574,-0.30039 1.96898,-0.65633 0.53061,-0.31837 0.81762,-0.94138 1.31266,-1.31266 0.39136,-0.29352 0.89317,-0.40463 1.31266,-0.65633 0.67639,-0.40583 1.26345,-0.95989 1.96898,-1.31265 0.19568,-0.0978 0.4743,0.12135 0.65633,0 0.51487,-0.34325 0.8751,-0.87511 1.31266,-1.31266 0.21877,-0.21878 0.37959,-0.51796 0.65632,-0.65633 0.19568,-0.0978 0.44878,0.0692 0.65633,0 0.4641,-0.1547 0.87511,-0.43755 1.31266,-0.65633 0.43755,-0.21877 0.96674,-0.31041 1.31266,-0.65632 0.34591,-0.34592 0.26497,-1.01914 0.65633,-1.31266 0.55346,-0.4151 1.32663,-0.39939 1.96898,-0.65633 0.45421,-0.18168 0.9213,-0.36281 1.31266,-0.65633 0.49503,-0.37127 0.73812,-1.08284 1.31266,-1.31266 0.60938,-0.24375 1.32158,0.1079 1.96898,0 0.68242,-0.11373 1.32664,-0.39938 1.96899,-0.65632 0.45421,-0.18169 0.92129,-0.36281 1.31265,-0.65633 0.49504,-0.37128 0.73813,-1.08285 1.31266,-1.31266 0.91157,-0.36463 2.3093,0.24308 3.28164,0 0.4746,-0.11865 0.87511,-0.43755 1.31266,-0.65633 0.65633,-0.21877 1.29059,-0.52065 1.96899,-0.65633 1.07263,-0.21452 2.20264,0.17984 3.28164,0 0.68242,-0.11373 1.28657,-0.54259 1.96898,-0.65633 1.2948,-0.21579 2.66451,0.31837 3.93797,0 0.30016,-0.075 0.36281,-0.55848 0.65633,-0.65632 0.9845,-0.32817 2.29715,0.32816 3.28165,0 0.29351,-0.0978 0.43755,-0.43756 0.65632,-0.65633 0.43756,-0.21878 0.83807,-0.53768 1.31266,-0.65633 0.63673,-0.15918 1.34634,0.20755 1.96899,0 0.46409,-0.1547 0.83806,-0.53768 1.31265,-0.65633 0.42449,-0.10612 0.88106,0.0719 1.31266,0 0.88976,-0.14829 1.73555,-0.50803 2.62531,-0.65633 0.4316,-0.0719 0.87779,0.0483 1.31266,0 1.53752,-0.17083 3.05678,-0.48549 4.5943,-0.65633 0.59666,-0.0663 2.93359,0.0995 3.28164,0 1.14858,-0.32816 2.70736,-1.47674 3.93797,-1.96898 0.0851,-0.034 3.91636,-1.29969 3.93798,-1.31266 0.53061,-0.31836 0.75919,-1.03592 1.31265,-1.31266 0.39136,-0.19568 0.88817,0.10613 1.31266,0 0.47459,-0.11864 0.8751,-0.43755 1.31266,-0.65632 0.43755,-0.21878 0.90562,-0.38497 1.31265,-0.65633 0.25744,-0.17163 0.36281,-0.55849 0.65633,-0.65633 0.4151,-0.13837 0.88817,0.10612 1.31266,0 1.18791,0.39559 1.22066,-1.06322 1.96898,-1.31266 0.4151,-0.13836 0.88817,0.10612 1.31266,0 0.47459,-0.11865 0.84856,-0.50163 1.31266,-0.65633 0.20755,-0.0692 0.46065,0.0978 0.65633,0 0.27673,-0.13836 0.37959,-0.51796 0.65633,-0.65633 0.22881,-0.1144 3.45617,0 3.93797,0 1.75021,0 3.50042,0 5.25062,0 0.43756,0 0.87511,0 1.31266,0 0.43755,0 0.89756,-0.13836 1.31266,0 0.29352,0.0978 0.3796,0.51797 0.65633,0.65633 0.29863,0.14932 3.13854,-0.0358 3.28164,0 0.30016,0.075 0.40881,0.47069 0.65633,0.65633 0.63105,0.47329 1.21053,1.09596 1.96898,1.31266 0.84144,0.24041 1.76212,-0.14387 2.62532,0 0.48254,0.0804 0.85845,0.47464 1.31266,0.65633 0.64234,0.25694 1.32663,0.39939 1.96898,0.65633 0.45421,0.18168 0.83807,0.53768 1.31266,0.65632 0.42449,0.10613 0.8751,0 1.31265,0 0.21878,0 0.46065,-0.0978 0.65633,0 0.27674,0.13837 0.3989,0.48471 0.65633,0.65633 0.43755,0.21878 0.87511,0.43755 1.31266,0.65633 0.21877,0 0.46065,-0.0978 0.65633,0 0.7058,0.3529 2.29927,1.7234 3.28164,1.96899 0.42449,0.10612 0.88817,-0.10613 1.31266,0 0.47459,0.11864 0.8751,0.43755 1.31265,0.65633 0.65633,0.21877 1.29781,0.48853 1.96899,0.65632 0.21224,0.0531 0.44878,-0.0692 0.65633,0 0.46409,0.1547 0.8751,0.43756 1.31265,0.65633 0.43756,0.21878 0.96675,0.31042 1.31266,0.65633 0.1547,0.1547 -0.1547,0.50163 0,0.65633 0.1547,0.1547 0.50163,-0.1547 0.65633,0 0.1547,0.1547 -0.1547,0.50163 0,0.65633 0.1547,0.1547 0.50163,-0.1547 0.65633,0 0.34591,0.34591 0.24929,1.0413 0.65633,1.31265 0.36406,0.24272 0.94859,-0.24271 1.31265,0 0.40704,0.27136 0.38497,0.90562 0.65633,1.31266 0.17162,0.25743 0.51797,0.3796 0.65633,0.65633 0.0849,0.16969 0,3.47276 0,3.93797 0,0.43755 0,0.87511 0,1.31266 0,0.21877 0.0978,0.46065 0,0.65633 -0.32292,0.64584 -2.30239,1.97946 -2.62531,2.62531 0,1.75021 0.21877,-0.21878 -0.65633,0.65633 -0.34592,0.34591 -0.31041,0.96674 -0.65633,1.31266 -0.1547,0.15469 -0.50163,-0.1547 -0.65633,0 -0.1547,0.15469 0.0978,0.46065 0,0.65632 -0.13836,0.27674 -0.51796,0.3796 -0.65633,0.65633 -0.0978,0.19568 0.1547,0.50163 0,0.65633 -0.34591,0.34592 -0.96674,0.31041 -1.31265,0.65633 -0.1547,0.1547 0.15469,0.50163 0,0.65633 -0.34592,0.34591 -0.90562,0.38497 -1.31266,0.65633 -0.25743,0.17162 -0.3796,0.51796 -0.65633,0.65633 -0.19568,0.0978 -0.50163,-0.1547 -0.65633,0 -0.34591,0.34591 -0.31041,0.96674 -0.65633,1.31265 -0.15469,0.1547 -0.44878,-0.0692 -0.65632,0 -4.75407,1.58469 1.03477,-0.18922 -1.96899,1.31266 -0.19568,0.0978 -0.44878,-0.0692 -0.65633,0 -2.24428,0.74809 -0.48841,0.54438 -2.62531,1.96899 -0.36407,0.24271 -0.89756,-0.13837 -1.31266,0 -1.9064,0.63546 -0.91579,0.68684 -2.62531,1.96898 -0.23403,1.61228 -1.39335,0.27257 -1.96899,0.65633 -0.96577,0.64385 -1.65954,1.98147 -2.62531,2.62531 -0.40704,0.27136 -0.90562,0.38497 -1.31266,0.65633 -0.7723,0.51487 -1.22644,1.41207 -1.96899,1.96899 -1.61401,1.21051 -1.28563,-0.0405 -2.62531,1.96898 -0.12136,0.18204 0.0978,0.46065 0,0.65633 -0.13837,0.27673 -0.51796,0.3796 -0.65633,0.65633 -0.0978,0.19568 0.12136,0.4743 0,0.65633 -0.34324,0.51486 -1.03592,0.75919 -1.31266,1.31266 -0.19567,0.39135 0.19568,0.92129 0,1.31265 -0.27673,0.55347 -0.96941,0.79779 -1.31265,1.31266 -0.30292,0.45438 0.30292,1.5146 0,1.96898 -0.27136,0.40704 -0.96674,0.31042 -1.31266,0.65633 -0.34592,0.34592 -0.43755,0.87511 -0.65633,1.31266 -0.21877,0.43755 -0.53768,0.83807 -0.65633,1.31266 -0.10612,0.42449 0.10613,0.88817 0,1.31265 -0.11864,0.4746 -0.47464,0.85845 -0.65633,1.31266 -0.25693,0.64235 -0.34693,1.35019 -0.65632,1.96899 -0.27674,0.55346 -1.16258,0.71234 -1.31266,1.31265 -0.15918,0.63674 0.15918,1.33226 0,1.96899 -0.075,0.30016 -0.47069,0.40881 -0.65633,0.65633 -0.47328,0.63104 -1.0197,1.23659 -1.31266,1.96898 -0.1625,0.40626 0.24271,0.94859 0,1.31266 -0.27135,0.40704 -0.96674,0.31041 -1.31265,0.65633 -0.69183,0.69183 -0.62083,1.93348 -1.31266,2.62531 -0.34592,0.34592 -1.01914,0.26497 -1.31266,0.65633 -0.4151,0.55347 -0.34693,1.35019 -0.65633,1.96899 -0.13836,0.27673 -0.51796,0.37959 -0.65632,0.65633 -0.0978,0.19567 0.12135,0.47429 0,0.65632 -0.68649,1.02974 -1.88277,1.63525 -2.62532,2.62532 -0.29352,0.39136 -0.38497,0.90562 -0.65633,1.31266 -0.34324,0.51486 -0.8751,0.8751 -1.31265,1.31265 -0.43756,0.43755 -0.87511,0.87511 -1.31266,1.31266 -0.21878,0.21878 -0.48471,0.39889 -0.65633,0.65633 -0.27136,0.40704 -0.38497,0.90562 -0.65633,1.31265 -0.34324,0.51487 -1.03592,0.7592 -1.31265,1.31266 -0.0978,0.19568 0.15469,0.50163 0,0.65633 -0.34592,0.34592 -0.96675,0.31041 -1.31266,0.65633 -0.34592,0.34591 -0.38497,0.90562 -0.65633,1.31266 -0.39831,0.59746 -1.67812,1.38725 -1.96899,1.96898 -0.0978,0.19568 0.0978,0.46065 0,0.65633 -0.13836,0.27673 -0.43755,0.43755 -0.65632,0.65633 -0.43756,0.43755 -0.94139,0.81762 -1.31266,1.31266 -0.29352,0.39135 -0.31041,0.96674 -0.65633,1.31265 -0.1547,0.1547 -0.55849,-0.19568 -0.65633,0 -0.19568,0.39136 0.19568,0.9213 0,1.31266 -0.27673,0.55346 -0.96941,0.79779 -1.31266,1.31266 -0.12135,0.18203 0.0978,0.46065 0,0.65632 -0.27673,0.55347 -1.11697,0.72562 -1.31265,1.31266 -0.13837,0.4151 0.13836,0.89756 0,1.31266 -0.19568,0.58704 -1.11698,0.72562 -1.31266,1.31266 0,2.98779 0.3094,0.0375 -0.65633,1.96898 -0.0978,0.19568 0,0.43755 0,0.65633 0,0.65633 0.1079,1.32159 0,1.96899 -0.45524,2.73148 -0.5985,1.13919 -1.31265,3.28164 -0.0692,0.20755 0,0.43755 0,0.65633 -0.21878,0.65632 -0.34694,1.35019 -0.65633,1.96898 -0.35277,0.70553 -0.90682,1.29259 -1.31266,1.96899 -0.50338,0.83897 -0.76994,1.81124 -1.31266,2.62531 -0.17162,0.25743 -0.4847,0.3989 -0.65633,0.65633 -0.27135,0.40704 -0.43755,0.8751 -0.65632,1.31266 -0.21878,0.43755 -0.50163,0.84856 -0.65633,1.31265 -0.0692,0.20755 0.0978,0.46065 0,0.65633 -0.13837,0.27673 -0.43756,0.43755 -0.65633,0.65633 -0.43755,0.43755 -0.96941,0.79779 -1.31266,1.31266 -0.12135,0.18203 0.12136,0.47429 0,0.65633 -0.34324,0.51486 -0.8751,0.8751 -1.31266,1.31265 -0.21877,0.65633 -0.34693,1.3502 -0.65632,1.96899 -0.13837,0.27673 -0.43756,0.43755 -0.65633,0.65633 -0.21878,0.21877 -0.3796,0.51796 -0.65633,0.65633 -0.19568,0.0978 -0.50163,-0.1547 -0.65633,0 -0.34591,0.34591 -0.31041,0.96674 -0.65633,1.31265 -0.1547,0.1547 -0.50163,-0.1547 -0.65633,0 -0.15469,0.1547 0.0978,0.46065 0,0.65633 -0.39379,0.7876 -1.57518,1.18139 -1.96898,1.96899 -0.0978,0.19568 0.19568,0.55849 0,0.65633 -0.39136,0.19567 -0.89756,-0.13837 -1.31266,0 -0.29352,0.0978 -0.43755,0.43755 -0.65633,0.65632 -0.43755,0.43756 -0.79779,0.96942 -1.31265,1.31266 -0.18204,0.12136 -0.46065,-0.0978 -0.65633,0 -0.70553,0.35277 -1.29259,0.90682 -1.96899,1.31266 -0.41948,0.25169 -0.9213,0.36281 -1.31266,0.65633 -0.49503,0.37127 -0.8751,0.8751 -1.31265,1.31265 -0.21878,0.21878 -0.36281,0.55849 -0.65633,0.65633 -0.4151,0.13837 -0.94859,-0.24271 -1.31266,0 -0.40704,0.27136 -0.31041,0.96674 -0.65633,1.31266 -0.34591,0.34591 -0.90562,0.38497 -1.31265,0.65633 -0.25744,0.17162 -0.3989,0.4847 -0.65633,0.65633 -0.40704,0.27135 -0.96674,0.31041 -1.31266,0.65632 -0.1547,0.1547 0.1547,0.50163 0,0.65633 -0.34591,0.34592 -0.96674,0.31042 -1.31266,0.65633 -0.30939,0.3094 0.19568,0.9213 0,1.31266 -0.26995,0.53991 -2.3017,2.1399 -2.62531,2.62531 -0.12136,0.18204 0.0978,0.46065 0,0.65633 -0.13837,0.27673 -0.48471,0.3989 -0.65633,0.65633 -0.27136,0.40704 -0.38497,0.90562 -0.65633,1.31266 -0.37756,0.56634 -1.45633,1.45633 -1.96898,1.96898 -0.21878,0.21878 -0.43755,0.43755 -0.65633,0.65633 -0.21878,0.21878 -0.35617,0.58129 -0.65633,0.65633 -0.63673,0.15918 -1.32159,-0.1079 -1.96898,0 -0.65633,0.21878 -1.31266,0.43755 -1.96899,0.65633 0,0.21877 0.19568,0.55849 0,0.65633 -0.39136,0.19568 -0.8836,-0.0858 -1.31266,0 -0.67839,0.13568 -1.29059,0.52065 -1.96898,0.65632 -0.42906,0.0858 -0.8836,-0.0858 -1.31266,0 -1.72554,0.34511 -3.00728,1.33418 -4.5943,1.96899 -0.64235,0.25694 -1.29781,0.48853 -1.96899,0.65633 -0.42448,0.10612 -0.89755,-0.13837 -1.31265,0 -4.75406,1.58469 1.03477,-0.18922 -1.96899,1.31266 -0.19568,0.0978 -0.46065,-0.0978 -0.65633,0 -0.27673,0.13836 -0.37959,0.51796 -0.65632,0.65632 -0.39136,0.19568 -0.9213,-0.19568 -1.31266,0 -0.27673,0.13837 -0.3796,0.51797 -0.65633,0.65633 -0.39136,0.19568 -1.00326,-0.30939 -1.31266,0 -0.1547,0.1547 0.1547,0.50163 0,0.65633 -0.1547,0.1547 -0.43755,0 -0.65633,0 -1.31265,0 -2.62531,0 -3.93797,0 -2.62531,0 -5.25062,0 -7.87594,0 -0.36633,0 -2.9812,-0.10015 -3.28164,0 -0.29352,0.0978 -0.3796,0.51796 -0.65633,0.65633 -0.34705,0.17352 -2.30556,-0.0799 -2.62531,0 -0.4746,0.11865 -0.84857,0.50163 -1.31266,0.65633 -0.69742,0.23247 -1.92789,-0.23248 -2.62531,0 -0.4641,0.1547 -0.84857,0.50163 -1.31266,0.65633 -0.41195,0.13731 -2.09695,0 -2.62532,0 -2.18776,0 -4.37552,0 -6.56328,0 z"
               style="fill:#c29261;fill-opacity:1;stroke:none" />
          </g>
        </g>
      </g>
      <g
         id="g4641" />
    </g>
  </g>
</svg>
