<?xml version="1.0" encoding="UTF-8" standalone="no"?>
<!-- Created with Inkscape (http://www.inkscape.org/) -->

<svg
   xmlns:dc="http://purl.org/dc/elements/1.1/"
   xmlns:cc="http://creativecommons.org/ns#"
   xmlns:rdf="http://www.w3.org/1999/02/22-rdf-syntax-ns#"
   xmlns:svg="http://www.w3.org/2000/svg"
   xmlns="http://www.w3.org/2000/svg"
   xmlns:sodipodi="http://sodipodi.sourceforge.net/DTD/sodipodi-0.dtd"
   xmlns:inkscape="http://www.inkscape.org/namespaces/inkscape"
   width="400"
   height="400"
   id="svg2"
   version="1.1"
   inkscape:version="0.48.4 r9939"
   sodipodi:docname="hole1.svg"
   style="display:inline">
  <defs
     id="defs4" />
  <sodipodi:namedview
     id="base"
     pagecolor="#ffffff"
     bordercolor="#666666"
     borderopacity="1.0"
     inkscape:pageopacity="0.0"
     inkscape:pageshadow="2"
     inkscape:zoom="2.1547344"
     inkscape:cx="156.88125"
     inkscape:cy="293.43891"
     inkscape:document-units="px"
     inkscape:current-layer="layer1"
     showgrid="false"
     inkscape:window-width="1218"
     inkscape:window-height="1002"
     inkscape:window-x="1592"
     inkscape:window-y="-8"
     inkscape:window-maximized="1"
     inkscape:snap-grids="true">
    <sodipodi:guide
       position="0,0"
       orientation="0,575"
       id="guide3710" />
    <sodipodi:guide
       position="566.51738,256.902"
       orientation="-320,0"
       id="guide3712" />
    <sodipodi:guide
       position="427.76607,199.94731"
       orientation="0,-575"
       id="guide3714" />
    <sodipodi:guide
       position="200.55321,401.10642"
       orientation="320,0"
       id="guide3716" />
  </sodipodi:namedview>
  <metadata
     id="metadata7">
    <rdf:RDF>
      <cc:Work
         rdf:about="">
        <dc:format>image/svg+xml</dc:format>
        <dc:type
           rdf:resource="http://purl.org/dc/dcmitype/StillImage" />
        <dc:title />
      </cc:Work>
    </rdf:RDF>
  </metadata>
  <g
     inkscape:groupmode="layer"
     id="layer2"
     inkscape:label="Warstwa"
     style="display:inline"
     transform="translate(0,-65)">
    <g
       id="g4641"
       transform="translate(-1.7101537,63.408902)" />
  </g>
  <g
     inkscape:groupmode="layer"
     id="layer1"
     inkscape:label="Layer">
    <path
       style="fill:#a67647;fill-opacity:1;stroke:none"
       d="m 185.93843,208.5072 c -0.031,-0.14561 -0.27297,-0.98726 -0.18418,-1.30078 0.0275,-0.097 0.15672,-0.11985 0.18418,-0.2168 0.0388,-0.13711 0,-0.28906 0,-0.43359 0.0614,-0.28906 0.0902,-0.59054 0.18417,-0.86719 0.0322,-0.0949 0.15672,-0.11985 0.18417,-0.2168 0.0388,-0.13711 -0.0241,-0.29187 0,-0.43359 0.0381,-0.22408 0.12279,-0.4336 0.18418,-0.6504 0.0613,-0.21679 0.11208,-0.4382 0.18418,-0.65039 0.10196,-0.30006 0.30175,-0.55365 0.36835,-0.86719 0.0298,-0.14021 -0.0298,-0.29337 0,-0.43359 0.0914,-0.43053 0.46109,-0.87024 0.55252,-1.30078 0.0298,-0.14021 -0.0456,-0.2994 0,-0.4336 0.71578,-2.10638 0.002,0.28573 0.7367,-0.86719 0.0614,-0.21679 0.12279,-0.43359 0.18418,-0.65039 0.0614,0 0.14076,0.0511 0.18418,0 0.0434,-0.0511 -0.0275,-0.15215 0,-0.2168 0.0388,-0.0914 0.13601,-0.13176 0.18417,-0.21679 0.0229,-0.0404 0.35655,-0.85329 0.36835,-0.86719 0.0434,-0.0511 0.1331,0.0401 0.18417,0 0.21252,-0.16677 0.34002,-0.48362 0.55254,-0.65039 0.22844,-0.17927 0.49113,-0.28906 0.73669,-0.4336 0.24557,-0.14452 0.48179,-0.31356 0.7367,-0.43359 0.18026,-0.0848 0.37889,-0.11459 0.55253,-0.2168 0.0776,-0.0457 0.10652,-0.17109 0.18418,-0.2168 0.17364,-0.10219 0.36835,-0.14452 0.55252,-0.21679 0.36836,-0.14453 0.73172,-0.30803 1.10506,-0.4336 0.24338,-0.0818 0.50168,-0.10613 0.7367,-0.21679 0.0806,-0.0379 0.10652,-0.17109 0.18417,-0.2168 1.35369,-0.53114 0.0938,0.0709 0.7367,-0.4336 0.32394,-0.2542 0.5465,-0.25731 0.92088,-0.43359 0.12746,-0.06 0.24557,-0.14453 0.36835,-0.2168 0.12279,-0.0722 0.24557,-0.14453 0.36836,-0.21679 0.12277,-0.0723 0.23373,-0.18511 0.36834,-0.2168 0.1806,-0.0425 0.37193,0.0425 0.55253,0 0.26922,-0.0633 0.47624,-0.33139 0.7367,-0.4336 0.11649,-0.0457 0.25853,0.0647 0.36835,0 0.7665,-0.45112 -0.19689,0.0149 0.18418,-0.43359 0.0434,-0.0511 0.12927,0.0323 0.18417,0 0.0776,-0.0457 0.10653,-0.17109 0.18418,-0.2168 0.0549,-0.0323 0.12926,0.0323 0.18417,0 0.14777,-0.087 0.22059,-0.34662 0.36836,-0.43359 0.0549,-0.0323 0.12278,0 0.18417,0 0.12278,-0.0723 0.25413,-0.12716 0.36835,-0.2168 0.0722,-0.0567 0.10181,-0.18447 0.18418,-0.2168 0.11648,-0.0457 0.25186,0.0457 0.36835,0 0.16473,-0.0647 0.21304,-0.34218 0.36835,-0.43359 0.0549,-0.0323 0.14077,0.0511 0.18417,0 0.0434,-0.0511 -0.0549,-0.18448 0,-0.2168 0.36836,-0.21679 0.27627,0.10841 0.55253,0 0.13024,-0.0511 0.24089,-0.15678 0.36835,-0.21679 0.18025,-0.0849 0.37227,-0.13193 0.55253,-0.2168 0.25491,-0.12002 0.50127,-0.26731 0.7367,-0.4336 0.18981,-0.13405 0.35455,-0.31706 0.55253,-0.43359 0.18417,-0.0722 0.36834,-0.14453 0.55252,-0.2168 0.0614,0 0.12594,0.0229 0.18418,0 0.13023,-0.0511 0.24089,-0.15678 0.36835,-0.21679 0.18025,-0.0848 0.37888,-0.11459 0.55252,-0.2168 0.0776,-0.0457 0.14535,-0.12539 0.18418,-0.2168 0.0275,-0.0647 -0.0549,-0.18447 0,-0.2168 0.10982,-0.0647 0.24557,0 0.36835,0 0.12278,0 0.24557,0 0.36835,0 0.36835,0 0.7367,0 1.10505,0 0.19986,0 0.64107,0.12093 0.7367,-0.21679 0.0388,-0.13711 0.0388,-0.29648 0,-0.4336 -0.0129,-0.0457 -0.50192,-0.61068 -0.55252,-0.65039 -0.11422,-0.0896 -0.24557,-0.14453 -0.36835,-0.2168 -0.12278,-0.0722 -0.23812,-0.16569 -0.36835,-0.21679 -0.0583,-0.0229 -0.12927,0.0323 -0.18418,0 -0.0776,-0.0457 -0.10652,-0.17109 -0.18417,-0.2168 -0.17365,-0.1022 -0.37889,-0.11459 -0.55253,-0.2168 -0.19798,-0.11652 -0.34701,-0.33682 -0.55253,-0.43359 -0.114,-0.0537 -0.24923,0.035 -0.36835,0 -1.04348,-0.61415 0.27455,0.0808 -0.7367,-0.2168 -0.26636,-0.0784 -0.47623,-0.33139 -0.7367,-0.43359 -0.10724,-0.042 -0.97833,0 -1.10505,0 -0.42974,0 -0.85949,0 -1.28923,0 -0.18418,0 -0.37385,0.0526 -0.55252,0 -0.0842,-0.0248 -0.10653,-0.17109 -0.18418,-0.2168 -0.0549,-0.0323 -0.12594,0.0229 -0.18418,0 -0.13023,-0.0511 -0.23812,-0.16569 -0.36835,-0.2168 -0.0583,-0.0229 -0.12278,0 -0.18418,0 -0.12278,0 -0.24556,0 -0.36834,0 -0.49114,0 -0.98228,0 -1.47341,0 -0.30696,0 -0.61392,0 -0.92088,0 -0.12278,0 -0.24556,0 -0.36835,0 -0.0613,0 -0.12461,-0.0176 -0.18417,0 -0.18834,0.0554 -0.36216,0.17199 -0.55253,0.2168 -0.12039,0.0283 -0.24557,0 -0.36835,0 -0.0614,0 -0.12927,-0.0323 -0.18417,0 -0.19798,0.11653 -0.34701,0.33683 -0.55253,0.43359 -0.114,0.0537 -0.24557,0 -0.36835,0 -0.12278,0 -0.24557,0 -0.36835,0 -0.59285,0 0.31441,-0.0511 -0.36835,0.2168 -0.22165,0.087 -0.51506,-0.087 -0.7367,0 -0.0824,0.0323 -0.11194,0.16011 -0.18418,0.2168 -0.93042,0.73014 -0.004,0.002 -0.55252,0.2168 -0.40654,0.15951 -0.33018,0.27408 -0.73671,0.43359 -0.16575,0.065 -0.38677,-0.065 -0.55252,0 -0.16473,0.0647 -0.21305,0.34218 -0.36836,0.43359 -0.073,0.043 -0.51487,-0.0443 -0.55252,0 -0.0434,0.0511 0.0275,0.15217 0,0.2168 -0.20361,0.47936 -0.11431,0.0673 -0.36835,0.2168 -0.19799,0.11653 -0.347,0.33683 -0.55252,0.43359 -0.11401,0.0537 -0.24924,-0.035 -0.36836,0 -0.27567,0.0811 -0.72281,0.53382 -0.92087,0.65039 -0.34729,0.20441 -0.75777,0.2292 -1.10506,0.4336 -0.19798,0.11653 -0.36272,0.29954 -0.55252,0.43359 -0.23543,0.16628 -0.50826,0.25433 -0.73671,0.4336 -0.14447,0.11338 -0.24556,0.28906 -0.36834,0.43359 -0.0614,0.0722 -0.14535,0.12539 -0.18418,0.2168 -0.0549,0.12927 0.0549,0.30433 0,0.43359 -0.0388,0.0914 -0.13602,0.13177 -0.18418,0.2168 -0.40576,0.10918 -0.0974,0.446 -0.18417,0.65039 -0.099,0.23305 -0.26936,0.41735 -0.36835,0.65039 -0.0275,0.0647 0.0275,0.15217 0,0.2168 -0.0388,0.0914 -0.12279,0.14454 -0.18417,0.2168 -0.12279,0.21679 -0.26937,0.41735 -0.36836,0.65039 -0.0275,0.0647 0.0275,0.15216 0,0.2168 -0.0388,0.0914 -0.15672,0.11984 -0.18418,0.21679 -0.0388,0.13712 0.0388,0.29649 0,0.4336 -0.0275,0.0969 -0.15671,0.11984 -0.18417,0.21679 -0.0569,0.20086 0.0588,0.87626 0,1.08399 -0.13454,0.4751 -0.23381,0.39209 -0.36835,0.86719 -0.0517,0.18253 0.0548,0.95491 0,1.08398 -0.0388,0.0914 -0.16312,0.11766 -0.18417,0.2168 -0.0447,0.21033 0,0.4336 0,0.65039 0,0.4336 0,0.86719 0,1.30079 0,0.93945 0,1.87891 0,2.81836 0,0.79493 0,1.58985 0,2.38477 0,0.19375 -0.0294,1.0149 0,1.08398 0.0388,0.0914 0.12278,0.14454 0.18417,0.2168 0.0614,0.0723 0.10652,0.1711 0.18418,0.2168 0.0549,0.0323 0.14076,-0.0511 0.18417,0 0.0614,0.0723 -0.0614,0.36124 0,0.43359 0.0434,0.0511 0.14077,-0.0511 0.18417,0 0.0434,0.0511 -0.0275,0.15217 0,0.2168 0.0245,0.0576 0.50363,0.62162 0.55254,0.65039 0.0549,0.0323 0.12277,0 0.18417,0 0.30696,0.28907 0.61391,0.57813 0.92088,0.86719 z"
       id="path3002"
       inkscape:connector-curvature="0" />
    <path
       style="fill:#c29261;fill-opacity:1;stroke:none"
       d="m 185.75425,211.10877 c 0.0614,0.36133 0.0679,0.74186 0.18418,1.08398 0.0228,0.0671 0.14076,-0.0511 0.18417,0 0.19413,0.22853 0.17421,0.63867 0.36835,0.86719 0.0971,0.11427 0.27128,0.10254 0.36835,0.2168 0.0971,0.11427 0.0871,0.31933 0.18418,0.43359 0.0971,0.11427 0.25064,0.13366 0.36835,0.2168 0.4324,0.3054 0.49987,0.45217 0.92087,0.65039 1.37833,0.64899 -0.49055,-0.33701 1.47341,0.43359 0.0824,0.0323 0.11472,0.15549 0.18418,0.2168 0.17707,0.15634 0.347,0.33683 0.55252,0.4336 0.114,0.0537 0.24795,-0.0283 0.36835,0 0.19037,0.0448 0.36586,0.15402 0.55252,0.21679 0.78604,0.26437 0.80306,0.21007 1.65759,0.4336 0.24709,0.0647 0.49113,0.14454 0.7367,0.2168 0.30695,0.14453 0.60014,0.3392 0.92087,0.43359 0.17868,0.0526 0.37021,-0.0306 0.55253,0 0.25058,0.0421 0.48702,0.16782 0.7367,0.2168 0.30279,0.0594 0.6181,-0.0594 0.92088,0 0.1915,0.0376 0.36216,0.17198 0.55252,0.21679 0.1204,0.0283 0.24557,0 0.36835,0 0.18418,0.0723 0.36217,0.17199 0.55253,0.2168 0.1204,0.0283 0.24557,0 0.36835,0 0.36881,0 0.73624,0 1.10505,0 0.92088,0 1.84176,0 2.76264,0 0.49113,0 0.98227,0 1.4734,0 0.21119,0 0.54591,0.0562 0.7367,0 0.88937,-0.26172 -0.009,-0.10302 0.55253,-0.43359 0.0549,-0.0323 0.12593,0.0229 0.18417,0 0.13024,-0.0511 0.23812,-0.1657 0.36835,-0.2168 0.15007,-0.0589 0.94206,0.0274 1.10505,0 0.25059,-0.0421 0.48702,-0.16781 0.73671,-0.2168 0.12111,-0.0237 0.24923,0.035 0.36835,0 0.26635,-0.0784 0.46748,-0.3702 0.7367,-0.43359 0.0799,-0.0188 1.06362,0.0195 1.10505,0 0.16123,-0.076 0.21304,-0.34219 0.36835,-0.4336 0.10983,-0.0647 0.24924,0.035 0.36836,0 0.13317,-0.0391 0.23517,-0.1776 0.36834,-0.21679 0.11912,-0.035 0.24923,0.035 0.36835,0 0.13318,-0.0391 0.23375,-0.18511 0.36836,-0.2168 0.18059,-0.0425 0.38152,0.0805 0.55252,0 0.16123,-0.076 0.20713,-0.35768 0.36835,-0.4336 0.171,-0.0805 0.37086,0.0357 0.55253,0 0.45375,-0.089 0.88391,-0.41184 1.28923,-0.65039 0.12278,-0.0722 0.27128,-0.10252 0.36835,-0.21679 0.0971,-0.11426 0.0871,-0.31933 0.18417,-0.4336 0.0434,-0.0511 0.14077,0.0511 0.18417,0 0.0434,-0.0511 -0.0434,-0.16569 0,-0.2168 0.38107,-0.44855 -0.0149,0.68547 0.36836,-0.21679 0.0549,-0.12927 -0.0549,-0.30432 0,-0.4336 0.0388,-0.0914 0.13602,-0.13176 0.18418,-0.21679 0.0761,-0.13445 0.10181,-0.30432 0.18417,-0.4336 0.10419,-0.16351 0.27203,-0.26352 0.36835,-0.43359 0.034,-0.0602 -0.0194,-0.14824 0,-0.2168 0.44469,-1.57034 -0.0531,0.34181 0.36835,-0.65039 0.0275,-0.0647 0,-0.14453 0,-0.2168 0,-0.25607 -0.0365,-1.17185 0,-1.30078 0.0275,-0.097 0.14535,-0.12539 0.18418,-0.2168 0.0275,-0.0647 0,-0.14453 0,-0.2168 0,-0.14452 -0.0298,-0.29337 0,-0.43359 0.0333,-0.15676 0.14076,-0.28029 0.18418,-0.43359 0.0333,-0.11733 0,-0.79333 0,-0.86719 0,-0.57813 0,-1.15625 0,-1.73438 0,-0.22509 -0.039,-0.68365 0,-0.86719 0.0471,-0.22169 0.14609,-0.4263 0.18416,-0.65039 0.0366,-0.21513 0,-0.85621 0,-1.08399 0,-0.57812 0,-1.15624 0,-1.73437 0,-0.36133 0,-0.72265 0,-1.08399 0,-0.2168 0,-0.43359 0,-0.65039 0,-0.0722 0.0149,-0.14669 0,-0.2168 -0.0599,-0.28205 -0.21592,-0.81485 -0.36834,-1.08398 -0.0482,-0.085 -0.15673,-0.11985 -0.18418,-0.2168 -0.0388,-0.13711 0.0549,-0.30432 0,-0.4336 -0.0275,-0.0647 -0.15672,0.0647 -0.18418,0 -0.0549,-0.12926 0.0388,-0.29647 0,-0.43359 -0.0275,-0.0969 -0.14534,-0.12539 -0.18417,-0.2168 -0.0275,-0.0646 0.0275,-0.15215 0,-0.21679 -0.0388,-0.0914 -0.14535,-0.12539 -0.18418,-0.2168 -0.0275,-0.0647 0.0275,-0.15216 0,-0.2168 -0.0388,-0.0914 -0.13601,-0.13176 -0.18417,-0.2168 -0.0761,-0.13444 -0.10803,-0.29913 -0.18417,-0.43359 -0.0482,-0.085 -0.14535,-0.12539 -0.18418,-0.2168 -0.0549,-0.12926 0.0868,-0.33139 0,-0.43359 -0.38107,-0.44856 0.0149,0.68547 -0.36836,-0.2168 -0.0275,-0.0647 0.0195,-0.14824 0,-0.2168 -0.0434,-0.15329 -0.14076,-0.28029 -0.18417,-0.43359 -0.0762,-0.26913 0.1512,-0.23621 -0.18417,-0.43359 -0.0549,-0.0323 -0.14077,0.0511 -0.18418,0 -0.0434,-0.0511 0.0275,-0.15216 0,-0.2168 -0.0388,-0.0914 -0.14534,-0.12539 -0.18417,-0.2168 -0.0275,-0.0647 0.0434,-0.16569 0,-0.2168 -0.0971,-0.11426 -0.27129,-0.10252 -0.36836,-0.21679 -0.0434,-0.0511 0.0434,-0.1657 0,-0.2168 -0.0971,-0.11426 -0.27127,-0.10253 -0.36834,-0.2168 -0.0434,-0.0511 0.0434,-0.16569 0,-0.21679 -0.0434,-0.0511 -0.14077,0.0511 -0.18418,0 -0.0434,-0.0511 0.0434,-0.1657 0,-0.2168 -0.0434,-0.0511 -0.14076,0.0511 -0.18418,0 -0.0868,-0.1022 0.0868,-0.33139 0,-0.4336 -0.0971,-0.11426 -0.27128,-0.10252 -0.36835,-0.21679 -0.0434,-0.0511 0.0275,-0.15216 0,-0.2168 -0.1105,-0.26016 -0.44201,-0.39023 -0.55252,-0.65039 -0.0275,-0.0647 0.0434,-0.16569 0,-0.2168 -0.0434,-0.0511 -0.14077,0.0511 -0.18418,0 -0.0434,-0.0511 0.0434,-0.16569 0,-0.2168 -0.0434,-0.0511 -0.12278,0 -0.18418,0 -0.41609,0 0.0824,0.0323 -0.55252,-0.21679 -0.11648,-0.0457 -0.24557,0 -0.36835,0 -0.0614,0 -0.14077,-0.0511 -0.18418,0 -0.13585,0.15992 0.30415,1.07405 0.36835,1.30078 0.0388,0.13712 -0.0549,0.30433 0,0.43359 0.0388,0.0914 0.14535,0.12539 0.18418,0.2168 0.0737,0.17344 -0.0737,0.47696 0,0.65039 0.0388,0.0914 0.12278,0.14454 0.18418,0.2168 0.0614,0.0722 0.14535,0.12539 0.18417,0.2168 0.0549,0.12927 -0.0549,0.30433 0,0.43359 0.0776,0.18282 0.2907,0.25078 0.36835,0.4336 0.0275,0.0647 -0.0275,0.15216 0,0.21679 0.0388,0.0914 0.15673,0.11985 0.18418,0.2168 0.0583,0.20568 0,0.43359 0,0.65039 0,0.36134 0,0.72266 0,1.08399 0,1.22852 0,2.45704 0,3.68555 0,0.43359 0,0.86719 0,1.30078 0,0.0722 0,0.14454 0,0.2168 0,0.0722 -0.0275,0.15216 0,0.2168 0.0388,0.0914 0.14534,0.12538 0.18417,0.21679 0.028,0.066 0,0.55276 0,0.6504 0,0.43359 0,0.86718 0,1.30078 0,0.1497 0.028,0.80128 0,0.86719 -0.0388,0.0914 -0.14534,0.12538 -0.18417,0.21679 -0.0737,0.17344 0.0736,0.47696 0,0.6504 -0.0388,0.0914 -0.13602,0.13177 -0.18418,0.21679 -0.0971,0.17156 -0.49832,1.10939 -0.55252,1.30079 -0.0194,0.0686 0.0275,0.15216 0,0.21679 -0.0388,0.0914 -0.14535,0.12539 -0.18418,0.2168 -0.0275,0.0647 0,0.14454 0,0.2168 -0.0614,0.0722 -0.14535,0.12538 -0.18418,0.21679 -0.0275,0.0647 0.0434,0.16571 0,0.2168 -0.0434,0.0511 -0.14076,-0.0511 -0.18417,0 -0.0434,0.0511 0.0434,0.1657 0,0.2168 -0.0434,0.0511 -0.15672,-0.0647 -0.18418,0 -0.0549,0.12927 0.0549,0.30433 0,0.43359 -0.0275,0.0647 -0.12926,-0.0323 -0.18417,0 -0.0776,0.0457 -0.10652,0.1711 -0.18417,0.2168 -0.0549,0.0323 -0.12927,-0.0323 -0.18418,0 -0.15531,0.0914 -0.21305,0.34218 -0.36836,0.43359 -0.073,0.043 -0.51487,-0.0443 -0.55252,0 -0.0971,0.11427 -0.0871,0.31934 -0.18417,0.4336 -0.0971,0.11427 -0.25414,0.12717 -0.36836,0.2168 -0.0722,0.0567 -0.10652,0.17109 -0.18417,0.21679 -0.0549,0.0323 -0.12927,-0.0323 -0.18417,0 -0.0776,0.0457 -0.11194,0.16011 -0.18418,0.2168 -0.12279,0.0723 -0.24557,0.14454 -0.36835,0.2168 -0.0614,0 -0.12927,-0.0323 -0.18418,0 -0.8429,0.4961 0.78153,-0.0899 -0.55252,0.43359 -0.11648,0.0457 -0.25853,-0.0647 -0.36836,0 -0.0776,0.0457 -0.10652,0.1711 -0.18417,0.2168 -0.0549,0.0323 -0.12593,-0.0229 -0.18417,0 -0.13023,0.0511 -0.23812,0.1657 -0.36836,0.2168 -0.10391,0.0407 -0.4315,0 -0.55252,0 -0.36835,0 -0.73671,0 -1.10505,0 -0.73671,0 -1.47341,0 -2.21011,0 -0.15056,0 -1.19588,-0.0366 -1.28923,0 -0.0824,0.0323 -0.099,0.19675 -0.18417,0.21679 -0.2408,0.0567 -0.49114,0 -0.7367,0 -0.24557,0 -0.49114,0 -0.73671,0 -0.7367,0 -1.4734,0 -2.2101,0 -0.099,0 -1.35835,-0.0451 -1.4734,0 -0.0824,0.0323 -0.10182,0.18449 -0.18418,0.2168 -0.0895,0.0351 -1.10119,0 -1.28923,0 -0.7367,0 -1.4734,0 -2.2101,0 -1.16645,0 -2.33289,0 -3.49933,0 -0.36836,0 -0.7367,0 -1.10506,0 -0.12102,0 -0.44861,0.0407 -0.55252,0 -1.45877,-0.57237 1.61431,0.24997 -1.28923,-0.43359 z"
       id="path3008"
       inkscape:connector-curvature="0" />
  </g>
</svg>
