<?xml version="1.0" encoding="UTF-8" standalone="no"?>
<!-- Created with Inkscape (http://www.inkscape.org/) -->
<svg
   xmlns:svg="http://www.w3.org/2000/svg"
   xmlns="http://www.w3.org/2000/svg"
   version="1.0"
   width="744.09448"
   height="1052.3622"
   id="svg2">
  <defs
     id="defs4" />
  <g
     id="layer1">
    <rect
       width="137.14285"
       height="82.85714"
       x="31.428572"
       y="52.362183"
       id="rect2427"
       style="fill:#ffff00" />
    <rect
       width="134.28572"
       height="87.142853"
       x="68.571426"
       y="67.362183"
       id="rect2429"
       style="fill:#ff0000" />
    <path
       d="M 48.955621,166.16452 C 50.396017,162.12957 50.691711,157.70915 51.247639,153.48443 C 52.948985,143.29979 54.579491,133.05823 57.283409,123.07891 C 57.76162,121.31398 58.319338,119.57156 58.837302,117.81789 C 59.327658,116.37003 59.796824,114.91483 60.308371,113.47433 C 60.643013,112.53198 61.829285,109.26329 62.48812,108.10911 C 63.508928,106.3208 68.473787,106.06769 68.602747,106.08715 C 69.352913,106.20035 68.83317,107.58687 68.948381,108.33673 C 69.192353,119.48965 69.040073,130.64845 69.193253,141.80465 C 69.459513,145.04367 69.20425,148.45019 70.021484,151.63857 C 70.09632,151.93053 70.678647,152.30642 70.415076,152.45262 C 64.422842,155.77646 66.027608,154.00198 67.219606,150.45519 C 70.3139,136.66146 71.449838,122.52083 72.705985,108.46739 C 73.560893,100.98947 74.213021,93.488305 75.080411,86.011889 C 75.071811,84.028408 74.988788,84.290581 80.230412,84.201401 C 80.716824,84.193125 80.240053,85.174337 80.239479,85.660819 C 80.23706,87.710554 80.214721,89.759631 80.22235,91.809453 C 80.324599,92.631386 80.371538,93.628306 80.697206,94.428214 C 80.767876,94.601795 80.839565,94.83985 81.020662,94.888104 C 81.164258,94.926365 81.503262,94.548895 81.36627,94.606487 C 80.02154,95.171808 78.841068,96.435234 77.382446,96.417602 C 76.632183,96.408533 78.243377,95.188494 78.673842,94.57394 C 82.552158,88.189777 86.348308,81.942206 91.08131,76.141668 C 93.410051,73.668486 98.208339,68.183314 101.6488,69.564345 C 102.6217,69.954872 103.69888,71.242597 104.37002,71.939022 C 107.3876,76.557559 110.85523,80.816434 114.76104,84.707461 C 116.54576,86.401528 118.68264,87.618679 120.76712,88.891377 C 125.13701,91.559457 120.76407,94.407245 116.4212,91.695408 L 116.4212,91.695408 C 114.32543,90.386744 112.1756,89.133603 110.41137,87.373714 C 106.51162,83.47939 103.1922,79.084215 99.863524,74.704158 C 99.179491,74.061473 98.260418,72.997768 97.258528,72.732304 C 96.865662,72.628209 95.74842,73.071011 96.040552,72.788454 C 96.931419,71.926783 98.039031,71.250227 99.210182,70.844611 C 100.74807,70.311979 93.225709,74.927905 95.660616,74.197182 C 93.638782,76.554371 93.067076,77.116792 91.207411,79.749534 C 88.339515,83.809634 85.907713,88.15851 83.452074,92.472468 C 81.468938,95.903206 82.427707,94.879812 76.84691,97.915592 C 76.643742,98.026109 76.366763,97.82859 76.197692,97.670773 C 75.38497,96.91215 75.824738,95.06022 75.555227,94.188408 C 75.556305,92.16778 75.556447,90.14734 75.443596,88.128956 C 75.418153,87.673891 75.006897,87.078589 75.338296,86.765688 C 76.770712,85.413226 78.66156,84.648344 80.295533,83.547844 C 80.3839,83.488327 80.090374,83.60541 79.987795,83.634193 C 79.379888,85.76657 79.012623,87.948622 78.650901,90.135578 C 77.743222,95.623366 77.034944,101.14109 76.342399,106.65931 C 74.846551,120.55645 73.814169,134.50888 71.674953,148.32875 C 70.783157,152.96783 71.699927,152.43364 65.601805,155.09949 C 65.277831,155.24112 65.425283,154.41186 65.390676,154.05998 C 65.056903,150.66623 65.286564,147.22475 65.225768,143.82617 C 65.375365,132.81931 65.554994,121.75142 64.33746,110.79564 C 63.449935,106.92107 63.416813,109.5252 68.207821,105.43299 C 68.497986,105.18514 67.443046,105.6836 67.201728,105.97921 C 66.678534,106.62012 66.352731,107.40195 65.992492,108.14675 C 64.710646,110.79698 63.920004,113.12303 62.869482,115.91287 C 62.302781,117.68178 61.684254,119.43491 61.16938,121.21959 C 58.33208,131.05438 56.725119,141.2228 55.511766,151.36803 C 55.072057,156.91757 55.357664,153.82629 54.852819,158.54441 C 54.712178,159.8588 54.655679,161.18343 54.456617,162.49026 C 54.391579,162.91723 54.218646,163.35428 54.072404,163.76149 C 52.180898,169.02828 47.074191,171.43492 48.955621,166.16452 z"
       id="path2431"
       style="fill:#800000" />
    <path
       d="M 59.631224,101.25696 C 61.341929,99.929811 58.376983,102.25542 55.716757,103.34597 C 55.367334,103.48922 56.212545,102.77366 56.42293,102.46004 C 56.837331,101.84231 57.204557,101.19415 57.587914,100.55668 C 63.162065,91.287634 54.732574,105.19682 61.710698,93.705135 C 66.640584,85.369798 71.728759,77.087723 77.742044,69.476804 C 78.827364,68.103132 79.990136,66.792467 81.114182,65.450298 C 84.11449,62.444264 86.944757,58.92545 90.752344,56.86958 C 96.819245,53.593816 94.721351,52.755041 97.611857,54.439853 C 97.81354,55.009391 98.099261,55.555838 98.216906,56.148467 C 98.412418,57.133351 98.449662,58.143281 98.545453,59.142803 C 98.930385,63.159355 98.889561,63.535529 99.173905,67.905451 C 99.694607,75.90781 99.457902,72.791355 100.31846,81.240714 C 101.58875,91.271233 102.843,101.45562 106.26037,111.03331 C 106.62439,112.05354 107.08466,113.03682 107.4968,114.03857 C 108.21159,115.166 109.26973,117.38936 111.05541,117.10795 C 111.53046,117.03309 112.78332,116.26481 112.36339,116.49917 C 111.52464,116.96727 110.36415,118.58552 109.79726,117.81012 C 109.23707,117.04389 111.28401,116.62977 112.02739,116.03959 C 114.55511,113.90763 117.10979,111.80846 119.65374,109.69598 C 120.04737,109.36912 122.63409,107.20927 123.27945,106.81028 C 125.17696,105.63716 127.1419,104.57677 129.07312,103.46001 C 129.41903,103.48571 129.82353,103.34278 130.11087,103.53709 C 131.25408,104.31018 131.80796,107.39061 132.18264,108.59069 C 132.78824,110.53035 132.99106,110.98834 133.70593,112.89188 C 135.0078,115.91933 136.26886,118.685 139.31145,120.22475 C 139.60794,120.28785 139.89859,120.39199 140.20092,120.41406 C 140.89712,120.46487 142.00236,120.22385 142.62902,120.15439 C 145.25506,119.86336 147.89565,119.65213 150.52611,119.40235 C 151.34226,119.35438 152.15837,119.21113 152.97456,119.25844 C 157.57603,119.52518 159.31968,123.11555 161.15641,126.72955 C 161.72498,128.00994 162.28575,129.29382 162.86213,130.57071 C 164.30402,133.76498 165.2051,135.79123 166.89688,138.88395 C 168.92217,142.58636 171.27288,146.0679 173.6296,149.56159 C 174.80041,150.60266 176.14138,153.96124 178.26199,153.69215 C 178.81933,153.62142 180.34214,153.01352 179.78244,152.96488 C 177.41455,152.7591 175.37206,155.96777 179.8362,150.99904 C 187.82601,141.53796 195.12609,131.5209 202.25499,121.40375 C 205.22156,117.13649 207.97709,112.73133 210.56864,108.22835 C 211.0391,107.41089 211.48834,106.58133 211.95956,105.76432 C 212.25133,105.25844 212.39301,104.61396 212.85746,104.25995 C 214.47742,103.0252 216.34243,102.15032 218.08492,101.0955 C 218.29167,101.51827 218.59274,101.90681 218.70516,102.3638 C 218.93111,103.28218 218.74629,105.20395 218.67152,106.05547 C 218.44686,108.61407 218.15626,111.1657 217.94291,113.72592 C 217.78274,115.7025 217.67036,117.68204 217.57321,119.66249 C 217.31514,124.92303 212.40377,127.2981 212.8174,122.0475 L 212.8174,122.0475 C 212.97583,120.03638 213.1337,118.02501 213.34392,116.01843 C 213.54543,113.85687 213.63218,113.02361 213.79831,110.83993 C 213.95386,108.79529 214.31266,106.59258 213.7691,104.57973 C 215.08169,103.76464 216.2297,102.58752 217.70686,102.13444 C 218.32774,101.94401 216.9337,103.17881 216.57387,103.71945 C 213.03316,109.03939 209.83817,114.59255 206.05448,119.75291 C 199.05688,129.69498 191.91755,139.54706 184.37255,149.08293 C 180.95756,153.14382 181.93048,152.45854 175.59358,156.23435 C 175.0607,156.55186 174.41057,156.73685 173.79146,156.69841 C 171.67085,156.56676 170.59822,153.1897 169.40602,152.02788 C 167.19366,148.43704 164.90961,144.87813 162.86613,141.18669 C 160.41629,136.76122 160.92277,137.36902 158.71667,132.92167 C 158.10046,131.67944 157.44733,130.45586 156.81266,129.22295 C 154.0321,124.45124 152.45576,121.8716 146.43878,122.43175 C 144.32854,122.63376 143.00979,122.74423 140.90118,123.0101 C 138.87867,123.26511 136.71175,123.98153 134.72992,123.21326 C 131.63393,121.37411 130.57323,118.60914 129.1664,115.41486 C 128.60712,113.93506 128.08794,112.60493 127.58638,111.10428 C 127.30596,110.26526 126.61292,107.23026 125.65282,106.773 C 125.41886,106.66158 125.1366,106.81897 124.8785,106.84196 C 125.97008,106.18637 126.9987,105.4122 128.15325,104.87518 C 128.79881,104.57491 126.98664,105.69241 126.42082,106.12457 C 123.09177,108.66723 119.93897,111.44599 116.73745,114.14329 C 113.26942,117.07188 113.85351,116.77566 108.12512,119.79886 C 107.65504,120.04694 107.10683,120.19383 106.57562,120.17533 C 104.68039,120.10932 103.8094,117.77562 103.15156,116.44901 C 99.635512,105.66253 98.095824,94.368702 96.680409,83.147225 C 95.533996,74.228505 96.029655,78.390665 95.097133,70.026996 C 94.683046,66.313104 94.490698,62.385044 93.539724,58.74724 C 93.422326,58.298152 93.192243,57.886365 93.018503,57.455927 C 91.014209,56.636919 92.472424,57.457373 95.662724,54.981593 C 96.213668,54.554042 94.411295,55.60593 93.831807,55.993916 C 90.6333,58.135423 87.945016,60.963036 85.266621,63.691115 C 84.09732,65.043599 82.886367,66.361164 81.758719,67.748568 C 75.695486,75.208476 70.763325,83.463894 66.010105,91.794356 C 64.220242,94.96372 63.904996,95.448511 62.358592,98.42382 C 62.039225,99.038288 61.755423,99.671024 61.42873,100.28163 C 61.252718,100.6106 61.152952,101.02076 60.851513,101.24062 C 57.231738,103.88081 57.359693,103.80156 55.167136,104.72509 C 50.009823,106.89743 55.209635,104.68719 59.631224,101.25696 z"
       id="path2433"
       style="fill:#800000" />
  </g>
</svg>
